<?xml version="1.0" encoding="utf-8"?>
<!-- Generator: Adobe Illustrator 17.0.0, SVG Export Plug-In . SVG Version: 6.00 Build 0)  -->
<!DOCTYPE svg PUBLIC "-//W3C//DTD SVG 1.1//EN" "http://www.w3.org/Graphics/SVG/1.1/DTD/svg11.dtd">
<svg version="1.1" id="Capa_1" xmlns="http://www.w3.org/2000/svg" xmlns:xlink="http://www.w3.org/1999/xlink" x="0px" y="0px"
	 width="30.368px" height="30.367px" viewBox="0 0 30.368 30.367" enable-background="new 0 0 30.368 30.367" xml:space="preserve">
<path d="M15.951,27.756v2.611c3.391-0.171,6.488-1.449,8.936-3.48l-1.859-1.858C21.063,26.593,18.624,27.595,15.951,27.756z
	 M24.174,24.001l1.843,1.844c2.532-2.574,4.158-6.042,4.351-9.895h-2.61C27.568,19.081,26.235,21.9,24.174,24.001z M25.578,4.106
	C23.034,1.717,19.674,0.186,15.951,0v2.611c3.003,0.181,5.712,1.419,7.784,3.338L25.578,4.106z M27.757,14.414h2.61
	c-0.176-3.521-1.554-6.716-3.722-9.208l-1.843,1.846C26.505,9.062,27.588,11.614,27.757,14.414z M2.61,15.95H0
	c0.186,3.722,1.717,7.081,4.105,9.625l1.843-1.844C4.032,21.662,2.793,18.953,2.61,15.95z M5.211,26.644
	c2.488,2.167,5.685,3.545,9.207,3.724v-2.611c-2.802-0.172-5.353-1.254-7.364-2.955L5.211,26.644z M5.34,7.338L3.48,5.48
	C1.449,7.928,0.168,11.022,0,14.414h2.61C2.771,11.742,3.771,9.302,5.34,7.338z M6.365,6.192c2.101-2.06,4.919-3.395,8.052-3.581V0
	c-3.853,0.193-7.323,1.818-9.896,4.352L6.365,6.192z M13.768,8.392l-1.962,1.962H8.109l-1.96-1.962H13.768z M13.768,21.594h-7.62
	l1.96-1.959h3.697L13.768,21.594z M12.051,14.013l0.981,0.982l-0.981,0.98H7.864l-0.979-0.98l0.979-0.982
	C7.864,14.013,12.051,14.013,12.051,14.013z M12.166,13.385v-2.67l1.962-1.936v5.102l-0.736,0.754L12.166,13.385z M14.127,16.105
	v5.099l-1.962-1.96v-2.653l1.226-1.221L14.127,16.105z M16.333,13.879V8.763l1.962,1.936v2.68l-1.227,1.257L16.333,13.879z
	 M18.295,16.599v2.665l-1.962,1.962v-5.12l0.736-0.735L18.295,16.599z M24.329,8.392l-1.961,1.962h-3.696L16.71,8.392H24.329z
	 M24.329,21.594H16.71l1.961-1.959h3.696L24.329,21.594z M22.727,13.385v-2.67l1.962-1.936v5.102l-0.736,0.754L22.727,13.385z
	 M24.689,16.105v5.099l-1.962-1.96v-2.653l1.226-1.221L24.689,16.105z"/>
</svg>
