<?xml version="1.0" encoding="utf-8"?>
<!-- Generator: Adobe Illustrator 16.0.0, SVG Export Plug-In . SVG Version: 6.00 Build 0)  -->
<!DOCTYPE svg PUBLIC "-//W3C//DTD SVG 1.1//EN" "http://www.w3.org/Graphics/SVG/1.1/DTD/svg11.dtd">
<svg version="1.1" id="Capa_1" xmlns="http://www.w3.org/2000/svg" xmlns:xlink="http://www.w3.org/1999/xlink" x="0px" y="0px"
	 width="30.367px" height="30.367px" viewBox="0 0 30.367 30.367" enable-background="new 0 0 30.367 30.367" xml:space="preserve">
<g>
	<g>
		<g>
			<path fill="#2D2D2D" d="M15.95,27.755v2.611c3.392-0.173,6.489-1.449,8.937-3.48l-1.859-1.859
				C21.062,26.593,18.623,27.593,15.95,27.755z"/>
		</g>
		<g>
			<path fill="#2D2D2D" d="M24.173,24.001l1.843,1.845c2.532-2.574,4.159-6.042,4.352-9.896h-2.61
				C27.566,19.082,26.234,21.9,24.173,24.001z"/>
		</g>
		<g>
			<path fill="#2D2D2D" d="M25.578,4.104C23.033,1.717,19.674,0.185,15.95,0v2.61c3.004,0.183,5.714,1.421,7.784,3.337L25.578,4.104
				z"/>
		</g>
		<g>
			<path fill="#2D2D2D" d="M27.756,14.413h2.61c-0.177-3.521-1.554-6.716-3.722-9.206l-1.843,1.844
				C26.504,9.063,27.586,11.615,27.756,14.413z"/>
		</g>
		<g>
			<path fill="#2D2D2D" d="M2.61,15.949H0c0.186,3.725,1.717,7.08,4.105,9.625l1.843-1.844C4.031,21.664,2.792,18.951,2.61,15.949z"
				/>
		</g>
		<g>
			<path fill="#2D2D2D" d="M5.21,26.645c2.488,2.165,5.685,3.543,9.206,3.722v-2.609c-2.801-0.172-5.352-1.256-7.363-2.957
				L5.21,26.645z"/>
		</g>
		<g>
			<path fill="#2D2D2D" d="M5.338,7.339L3.479,5.48C1.448,7.929,0.168,11.021,0,14.413h2.61C2.771,11.742,3.771,9.302,5.338,7.339z"
				/>
		</g>
		<g>
			<path fill="#2D2D2D" d="M14.416,2.61V0c-3.852,0.192-7.322,1.818-9.894,4.35l1.843,1.845C8.465,4.133,11.283,2.798,14.416,2.61z"
				/>
		</g>
	</g>
	<g>
		<g>
			<path fill="#2D2D2D" d="M5.21,14.431V9.112l2.039,2.041v2.767l-1.274,1.297L5.21,14.431z M11.741,14.57l1.021,1.021l-1.021,1.019
				H7.388l-1.021-1.019l1.021-1.021H11.741z M11.859,13.924v-2.768l2.042-2.039v5.317l-0.766,0.782L11.859,13.924z M13.901,16.748
				v5.322l-2.042-2.043v-2.77l1.276-1.276L13.901,16.748z"/>
		</g>
		<g>
			<path fill="#2D2D2D" d="M16.195,14.396V9.108l2.041,2.013v2.766l-1.275,1.295L16.195,14.396z M24.514,8.726l-2.041,2.037h-3.845
				l-2.041-2.037H24.514z M24.514,22.455h-7.926l2.041-2.037h3.846L24.514,22.455z M22.729,14.57l1.021,1.021l-1.021,1.019h-4.355
				l-1.02-1.019l1.02-1.021H22.729z M24.887,16.735v5.315l-2.041-2.039v-2.766l1.275-1.275L24.887,16.735z"/>
		</g>
	</g>
</g>
</svg>
