<?xml version="1.0" encoding="utf-8"?>
<!-- Generator: Adobe Illustrator 17.0.0, SVG Export Plug-In . SVG Version: 6.00 Build 0)  -->
<!DOCTYPE svg PUBLIC "-//W3C//DTD SVG 1.1//EN" "http://www.w3.org/Graphics/SVG/1.1/DTD/svg11.dtd">
<svg version="1.1" id="Capa_1" xmlns="http://www.w3.org/2000/svg" xmlns:xlink="http://www.w3.org/1999/xlink" x="0px" y="0px"
	 width="30.367px" height="30.367px" viewBox="0 0 30.367 30.367" enable-background="new 0 0 30.367 30.367" xml:space="preserve">
<path d="M15.926,27.363v2.529c3.286-0.166,6.286-1.404,8.657-3.373l-1.801-1.799C20.879,26.236,18.516,27.206,15.926,27.363z
	 M23.892,23.726l1.785,1.785c2.454-2.492,4.029-5.853,4.215-9.584h-2.528C27.179,18.961,25.889,21.692,23.892,23.726z M25.254,4.451
	c-2.465-2.313-5.721-3.795-9.328-3.976v2.529c2.91,0.176,5.534,1.375,7.541,3.234L25.254,4.451z M27.364,14.439h2.528
	c-0.17-3.411-1.505-6.507-3.606-8.92l-1.785,1.785C26.149,9.254,27.199,11.726,27.364,14.439z M3.003,15.927H0.475
	c0.18,3.607,1.663,6.858,3.977,9.325l1.785-1.787C4.38,21.461,3.18,18.834,3.003,15.927z M5.522,26.285
	c2.411,2.099,5.507,3.434,8.919,3.607v-2.529c-2.714-0.165-5.185-1.215-7.133-2.863L5.522,26.285z M5.646,7.584l-1.801-1.8
	c-1.967,2.372-3.207,5.369-3.37,8.655h2.528C3.159,11.851,4.128,9.488,5.646,7.584z M14.441,3.004V0.475
	C10.71,0.662,7.348,2.236,4.856,4.691l1.785,1.785C8.676,4.478,11.405,3.189,14.441,3.004z M6.237,14.11V9.206l1.879,1.853v2.571
	l-1.174,1.205L6.237,14.11z M8.117,16.716v2.554l-1.879,1.878v-4.903l0.706-0.707L8.117,16.716z M13.9,8.851l-1.878,1.88H8.479
	l-1.88-1.88H13.9z M13.9,21.504H6.598l1.88-1.878h3.543L13.9,21.504z M12.257,14.237l0.94,0.943l-0.94,0.94H8.244l-0.94-0.94
	l0.94-0.943H12.257z M14.243,16.242v4.888l-1.878-1.88v-2.54l1.174-1.171L14.243,16.242z M16.359,14.11V9.206l1.88,1.853v2.571
	l-1.175,1.205L16.359,14.11z M18.239,16.716v2.554l-1.88,1.878v-4.903l0.705-0.707L18.239,16.716z M24.022,8.851l-1.88,1.88H18.6
	l-1.878-1.88H24.022z M24.022,21.504H16.72l1.878-1.878h3.543L24.022,21.504z M22.486,13.637v-2.56l1.879-1.854v4.889l-0.704,0.724
	L22.486,13.637z M24.365,16.242v4.888l-1.879-1.88v-2.54l1.175-1.171L24.365,16.242z"/>
</svg>
