<?xml version="1.0" encoding="iso-8859-1"?>
<!-- Generator: Adobe Illustrator 16.0.0, SVG Export Plug-In . SVG Version: 6.00 Build 0)  -->
<!DOCTYPE svg PUBLIC "-//W3C//DTD SVG 1.1//EN" "http://www.w3.org/Graphics/SVG/1.1/DTD/svg11.dtd">
<svg version="1.1" id="Capa_1" xmlns="http://www.w3.org/2000/svg" xmlns:xlink="http://www.w3.org/1999/xlink" x="0px" y="0px"
	 width="20.769px" height="30.12px" viewBox="0 0 20.769 30.12" style="enable-background:new 0 0 20.769 30.12;"
	 xml:space="preserve">
<g>
	<path style="fill:#2D2D2D;" d="M19.877,2.167h-4.714c-0.329-0.36-0.799-0.591-1.323-0.591h-1.795V1.272
		C12.045,0.57,11.189,0,10.135,0C9.081,0,8.227,0.57,8.227,1.272v0.304H6.433c-0.526,0-0.994,0.23-1.323,0.591H0.891
		C0.397,2.167,0,2.567,0,3.059v26.169c0,0.492,0.397,0.892,0.891,0.892h18.986c0.491,0,0.892-0.399,0.892-0.892V3.059
		C20.769,2.567,20.368,2.167,19.877,2.167z M18.985,28.337H1.781V3.951h2.961c0.241,0.705,0.902,1.214,1.69,1.214h7.407
		c0.787,0,1.447-0.51,1.689-1.214h3.456V28.337z"/>
	<path style="fill:#2D2D2D;" d="M9.801,14.997c-0.192-0.319-0.401-0.48-0.621-0.48c-0.151,0.038-0.227,0.076-0.227,0.113
		c-0.179,0-0.434,0.302-0.763,0.905l-0.227,0.563c-0.174,0.801-0.306,1.234-0.395,1.3v0.168L7.4,18.781
		c0.023,0.283,0.116,0.424,0.281,0.424c0.196,0,0.328-0.122,0.396-0.367c0.032-0.354,0.071-0.543,0.112-0.565
		c0-0.243,0.095-0.366,0.282-0.366l0.961-0.31c0.057,0,0.086,0.019,0.086,0.057v1.072c0.006,0.131,0.023,0.197,0.056,0.197
		c0,0.184,0.103,0.288,0.311,0.311c0-0.037,0.046-0.057,0.141-0.057c0.082,0,0.149-0.122,0.198-0.366v-0.82
		c0-0.536-0.029-0.999-0.086-1.384C10.139,15.896,10.026,15.359,9.801,14.997z M8.558,17.03H8.501l-0.028-0.028l0.057-0.31
		c0.155-0.563,0.354-0.968,0.593-1.214c0.187,0,0.309,0.395,0.368,1.186C9.49,16.724,9.18,16.847,8.558,17.03z"/>
	<path style="fill:#2D2D2D;" d="M13.781,15.255l-0.14-0.028l-1.129,0.168c-0.057,0-0.151-0.357-0.284-1.072
		c-0.04-0.358-0.181-0.538-0.422-0.538c-0.112,0.039-0.17,0.114-0.17,0.228v0.056l0.17,1.411c0,0.057-0.112,0.104-0.34,0.142
		c-0.753,0.028-1.131,0.159-1.131,0.395c0.129,0.359,0.26,0.538,0.396,0.538l0.34-0.029l0.141,0.029c0-0.048,0.254-0.105,0.763-0.17
		l0.141,0.987c0.038,0.735,0.207,1.102,0.509,1.102c0.169,0,0.254-0.142,0.254-0.423c0-0.292-0.075-0.848-0.227-1.666v-0.113
		c0-0.045,0.218-0.092,0.65-0.142l0.169,0.028l0.282-0.056l0.479,0.085h0.029l0.027-0.029c0.188-0.22,0.282-0.418,0.282-0.592
		c-0.079-0.245-0.238-0.367-0.479-0.367L13.781,15.255z"/>
	<path style="fill:#2D2D2D;" d="M14.15,10.169c-0.271-0.305-0.854,0.364-0.574,0.682c0.005,0.005,0.01,0.012,0.015,0.018
		c-2.686-0.423-5.484,0.05-7.556,1.977c-2.772,2.578-1.22,6.04,1.19,8.184c2.599,2.311,6.124,2.86,8.156-0.343
		c1.506-2.376,1.311-5.827,0.077-8.47c0.294,0.103,0.581,0.213,0.855,0.333c0.365,0.158,0.845-0.583,0.426-0.765
		c-0.601-0.26-1.228-0.475-1.867-0.646C14.65,10.791,14.41,10.464,14.15,10.169z M15.219,19.498c-1.219,3.865-4.992,2.8-7.421,0.848
		c-2.441-1.959-3.625-5.208-0.873-7.438c2.035-1.649,4.896-1.688,7.4-1.039C15.696,14.091,15.991,17.055,15.219,19.498z"/>
</g>
<g>
</g>
<g>
</g>
<g>
</g>
<g>
</g>
<g>
</g>
<g>
</g>
<g>
</g>
<g>
</g>
<g>
</g>
<g>
</g>
<g>
</g>
<g>
</g>
<g>
</g>
<g>
</g>
<g>
</g>
</svg>
