<?xml version="1.0" encoding="utf-8"?>
<!-- Generator: Adobe Illustrator 17.0.0, SVG Export Plug-In . SVG Version: 6.00 Build 0)  -->
<!DOCTYPE svg PUBLIC "-//W3C//DTD SVG 1.1//EN" "http://www.w3.org/Graphics/SVG/1.1/DTD/svg11.dtd">
<svg version="1.1" id="Capa_1" xmlns="http://www.w3.org/2000/svg" xmlns:xlink="http://www.w3.org/1999/xlink" x="0px" y="0px"
	 width="24.654px" height="24.415px" viewBox="0 0 24.654 24.415" enable-background="new 0 0 24.654 24.415" xml:space="preserve">
<path d="M12.046,2.916c-0.093-0.227-0.314-0.375-0.56-0.375H8.541c-0.25,0-0.475,0.153-0.564,0.387L0.04,23.594
	c-0.071,0.186-0.047,0.395,0.066,0.559c0.112,0.165,0.299,0.262,0.498,0.262h2.903c0.255,0,0.482-0.159,0.568-0.398L6.2,18.156
	h7.802l2.263,5.873c0.089,0.233,0.313,0.386,0.564,0.386h3.115c0.201,0,0.389-0.101,0.501-0.268s0.134-0.379,0.057-0.566
	C20.502,23.581,12.046,2.916,12.046,2.916z M7.438,14.72l1.965-5.249c0.233-0.635,0.442-1.275,0.626-1.919
	c0.237,0.688,0.511,1.443,0.822,2.262L12.7,14.72H7.438z M24.352,3.623h-3.32v-3.32C21.032,0.135,20.897,0,20.73,0h-1.544
	c-0.167,0-0.302,0.135-0.302,0.302v3.32h-3.32c-0.167,0-0.302,0.136-0.302,0.302V5.45c0,0.167,0.135,0.302,0.302,0.302h3.32V9.1
	c0,0.167,0.135,0.302,0.302,0.302h1.544c0.167,0,0.302-0.135,0.302-0.302V5.752h3.32c0.167,0,0.302-0.135,0.302-0.302V3.924
	C24.654,3.758,24.519,3.623,24.352,3.623z"/>
</svg>
