<?xml version="1.0" encoding="iso-8859-1"?>
<!-- Generator: Adobe Illustrator 16.0.0, SVG Export Plug-In . SVG Version: 6.00 Build 0)  -->
<!DOCTYPE svg PUBLIC "-//W3C//DTD SVG 1.1//EN" "http://www.w3.org/Graphics/SVG/1.1/DTD/svg11.dtd">
<svg version="1.1" id="Capa_1" xmlns="http://www.w3.org/2000/svg" xmlns:xlink="http://www.w3.org/1999/xlink" x="0px" y="0px"
	 width="26.442px" height="22.701px" viewBox="0 0 26.442 22.701" style="enable-background:new 0 0 26.442 22.701;"
	 xml:space="preserve">
<path style="fill:#2D2D2D;" d="M24.163,0c-1.256,0-2.278,1.022-2.278,2.278v2.113H18.86c-0.284-1.704-1.743-2.957-3.5-2.957
	c-1.333,0-2.533,0.75-3.137,1.894c-0.604-1.144-1.805-1.894-3.138-1.894c-1.756,0-3.216,1.253-3.5,2.957H4.556V2.278
	C4.556,1.022,3.534,0,2.278,0C1.022,0,0,1.022,0,2.278v18.145c0,1.256,1.022,2.278,2.278,2.278c1.256,0,2.278-1.022,2.278-2.278
	V18.26h6.116c0.284,1.702,1.743,2.956,3.5,2.956s3.216-1.253,3.5-2.956h4.214v2.163c0,1.256,1.022,2.278,2.278,2.278
	c1.256,0,2.279-1.022,2.279-2.278V2.278C26.442,1.022,25.419,0,24.163,0z M12.346,4.817l0.013-0.047
	c-0.002,0.05-0.008,0.099-0.008,0.15c0,0.104,0.007,0.207,0.016,0.309l-0.026-0.097c0.004-0.07,0.01-0.14,0.01-0.211
	C12.351,4.885,12.348,4.852,12.346,4.817z M3.962,20.423c0,0.929-0.755,1.684-1.684,1.684c-0.928,0-1.685-0.755-1.685-1.684V2.278
	c0-0.928,0.756-1.684,1.685-1.684c0.929,0,1.684,0.755,1.684,1.684v2.707V20.423z M21.885,17.07h-4.214
	c-0.284-1.703-1.744-2.956-3.5-2.956s-3.216,1.253-3.5,2.956H4.556V5.579h1.029c0.284,1.703,1.744,2.956,3.5,2.956
	c1.333,0,2.533-0.749,3.138-1.894c0.604,1.145,1.805,1.894,3.137,1.894c1.757,0,3.216-1.252,3.5-2.956h3.025V17.07z M25.848,20.423
	c0,0.929-0.755,1.684-1.685,1.684c-0.928,0-1.684-0.755-1.684-1.684v-2.759V4.985V2.278c0-0.928,0.755-1.684,1.684-1.684
	c0.929,0,1.685,0.755,1.685,1.684V20.423z"/>
<g>
</g>
<g>
</g>
<g>
</g>
<g>
</g>
<g>
</g>
<g>
</g>
<g>
</g>
<g>
</g>
<g>
</g>
<g>
</g>
<g>
</g>
<g>
</g>
<g>
</g>
<g>
</g>
<g>
</g>
</svg>
