<?xml version="1.0" encoding="utf-8"?>
<!-- Generator: Adobe Illustrator 17.0.0, SVG Export Plug-In . SVG Version: 6.00 Build 0)  -->
<!DOCTYPE svg PUBLIC "-//W3C//DTD SVG 1.1//EN" "http://www.w3.org/Graphics/SVG/1.1/DTD/svg11.dtd">
<svg version="1.1" id="Capa_1" xmlns="http://www.w3.org/2000/svg" xmlns:xlink="http://www.w3.org/1999/xlink" x="0px" y="0px"
	 width="17.194px" height="21.468px" viewBox="0 0 17.194 21.468" enable-background="new 0 0 17.194 21.468" xml:space="preserve">
<path fill="#1D1D1B" d="M5.22,5.429c0-0.075,0.023-0.147,0.065-0.217C5.283,5.215,5.281,5.217,5.279,5.219V3.375l3.552,2.159
	l3.623-2.159v1.709c0.036,0.206,0.058,0.275,0.058,0.345c0,0.652-1.632,1.18-3.646,1.18C6.854,6.609,5.22,6.08,5.22,5.429z
	 M14.441,1.754L8.876,0L3.291,1.78l5.566,3.373L14.441,1.754z M5.219,8.513c0,1.957,1.632,3.542,3.649,3.542
	c2.012,0,3.648-1.584,3.648-3.542V6.609c0,0-1.239,0.896-3.646,0.896S5.219,6.62,5.219,6.62V8.513z M17.194,16.44v5.028H14.14
	v-4.401l-0.987-0.003v4.404H4.004l0.009-4.361H3.054v4.361H0.001V16.44c0,0-0.183-3.812,5.006-3.91h2.815l0.989,1.622l0.993-1.622
	h2.456C12.26,12.53,16.861,12.476,17.194,16.44z M9.689,15.86l-0.858-1.449l-0.86,1.415l0.92,4.248L9.689,15.86z M3.642,5.813
	L3.331,2.079L2.999,5.813l0.332,1.069L3.642,5.813z"/>
</svg>
