<?xml version="1.0" encoding="iso-8859-1"?>
<!-- Generator: Adobe Illustrator 16.0.0, SVG Export Plug-In . SVG Version: 6.00 Build 0)  -->
<!DOCTYPE svg PUBLIC "-//W3C//DTD SVG 1.1//EN" "http://www.w3.org/Graphics/SVG/1.1/DTD/svg11.dtd">
<svg version="1.1" id="Capa_1" xmlns="http://www.w3.org/2000/svg" xmlns:xlink="http://www.w3.org/1999/xlink" x="0px" y="0px"
	 width="25.283px" height="25.8px" viewBox="0 0 25.283 25.8" style="enable-background:new 0 0 25.283 25.8;" xml:space="preserve"
	>
<path style="fill:#2D2D2D;" d="M24.147,20.061l1.136-1.136c-1.13-1.131-2.503-1.867-3.95-2.22l-0.007-0.007l-0.004,0.004
	c-0.926-0.224-1.882-0.295-2.827-0.204c0.236-2.424-0.569-4.932-2.426-6.788c-1.852-1.852-4.35-2.657-6.767-2.426
	C9.709,4.709,8.928,1.983,6.942,0L5.806,1.137c0.185,0.184,0.35,0.381,0.509,0.581L1.718,6.314c-0.2-0.159-0.397-0.324-0.581-0.509
	L0,6.941c1.984,1.985,4.71,2.768,7.285,2.36c-0.231,2.418,0.574,4.915,2.426,6.768c1.856,1.857,4.362,2.662,6.786,2.428
	c-0.413,2.579,0.371,5.314,2.36,7.303l1.136-1.138c-0.164-0.165-0.308-0.339-0.452-0.517l4.329-4.329
	C23.962,19.899,24.059,19.973,24.147,20.061z M18.045,20.609l2.442-2.442c0.173,0.031,0.344,0.074,0.516,0.117l-2.867,2.868
	C18.101,20.972,18.066,20.792,18.045,20.609z M18.204,18.155c0.57-0.094,1.149-0.109,1.724-0.058l-1.922,1.922
	C17.988,19.394,18.049,18.766,18.204,18.155z M13.569,16.595l3.026-3.025c0.053,0.165,0.093,0.332,0.133,0.499l-2.659,2.661
	C13.901,16.688,13.734,16.648,13.569,16.595z M16.424,13.111l-3.313,3.312c-0.509-0.206-0.996-0.475-1.453-0.809l3.958-3.957
	C15.949,12.115,16.217,12.602,16.424,13.111z M14.935,11.074l0.316,0.317l-3.946,3.946c-0.114-0.095-0.226-0.192-0.335-0.297
	L14.935,11.074z M9.259,12.408l3.148-3.149c0.155,0.056,0.311,0.106,0.461,0.173l-3.438,3.437
	C9.364,12.717,9.314,12.562,9.259,12.408z M11.932,9.105l-2.826,2.827c-0.269-0.975-0.327-1.995-0.158-2.986
	C9.938,8.776,10.958,8.835,11.932,9.105z M5.894,7.803C5.696,7.801,5.5,7.779,5.304,7.76l2.458-2.458
	C7.78,5.498,7.802,5.695,7.804,5.893L5.894,7.803z M4.75,7.683C4.103,7.566,3.473,7.356,2.875,7.052l4.178-4.177
	c0.304,0.597,0.514,1.227,0.631,1.873L4.75,7.683z M6.58,2.083c0.087,0.125,0.176,0.251,0.253,0.381L2.465,6.833
	c-0.13-0.078-0.256-0.166-0.381-0.253L6.58,2.083z M6.559,7.769l1.21-1.211C7.738,6.909,7.69,7.26,7.605,7.604
	C7.261,7.689,6.91,7.737,6.559,7.769z M9.646,13.284l3.64-3.638c0.51,0.269,0.992,0.605,1.434,1.013l-4.06,4.062
	C10.251,14.277,9.914,13.794,9.646,13.284z M14.59,16.837l2.247-2.247c0.119,0.743,0.122,1.5-0.005,2.243
	C16.09,16.959,15.333,16.956,14.59,16.837z M19.268,23.79c-0.089-0.125-0.173-0.252-0.252-0.382l4.146-4.146l0.317,0.316
	L19.268,23.79z M18.786,23.007c-0.227-0.43-0.409-0.877-0.537-1.336l3.244-3.247c0.446,0.149,0.878,0.342,1.292,0.585L18.786,23.007
	z"/>
<g>
</g>
<g>
</g>
<g>
</g>
<g>
</g>
<g>
</g>
<g>
</g>
<g>
</g>
<g>
</g>
<g>
</g>
<g>
</g>
<g>
</g>
<g>
</g>
<g>
</g>
<g>
</g>
<g>
</g>
</svg>
