<?xml version="1.0" encoding="iso-8859-1"?>
<!-- Generator: Adobe Illustrator 16.0.0, SVG Export Plug-In . SVG Version: 6.00 Build 0)  -->
<!DOCTYPE svg PUBLIC "-//W3C//DTD SVG 1.1//EN" "http://www.w3.org/Graphics/SVG/1.1/DTD/svg11.dtd">
<svg version="1.1" id="Capa_1" xmlns="http://www.w3.org/2000/svg" xmlns:xlink="http://www.w3.org/1999/xlink" x="0px" y="0px"
	 width="33.049px" height="19.501px" viewBox="0 0 33.049 19.501" style="enable-background:new 0 0 33.049 19.501;"
	 xml:space="preserve">
<g>
	<path style="fill:#2D2D2D;" d="M31.542,0H1.507C0.672,0,0,0.674,0,1.507v16.486c0,0.833,0.672,1.508,1.507,1.508h30.035
		c0.833,0,1.507-0.675,1.507-1.508V1.507C33.049,0.674,32.375,0,31.542,0z M30.679,16.486H2.511V3.013h28.168V16.486z"/>
	<path style="fill:#2D2D2D;" d="M4.937,13.5h2.835c0.549,0,0.963-0.424,0.963-0.964V6.963c0-0.531-0.434-0.966-0.963-0.966H4.937
		c-0.53,0-0.965,0.435-0.965,0.966v5.573C3.972,13.076,4.386,13.5,4.937,13.5z M4.937,6.963h2.835v5.573H4.937V6.963z"/>
	<path style="fill:#2D2D2D;" d="M9.989,7.445c0.311,0,0.483-0.271,0.483-0.482h2.834v1.33c0,0.425,0.02,0.415-0.299,0.694
		l-1.332,1.147c-0.24,0.212-0.249,0.241-0.249,0.558v2.325c0,0.31,0.135,0.482,0.48,0.482c0.348,0,0.482-0.173,0.482-0.482v-1.871
		c0-0.338,0.02-0.356,0.271-0.577l1.351-1.168c0.271-0.23,0.262-0.27,0.262-0.607V5.997H9.989c-0.308,0-0.482,0.272-0.482,0.483
		v0.482C9.507,7.174,9.682,7.445,9.989,7.445z"/>
	<path style="fill:#2D2D2D;" d="M15.506,12.911h0.399c0.123,0,0.21,0,0.289-0.106c0.059-0.083,0.059-0.143,0.059-0.248v-0.312
		c0-0.104,0-0.166-0.059-0.251c-0.079-0.104-0.166-0.104-0.289-0.104h-0.399c-0.123,0-0.211,0-0.29,0.104
		c-0.06,0.085-0.06,0.146-0.06,0.251v0.312c0,0.105,0,0.165,0.06,0.248C15.295,12.911,15.383,12.911,15.506,12.911z"/>
	<path style="fill:#2D2D2D;" d="M15.506,8.829h0.399c0.123,0,0.21,0,0.289-0.106c0.059-0.083,0.059-0.143,0.059-0.25V8.162
		c0-0.104,0-0.167-0.059-0.249c-0.079-0.105-0.166-0.105-0.289-0.105h-0.399c-0.123,0-0.211,0-0.29,0.105
		c-0.06,0.082-0.06,0.146-0.06,0.249v0.311c0,0.107,0,0.167,0.06,0.25C15.295,8.829,15.383,8.829,15.506,8.829z"/>
	<path style="fill:#2D2D2D;" d="M18.491,13.5h2.834c0.551,0,0.964-0.424,0.964-0.964V6.963c0-0.531-0.434-0.966-0.964-0.966h-2.834
		c-0.53,0-0.965,0.435-0.965,0.966v5.573C17.526,13.076,17.94,13.5,18.491,13.5z M18.491,6.963h2.834v5.573h-2.834V6.963z"/>
	<path style="fill:#2D2D2D;" d="M24.472,13.5h2.836c0.548,0,0.962-0.424,0.962-0.964V6.963c0-0.531-0.434-0.966-0.962-0.966h-2.836
		c-0.531,0-0.966,0.435-0.966,0.966v5.573C23.506,13.076,23.92,13.5,24.472,13.5z M24.472,6.963h2.836v5.573h-2.836V6.963z"/>
</g>
<g>
</g>
<g>
</g>
<g>
</g>
<g>
</g>
<g>
</g>
<g>
</g>
<g>
</g>
<g>
</g>
<g>
</g>
<g>
</g>
<g>
</g>
<g>
</g>
<g>
</g>
<g>
</g>
<g>
</g>
</svg>
