<?xml version="1.0" encoding="iso-8859-1"?>
<!-- Generator: Adobe Illustrator 16.0.0, SVG Export Plug-In . SVG Version: 6.00 Build 0)  -->
<!DOCTYPE svg PUBLIC "-//W3C//DTD SVG 1.1//EN" "http://www.w3.org/Graphics/SVG/1.1/DTD/svg11.dtd">
<svg version="1.1" id="Capa_1" xmlns="http://www.w3.org/2000/svg" xmlns:xlink="http://www.w3.org/1999/xlink" x="0px" y="0px"
	 width="25.978px" height="24.354px" viewBox="0 0 25.978 24.354" style="enable-background:new 0 0 25.978 24.354;"
	 xml:space="preserve">
<g>
	<path style="fill:#2D2D2D;" d="M12.602,13.609c0.052-0.021,0.104-0.05,0.153-0.079c-0.074,0.361,0.067,0.683,0.562,0.573
		c2.093-0.464,3.07-2.234,2.744-4.288c-0.08-0.513-0.644-0.362-0.937-0.16c-0.674,0.46-1.31,0.995-1.876,1.588
		c0.044-1.637,0.207-3.267,0.526-4.882c0.074-0.368-0.283-0.595-0.604-0.509c-0.408,0.109-0.648,0.477-0.728,0.867
		c-0.409,2.06-0.563,4.146-0.533,6.245c-0.997-0.077-1.489-0.676-1.601-1.502c0.066-0.372,0.085-0.754,0.063-1.133
		c0.21-0.205,0.358-0.483,0.307-0.778c-0.065-0.369-0.484-0.448-0.771-0.273c-1.21,0.733-2.614,1.617-3.197,2.972
		c-0.282,0.654-0.179,1.456,0.567,1.706c0.747,0.249,1.57-0.194,2.102-0.701c0.451,0.719,1.247,1.168,2.385,1.139
		C12.128,14.384,12.479,13.984,12.602,13.609z M14.785,11.342c-0.059,0.717-0.44,1.186-1.35,1.388l0,0
		C13.823,12.215,14.287,11.755,14.785,11.342z M8.662,12.397c-0.122,0.135-0.425,0.235-0.622,0.187
		c-0.133-0.036-0.128-0.062-0.159-0.126c0.021,0.041,0.008-0.034,0.104-0.202c0.216-0.379,0.572-0.704,0.964-0.991
		c-0.015,0.213-0.015,0.421,0.002,0.622C8.89,12.071,8.799,12.244,8.662,12.397z"/>
	<path style="fill:#2D2D2D;" d="M19.47,13.396c0.698-0.351,0.716-1.708-0.224-1.24c-0.398,0.2-1.455,0.686-1.628-0.047
		c-0.157-0.662,0.489-1.333,0.952-1.701c0.269-0.215,0.518-0.663,0.331-1.004c-0.188-0.35-0.644-0.21-0.886-0.016
		c-0.982,0.784-2.016,2.152-1.699,3.496C16.672,14.394,18.498,13.881,19.47,13.396z"/>
	<path style="fill:#2D2D2D;" d="M25.705,2.792c-0.171-0.136-0.394-0.185-0.605-0.136l-2.929,0.703V1.946
		c0-1.081-0.689-1.755-1.799-1.755c-1.992,0-6.164,2.422-7.416,3.412C11.746,2.604,7.738,0,5.677,0C4.505,0,3.805,0.728,3.805,1.946
		v1.467C3.126,3.308,1.73,2.991,0.879,2.784C0.67,2.731,0.444,2.78,0.272,2.916C0.1,3.05,0,3.257,0,3.477v18.562
		c0,0.205,0.089,0.401,0.245,0.539c0.154,0.134,0.361,0.195,0.564,0.165c0.065-0.008,6.409-1.434,9.539,0.227
		c0.119,0.062,0.308,0.217,0.49,0.364c0.531,0.429,1.259,1.016,2.146,1.02c0.004,0,0.006,0,0.01,0c0.888,0,1.641-0.615,2.191-1.065
		c0.192-0.156,0.389-0.318,0.509-0.382c3.123-1.653,9.401-0.174,9.464-0.163c0.206,0.03,0.413-0.029,0.57-0.165
		c0.157-0.134,0.249-0.332,0.249-0.539V3.349C25.978,3.131,25.877,2.925,25.705,2.792z M5.23,1.946c0-0.5,0.137-0.521,0.446-0.521
		c1.638,0,5.246,2.263,6.287,3.047L12.973,5.2l0.979-0.56c1.077-0.739,4.773-3.023,6.42-3.023c0.375,0,0.375,0.076,0.375,0.329
		v14.194c-2.084,0.039-5.716,0.591-6.784,1.187c-1.071,0.594-0.968,0.662-0.968,0.662s-0.073-0.093-1.031-0.685
		c-1.109-0.75-4.671-1.125-6.733-1.164V1.946z M24.552,19.73c-1.711-0.75-6.683-1.277-9.525,0.228
		c-0.243,0.131-0.485,0.328-0.743,0.537c-0.406,0.332-0.91,0.744-1.289,0.744h-0.002c-0.389-0.002-0.87-0.389-1.256-0.702
		c-0.249-0.199-0.48-0.389-0.723-0.515c-2.844-1.51-7.695-0.762-9.59-0.104V4.377c0.76,0.175,1.81,0.405,2.381,0.477V17.56h0.816
		c1.897,0,5.421,0.193,7.701,1.502l0.215,0.124v0.53l0.457-0.269l0.394,0.227v-0.456l0.222-0.13c2.275-1.331,5.83-1.528,7.747-1.528
		h0.814V4.825l2.381-0.572V19.73z"/>
</g>
<g>
</g>
<g>
</g>
<g>
</g>
<g>
</g>
<g>
</g>
<g>
</g>
<g>
</g>
<g>
</g>
<g>
</g>
<g>
</g>
<g>
</g>
<g>
</g>
<g>
</g>
<g>
</g>
<g>
</g>
</svg>
