<?xml version="1.0" encoding="utf-8"?>
<!-- Generator: Adobe Illustrator 17.0.0, SVG Export Plug-In . SVG Version: 6.00 Build 0)  -->
<!DOCTYPE svg PUBLIC "-//W3C//DTD SVG 1.1//EN" "http://www.w3.org/Graphics/SVG/1.1/DTD/svg11.dtd">
<svg version="1.1" id="Capa_1" xmlns="http://www.w3.org/2000/svg" xmlns:xlink="http://www.w3.org/1999/xlink" x="0px" y="0px"
	 width="31.419px" height="25.961px" viewBox="0 0 31.419 25.961" enable-background="new 0 0 31.419 25.961" xml:space="preserve">
<path fill="#2D2D2D" d="M13.272,3.937c0-1.584,1.284-2.869,2.869-2.869s2.869,1.284,2.869,2.869s-1.284,2.869-2.869,2.869
	S13.272,5.521,13.272,3.937z M17.008,14.185c0.616-0.658,1.479-1.075,2.575-1.245c0.249-0.038,0.513-0.061,0.786-0.077
	c0.088-0.003,0.171-0.012,0.259-0.012h1.707c-1.253-0.521-2.141-1.761-2.141-3.203c0-0.575,0.143-1.12,0.394-1.596
	c-0.89-0.325-1.711-0.32-1.711-0.32h-5.753c-0.643,0.015-1.183,0.096-1.636,0.23c0.281,0.5,0.442,1.076,0.442,1.686
	c0,1.442-0.887,2.681-2.142,3.203H11.2c0.017-0.002,0.033-0.002,0.051-0.002c0.1,0,0.209,0.004,0.319,0.012
	c0.235,0.017,0.492,0.053,0.758,0.107c1.444,0.303,3.186,1.253,3.379,3.527l0.002,0.051v1.774h0.362l0.002-1.774
	C16.071,16.521,16.021,15.239,17.008,14.185z M8.285,12.547c1.582,0,2.869-1.287,2.869-2.871c0-1.584-1.287-2.869-2.869-2.869
	c-1.584,0-2.869,1.285-2.869,2.869C5.416,11.259,6.702,12.547,8.285,12.547z M11.02,13.472H5.268
	c-4.118,0.076-3.975,3.103-3.975,3.103l-0.001,7.056h0.004c0,0.017-0.003,0.035-0.003,0.05c0,0.67,0.545,1.211,1.213,1.211
	c0.669,0,1.209-0.541,1.209-1.211c0-0.016-0.002-0.033-0.005-0.05h0.005v-6.532h0.758l-0.006,6.958l7.266,0.006l-0.006-6.996h0.786
	v6.563h0.004c0,0.003,0,0.006,0,0.01c0,0.669,0.541,1.211,1.207,1.211c0.669,0,1.211-0.542,1.211-1.211c0-0.004,0-0.007,0-0.01
	v-7.056C14.67,13.425,11.02,13.472,11.02,13.472z M23.477,12.546c1.585,0,2.87-1.285,2.87-2.87c0-1.585-1.285-2.87-2.87-2.87
	s-2.87,1.285-2.87,2.87C20.608,11.261,21.892,12.546,23.477,12.546z M26.213,13.472h-5.754c-4.119,0.076-3.973,3.103-3.973,3.103
	l-0.002,7.056h0.005c0,0.017-0.003,0.035-0.003,0.05c0,0.67,0.544,1.211,1.212,1.211c0.669,0,1.208-0.541,1.208-1.211
	c0-0.016-0.003-0.033-0.004-0.05h0.004v-6.532h0.76l-0.009,6.958l7.266,0.006l-0.006-6.996h0.786v6.563h0.002
	c0,0.003,0,0.006,0,0.01c0,0.669,0.542,1.211,1.21,1.211c0.667,0,1.209-0.542,1.209-1.211c0-0.004,0-0.007,0-0.01v-7.056
	C29.862,13.425,26.213,13.472,26.213,13.472z"/>
</svg>
