<?xml version="1.0" encoding="iso-8859-1"?>
<!-- Generator: Adobe Illustrator 16.0.0, SVG Export Plug-In . SVG Version: 6.00 Build 0)  -->
<!DOCTYPE svg PUBLIC "-//W3C//DTD SVG 1.1//EN" "http://www.w3.org/Graphics/SVG/1.1/DTD/svg11.dtd">
<svg version="1.1" id="Capa_1" xmlns="http://www.w3.org/2000/svg" xmlns:xlink="http://www.w3.org/1999/xlink" x="0px" y="0px"
	 width="19.341px" height="25.993px" viewBox="0 0 19.341 25.993" style="enable-background:new 0 0 19.341 25.993;"
	 xml:space="preserve">
<g>
	<path style="fill:#2D2D2D;" d="M18.488,0H0.853C0.381,0,0,0.382,0,0.853V25.14c0,0.472,0.381,0.854,0.853,0.854h13.083
		c0.21,0,0.413-0.077,0.57-0.218l4.55-4.072c0.181-0.162,0.285-0.394,0.285-0.636V0.853C19.341,0.382,18.959,0,18.488,0z
		 M17.635,20.59h-3.97v3.648l-0.053,0.047H1.707V1.707h15.928V20.59z"/>
	<path style="fill:#2D2D2D;" d="M11.236,15.173H6.899c-0.247,0-0.446,0.2-0.446,0.446v4.337c0,0.247,0.199,0.446,0.446,0.446h4.337
		c0.246,0,0.446-0.2,0.446-0.446V15.62C11.683,15.374,11.482,15.173,11.236,15.173z M10.791,19.511H7.345v-3.446h3.446V19.511z"/>
	<path style="fill:#2D2D2D;" d="M11.626,8.569V8.537c0-0.218-0.177-0.394-0.394-0.394H6.902c-0.217,0-0.394,0.176-0.394,0.394v4.329
		c0,0.219,0.177,0.395,0.394,0.395h4.331c0.217,0,0.394-0.176,0.394-0.395v-1.543l-0.696,0.696
		c-0.026,0.026-0.062,0.039-0.092,0.062v0.393H7.296V8.93h3.543v0.426L11.626,8.569z"/>
	<path style="fill:#2D2D2D;" d="M12.438,8.313l-2.196,2.195l-0.84-0.841c-0.227-0.227-0.593-0.227-0.82,0
		c-0.227,0.227-0.227,0.594,0,0.819l1.251,1.252c0.113,0.113,0.262,0.17,0.41,0.17c0.149,0,0.298-0.057,0.41-0.17l2.605-2.606
		c0.228-0.227,0.228-0.593,0-0.82C13.032,8.086,12.665,8.086,12.438,8.313z"/>
	<rect x="3.978" y="4.159" style="fill:#2D2D2D;" width="11.385" height="1.189"/>
</g>
<g>
</g>
<g>
</g>
<g>
</g>
<g>
</g>
<g>
</g>
<g>
</g>
<g>
</g>
<g>
</g>
<g>
</g>
<g>
</g>
<g>
</g>
<g>
</g>
<g>
</g>
<g>
</g>
<g>
</g>
</svg>
