<?xml version="1.0" encoding="utf-8"?>
<!-- Generator: Adobe Illustrator 17.0.0, SVG Export Plug-In . SVG Version: 6.00 Build 0)  -->
<!DOCTYPE svg PUBLIC "-//W3C//DTD SVG 1.1//EN" "http://www.w3.org/Graphics/SVG/1.1/DTD/svg11.dtd">
<svg version="1.1" id="Capa_1" xmlns="http://www.w3.org/2000/svg" xmlns:xlink="http://www.w3.org/1999/xlink" x="0px" y="0px"
	 width="18.739px" height="22.935px" viewBox="0 0 18.739 22.935" enable-background="new 0 0 18.739 22.935" xml:space="preserve">
<path fill="#1D1D1B" d="M18.738,21.205V0.785C18.738,0.159,17.951,0,17.951,0H2.36C0.001,0,0,1.954,0,1.954v20.143
	c0,0.461,0.374,0.838,0.839,0.838h15.105c0.462,0,0.838-0.377,0.838-0.838l1.115-0.002C18.801,22.095,18.738,21.205,18.738,21.205z
	 M3.48,13.994c-0.313-0.104-0.567-0.244-0.567-0.426c0-0.472,0-1.649,0-2.321c0-0.259,0.254-0.441,0.567-0.57V13.994z M8.489,16.635
	c0,0.517-0.597,0.017-0.597,0.017l-3.255-2.414c0,0-0.311-0.035-0.668-0.113V10.52c0.357-0.087,0.668-0.12,0.668-0.12l3.327-2.483
	c0,0,0.525-0.396,0.525,0.009C8.489,8.397,8.489,16.116,8.489,16.635z M10.399,15.222c-0.183,0-0.366-0.07-0.503-0.214
	c-0.272-0.276-0.267-0.721,0.011-0.994c0.594-0.581,0.885-1.171,0.864-1.755c-0.033-0.927-0.82-1.619-0.827-1.627
	c-0.297-0.25-0.333-0.694-0.083-0.991c0.251-0.296,0.697-0.333,0.992-0.082c0.052,0.043,1.27,1.095,1.325,2.648
	c0.036,0.999-0.398,1.946-1.288,2.815C10.754,15.155,10.577,15.222,10.399,15.222z M13.18,16.243
	c-0.137,0.132-0.315,0.199-0.493,0.199c-0.184,0-0.366-0.071-0.503-0.213c-0.271-0.276-0.266-0.724,0.011-0.995
	c1.004-0.979,1.495-1.993,1.458-3.015c-0.057-1.606-1.407-2.797-1.421-2.807c-0.297-0.252-0.333-0.695-0.082-0.993
	c0.252-0.296,0.696-0.332,0.993-0.081c0.074,0.062,1.838,1.583,1.917,3.831C15.11,13.603,14.478,14.973,13.18,16.243z
	 M17.649,20.788c0,0-0.149,0.547-0.867,0.547v-6.543V2.828c0-0.462-0.375-0.838-0.838-0.838L1.651,1.984
	c0-0.577,0.866-0.869,0.866-0.869h14.265c0.893,0,0.867,0.786,0.867,0.786V20.788z"/>
</svg>
