<?xml version="1.0" encoding="iso-8859-1"?>
<!-- Generator: Adobe Illustrator 16.0.0, SVG Export Plug-In . SVG Version: 6.00 Build 0)  -->
<!DOCTYPE svg PUBLIC "-//W3C//DTD SVG 1.1//EN" "http://www.w3.org/Graphics/SVG/1.1/DTD/svg11.dtd">
<svg version="1.1" id="Capa_1" xmlns="http://www.w3.org/2000/svg" xmlns:xlink="http://www.w3.org/1999/xlink" x="0px" y="0px"
	 width="25.978px" height="24.354px" viewBox="0 0 25.978 24.354" style="enable-background:new 0 0 25.978 24.354;"
	 xml:space="preserve">
<g>
	<path style="fill:#2D2D2D;" d="M25.706,2.792c-0.173-0.136-0.396-0.185-0.608-0.136l-2.927,0.703V1.946
		c0-1.081-0.689-1.755-1.799-1.755c-1.99,0-6.166,2.422-7.416,3.412C11.747,2.604,7.739,0,5.676,0C4.507,0,3.807,0.728,3.807,1.946
		v1.467C3.126,3.308,1.73,2.991,0.882,2.784C0.669,2.731,0.444,2.78,0.271,2.916C0.102,3.05,0,3.257,0,3.477v18.562
		c0,0.205,0.09,0.401,0.243,0.539c0.156,0.134,0.365,0.195,0.567,0.165c0.065-0.008,6.408-1.434,9.537,0.227
		c0.119,0.062,0.308,0.217,0.493,0.364c0.53,0.429,1.256,1.016,2.145,1.02c0.003,0,0.007,0,0.009,0c0.889,0,1.642-0.615,2.192-1.065
		c0.189-0.156,0.389-0.318,0.509-0.382c3.122-1.653,9.4-0.174,9.464-0.163c0.205,0.03,0.413-0.029,0.569-0.165
		c0.158-0.134,0.249-0.332,0.249-0.539V3.349C25.978,3.131,25.877,2.925,25.706,2.792z M5.23,1.946c0-0.5,0.138-0.521,0.445-0.521
		c1.638,0,5.248,2.263,6.288,3.047l1.01,0.728l0.979-0.56c1.078-0.739,4.776-3.023,6.42-3.023c0.374,0,0.374,0.076,0.374,0.329
		v14.194c-2.081,0.039-5.714,0.591-6.783,1.187c-1.069,0.594-0.967,0.662-0.967,0.662s-0.074-0.093-1.032-0.685
		c-1.108-0.75-4.672-1.125-6.733-1.164V1.946z M24.552,19.73c-1.709-0.75-6.681-1.277-9.522,0.228
		c-0.246,0.131-0.489,0.328-0.745,0.537c-0.405,0.332-0.91,0.744-1.29,0.744h-0.001c-0.39-0.002-0.87-0.389-1.258-0.702
		c-0.246-0.199-0.479-0.389-0.72-0.515c-2.846-1.51-7.698-0.762-9.59-0.104V4.377c0.761,0.175,1.808,0.405,2.381,0.477V17.56h0.814
		c1.897,0,5.423,0.193,7.7,1.502l0.216,0.124v0.53l0.457-0.269l0.394,0.227v-0.456l0.223-0.13c2.274-1.331,5.828-1.528,7.745-1.528
		h0.815V4.825l2.381-0.572V19.73z"/>
	<path style="fill:#2D2D2D;" d="M7.369,9.589c0,0.624,0,1.712,0,2.148c0,0.167,0.235,0.296,0.525,0.395V9.06
		C7.604,9.181,7.369,9.351,7.369,9.589z"/>
	<path style="fill:#2D2D2D;" d="M12.527,14.573c0-0.479,0-7.618,0-8.055c0-0.375-0.486-0.009-0.486-0.009L8.964,8.807
		c0,0-0.287,0.031-0.619,0.11v3.333c0.332,0.072,0.619,0.104,0.619,0.104l3.01,2.234C11.974,14.589,12.527,15.051,12.527,14.573z"/>
	<path style="fill:#2D2D2D;" d="M13.828,13.068c0.128,0.132,0.298,0.197,0.466,0.197c0.164,0,0.328-0.062,0.453-0.186
		c0.825-0.804,1.225-1.678,1.193-2.6c-0.052-1.441-1.177-2.411-1.226-2.452c-0.273-0.231-0.686-0.197-0.918,0.076
		s-0.199,0.684,0.077,0.918c0.007,0.007,0.733,0.646,0.764,1.504c0.02,0.541-0.248,1.085-0.8,1.622
		C13.581,12.4,13.576,12.812,13.828,13.068z"/>
	<path style="fill:#2D2D2D;" d="M17.302,10.488c0.034,0.944-0.419,1.883-1.347,2.789c-0.257,0.251-0.262,0.663-0.011,0.919
		c0.127,0.133,0.296,0.197,0.467,0.197c0.162,0,0.326-0.062,0.454-0.183c1.199-1.175,1.786-2.441,1.741-3.768
		c-0.076-2.079-1.707-3.484-1.775-3.544c-0.274-0.231-0.687-0.197-0.919,0.076s-0.197,0.686,0.076,0.918
		C16.001,7.904,17.251,9.002,17.302,10.488z"/>
</g>
<g>
</g>
<g>
</g>
<g>
</g>
<g>
</g>
<g>
</g>
<g>
</g>
<g>
</g>
<g>
</g>
<g>
</g>
<g>
</g>
<g>
</g>
<g>
</g>
<g>
</g>
<g>
</g>
<g>
</g>
</svg>
