<?xml version="1.0" encoding="iso-8859-1"?>
<!-- Generator: Adobe Illustrator 16.0.0, SVG Export Plug-In . SVG Version: 6.00 Build 0)  -->
<!DOCTYPE svg PUBLIC "-//W3C//DTD SVG 1.1//EN" "http://www.w3.org/Graphics/SVG/1.1/DTD/svg11.dtd">
<svg version="1.1" id="Capa_1" xmlns="http://www.w3.org/2000/svg" xmlns:xlink="http://www.w3.org/1999/xlink" x="0px" y="0px"
	 width="23.859px" height="28.543px" viewBox="0 0 23.859 28.543" style="enable-background:new 0 0 23.859 28.543;"
	 xml:space="preserve">
<g>
	<path style="fill:#2D2D2D;" d="M8.355,8.893v7.528h15.504V8.893H8.355z M14.284,15.06l-0.479-1.361h-1.668l-0.453,1.361h-0.994
		l1.689-4.805h1.232l1.714,4.805H14.284z M17.929,15.06h-1.105l-1.707-4.805h1.051l0.72,2.19c0.203,0.604,0.384,1.16,0.517,1.745
		h0.017c0.142-0.569,0.336-1.155,0.541-1.74l0.767-2.195h1.026L17.929,15.06z M21.292,15.06h-0.966v-4.805h0.966V15.06z"/>
	<path style="fill:#2D2D2D;" d="M12.968,10.955h-0.016c-0.079,0.276-0.165,0.611-0.251,0.898l-0.407,1.182h1.354l-0.415-1.182
		C13.133,11.559,13.045,11.231,12.968,10.955z"/>
	<path style="fill:#2D2D2D;" d="M19.364,22.61h-4.359v4.007l-0.058,0.053H1.874V1.875h17.49v6.088h1.874V0.938
		C21.238,0.422,20.819,0,20.302,0H0.937C0.42,0,0,0.422,0,0.938v26.669c0,0.519,0.42,0.937,0.937,0.937h14.369
		c0.229,0,0.452-0.084,0.624-0.239l4.997-4.471c0.199-0.179,0.312-0.431,0.312-0.698v-5.884h-1.874V22.61z"/>
</g>
<g>
</g>
<g>
</g>
<g>
</g>
<g>
</g>
<g>
</g>
<g>
</g>
<g>
</g>
<g>
</g>
<g>
</g>
<g>
</g>
<g>
</g>
<g>
</g>
<g>
</g>
<g>
</g>
<g>
</g>
</svg>
