<?xml version="1.0" encoding="iso-8859-1"?>
<!-- Generator: Adobe Illustrator 16.0.0, SVG Export Plug-In . SVG Version: 6.00 Build 0)  -->
<!DOCTYPE svg PUBLIC "-//W3C//DTD SVG 1.1//EN" "http://www.w3.org/Graphics/SVG/1.1/DTD/svg11.dtd">
<svg version="1.1" id="Capa_1" xmlns="http://www.w3.org/2000/svg" xmlns:xlink="http://www.w3.org/1999/xlink" x="0px" y="0px"
	 width="26.368px" height="24.716px" viewBox="0 0 26.368 24.716" style="enable-background:new 0 0 26.368 24.716;"
	 xml:space="preserve">
<g>
	<path style="fill:#2D2D2D;" d="M14.135,12.955c0.407-0.359,0.749-0.762,1.021-1.207c0.552-0.897,0.829-1.871,0.829-2.893
		c0-1.087-0.308-2.138-0.921-3.122c-0.62-0.997-1.487-1.746-2.577-2.224c-1.053-0.461-2.379-0.685-4.055-0.685H0.881
		C0.394,2.825,0,3.219,0,3.708v20.126c0,0.488,0.394,0.882,0.881,0.882h7.675c1.349,0,2.515-0.121,3.464-0.363
		c0.993-0.251,1.838-0.637,2.519-1.145c0.693-0.522,1.279-1.259,1.735-2.19c0.457-0.929,0.688-1.944,0.688-3.019
		c0-1.364-0.391-2.568-1.161-3.583C15.354,13.831,14.798,13.342,14.135,12.955z M3.289,6.082c0-0.413,0.332-0.748,0.747-0.748h3.406
		c1.312,0,2.236,0.09,2.817,0.273c0.674,0.212,1.203,0.616,1.569,1.198c0.348,0.55,0.524,1.186,0.524,1.893
		c0,0.756-0.196,1.406-0.583,1.931c-0.387,0.528-0.954,0.906-1.686,1.123c-0.505,0.153-1.28,0.229-2.365,0.229H4.036
		c-0.415,0-0.747-0.335-0.747-0.748V6.082z M12.634,20.322c-0.286,0.528-0.664,0.941-1.123,1.226
		c-0.428,0.266-0.955,0.457-1.564,0.566c-0.342,0.063-0.874,0.093-1.667,0.093H4.036c-0.415,0-0.747-0.335-0.747-0.748v-5.861
		c0-0.413,0.332-0.749,0.747-0.749h3.94c1.178,0,2.068,0.106,2.729,0.323c0.732,0.241,1.316,0.67,1.733,1.272
		c0.415,0.595,0.623,1.295,0.623,2.083C13.062,19.196,12.918,19.799,12.634,20.322z"/>
	<path style="fill:#2D2D2D;" d="M26.066,3.623h-3.319v-3.32C22.747,0.135,22.611,0,22.445,0H20.9c-0.166,0-0.302,0.135-0.302,0.302
		v3.32h-3.32c-0.166,0-0.301,0.136-0.301,0.302V5.45c0,0.167,0.135,0.302,0.301,0.302h3.32V9.1c0,0.167,0.136,0.302,0.302,0.302
		h1.545c0.166,0,0.302-0.135,0.302-0.302V5.752h3.319c0.167,0,0.302-0.135,0.302-0.302V3.924
		C26.368,3.758,26.233,3.623,26.066,3.623z"/>
</g>
<g>
</g>
<g>
</g>
<g>
</g>
<g>
</g>
<g>
</g>
<g>
</g>
<g>
</g>
<g>
</g>
<g>
</g>
<g>
</g>
<g>
</g>
<g>
</g>
<g>
</g>
<g>
</g>
<g>
</g>
</svg>
