<?xml version="1.0" encoding="utf-8"?>
<!-- Generator: Adobe Illustrator 17.0.0, SVG Export Plug-In . SVG Version: 6.00 Build 0)  -->
<!DOCTYPE svg PUBLIC "-//W3C//DTD SVG 1.1//EN" "http://www.w3.org/Graphics/SVG/1.1/DTD/svg11.dtd">
<svg version="1.1" id="Capa_1" xmlns="http://www.w3.org/2000/svg" xmlns:xlink="http://www.w3.org/1999/xlink" x="0px" y="0px"
	 width="16.963px" height="21.892px" viewBox="0 0 16.963 21.892" enable-background="new 0 0 16.963 21.892" xml:space="preserve">
<path fill="#1D1D1B" d="M15.802,11.592c-0.446-0.586-1.004-1.075-1.667-1.462c0.407-0.359,0.749-0.762,1.022-1.207
	c0.552-0.897,0.831-1.871,0.831-2.893c0-1.087-0.311-2.138-0.923-3.122c-0.619-0.997-1.487-1.746-2.578-2.224
	C11.436,0.224,10.11,0,8.434,0H0.882C0.395,0,0,0.395,0,0.883v20.126c0,0.488,0.395,0.882,0.882,0.882h7.675
	c1.348,0,2.513-0.121,3.463-0.363c0.992-0.251,1.838-0.637,2.516-1.145c0.696-0.522,1.28-1.259,1.739-2.19
	c0.456-0.929,0.688-1.944,0.688-3.019C16.963,13.811,16.572,12.607,15.802,11.592z M3.288,3.257c0-0.413,0.334-0.748,0.747-0.748
	h3.407c1.313,0,2.235,0.09,2.817,0.273c0.676,0.212,1.204,0.616,1.571,1.198c0.346,0.55,0.522,1.186,0.522,1.893
	c0,0.756-0.195,1.406-0.582,1.931c-0.388,0.528-0.956,0.906-1.685,1.123C9.581,9.081,8.806,9.156,7.721,9.156H4.035
	c-0.413,0-0.747-0.335-0.747-0.748C3.288,8.408,3.288,3.257,3.288,3.257z M12.635,17.498c-0.286,0.528-0.664,0.941-1.123,1.226
	c-0.428,0.266-0.955,0.457-1.566,0.566c-0.341,0.063-0.872,0.093-1.666,0.093H4.035c-0.413,0-0.747-0.335-0.747-0.748v-5.861
	c0-0.413,0.334-0.749,0.747-0.749h3.942c1.176,0,2.068,0.106,2.728,0.323c0.733,0.241,1.317,0.67,1.735,1.272
	c0.413,0.595,0.622,1.295,0.622,2.083C13.062,16.371,12.919,16.974,12.635,17.498z"/>
</svg>
