<?xml version="1.0" encoding="iso-8859-1"?>
<!-- Generator: Adobe Illustrator 16.0.0, SVG Export Plug-In . SVG Version: 6.00 Build 0)  -->
<!DOCTYPE svg PUBLIC "-//W3C//DTD SVG 1.1//EN" "http://www.w3.org/Graphics/SVG/1.1/DTD/svg11.dtd">
<svg version="1.1" id="Capa_1" xmlns="http://www.w3.org/2000/svg" xmlns:xlink="http://www.w3.org/1999/xlink" x="0px" y="0px"
	 width="28.354px" height="23.272px" viewBox="0 0 28.354 23.272" style="enable-background:new 0 0 28.354 23.272;"
	 xml:space="preserve">
<g>
	<g>
		<g>
			<path style="fill:#2D2D2D;" d="M27.977,8.14C26.971,3.423,24.303,0,21.628,0c-0.218,0-0.435,0.023-0.647,0.068
				c-0.914,0.195-1.672,0.801-2.245,1.697c-1.329-0.812-2.886-1.288-4.558-1.288c-1.673,0-3.23,0.477-4.558,1.288
				C9.045,0.869,8.288,0.264,7.373,0.068C7.162,0.023,6.946,0,6.729,0C4.054,0,1.383,3.423,0.38,8.139
				c-0.502,2.347-0.506,4.667-0.013,6.533c0.547,2.068,1.649,3.377,3.106,3.688c0.211,0.045,0.429,0.067,0.646,0.067
				c0.438,0,0.875-0.097,1.305-0.272v0.295v1.979v1.421v1.423h17.508V21.85v-1.421v-1.979v-0.295
				c0.429,0.176,0.865,0.272,1.302,0.272c0.218,0,0.435-0.022,0.647-0.067c1.456-0.311,2.56-1.619,3.106-3.688
				C28.48,12.806,28.477,10.485,27.977,8.14z M3.834,16.67c-0.773-0.167-1.431-1.057-1.795-2.441
				C1.613,12.621,1.625,10.586,2.07,8.5c0.891-4.183,3.112-6.77,4.658-6.77c0.095,0,0.193,0.01,0.286,0.029
				C7.476,1.86,7.899,2.23,8.243,2.807c-1.73,1.6-2.819,3.883-2.819,6.422v6.753v0.209C4.86,16.598,4.307,16.77,3.834,16.67z
				 M21.347,20.429H7.008v-1.979h6.466v-2.776h1.406v2.776h6.466V20.429z M26.315,14.229c-0.365,1.385-1.02,2.274-1.795,2.441
				c-0.473,0.1-1.025-0.071-1.587-0.478v-0.211V9.229c0-2.539-1.091-4.822-2.821-6.422c0.345-0.576,0.767-0.946,1.229-1.047
				c0.094-0.02,0.19-0.029,0.287-0.029c1.546,0,3.767,2.587,4.658,6.77C26.729,10.586,26.74,12.621,26.315,14.229z"/>
		</g>
	</g>
	<g>
		<g>
			<rect x="13.474" y="18.449" style="fill:#2D2D2D;" width="1.406" height="1.005"/>
		</g>
	</g>
</g>
<g>
</g>
<g>
</g>
<g>
</g>
<g>
</g>
<g>
</g>
<g>
</g>
<g>
</g>
<g>
</g>
<g>
</g>
<g>
</g>
<g>
</g>
<g>
</g>
<g>
</g>
<g>
</g>
<g>
</g>
</svg>
