<?xml version="1.0" encoding="iso-8859-1"?>
<!-- Generator: Adobe Illustrator 16.0.0, SVG Export Plug-In . SVG Version: 6.00 Build 0)  -->
<!DOCTYPE svg PUBLIC "-//W3C//DTD SVG 1.1//EN" "http://www.w3.org/Graphics/SVG/1.1/DTD/svg11.dtd">
<svg version="1.1" id="Capa_1" xmlns="http://www.w3.org/2000/svg" xmlns:xlink="http://www.w3.org/1999/xlink" x="0px" y="0px"
	 width="24.419px" height="27.543px" viewBox="0 0 24.419 27.543" style="enable-background:new 0 0 24.419 27.543;"
	 xml:space="preserve">
<g>
	<path style="fill:#2D2D2D;" d="M13.646,18.348H6.393c-0.133,0-0.235-0.106-0.235-0.236s0.103-0.236,0.235-0.236h7.218
		c0-0.394,0.076-0.801,0.284-1.188H4.347v2.846h9.659C13.866,19.225,13.713,18.808,13.646,18.348z"/>
	<path style="fill:#2D2D2D;" d="M6.43,22.95c-0.136,0-0.237-0.107-0.237-0.237s0.102-0.237,0.237-0.237h7.213
		c0-0.392,0.08-0.799,0.286-1.187H4.382v2.845h9.658c-0.139-0.308-0.292-0.724-0.36-1.184H6.43z"/>
	<path style="fill:#2D2D2D;" d="M17.084,14.4l1.922,6.991c0.035,0.128-0.037,0.256-0.163,0.291s-0.256-0.038-0.291-0.165
		l-1.915-6.957c-0.378,0.104-0.79,0.138-1.219,0.039l2.531,9.204l2.742-0.752l-2.561-9.315C17.871,13.953,17.511,14.211,17.084,14.4
		z"/>
	<path style="fill:#2D2D2D;" d="M22.626,7.529h-3.073V7.342C19.553,3.295,16.258,0,12.211,0S4.869,3.295,4.869,7.342v0.188H1.796
		L0,27.543h24.419L22.626,7.529z M12.211,0.898c2.679,0,4.979,1.645,5.946,3.975c-1.281-1.924-3.467-3.194-5.946-3.194
		S7.544,2.949,6.262,4.877C7.231,2.546,9.533,0.898,12.211,0.898z M12.211,2.704c2.934,0,5.39,2.069,5.987,4.825H6.226
		C6.826,4.773,9.28,2.704,12.211,2.704z M3.889,16.414c0-0.183,0.147-0.331,0.331-0.331h10.145c0.135,0,0.255,0.081,0.308,0.203
		c0.048,0.124,0.021,0.268-0.075,0.364c-1.05,1.052-0.117,2.706,0.027,2.945c0.048,0.057,0.076,0.13,0.076,0.211
		c0,0.181-0.149,0.33-0.334,0.33c0,0,0,0-0.002,0H4.22c-0.184,0-0.331-0.149-0.331-0.33V16.414z M14.401,24.738c0,0,0,0-0.003,0
		H4.254c-0.183,0-0.331-0.146-0.331-0.329v-3.393c0-0.183,0.148-0.329,0.331-0.329h10.145c0.134,0,0.256,0.079,0.306,0.203
		c0.053,0.124,0.023,0.266-0.071,0.359c-1.054,1.055-0.118,2.708,0.025,2.947c0.046,0.058,0.076,0.131,0.076,0.212
		C14.734,24.592,14.586,24.738,14.401,24.738z M21.079,23.42l-3.271,0.898c-0.176,0.05-0.357-0.053-0.407-0.23l-2.689-9.782
		c-0.035-0.128,0.011-0.266,0.115-0.351c0.107-0.078,0.252-0.093,0.367-0.022c1.295,0.733,2.645-0.605,2.835-0.807
		c0.042-0.062,0.106-0.109,0.184-0.13c0.176-0.049,0.357,0.057,0.406,0.233c0,0,0,0,0.002,0.002l2.688,9.781
		C21.357,23.191,21.253,23.373,21.079,23.42z"/>
</g>
<g>
</g>
<g>
</g>
<g>
</g>
<g>
</g>
<g>
</g>
<g>
</g>
<g>
</g>
<g>
</g>
<g>
</g>
<g>
</g>
<g>
</g>
<g>
</g>
<g>
</g>
<g>
</g>
<g>
</g>
</svg>
