<?xml version="1.0" encoding="iso-8859-1"?>
<!-- Generator: Adobe Illustrator 16.0.0, SVG Export Plug-In . SVG Version: 6.00 Build 0)  -->
<!DOCTYPE svg PUBLIC "-//W3C//DTD SVG 1.1//EN" "http://www.w3.org/Graphics/SVG/1.1/DTD/svg11.dtd">
<svg version="1.1" id="Capa_1" xmlns="http://www.w3.org/2000/svg" xmlns:xlink="http://www.w3.org/1999/xlink" x="0px" y="0px"
	 width="26.612px" height="28.202px" viewBox="0 0 26.612 28.202" style="enable-background:new 0 0 26.612 28.202;"
	 xml:space="preserve">
<path style="fill:#2D2D2D;" d="M15.253,11.355L18.348,0c0,0-1.968,0.146-2.347,1.544c-0.296,1.081-2.465,7.628-3.438,10.547
	l-4.326,1.178c-0.231-0.829-0.793-1.49-1.544-1.919c-0.95-0.544-2.196-0.711-3.448-0.375c-2.247,0.611-3.651,2.641-3.138,4.529
	c0.229,0.838,0.797,1.506,1.552,1.939c0.95,0.542,2.198,0.713,3.447,0.375c0.55-0.152,1.048-0.387,1.479-0.684v0.002
	c0.003-0.004,0.007-0.006,0.011-0.006c0.033-0.027,0.072-0.054,0.106-0.081c2.604-1.93,4.401-2.448,5.418-2.562
	c-0.111,1.018-0.63,2.813-2.559,5.42c-0.03,0.034-0.055,0.072-0.082,0.105c0,0.006-0.002,0.008-0.004,0.013l0.002-0.001
	c-0.3,0.434-1.33,2.523-1.481,3.073c-0.338,1.248-0.168,2.497,0.375,3.447c0.433,0.754,1.1,1.323,1.939,1.551
	c1.888,0.513,3.916-0.892,4.527-3.14c0.339-1.25,0.965-4.088,0.424-5.04c-0.43-0.749-1.093-1.312-1.92-1.543l1.179-4.326
	c2.919-0.973,9.465-3.144,10.547-3.438c1.397-0.381,1.545-2.347,1.545-2.347L15.253,11.355z M4.605,15.979
	c-0.71,0.191-1.459,0.122-2.001-0.189c-0.242-0.137-0.552-0.384-0.659-0.785c-0.233-0.858,0.591-1.86,1.802-2.191
	c0.718-0.195,1.447-0.127,2,0.189c0.239,0.136,0.549,0.385,0.66,0.784C6.639,14.646,5.815,15.649,4.605,15.979z M13.608,20.864
	c0.314,0.55-0.414,2.875-0.607,3.594c-0.331,1.207-1.334,2.033-2.191,1.8c-0.402-0.108-0.648-0.417-0.786-0.658
	c-0.312-0.542-0.379-1.293-0.188-2.002c0.329-1.209,2.127-3.627,2.986-3.394C13.223,20.312,13.472,20.625,13.608,20.864z"/>
<g>
</g>
<g>
</g>
<g>
</g>
<g>
</g>
<g>
</g>
<g>
</g>
<g>
</g>
<g>
</g>
<g>
</g>
<g>
</g>
<g>
</g>
<g>
</g>
<g>
</g>
<g>
</g>
<g>
</g>
</svg>
