<?xml version="1.0" encoding="iso-8859-1"?>
<!-- Generator: Adobe Illustrator 16.0.0, SVG Export Plug-In . SVG Version: 6.00 Build 0)  -->
<!DOCTYPE svg PUBLIC "-//W3C//DTD SVG 1.1//EN" "http://www.w3.org/Graphics/SVG/1.1/DTD/svg11.dtd">
<svg version="1.1" id="Capa_1" xmlns="http://www.w3.org/2000/svg" xmlns:xlink="http://www.w3.org/1999/xlink" x="0px" y="0px"
	 width="24.208px" height="24.605px" viewBox="0 0 24.208 24.605" style="enable-background:new 0 0 24.208 24.605;"
	 xml:space="preserve">
<g>
	<path style="fill-rule:evenodd;clip-rule:evenodd;fill:#2D2D2D;" d="M5.282,5.339C5.284,5.188,5.169,5.06,5.02,5.046
		C4.711,5.014,4.006,5.05,3.933,5.056c-0.208,0.016-0.36-0.043-0.472-0.149C3.25,4.705,3.243,4.356,3.243,4.354
		c-0.001-0.16-0.131-0.29-0.292-0.29c-0.369,0-0.667,0.115-0.887,0.344C1.7,4.786,1.708,5.317,1.71,5.368l0.009,0.946
		c0,0.012,0.001,0.024,0.001,0.035c0.022,0.17,0.348,1.777,5.014,6.16c0.056,0.052,0.127,0.079,0.2,0.079
		c0.064,0,0.129-0.021,0.183-0.066c0.114-0.091,0.142-0.252,0.066-0.377C6.012,10.21,5.241,8.312,5.282,5.339z M2.301,6.281
		L2.292,5.355c0-0.003-0.002-0.342,0.191-0.542c0.06-0.062,0.131-0.105,0.22-0.133C2.75,4.876,2.849,5.125,3.055,5.323
		c0.228,0.222,0.523,0.334,0.902,0.314c0.145-0.007,0.489,0.001,0.741-0.02c0.005,2.115,0.416,3.704,1.086,5.156
		C2.734,7.701,2.337,6.423,2.301,6.281z"/>
	<path style="fill-rule:evenodd;clip-rule:evenodd;fill:#2D2D2D;" d="M17.075,12.419c0.071,0,0.144-0.026,0.2-0.078
		c4.665-4.385,4.992-5.991,5.016-6.195l0.007-0.938c0.002-0.059,0.011-0.59-0.353-0.968c-0.219-0.228-0.518-0.343-0.887-0.343
		c-0.159,0-0.289,0.129-0.291,0.288c0,0.003-0.009,0.353-0.219,0.554c-0.113,0.107-0.272,0.151-0.465,0.149
		c-0.079-0.004-0.785-0.041-1.092-0.011c-0.15,0.014-0.266,0.142-0.263,0.293c0.041,2.973-0.73,4.871-1.902,6.806
		c-0.075,0.125-0.047,0.287,0.065,0.378C16.945,12.399,17.01,12.419,17.075,12.419z M19.311,5.449c0.001,0,0.002,0,0.002,0
		c0.261,0,0.595,0.013,0.744,0.021c0.363,0.017,0.667-0.095,0.896-0.314c0.207-0.199,0.306-0.447,0.352-0.643
		c0.088,0.026,0.16,0.069,0.218,0.129c0.198,0.204,0.193,0.543,0.192,0.553L21.711,6.1c-0.002,0.013-0.26,1.252-3.486,4.504
		C18.895,9.153,19.305,7.564,19.311,5.449z"/>
	<path style="fill-rule:evenodd;clip-rule:evenodd;fill:#2D2D2D;" d="M14.66,16.374c0.042,0.021,0.087,0.034,0.133,0.034
		c0.053,0,0.107-0.014,0.155-0.045c8.717-5.502,9.24-9.995,9.26-10.21l-0.001-1.01c0.001-0.041,0.012-1.012-0.635-1.67
		c-0.378-0.385-0.894-0.582-1.535-0.582l-1.025,0.011c-0.775,0-1.098,0.546-1.198,0.987l-0.528,0
		c-0.004-0.734,0.02-2.178,0.026-2.544c0.008-0.029,0.017-0.059,0.017-0.092c0-0.033-0.023-0.056-0.033-0.085
		c-0.005-0.016-0.01-0.032-0.019-0.048c-0.017-0.03-0.031-0.055-0.057-0.078c-0.001-0.002-0.002-0.005-0.004-0.006
		c-0.037-0.032-0.082-0.051-0.128-0.062c-0.006-0.001-0.01-0.008-0.018-0.009C16.847,0.324,14.5,0,12.091,0
		C8.034,0,5.252,0.908,5.136,0.946C5.113,0.954,5.094,0.968,5.073,0.982C5.065,0.987,5.055,0.987,5.048,0.994
		C5.046,0.995,5.045,0.997,5.044,0.998C5.014,1.023,4.988,1.054,4.97,1.09c-0.004,0.009-0.006,0.02-0.01,0.03
		c-0.01,0.029-0.019,0.055-0.02,0.085c0,0.005-0.004,0.011-0.004,0.016L4.92,3.889l-0.372,0C4.449,3.447,4.125,2.901,3.354,2.901
		L2.321,2.89C0.592,2.89,0.047,4.348,0,5.136l0.003,1.055c0.025,0.188,0.73,4.673,9.441,10.171c0.018,0.011,0.039,0.015,0.058,0.021
		c0.182,0.323,0.599,0.767,1.522,0.767v1.098c0,0-1.031-0.106-1.031,0.499c0,0.663,1.065,0.534,1.065,0.534v1.196
		c0,0-1.781,1.113-4.164,0.933c0.652,1.124-0.483,1.065-0.483,1.065s-1.064,0.199-1.064,1.063c0,0-0.138,1.066,1.098,1.066
		c1.572,0,11.298-0.007,11.298-0.007c1.031,0,1.123-1.06,1.123-1.06s0-1.063-1.065-1.063c-1.098,0-0.292-1.098-0.292-1.098
		s-4.354,0.1-4.354-0.965v-1.166c0,0,1.065,0.251,1.065-0.499c0-0.627-1.065-0.499-1.065-0.499v-1.098
		C14.025,17.151,14.202,16.869,14.66,16.374z M16.61,1.246c-4.196,0.412-7.431,0.221-9.347-0.001
		c1.418-0.153,2.913-0.237,4.48-0.237C13.646,1.007,15.338,1.123,16.61,1.246z M9.883,16.052c-0.016-0.073-0.06-0.14-0.128-0.184
		c-8.444-5.33-9.169-9.714-9.173-9.717l0-0.999c0.004-0.067,0.12-1.681,1.736-1.681L3.35,3.484c0.6,0,0.648,0.586,0.651,0.701
		C4.004,4.344,4.134,4.469,4.292,4.47L5.21,4.472c0.16,0,0.29-0.129,0.291-0.291l0.016-2.603c1.314,0.243,6.181,0.975,13.208,0.011
		c-0.011,0.667-0.032,2.115-0.017,2.599c0.004,0.158,0.133,0.284,0.29,0.284l1.072-0.001c0.158,0,0.286-0.126,0.291-0.284
		c0.003-0.116,0.051-0.702,0.655-0.702l1.025-0.011c0.474,0,0.848,0.136,1.113,0.404c0.475,0.482,0.471,1.247,0.471,1.26
		l0.002,0.988c-0.003,0.043-0.511,4.394-8.988,9.745c-0.069,0.044-0.113,0.11-0.129,0.184H9.883z"/>
</g>
<g>
</g>
<g>
</g>
<g>
</g>
<g>
</g>
<g>
</g>
<g>
</g>
<g>
</g>
<g>
</g>
<g>
</g>
<g>
</g>
<g>
</g>
<g>
</g>
<g>
</g>
<g>
</g>
<g>
</g>
</svg>
