<?xml version="1.0" encoding="utf-8"?>
<!-- Generator: Adobe Illustrator 16.0.4, SVG Export Plug-In . SVG Version: 6.00 Build 0)  -->
<!DOCTYPE svg PUBLIC "-//W3C//DTD SVG 1.1//EN" "http://www.w3.org/Graphics/SVG/1.1/DTD/svg11.dtd">
<svg version="1.1" id="Capa_1" xmlns="http://www.w3.org/2000/svg" xmlns:xlink="http://www.w3.org/1999/xlink" x="0px" y="0px"
	 width="23.785px" height="30.221px" viewBox="0 0 23.785 30.221" enable-background="new 0 0 23.785 30.221" xml:space="preserve">
<path fill="#2D2D2D" d="M6.966,17.944c0,1.31-1.063,2.37-2.369,2.37c-1.309,0-2.372-1.061-2.372-2.37
	c0-1.308,1.063-2.369,2.372-2.369C5.902,15.574,6.966,16.636,6.966,17.944z M7.104,21.791l3.513,6.753l-2.087-0.08L7.394,30.22
	l-2.529-4.859l-1.381,4.681l-1.449-1.506L0,29.013l2.122-7.197C0.846,20.998,0,19.571,0,17.943c0-2.539,2.058-4.596,4.596-4.596
	c2.538,0,4.597,2.056,4.597,4.596C9.193,19.555,8.361,20.972,7.104,21.791z M8.706,17.289l-0.983,0.209
	c0.047,0.221,0.071,0.246,0.071,0.474c0,0.47-0.101,0.923-0.297,1.348l0.912,0.425c0.259-0.558,0.394-1.155,0.394-1.772
	C8.803,17.674,8.769,17.577,8.706,17.289z M6.101,15.144c0.405,0.217,0.769,0.527,1.048,0.9l0.804-0.607
	c-0.366-0.484-0.842-0.894-1.376-1.181L6.101,15.144z M3.04,14.048l0.368,0.938c0.375-0.147,0.769-0.223,1.176-0.223
	c0.062,0,0.126,0.002,0.188,0.006l0.059-1.007c-0.083-0.004-0.163-0.007-0.247-0.007C4.053,13.755,3.53,13.854,3.04,14.048z
	 M0.593,16.612l0.952,0.324c0.149-0.436,0.396-0.844,0.718-1.179l-0.729-0.695C1.113,15.502,0.788,16.039,0.593,16.612z
	 M1.831,19.62c-0.242-0.403-0.387-0.844-0.435-1.31l-1.003,0.104c0.063,0.614,0.258,1.191,0.574,1.722L1.831,19.62z M2.244,21.411
	L2.21,21.457c0.007,0.002,0.012,0.005,0.017,0.008L2.244,21.411z M4.06,21.138c-0.463-0.075-0.893-0.25-1.281-0.512l-0.531,0.776
	l0.604,0.406c0.332,0.15,0.679,0.261,1.044,0.322L4.06,21.138z M7.529,17.973c0-1.626-1.319-2.945-2.945-2.945
	s-2.943,1.319-2.943,2.945c0,1.625,1.317,2.942,2.943,2.942S7.529,19.598,7.529,17.973z M5.707,22.036
	c0.593-0.164,1.131-0.45,1.604-0.85L6.66,20.42c-0.359,0.303-0.769,0.521-1.222,0.646L5.707,22.036z M16.391,24.054l0.51,0.361
	c0.008-0.012,0.781-1.076,2.07-0.97l0.055-0.625C17.391,22.677,16.428,23.999,16.391,24.054z M20.07,22.941l-0.623-0.079
	l-0.08,0.634l0.623,0.079L20.07,22.941z M3.923,0v12.696c0.217-0.042,0.442-0.065,0.672-0.065c0.199,0,0.394,0.02,0.582,0.053V1.256
	h17.354v24.042H9.637l0.695,1.255h13.453V0H3.923z M9.672,3.136v1.255h8.362V3.136H9.672z M7.114,7.084h13.07V6.377H7.114V7.084z
	 M7.114,9.201h13.07V8.492H7.114V9.201z M7.114,11.371h13.07v-0.706H7.114V11.371z M7.114,13.579h13.07v-0.708H7.114V13.579z
	 M19.107,21.789c-0.045-0.032-0.092-0.061-0.133-0.086c-0.099,0.047-0.207,0.086-0.33,0.115l-0.881,0.695
	c-0.195,0.156-0.441,0.351-0.664,0.351c-0.09,0-0.176-0.033-0.254-0.108c-0.129-0.128-0.253-0.25,0.176-0.927
	c-0.912-0.123-1.414-0.349-1.621-0.721c-0.213-0.389-0.032-0.782,0.101-1.07c0.037-0.088,0.097-0.217,0.106-0.276
	c-0.022,0.011-0.121-0.035-0.383-0.056c-0.183-0.013-0.42-0.004-0.494,0.125c-0.224,0.378,0.345,1.56,0.797,2.24l-0.549,0.366
	c-0.227-0.34-1.324-2.072-0.818-2.941c0.138-0.233,0.445-0.499,1.117-0.447c0.33,0.025,0.734,0.094,0.91,0.396
	c0.174,0.298,0.027,0.613-0.092,0.869c-0.08,0.179-0.172,0.379-0.119,0.474c0.035,0.062,0.226,0.274,1.211,0.398
	c0.094,0.013,0.182,0.022,0.266,0.028c0.01-0.014,0.02-0.029,0.033-0.045c-0.178-0.294-0.422-0.812-0.24-1.208
	c0.08-0.174,0.266-0.388,0.697-0.424c0.568-0.05,1.138,0.383,1.392,0.811c0.177,0.301,0.218,0.61,0.114,0.876
	c0.008,0.005,0.015,0.011,0.023,0.019l0.25,0.162l-0.369,0.55L19.107,21.789z M18.842,20.883c-0.011-0.079-0.052-0.157-0.072-0.196
	c-0.164-0.271-0.502-0.495-0.74-0.495c-0.012,0-0.02,0-0.029,0.001c-0.121,0.012-0.157,0.04-0.157,0.04
	c-0.046,0.084,0.091,0.456,0.313,0.755l0.145,0.202l-0.021,0.026c0.025-0.003,0.055-0.007,0.076-0.012l0.438-0.345L18.842,20.883z"
	/>
</svg>
