<?xml version="1.0" encoding="iso-8859-1"?>
<!-- Generator: Adobe Illustrator 16.0.0, SVG Export Plug-In . SVG Version: 6.00 Build 0)  -->
<!DOCTYPE svg PUBLIC "-//W3C//DTD SVG 1.1//EN" "http://www.w3.org/Graphics/SVG/1.1/DTD/svg11.dtd">
<svg version="1.1" id="Capa_1" xmlns="http://www.w3.org/2000/svg" xmlns:xlink="http://www.w3.org/1999/xlink" x="0px" y="0px"
	 width="28.03px" height="25.707px" viewBox="0 0 28.03 25.707" style="enable-background:new 0 0 28.03 25.707;"
	 xml:space="preserve">
<g>
	<path style="fill:#2D2D2D;" d="M11.732,18.14c0-4.077,2.89-7.492,6.729-8.311v-6.46c0-0.511-0.412-0.923-0.921-0.923L1.816,2.438
		c0-0.633,0.951-0.955,0.951-0.955h15.693c0.981,0,0.952,0.865,0.952,0.865V9.68c0.271-0.025,0.545-0.041,0.821-0.041
		c0.214,0,0.424,0.017,0.634,0.032V0.866C20.868,0.175,20.003,0,20.003,0H2.596C0,0,0,2.405,0,2.405v22.156
		c0,0.509,0.411,0.923,0.924,0.923H15.97C13.44,24.011,11.732,21.274,11.732,18.14z M4.536,5.875h9.529v1.803H4.536V5.875z"/>
	<path style="fill:#2D2D2D;" d="M20.549,10.745c-4.132,0-7.479,3.349-7.479,7.479s3.348,7.482,7.479,7.482s7.481-3.352,7.481-7.482
		S24.681,10.745,20.549,10.745z M26.125,19.582c-0.577,0.405-1.305,0.593-2.289,0.593c-0.419,0-0.849-0.017-1.151-0.047
		l-0.306-0.031l0.701-3.098h1.157l-0.527,2.304c0.09,0.002,0.179,0.002,0.257,0.002c0.635,0,1.107-0.144,1.447-0.438
		c0.353-0.295,0.553-0.754,0.553-1.259c0-0.659-0.391-0.955-1.266-0.955c-0.056,0-0.107,0-0.16,0.002v-0.002h-1.383l0,0h-0.646
		l-2.539,4.01h-0.234l-0.911-4.064h-0.646c0.24,0.264,0.38,0.627,0.38,1.046c0,0.764-0.371,1.483-0.991,1.927
		c-0.559,0.394-1.261,0.576-2.212,0.576c-0.406,0-0.823-0.018-1.116-0.043l-0.293-0.029l0.675-2.985h1.117l-0.506,2.215
		c0.087,0.001,0.171,0.001,0.249,0.001c0.612,0,1.068-0.137,1.4-0.422c0.34-0.286,0.532-0.729,0.532-1.217
		c0-0.639-0.377-0.924-1.225-0.924c-0.096,0-0.189,0.002-0.277,0.006v-0.004h-1.214l0.161-0.712l0.05-0.245h4.775l0.021,0.145h0.006
		l0.055,0.409l0.041,0.257h-0.004l0.39,1.914c0.025-0.041,0.053-0.084,0.079-0.128l1.647-2.597h1.107l0,0h1.184v0.002
		c0.169-0.002,0.432-0.002,0.515-0.002c0.853,0,1.514,0.206,1.92,0.598c0.32,0.273,0.502,0.703,0.502,1.202
		C27.15,18.376,26.769,19.122,26.125,19.582z"/>
</g>
<g>
</g>
<g>
</g>
<g>
</g>
<g>
</g>
<g>
</g>
<g>
</g>
<g>
</g>
<g>
</g>
<g>
</g>
<g>
</g>
<g>
</g>
<g>
</g>
<g>
</g>
<g>
</g>
<g>
</g>
</svg>
