<?xml version="1.0" encoding="iso-8859-1"?>
<!-- Generator: Adobe Illustrator 16.0.0, SVG Export Plug-In . SVG Version: 6.00 Build 0)  -->
<!DOCTYPE svg PUBLIC "-//W3C//DTD SVG 1.1//EN" "http://www.w3.org/Graphics/SVG/1.1/DTD/svg11.dtd">
<svg version="1.1" id="Capa_1" xmlns="http://www.w3.org/2000/svg" xmlns:xlink="http://www.w3.org/1999/xlink" x="0px" y="0px"
	 width="20.871px" height="25.483px" viewBox="0 0 20.871 25.483" style="enable-background:new 0 0 20.871 25.483;"
	 xml:space="preserve">
<path style="fill-rule:evenodd;clip-rule:evenodd;fill:#2D2D2D;" d="M20.87,23.58V0.864C20.87,0.174,20.004,0,20.004,0H2.6
	C0.002,0,0,2.404,0,2.404v22.157c0,0.508,0.413,0.922,0.926,0.922h16.617c0.508,0,0.921-0.414,0.921-0.922l1.482-0.004
	C20.94,24.558,20.87,23.58,20.87,23.58z M14.068,7.676h-9.53V5.875h9.53V7.676z M19.418,23.124c0,0-0.164,0.599-0.954,0.599v-7.196
	V3.368c0-0.511-0.413-0.924-0.921-0.924L1.819,2.438c0-0.634,0.952-0.956,0.952-0.956h15.692c0.982,0,0.954,0.865,0.954,0.865
	V23.124z"/>
<g>
</g>
<g>
</g>
<g>
</g>
<g>
</g>
<g>
</g>
<g>
</g>
<g>
</g>
<g>
</g>
<g>
</g>
<g>
</g>
<g>
</g>
<g>
</g>
<g>
</g>
<g>
</g>
<g>
</g>
</svg>
