<?xml version="1.0" encoding="iso-8859-1"?>
<!-- Generator: Adobe Illustrator 16.0.0, SVG Export Plug-In . SVG Version: 6.00 Build 0)  -->
<!DOCTYPE svg PUBLIC "-//W3C//DTD SVG 1.1//EN" "http://www.w3.org/Graphics/SVG/1.1/DTD/svg11.dtd">
<svg version="1.1" id="Capa_1" xmlns="http://www.w3.org/2000/svg" xmlns:xlink="http://www.w3.org/1999/xlink" x="0px" y="0px"
	 width="26.408px" height="23.388px" viewBox="0 0 26.408 23.388" style="enable-background:new 0 0 26.408 23.388;"
	 xml:space="preserve">
<g>
	<path style="fill:#2D2D2D;" d="M9.866,18.998c-1.209,0-2.192,0.983-2.192,2.196c0,1.209,0.983,2.193,2.192,2.193
		c1.214,0,2.194-0.984,2.194-2.193C12.061,19.981,11.08,18.998,9.866,18.998z"/>
	<path style="fill:#2D2D2D;" d="M19.447,18.998c-1.212,0-2.195,0.983-2.195,2.196c0,1.209,0.983,2.193,2.195,2.193
		s2.192-0.984,2.192-2.193C21.64,19.981,20.659,18.998,19.447,18.998z"/>
	<path style="fill:#2D2D2D;" d="M25.038,6.965h-0.7l-0.701,2.201l-0.683,2.305l-0.218,0.705l-1.607-5.85
		c-0.002-0.004-0.002-0.004-0.002-0.004c-0.037-0.134-0.177-0.215-0.31-0.177c-0.061,0.015-0.109,0.051-0.141,0.099
		c-0.146,0.154-1.18,1.178-2.166,0.617c-0.092-0.055-0.201-0.043-0.282,0.018c-0.08,0.063-0.114,0.169-0.088,0.268l2.058,7.478
		c0.035,0.136,0.175,0.215,0.309,0.178l1.59-0.438l-0.389,1.314H9.38L8.563,9.166L8.299,6.965c0,0-0.239-2.029-0.373-2.869
		c-0.136-0.842-2.243-1.896-6.77-4.03c-1.065-0.446-1.954,1.501,0,2.521l3.57,1.667c0,0,0.83,0.483,0.901,1.131
		C5.7,6.032,7.148,16.774,7.148,16.774s0.058,1.493,1.415,1.493c1.358,0,12.487,0,13.627,0c1.138,0,1.361-1.19,1.361-1.19
		l2.698-8.02C26.25,9.058,27.054,6.965,25.038,6.965z M20.615,14.407L18.681,7.37c0.327,0.074,0.644,0.05,0.932-0.03l1.464,5.318
		c0.026,0.099,0.125,0.153,0.223,0.127c0.096-0.026,0.151-0.125,0.125-0.223l-1.47-5.345c0.326-0.144,0.602-0.341,0.801-0.507
		l1.729,6.288l-0.16,0.522l0.024-0.002l-0.131,0.447L20.615,14.407z"/>
	<path style="fill:#2D2D2D;" d="M18.136,12.18c-0.041-0.095-0.131-0.156-0.235-0.156h-7.754c-0.142,0-0.254,0.115-0.254,0.253v2.593
		c0,0.14,0.112,0.252,0.254,0.252H17.9c0.003,0,0.003,0,0.003,0c0.142,0,0.256-0.112,0.256-0.252c0-0.06-0.023-0.117-0.06-0.16
		c-0.109-0.186-0.825-1.45-0.02-2.254C18.154,12.384,18.174,12.274,18.136,12.18z M10.244,14.659v-2.175h7.299
		c-0.159,0.297-0.221,0.607-0.221,0.907h-5.516c-0.101,0-0.18,0.081-0.18,0.181c0,0.101,0.079,0.181,0.18,0.181h5.545
		c0.052,0.353,0.169,0.672,0.277,0.906H10.244z"/>
	<path style="fill:#2D2D2D;" d="M10.12,11.604h7.755c0.002,0,0.002,0,0.002,0c0.141,0,0.256-0.113,0.256-0.253
		c0-0.062-0.023-0.116-0.061-0.16c-0.11-0.183-0.823-1.449-0.021-2.254c0.076-0.071,0.096-0.182,0.058-0.277
		c-0.04-0.092-0.133-0.154-0.234-0.154H10.12c-0.142,0-0.254,0.113-0.254,0.252v2.594C9.866,11.49,9.979,11.604,10.12,11.604z
		 M10.219,8.967h7.297c-0.157,0.296-0.22,0.607-0.22,0.908H11.78c-0.101,0-0.18,0.079-0.18,0.179s0.079,0.182,0.18,0.182h5.544
		c0.054,0.353,0.171,0.671,0.276,0.906h-7.382V8.967z"/>
</g>
<g>
</g>
<g>
</g>
<g>
</g>
<g>
</g>
<g>
</g>
<g>
</g>
<g>
</g>
<g>
</g>
<g>
</g>
<g>
</g>
<g>
</g>
<g>
</g>
<g>
</g>
<g>
</g>
<g>
</g>
</svg>
