<?xml version="1.0" encoding="iso-8859-1"?>
<!-- Generator: Adobe Illustrator 16.0.0, SVG Export Plug-In . SVG Version: 6.00 Build 0)  -->
<!DOCTYPE svg PUBLIC "-//W3C//DTD SVG 1.1//EN" "http://www.w3.org/Graphics/SVG/1.1/DTD/svg11.dtd">
<svg version="1.1" id="Capa_1" xmlns="http://www.w3.org/2000/svg" xmlns:xlink="http://www.w3.org/1999/xlink" x="0px" y="0px"
	 width="27.873px" height="24.316px" viewBox="0 0 27.873 24.316" style="enable-background:new 0 0 27.873 24.316;"
	 xml:space="preserve">
<g>
	<g>
		<g>
			<path style="fill:#2D2D2D;" d="M13.943,24.316c-0.003,0-0.006,0-0.01,0c-0.952-0.005-1.732-0.634-2.301-1.094
				c-0.197-0.158-0.401-0.323-0.529-0.392C7.745,21.049,0.939,21.976,0.87,21.985c-0.217,0.031-0.44-0.035-0.606-0.18
				C0.096,21.659,0,21.449,0,21.228v-17.5c0-0.234,0.108-0.457,0.293-0.602C0.477,2.982,0.718,2.93,0.946,2.986
				c1.066,0.26,2.946,0.685,3.445,0.715c0.421,0.026,0.742,0.388,0.716,0.81C5.082,4.932,4.725,5.255,4.298,5.227
				C3.77,5.195,2.451,4.907,1.529,4.695v15.676c2.058-0.202,7.237-0.51,10.29,1.11c0.258,0.137,0.509,0.339,0.773,0.552
				c0.415,0.335,0.932,0.753,1.349,0.754c0.001,0,0.002,0,0.003,0c0.406,0,0.947-0.442,1.382-0.797
				c0.275-0.226,0.537-0.438,0.798-0.577c3.05-1.615,8.17-1.271,10.219-1.05v-15.8l-2.688,0.645
				c-0.408,0.099-0.823-0.154-0.922-0.564c-0.098-0.411,0.155-0.823,0.565-0.921l3.63-0.871c0.229-0.054,0.468-0.002,0.652,0.143
				c0.184,0.145,0.291,0.366,0.291,0.6v17.635c0,0.222-0.097,0.434-0.267,0.579c-0.168,0.145-0.391,0.211-0.612,0.177
				c-0.068-0.01-6.804-0.995-10.154,0.78c-0.127,0.067-0.34,0.242-0.546,0.41C15.704,23.655,14.896,24.316,13.943,24.316z"/>
		</g>
	</g>
	<g>
		<g>
			<g>
				<path style="fill:#2D2D2D;" d="M13.453,21.151v-0.568L13.22,20.45c-2.444-1.403-6.226-1.613-8.261-1.613H4.084V2.087
					C4.084,0.781,4.835,0,6.092,0c2.21,0,6.513,2.792,7.811,3.866c1.341-1.064,5.819-3.661,7.955-3.661
					c1.191,0,1.931,0.721,1.931,1.882v16.75h-0.875c-2.056,0-5.87,0.214-8.312,1.642l-0.238,0.139v0.489l-0.421-0.242L13.453,21.151
					z M14.972,4.979l0.009,0.386V18.59c2.264-0.948,5.045-1.23,7.279-1.274V2.087c0-0.271,0-0.353-0.402-0.353
					C20.094,1.734,16.127,4.185,14.972,4.979z M5.613,17.315c2.212,0.043,4.968,0.321,7.224,1.251l0.001-13.604
					C11.72,4.123,7.849,1.528,6.092,1.528c-0.332,0-0.479,0.023-0.479,0.559V17.315z"/>
			</g>
		</g>
	</g>
</g>
<g>
</g>
<g>
</g>
<g>
</g>
<g>
</g>
<g>
</g>
<g>
</g>
<g>
</g>
<g>
</g>
<g>
</g>
<g>
</g>
<g>
</g>
<g>
</g>
<g>
</g>
<g>
</g>
<g>
</g>
</svg>
