<?xml version="1.0" encoding="utf-8"?>
<!-- Generator: Adobe Illustrator 17.0.0, SVG Export Plug-In . SVG Version: 6.00 Build 0)  -->
<!DOCTYPE svg PUBLIC "-//W3C//DTD SVG 1.1//EN" "http://www.w3.org/Graphics/SVG/1.1/DTD/svg11.dtd">
<svg version="1.1" id="Capa_1" xmlns="http://www.w3.org/2000/svg" xmlns:xlink="http://www.w3.org/1999/xlink" x="0px" y="0px"
	 width="24.445px" height="26.064px" viewBox="0 0 24.445 26.064" enable-background="new 0 0 24.445 26.064" xml:space="preserve">
<path fill="#1D1D1B" d="M18.461,23.146l-1.218-1.22c-0.555,0.253-1.146,0.419-1.75,0.49c-0.446,0.067-0.729,0.053-1.222,0.021
	l-0.059-0.004c-3.077-0.291-5.397-2.843-5.397-5.938c0.005-1.614,0.631-3.109,1.762-4.232c1.131-1.122,2.631-1.737,4.224-1.729
	c1.381,0.004,2.65,0.484,3.66,1.279V3.369c0-0.511-0.412-0.923-0.921-0.923L1.817,2.438c0-0.633,0.953-0.955,0.953-0.955h15.692
	c0.982,0,0.954,0.865,0.954,0.865v10.4c0.831,1.025,1.331,2.329,1.331,3.746c-0.002,0.865-0.184,1.699-0.531,2.464l0.654,0.656
	V0.866C20.869,0.175,20.003,0,20.003,0H2.597C0,0,0,2.405,0,2.405v22.156c0,0.509,0.412,0.923,0.923,0.923H17.54
	c0.51,0,0.921-0.414,0.921-0.923h1.414l-0.93-0.932L18.461,23.146z M4.538,5.875h9.53v1.803h-9.53V5.875z M24.195,24.611
	l-5.375-5.374c0.546-0.782,0.868-1.729,0.871-2.754c0.009-2.674-2.152-4.85-4.826-4.856c-2.673-0.012-4.85,2.15-4.859,4.824
	c-0.008,2.523,1.915,4.603,4.381,4.836h0.024c0.483,0.034,0.667,0.041,0.998-0.011c0.815-0.093,1.568-0.391,2.208-0.838l5.376,5.375
	c0.332,0.334,0.871,0.334,1.203,0.002C24.528,25.482,24.528,24.945,24.195,24.611z M14.837,20.099
	c-2.006-0.006-3.627-1.638-3.62-3.646c0.006-2.004,1.64-3.624,3.645-3.616c2.005,0.006,3.625,1.638,3.618,3.643
	C18.475,18.487,16.841,20.106,14.837,20.099z"/>
</svg>
