<?xml version="1.0" encoding="iso-8859-1"?>
<!-- Generator: Adobe Illustrator 16.0.0, SVG Export Plug-In . SVG Version: 6.00 Build 0)  -->
<!DOCTYPE svg PUBLIC "-//W3C//DTD SVG 1.1//EN" "http://www.w3.org/Graphics/SVG/1.1/DTD/svg11.dtd">
<svg version="1.1" id="Capa_1" xmlns="http://www.w3.org/2000/svg" xmlns:xlink="http://www.w3.org/1999/xlink" x="0px" y="0px"
	 width="26.121px" height="26.738px" viewBox="0 0 26.121 26.738" style="enable-background:new 0 0 26.121 26.738;"
	 xml:space="preserve">
<g>
	<path style="fill:#2D2D2D;" d="M11.868,18.466c0.096-0.241,0.423-0.803,1.376-0.803h2.229v-5.467
		c-0.033-0.301,0.025-0.676,0.275-1.001c0.207-0.27,0.611-0.59,1.364-0.59h1.35V3.369c0-0.511-0.412-0.923-0.921-0.923L1.817,2.438
		c0-0.633,0.953-0.955,0.953-0.955h15.692c0.982,0,0.954,0.865,0.954,0.865v8.258h1.454V0.866C20.87,0.175,20.004,0,20.004,0H2.597
		C0,0,0,2.405,0,2.405v22.156c0,0.509,0.413,0.923,0.924,0.923h15.866l-4.371-5.28C12.117,19.902,11.568,19.222,11.868,18.466z
		 M4.537,5.875h9.531v1.803H4.537V5.875z"/>
	<path style="fill:#2D2D2D;" d="M25.523,18.478c-1.159,0-3,0-3,0s0-0.504,0-1.271c0-2.368,0-3.403,0-5.169
		c0,0,0.014-0.411-0.522-0.411c-0.534,0-3.82,0-4.569,0s-0.618,0.491-0.618,0.491c0,1.815,0,2.699,0,5.15c0,0.856,0,1.416,0,1.416
		s-2.299,0-3.25,0c-0.947,0-0.074,0.823-0.074,0.823l5.764,6.966c0,0,0.471,0.555,0.969,0.059c0.681-0.684,5.584-7.189,5.584-7.189
		S26.677,18.478,25.523,18.478z"/>
</g>
<g>
</g>
<g>
</g>
<g>
</g>
<g>
</g>
<g>
</g>
<g>
</g>
<g>
</g>
<g>
</g>
<g>
</g>
<g>
</g>
<g>
</g>
<g>
</g>
<g>
</g>
<g>
</g>
<g>
</g>
</svg>
