<?xml version="1.0" encoding="utf-8"?>
<!-- Generator: Adobe Illustrator 17.0.0, SVG Export Plug-In . SVG Version: 6.00 Build 0)  -->
<!DOCTYPE svg PUBLIC "-//W3C//DTD SVG 1.1//EN" "http://www.w3.org/Graphics/SVG/1.1/DTD/svg11.dtd">
<svg version="1.1" id="Capa_1" xmlns="http://www.w3.org/2000/svg" xmlns:xlink="http://www.w3.org/1999/xlink" x="0px" y="0px"
	 width="25.395px" height="26.27px" viewBox="0 0 25.395 26.27" enable-background="new 0 0 25.395 26.27" xml:space="preserve">
<path fill="#1D1D1B" d="M25.262,13.669l-0.57,0.29c0.041,0.083,0.092,0.274,0.045,0.33c-0.004,0.004-0.2,0.221-1.332-0.13
	c-0.864-0.268-1.573-0.221-2.111,0.139c-0.377,0.255-0.589,0.617-0.709,0.92l-0.248-0.241l-0.033-0.028
	c-1.819-1.341-3.491-2.05-5.089-0.454l-1.583,1.585l-0.319,0.319l-2.005,2c-1.796,1.799-1.796,4.726,0,6.523
	c1.801,1.797,4.724,1.797,6.524,0l2.017-2.02l0.299-0.297l1.364-1.363c1.633-1.633,1.123-3.566-0.288-5.395l-0.015-0.018
	l-0.111-0.109c0.05-0.219,0.188-0.645,0.553-0.892c0.37-0.247,0.896-0.267,1.565-0.06c1.056,0.327,1.695,0.305,2.011-0.068
	C25.565,14.297,25.294,13.731,25.262,13.669z M17.38,24.47c-1.549,1.549-4.07,1.549-5.618,0c-1.549-1.55-1.549-4.069,0-5.618
	l1.672-1.674c0.696,1.42,1.545,2.635,2.528,3.617c1.15,1.151,2.263,1.762,3.017,2.076L17.38,24.47z M21.06,20.791l-1.383,1.381
	c-1.164-0.413-2.233-1.103-3.184-2.052v-0.002c-1.273-1.274-2.043-2.72-2.422-3.575l1.595-1.597
	c1.369-1.372,2.674-0.637,4.239,0.503l0.825,0.807C21.93,17.828,22.461,19.389,21.06,20.791z M18.379,16.351l-1.438,1.436
	c-0.414,0.415-0.414,1.09,0,1.502c0.416,0.415,1.09,0.415,1.505,0l1.435-1.438c0.415-0.412,0.415-1.088,0.002-1.5
	C19.467,15.936,18.793,15.936,18.379,16.351z M19.429,17.398l-1.437,1.438c-0.167,0.166-0.434,0.166-0.599,0.003
	c-0.166-0.167-0.166-0.437,0-0.6l1.437-1.438c0.166-0.164,0.436-0.164,0.599,0C19.594,16.967,19.594,17.234,19.429,17.398z
	 M10.842,17.842l3.906-3.905c0.521-0.522,1.09-0.862,1.69-1.027V2.955c0-0.454-0.368-0.821-0.819-0.821h-0.438
	c0.059,0.017,0.106,0.063,0.106,0.126v9.397c0,0.058-0.035,0.108-0.087,0.13c-0.056,0.023-0.116,0.011-0.153-0.031l-2.28-2.278
	l-2.28,2.278c-0.027,0.028-0.062,0.044-0.1,0.044c-0.019,0-0.037-0.002-0.055-0.013c-0.052-0.021-0.086-0.072-0.086-0.13V2.26
	c0-0.066,0.049-0.113,0.11-0.13L1.615,2.128c0-0.566,0.85-0.853,0.85-0.853h13.974c0.872,0,0.848,0.77,0.848,0.77v10.751
	c0.424,0,0.846,0.087,1.251,0.223V0.771C18.537,0.154,17.767,0,17.767,0H2.311C0.002,0,0,2.1,0,2.1v19.728
	c0,0.454,0.366,0.821,0.822,0.821h8.541C9.045,20.96,9.537,19.146,10.842,17.842z M3.286,21.244H1.863V3.271h1.423V21.244z"/>
</svg>
