<?xml version="1.0" encoding="iso-8859-1"?>
<!-- Generator: Adobe Illustrator 16.0.0, SVG Export Plug-In . SVG Version: 6.00 Build 0)  -->
<!DOCTYPE svg PUBLIC "-//W3C//DTD SVG 1.1//EN" "http://www.w3.org/Graphics/SVG/1.1/DTD/svg11.dtd">
<svg version="1.1" id="Capa_1" xmlns="http://www.w3.org/2000/svg" xmlns:xlink="http://www.w3.org/1999/xlink" x="0px" y="0px"
	 width="25.978px" height="24.354px" viewBox="0 0 25.978 24.354" style="enable-background:new 0 0 25.978 24.354;"
	 xml:space="preserve">
<g>
	<path style="fill:#2D2D2D;" d="M25.705,2.792c-0.17-0.136-0.395-0.185-0.605-0.136l-2.929,0.703V1.946
		c0-1.081-0.688-1.755-1.799-1.755c-1.99,0-6.163,2.422-7.415,3.412C11.748,2.604,7.738,0,5.677,0c-1.17,0-1.87,0.728-1.87,1.946
		v1.467C3.126,3.308,1.732,2.991,0.881,2.784C0.67,2.731,0.444,2.78,0.272,2.916C0.101,3.05,0,3.257,0,3.477v18.562
		c0,0.205,0.089,0.401,0.245,0.539c0.156,0.134,0.363,0.195,0.566,0.165c0.063-0.008,6.407-1.434,9.536,0.227
		c0.12,0.062,0.311,0.217,0.491,0.364c0.533,0.429,1.259,1.016,2.147,1.02c0.002,0,0.005,0,0.008,0c0.889,0,1.642-0.615,2.192-1.065
		c0.192-0.156,0.389-0.318,0.509-0.382c3.122-1.653,9.401-0.174,9.463-0.163c0.208,0.03,0.414-0.029,0.57-0.165
		c0.158-0.134,0.249-0.332,0.249-0.539V3.349C25.978,3.131,25.879,2.925,25.705,2.792z M5.23,1.946c0-0.5,0.138-0.521,0.446-0.521
		c1.64,0,5.246,2.263,6.289,3.047L12.973,5.2l0.98-0.56c1.079-0.739,4.774-3.023,6.419-3.023c0.375,0,0.375,0.076,0.375,0.329
		v14.194c-2.082,0.039-5.714,0.591-6.784,1.187c-1.069,0.594-0.965,0.662-0.965,0.662s-0.075-0.093-1.034-0.685
		c-1.107-0.75-4.671-1.125-6.733-1.164V1.946z M24.553,19.73c-1.712-0.75-6.682-1.277-9.524,0.228
		c-0.243,0.131-0.487,0.328-0.744,0.537c-0.406,0.332-0.91,0.744-1.288,0.744c-0.002,0-0.002,0-0.004,0
		c-0.387-0.002-0.869-0.389-1.256-0.702c-0.247-0.199-0.479-0.389-0.72-0.515c-2.847-1.51-7.699-0.762-9.591-0.104V4.377
		c0.761,0.175,1.808,0.405,2.381,0.477V17.56h0.816c1.896,0,5.419,0.193,7.699,1.502l0.215,0.124v0.53l0.459-0.269l0.392,0.227
		v-0.456l0.224-0.13c2.274-1.331,5.829-1.528,7.744-1.528h0.815V4.825l2.382-0.572V19.73z"/>
	<path style="fill:#2D2D2D;" d="M7.933,9.589c0,0.624,0,1.712,0,2.148c0,0.167,0.235,0.296,0.526,0.395V9.06
		C8.168,9.181,7.933,9.351,7.933,9.589z"/>
	<path style="fill:#2D2D2D;" d="M13.091,14.573c0-0.479,0-7.618,0-8.055c0-0.375-0.485-0.009-0.485-0.009L9.527,8.807
		c0,0-0.286,0.031-0.618,0.11v3.333c0.332,0.072,0.618,0.104,0.618,0.104l3.012,2.234C12.539,14.589,13.091,15.051,13.091,14.573z"
		/>
	<path style="fill:#2D2D2D;" d="M14.545,12.802c0.124,0.124,0.286,0.186,0.447,0.186c0.164,0,0.324-0.062,0.448-0.186l1.31-1.312
		l1.312,1.312c0.124,0.124,0.287,0.186,0.449,0.186c0.16,0,0.323-0.062,0.446-0.186c0.248-0.248,0.248-0.649,0-0.896l-1.309-1.312
		l1.309-1.31c0.248-0.247,0.248-0.648,0-0.896c-0.247-0.247-0.648-0.247-0.896,0L16.75,9.7l-1.31-1.312
		c-0.247-0.247-0.649-0.247-0.896,0c-0.247,0.247-0.247,0.648,0,0.896l1.31,1.31l-1.31,1.312
		C14.298,12.152,14.298,12.554,14.545,12.802z"/>
</g>
<g>
</g>
<g>
</g>
<g>
</g>
<g>
</g>
<g>
</g>
<g>
</g>
<g>
</g>
<g>
</g>
<g>
</g>
<g>
</g>
<g>
</g>
<g>
</g>
<g>
</g>
<g>
</g>
<g>
</g>
</svg>
