<?xml version="1.0" encoding="iso-8859-1"?>
<!-- Generator: Adobe Illustrator 16.0.0, SVG Export Plug-In . SVG Version: 6.00 Build 0)  -->
<!DOCTYPE svg PUBLIC "-//W3C//DTD SVG 1.1//EN" "http://www.w3.org/Graphics/SVG/1.1/DTD/svg11.dtd">
<svg version="1.1" id="Capa_1" xmlns="http://www.w3.org/2000/svg" xmlns:xlink="http://www.w3.org/1999/xlink" x="0px" y="0px"
	 width="25.743px" height="24.967px" viewBox="0 0 25.743 24.967" style="enable-background:new 0 0 25.743 24.967;"
	 xml:space="preserve">
<g>
	<path style="fill:#2D2D2D;" d="M25.562,23.678c-0.343-0.568-2.567-4.512-0.062-7.019c0.231-0.224,0.293-0.562,0.175-0.861
		c-0.124-0.294-0.412-0.483-0.733-0.483H0.788C0.349,15.314,0,15.669,0,16.103v8.076c0,0.432,0.349,0.788,0.788,0.788h24.154
		c0.006,0,0.006,0,0.006,0c0.439,0,0.794-0.356,0.794-0.788C25.743,23.987,25.675,23.812,25.562,23.678z M1.092,23.525V16.75h22.736
		c-0.496,0.924-0.682,1.893-0.682,2.827H5.963c-0.315,0-0.562,0.253-0.562,0.562c0,0.311,0.247,0.562,0.562,0.562H23.23
		c0.164,1.1,0.53,2.092,0.862,2.823H1.092z"/>
	<path style="fill:#2D2D2D;" d="M11.224,14.601c0.109,0.009,1.506-0.211,1.772,0.013c3.526,0,5.664-4.163,5.664-7.22
		c0.217-3.392-3.214-4.5-6.138-3.896c-0.042-0.062-0.116-0.181-0.202-0.331c0.596,0.185,1.106,0.193,1.59,0.143
		c0.489-0.061,0.943-0.197,1.367-0.399c0.423-0.201,0.813-0.47,1.167-0.814c0.35-0.354,0.672-0.768,0.897-1.375
		c-0.615-0.202-1.138-0.208-1.633-0.156c-0.49,0.061-0.944,0.197-1.367,0.402c-0.422,0.202-0.81,0.472-1.165,0.817
		c-0.342,0.346-0.657,0.751-0.884,1.335C11.971,2.55,11.451,1.46,11.219,0L10.51,0.113c0.24,1.525,0.772,2.675,1.127,3.312
		C8.809,2.994,5.686,4.153,5.893,7.394C5.893,10.353,7.853,14.351,11.224,14.601z"/>
</g>
<g>
</g>
<g>
</g>
<g>
</g>
<g>
</g>
<g>
</g>
<g>
</g>
<g>
</g>
<g>
</g>
<g>
</g>
<g>
</g>
<g>
</g>
<g>
</g>
<g>
</g>
<g>
</g>
<g>
</g>
</svg>
