<?xml version="1.0" encoding="utf-8"?>
<!-- Generator: Adobe Illustrator 17.0.0, SVG Export Plug-In . SVG Version: 6.00 Build 0)  -->
<!DOCTYPE svg PUBLIC "-//W3C//DTD SVG 1.1//EN" "http://www.w3.org/Graphics/SVG/1.1/DTD/svg11.dtd">
<svg version="1.1" id="Capa_1" xmlns="http://www.w3.org/2000/svg" xmlns:xlink="http://www.w3.org/1999/xlink" x="0px" y="0px"
	 width="23.389px" height="27.115px" viewBox="0 0 23.389 27.115" enable-background="new 0 0 23.389 27.115" xml:space="preserve">
<path fill="#2D2D2D" d="M23.375,15.195l-0.164-0.551l-0.169-0.537l-0.206-0.499l-0.19-0.496l-0.196-0.486l-0.177-0.477l-0.15-0.499
	l-0.118-0.498l0.026-0.229l0.105-0.218l0.108-0.229l0.028-0.214l-0.093-0.438L22.07,9.389l-0.117-0.442L21.816,8.52l-0.144-0.434
	l-0.151-0.425l-0.164-0.435l-0.171-0.42l-0.188-0.397l-0.206-0.407l-0.196-0.4l0.615-0.379l-0.214-0.374l-0.244-0.347l-0.241-0.353
	l-0.244-0.336l-0.23-0.28l-0.241-0.27l-0.242-0.245l-0.251-0.241L19.05,2.548l0.564-0.215l-0.292-0.196l-0.28-0.205l-0.297-0.176
	l-0.293-0.17l-0.307-0.165l-0.31-0.15l-0.321-0.145l-0.34-0.136l-0.333-0.132l-0.336-0.124L16.1,0.603l-0.4-0.104l-0.407-0.11
	l-0.398-0.093l-0.419-0.085l-0.415-0.066l-0.417-0.053l-0.42-0.039l-0.412-0.026l-0.42-0.014L11.978,0l-0.434,0.013l-0.418,0.014
	l-0.415,0.026l-0.418,0.039L9.882,0.145L9.449,0.211L9.022,0.296L8.59,0.377L8.159,0.463L7.732,0.589L7.3,0.706L6.868,0.844
	L6.453,0.99L6.047,1.153L5.649,1.345L5.241,1.526L4.856,1.729L4.475,1.958l-0.361,0.23L3.766,2.444l-0.34,0.27L3.12,2.982
	L2.823,3.264L2.543,3.56L2.274,3.865L2.019,4.206L1.762,4.528l-0.23,0.347l-0.214,0.36L1.107,5.602l-0.19,0.372l-0.162,0.38
	L0.596,6.731l-0.137,0.39L0.34,7.51L0.242,7.915L0.164,8.304l-0.119,0.83L0,9.951l0.02,0.818l0.079,0.807l0.131,0.81l0.215,0.791
	l0.268,0.769l2.021,3.279c3.426,3.529,3.282,7.057,3.282,7.057l0.009,0.696l0.027,2.138h11.682l0.049-0.219v-0.683l0.027-0.687
	l0.052-1.533l0.079-0.778l0.038-0.185l0.074-0.148l0.077-0.133l0.104-0.111l0.138-0.077l0.159-0.054l0.175-0.058l0.189-0.028
	l0.245-0.024l0.229-0.013h0.056l0.229,0.024l0.215,0.013l0.229,0.028l0.209,0.017l0.242,0.029l0.23,0.024l-0.575,0.013l0.255,0.028
	l0.256,0.013l0.281,0.014l0.164-0.014l0.17-0.041l0.175-0.066l0.166-0.082l0.159-0.105l0.136-0.125l0.114-0.132l0.1-0.138
	l0.065-0.295l-0.036-0.319l-0.061-0.319V20.64l0.047-0.138l0.064-0.115l0.065-0.126l0.081-0.106l0.083-0.111l0.066-0.118
	l0.054-0.124l0.012-0.13l-0.012-0.151l-0.027-0.132l-0.04-0.138l-0.066-0.13l-0.098-0.124l-0.105-0.119l-0.125-0.09l-0.143-0.1
	l0.156-0.078l0.15-0.092l0.153-0.111l0.104-0.105l0.093-0.124l0.057-0.132l0.028-0.123l-0.028-0.132l-0.149-0.474l-0.093-0.429
	l-0.057-0.401v-0.394l0.227-0.091l0.204-0.093l0.177-0.099l0.144-0.104l0.112-0.117l0.066-0.124l0.039-0.13L23.375,15.195z
	 M16.892,7.387c0.118,0.878-0.51,1.71-1.454,2.017c-0.28,0.221-0.628,0.379-1.014,0.457c-0.325,0.357-0.803,0.618-1.358,0.69
	c-0.504,0.07-0.98-0.031-1.37-0.243c-0.222,0.723-2.054,0.743-2.961,0.865c-0.502,0.07-0.699,2.057-1.098,1.859
	c-0.485,0.745-1.255,0.566-1.297,0.256c-0.042-0.313,0.333-3.364-2.177-3.626C4.145,9.533,3.582,9.405,3.596,9.277
	C3.232,9.034,4.081,9.262,3.935,8.864C3.086,8.655,2.996,8.04,2.887,7.232C2.817,6.724,2.985,6.231,3.302,5.83
	C3.3,5.817,3.294,5.804,3.292,5.791C3.2,5.113,3.652,4.474,4.349,4.187c0.341-0.552,0.96-0.968,1.713-1.098
	C6.341,2.877,6.687,2.73,7.074,2.676C7.408,2.63,7.728,2.669,8.018,2.761c0.1-0.024,0.197-0.053,0.301-0.065
	C8.546,2.664,8.766,2.67,8.982,2.69c0.24-0.2,0.548-0.344,0.899-0.393c0.495-0.064,0.959,0.073,1.291,0.337
	c0.348-0.25,0.771-0.429,1.247-0.495c0.453-0.061,0.886-0.006,1.275,0.128c0.993-0.096,1.898,0.318,2.347,1.016
	c0.58,0.26,1.002,0.748,1.085,1.357c0.031,0.223,0.005,0.44-0.054,0.65c0.113,0.187,0.195,0.39,0.226,0.614
	c0.066,0.494-0.107,0.974-0.437,1.354C16.869,7.303,16.886,7.342,16.892,7.387z"/>
</svg>
