<?xml version="1.0" encoding="utf-8"?>
<!-- Generator: Adobe Illustrator 17.0.0, SVG Export Plug-In . SVG Version: 6.00 Build 0)  -->
<!DOCTYPE svg PUBLIC "-//W3C//DTD SVG 1.1//EN" "http://www.w3.org/Graphics/SVG/1.1/DTD/svg11.dtd">
<svg version="1.1" id="Capa_1" xmlns="http://www.w3.org/2000/svg" xmlns:xlink="http://www.w3.org/1999/xlink" x="0px" y="0px"
	 width="25.289px" height="20.089px" viewBox="0 0 25.289 20.089" enable-background="new 0 0 25.289 20.089" xml:space="preserve">
<path fill="#2D2D2D" d="M22.88,14.058h2.405V5.892c0.001,0,0.16-2.277-1.629-2.277s-6.576,0-6.576,0V1.183
	c0,0,0.116-1.183-1.362-1.183c-1.478,0-4.396,0-6.147,0C8.052,0,8.224,1.61,8.224,1.61v2.005c0,0-4.182,0-6.517,0
	c-2.021,0-1.687,2.433-1.687,2.433v8.01h2.895v-2.282h2.569v2.282H2.916v0.932H0.021v5.099h25.265V14.99H22.88V14.058z
	 M10.339,1.525h4.625v2.09h-4.625V1.525z M20.31,14.058v-2.413h2.569v2.413H20.31l0.001,0.932H5.485v-0.932H20.31z M2.916,17.062
	v-2.071h2.568v2.071H2.916z M20.311,16.932v-1.941h2.568v1.941H20.311z"/>
</svg>
