<?xml version="1.0" encoding="utf-8"?>
<!-- Generator: Adobe Illustrator 17.0.0, SVG Export Plug-In . SVG Version: 6.00 Build 0)  -->
<!DOCTYPE svg PUBLIC "-//W3C//DTD SVG 1.1//EN" "http://www.w3.org/Graphics/SVG/1.1/DTD/svg11.dtd">
<svg version="1.1" id="Capa_1" xmlns="http://www.w3.org/2000/svg" xmlns:xlink="http://www.w3.org/1999/xlink" x="0px" y="0px"
	 width="12.477px" height="31.506px" viewBox="0 0 12.477 31.506" enable-background="new 0 0 12.477 31.506" xml:space="preserve">
<path fill="#2D2D2D" d="M2.861,16.799h5.134c0.095,0,0.187-0.027,0.268-0.074c4.235-2.533,4.217-8.337,4.214-8.592
	C12.076,0.586,6.567,0,4.888,0C4.515,0,4.289,0.028,4.277,0.029L4.215,0.047c-0.032,0.008-0.07,0.019-0.11,0.04L4.027,0.138
	C3.993,0.165,3.964,0.195,3.964,0.2L3.925,0.232L3.827,0.51C3.824,0.553,3.828,0.596,3.833,0.612l0.012,0.087
	C4.408,2.506,2.38,5.167,1.554,6.036c-3.939,4.028,0.843,10.492,0.892,10.557C2.544,16.722,2.699,16.799,2.861,16.799z M7.549,7.083
	C7.513,7.157,7.51,7.242,7.541,7.322C7.616,7.51,7.903,7.65,8.165,7.743C8.182,7.747,8.59,7.825,9.131,7.825
	c0.711,0,1.611-0.134,2.202-0.711c0.052,0.362,0.086,0.709,0.104,1.051c0.001,0.054,0.002,5.33-3.588,7.594H3.13
	c-0.801-1.166-3.787-5.975-0.827-9.001C2.416,6.639,4.936,3.954,4.975,1.44c0.849,0.476,2.272,1.45,2.798,2.82
	C8.112,5.144,8.037,6.093,7.549,7.083z M8.05,17.553H2.916c-0.202,0-0.388,0.118-0.472,0.303c-0.126,0.27-1.227,2.694-1.227,4.039
	c-0.001,1.274,0,9.091,0,9.091c0,0.288,0.233,0.52,0.52,0.52h7.411c0.288,0,0.52-0.233,0.52-0.521v-9.091
	c0.001-1.309-1.093-3.914-1.139-4.024C8.448,17.678,8.259,17.553,8.05,17.553z M2.258,21.896c0-0.902,0.7-2.617,0.997-3.302H7.7
	c0.277,0.7,0.928,2.442,0.928,3.302v8.57h-6.37C2.258,28.698,2.257,22.97,2.258,21.896z"/>
</svg>
