<?xml version="1.0" encoding="iso-8859-1"?>
<!-- Generator: Adobe Illustrator 16.0.0, SVG Export Plug-In . SVG Version: 6.00 Build 0)  -->
<!DOCTYPE svg PUBLIC "-//W3C//DTD SVG 1.1//EN" "http://www.w3.org/Graphics/SVG/1.1/DTD/svg11.dtd">
<svg version="1.1" id="Capa_1" xmlns="http://www.w3.org/2000/svg" xmlns:xlink="http://www.w3.org/1999/xlink" x="0px" y="0px"
	 width="15.558px" height="27.789px" viewBox="0 0 15.558 27.789" style="enable-background:new 0 0 15.558 27.789;"
	 xml:space="preserve">
<g>
	<path style="fill:#2D2D2D;" d="M10.83,21.356c0,0,4.728-9.628,4.728-13.577C15.558,3.482,12.073,0,7.777,0C3.482,0,0,3.482,0,7.779
		c0,3.892,5.345,13.582,5.345,13.582L10.83,21.356z M8.818,20.57l-0.887,0.001c-0.778-3.673-1.525-7.36-2.112-11.072
		c0.603,0.808,1.391,1.185,2.41,0.152c0.522-0.528,0.857-1.292,1.133-2.027C9.181,11.939,8.999,16.255,8.818,20.57z M7.777,0.789
		c3.854,0,6.989,3.136,6.989,6.99c0,3.259-3.522,10.877-4.433,12.79L9.431,20.57c0.213-5.055,0.426-10.11,0.637-15.166
		c0.018-0.431-0.53-0.197-0.603,0.083c-0.15,0.59-0.342,1.168-0.546,1.743C8.652,7.976,8.313,8.686,7.832,9.316
		c-1.114,1.457-2.17-1.562-2.372-2.07c-0.138-0.35-0.624,0.145-0.589,0.391c0.599,4.34,1.474,8.649,2.38,12.935l-1.438,0.002
		C4.227,17.63,0.79,10.661,0.79,7.779C0.79,3.925,3.925,0.789,7.777,0.789z"/>
	<path style="fill:#2D2D2D;" d="M5.177,25.55c0,0.156,0.023,0.308,0.046,0.455c0,0-0.074,1.808,2.749,1.784
		c2.822-0.025,2.867-1.784,2.867-1.784c0.023-0.147,0.048-0.299,0.048-0.455v-3.442h-5.71V25.55z"/>
</g>
<g>
</g>
<g>
</g>
<g>
</g>
<g>
</g>
<g>
</g>
<g>
</g>
<g>
</g>
<g>
</g>
<g>
</g>
<g>
</g>
<g>
</g>
<g>
</g>
<g>
</g>
<g>
</g>
<g>
</g>
</svg>
