<?xml version="1.0" encoding="iso-8859-1"?>
<!-- Generator: Adobe Illustrator 16.0.0, SVG Export Plug-In . SVG Version: 6.00 Build 0)  -->
<!DOCTYPE svg PUBLIC "-//W3C//DTD SVG 1.1//EN" "http://www.w3.org/Graphics/SVG/1.1/DTD/svg11.dtd">
<svg version="1.1" id="Capa_1" xmlns="http://www.w3.org/2000/svg" xmlns:xlink="http://www.w3.org/1999/xlink" x="0px" y="0px"
	 width="29.237px" height="28.139px" viewBox="0 0 29.237 28.139" style="enable-background:new 0 0 29.237 28.139;"
	 xml:space="preserve">
<g>
	<path style="fill:#2D2D2D;" d="M7.685,24.27h0.595v-2.131h3.688v2.131h0.596v-2.131h3.862v2.131h0.597v-2.131h4.109v2.131h0.595
		v-2.131h3.417v-0.594h-3.417v-3.861h3.417v-0.596h-3.417v-3.519h3.417v-0.594h-3.417v-2.377h-0.595v2.377h-4.109v-2.377h-0.597
		v2.377h-3.862v-2.377h-0.596v2.377H8.279v-2.377H7.685v2.377H3.747v0.594h3.938v3.519H3.747v0.596h3.938v3.861H3.747v0.594h3.938
		V24.27z M12.563,21.545v-3.861h3.862v3.861H12.563z M21.132,21.545h-4.109v-3.861h4.109V21.545z M21.132,13.569v3.519h-4.109
		v-3.519H21.132z M16.426,13.569v3.519h-3.862v-3.519H16.426z M8.279,13.569h3.688v3.519H8.279V13.569z M8.279,17.684h3.688v3.861
		H8.279V17.684z"/>
	<path style="fill:#2D2D2D;" d="M29.207,1.955l-4.129,0.004l-0.603,0.002v2.448c0,0.653-0.534,1.187-1.188,1.187h-1.388
		c-0.656,0-1.188-0.533-1.188-1.187V1.965l-1.583,0.002v2.442c0,0.653-0.535,1.187-1.191,1.187h-1.388
		c-0.655,0-1.188-0.533-1.188-1.187V1.968l-1.682,0.004v2.438c0,0.653-0.534,1.187-1.189,1.187h-1.389
		c-0.653,0-1.188-0.533-1.188-1.187V1.976H8.181v2.434c0,0.653-0.533,1.187-1.188,1.187H5.605c-0.656,0-1.189-0.533-1.189-1.187
		V1.981L0,1.985v26.153h2.09H27.15l2.087-0.006L29.207,1.955z M27.15,26.057H2.09V9.348H27.15V26.057z"/>
	<path style="fill:#2D2D2D;" d="M5.605,4.754h1.388c0.163,0,0.296-0.133,0.296-0.297v-4.16C7.289,0.132,7.156,0,6.993,0H5.605
		C5.44,0,5.307,0.132,5.307,0.297v4.16C5.307,4.621,5.44,4.754,5.605,4.754z"/>
	<path style="fill:#2D2D2D;" d="M11.101,4.754h1.389c0.164,0,0.297-0.133,0.297-0.297v-4.16C12.786,0.132,12.653,0,12.489,0h-1.389
		c-0.163,0-0.296,0.132-0.296,0.297v4.16C10.805,4.621,10.938,4.754,11.101,4.754z"/>
	<path style="fill:#2D2D2D;" d="M16.549,4.754h1.388c0.166,0,0.299-0.133,0.299-0.297v-4.16C18.235,0.132,18.103,0,17.937,0h-1.388
		c-0.164,0-0.297,0.132-0.297,0.297v4.16C16.252,4.621,16.385,4.754,16.549,4.754z"/>
	<path style="fill:#2D2D2D;" d="M21.899,4.754h1.388c0.164,0,0.296-0.133,0.296-0.297v-4.16C23.583,0.132,23.451,0,23.287,0h-1.388
		c-0.164,0-0.297,0.132-0.297,0.297v4.16C21.603,4.621,21.735,4.754,21.899,4.754z"/>
</g>
<g>
</g>
<g>
</g>
<g>
</g>
<g>
</g>
<g>
</g>
<g>
</g>
<g>
</g>
<g>
</g>
<g>
</g>
<g>
</g>
<g>
</g>
<g>
</g>
<g>
</g>
<g>
</g>
<g>
</g>
</svg>
