<?xml version="1.0" encoding="iso-8859-1"?>
<!-- Generator: Adobe Illustrator 16.0.0, SVG Export Plug-In . SVG Version: 6.00 Build 0)  -->
<!DOCTYPE svg PUBLIC "-//W3C//DTD SVG 1.1//EN" "http://www.w3.org/Graphics/SVG/1.1/DTD/svg11.dtd">
<svg version="1.1" id="Capa_1" xmlns="http://www.w3.org/2000/svg" xmlns:xlink="http://www.w3.org/1999/xlink" x="0px" y="0px"
	 width="21.688px" height="27.06px" viewBox="0 0 21.688 27.06" style="enable-background:new 0 0 21.688 27.06;"
	 xml:space="preserve">
<g>
	<g>
		<g>
			<path style="fill:#2D2D2D;" d="M20.923,18.194H0.764C0.343,18.194,0,17.852,0,17.43V2.607c0-0.422,0.343-0.764,0.764-0.764
				h20.159c0.421,0,0.765,0.342,0.765,0.764V17.43C21.688,17.852,21.345,18.194,20.923,18.194z M1.529,16.665h18.63V3.372H1.529
				V16.665z"/>
		</g>
	</g>
	<g>
		<g>
			<g>
				<line style="fill:#2D2D2D;" x1="16.542" y1="17.964" x2="19.544" y2="26.81"/>
			</g>
		</g>
		<g>
			<g>
				<polygon style="fill:#2D2D2D;" points="18.82,27.056 15.819,18.21 17.267,17.719 20.467,27.06 				"/>
			</g>
		</g>
	</g>
	<g>
		<g>
			<g>
				<line style="fill:#2D2D2D;" x1="5.291" y1="17.962" x2="2.289" y2="26.809"/>
			</g>
		</g>
		<g>
			<g>
				<polygon style="fill:#2D2D2D;" points="3.013,27.055 6.015,18.208 4.567,17.718 1.367,27.058 				"/>
			</g>
		</g>
	</g>
	<g>
		<g>
			<line style="fill:#2D2D2D;" x1="10.844" y1="17.962" x2="10.844" y2="26.794"/>
		</g>
		<g>
			<rect x="10.08" y="17.962" style="fill:#2D2D2D;" width="1.528" height="8.833"/>
		</g>
	</g>
	<g>
		<g>
			<line style="fill:#2D2D2D;" x1="10.844" y1="0.764" x2="10.844" y2="2.418"/>
		</g>
		<g>
			<path style="fill:#2D2D2D;" d="M10.844,3.183c-0.422,0-0.764-0.341-0.764-0.764V0.764C10.08,0.342,10.422,0,10.844,0
				c0.422,0,0.764,0.342,0.764,0.764v1.654C11.608,2.841,11.266,3.183,10.844,3.183z"/>
		</g>
	</g>
</g>
<g>
</g>
<g>
</g>
<g>
</g>
<g>
</g>
<g>
</g>
<g>
</g>
<g>
</g>
<g>
</g>
<g>
</g>
<g>
</g>
<g>
</g>
<g>
</g>
<g>
</g>
<g>
</g>
<g>
</g>
</svg>
