<?xml version="1.0" encoding="iso-8859-1"?>
<!-- Generator: Adobe Illustrator 16.0.0, SVG Export Plug-In . SVG Version: 6.00 Build 0)  -->
<!DOCTYPE svg PUBLIC "-//W3C//DTD SVG 1.1//EN" "http://www.w3.org/Graphics/SVG/1.1/DTD/svg11.dtd">
<svg version="1.1" id="Capa_1" xmlns="http://www.w3.org/2000/svg" xmlns:xlink="http://www.w3.org/1999/xlink" x="0px" y="0px"
	 width="29.692px" height="26.694px" viewBox="0 0 29.692 26.694" style="enable-background:new 0 0 29.692 26.694;"
	 xml:space="preserve">
<g>
	<path style="fill:#2D2D2D;" d="M29.691,22.757V0.822C29.691,0.166,28.869,0,28.869,0H11.98C9.516,0,9.515,2.631,9.515,2.631v6.79
		c4.533,0.685,8.021,4.593,8.021,9.312c0,2.203-0.763,4.226-2.032,5.833h10.681c0.481,0,0.876-0.394,0.876-0.876l1.753-0.002
		C29.758,23.688,29.691,22.757,29.691,22.757z M27.964,22.32c0,0-0.153,0.572-0.904,0.572V3.545c0-0.482-0.395-0.875-0.876-0.875
		h-0.466c0.062,0.016,0.113,0.066,0.113,0.135v10.031c0,0.058-0.035,0.113-0.092,0.138c-0.058,0.022-0.123,0.011-0.165-0.034
		l-2.432-2.431l-2.433,2.431c-0.029,0.03-0.066,0.045-0.106,0.045c-0.019,0-0.04-0.004-0.059-0.011
		c-0.056-0.024-0.092-0.08-0.092-0.138V2.805c0-0.072,0.053-0.121,0.118-0.141l-9.33-0.002c0-0.602,0.906-0.908,0.906-0.908h14.915
		c0.931,0,0.904,0.822,0.904,0.822V22.32z"/>
	<path style="fill:#2D2D2D;" d="M7.986,10.726C3.575,10.726,0,14.301,0,18.708c0,4.409,3.575,7.986,7.986,7.986
		c4.41,0,7.984-3.577,7.984-7.986C15.97,14.301,12.396,10.726,7.986,10.726z M10.389,11.699L8.655,15.24
		c-0.337-0.131-0.669-0.062-0.669-0.062l-1.004-3.716C6.981,11.462,8.312,10.863,10.389,11.699z M7.985,21.85
		c-1.735,0-3.143-1.405-3.143-3.142c0-1.735,1.407-3.142,3.143-3.142s3.142,1.406,3.142,3.142C11.126,20.444,9.72,21.85,7.985,21.85
		z"/>
	<path style="fill:#2D2D2D;" d="M7.986,16.091c-1.447,0-2.619,1.172-2.619,2.619c0,1.445,1.172,2.617,2.619,2.617
		c1.446,0,2.619-1.172,2.619-2.617C10.605,17.263,9.432,16.091,7.986,16.091z M7.986,19.875c-0.646,0-1.169-0.521-1.169-1.167
		c0-0.645,0.523-1.168,1.169-1.168c0.645,0,1.168,0.523,1.168,1.168C9.154,19.354,8.63,19.875,7.986,19.875z"/>
</g>
<g>
</g>
<g>
</g>
<g>
</g>
<g>
</g>
<g>
</g>
<g>
</g>
<g>
</g>
<g>
</g>
<g>
</g>
<g>
</g>
<g>
</g>
<g>
</g>
<g>
</g>
<g>
</g>
<g>
</g>
</svg>
