<?xml version="1.0" encoding="iso-8859-1"?>
<!-- Generator: Adobe Illustrator 16.0.0, SVG Export Plug-In . SVG Version: 6.00 Build 0)  -->
<!DOCTYPE svg PUBLIC "-//W3C//DTD SVG 1.1//EN" "http://www.w3.org/Graphics/SVG/1.1/DTD/svg11.dtd">
<svg version="1.1" id="Capa_1" xmlns="http://www.w3.org/2000/svg" xmlns:xlink="http://www.w3.org/1999/xlink" x="0px" y="0px"
	 width="37.732px" height="27.317px" viewBox="0 0 37.732 27.317" style="enable-background:new 0 0 37.732 27.317;"
	 xml:space="preserve">
<path style="fill:#2D2D2D;" d="M32.898,0.572L32.278,0l-0.554,0.635c-0.03,0.033-3.17,3.495-15.068,10.521
	C6.601,17.092,3.065,17.611,2.357,17.65c-0.312-0.037-0.443-0.007-0.439-0.007h0.001l-1.175,0.163l-0.002,0.056
	c-0.008,0.004-0.017,0.006-0.024,0.008c-1.025,0.486-0.941,2.813,0.186,5.205c1.025,2.171,2.904,4.242,4.009,4.242
	c0.109,0,0.209-0.021,0.301-0.062l0.014,0.024l0.103-0.103c0.054-0.041,0.104-0.091,0.148-0.148l0.513-0.511
	c1.635-1.636,3.275-2.641,6.879-4.847c1.793-1.099,3.639-2.09,6.536-3.941c-0.027,0.762-0.419,2.494-0.818,3.52
	c-0.224,0.9-0.375,1.219-0.375,1.219l2.143-1.97l0.674,2.892c0,0,0.189-0.496,0.289-0.828c0.523-1.739,1.238-4.892,1.228-6.413
	c1.322,0.825,3.182,1.83,5.064,2.307c0.335,0.085,0.857,0.177,0.857,0.177l-2.131-2.064l2.792-0.823c0,0-0.35-0.037-1.237-0.307
	c-1.363-0.232-2.363-0.692-3.082-1.172c5.544-3.207,8.738-4.273,10.804-4.964c0.347-0.113,0.667-0.22,0.966-0.325
	c0.602-0.214,0.999-0.646,1.118-1.224C38.124,5.713,34.485,2.054,32.898,0.572z M6.22,24.822c-0.102-0.518-0.286-1.711-0.556-2.41
	c-0.482-1.25-1.656-2.828-2.325-3.534c2.24-0.657,7.256-2.269,13.69-6.039c0.65,0.375,2.25,1.454,2.131,2.968l-0.742,0.466
	c-2.233,1.403-4.765,2.992-6.412,4.001C9.614,21.741,7.488,23.867,6.22,24.822z M21.858,9.966c3.997-2.267,8.914-6.254,10.485-7.648
	c2.201,2.165,3.886,4.439,3.767,5.074c0,0-0.019,0.015-0.076,0.036c-0.291,0.102-0.603,0.207-0.939,0.318
	c-2.057,0.686-5.456,1.818-11.267,5.194C23.491,12.229,22.844,11.043,21.858,9.966z M1.979,22.566
	c-0.791-1.674-0.858-2.939-0.749-3.46l0.335,0.083c0.507,0.362,1.295,1.195,1.977,2.64c0.722,1.528,1.013,2.959,1.049,3.804
	c-0.027,0.111-0.028,0.215-0.018,0.312C3.911,25.48,2.756,24.214,1.979,22.566z"/>
<g>
</g>
<g>
</g>
<g>
</g>
<g>
</g>
<g>
</g>
<g>
</g>
<g>
</g>
<g>
</g>
<g>
</g>
<g>
</g>
<g>
</g>
<g>
</g>
<g>
</g>
<g>
</g>
<g>
</g>
</svg>
