<?xml version="1.0" encoding="utf-8"?>
<!-- Generator: Adobe Illustrator 17.0.0, SVG Export Plug-In . SVG Version: 6.00 Build 0)  -->
<!DOCTYPE svg PUBLIC "-//W3C//DTD SVG 1.1//EN" "http://www.w3.org/Graphics/SVG/1.1/DTD/svg11.dtd">
<svg version="1.1" id="Capa_1" xmlns="http://www.w3.org/2000/svg" xmlns:xlink="http://www.w3.org/1999/xlink" x="0px" y="0px"
	 width="24.022px" height="23.776px" viewBox="0 0 24.022 23.776" enable-background="new 0 0 24.022 23.776" xml:space="preserve">
<path fill="#1D1D1B" d="M22.068,15.783h-3.577c1.681-1.713,5.14-5.277,5.484-10.121c0.032-0.233,0.047-0.449,0.047-0.657
	C24.022,2.246,21.778,0,19.016,0C18.457,0,4.68,0,4.68,0C4.547,0,4.419,0.017,4.297,0.05C1.83,0.397,0,2.485,0,5.005
	C0,6.36,0.532,7.636,1.5,8.599c0.281,0.28,0.661,0.437,1.059,0.437c0,0,1.537,0,1.811,0c0.008,0.014,0.846,1.624-2.972,6.128
	L1.3,15.278c-0.011,0.011-0.017,0.021-0.027,0.033C0.488,16.301,0,17.709,0,18.985c0,2.587,1.597,4.556,4.146,4.791
	C4.188,23.78,18.082,23.75,18.62,23.75c2.761,0,5.402-2.004,5.402-4.765c0-0.838-0.223-1.679-0.642-2.432
	C23.115,16.078,22.612,15.783,22.068,15.783z M2.458,7.786L2.458,7.786C1.807,7.138,1.399,5.634,1.399,4.652
	c0-1.825,1.397-3.324,3.179-3.488V1.148h11.887c-1.107,0.775-1.829,2.055-1.829,3.504c0,0.947,0.312,2.424,0.835,3.134H2.458z
	 M4.377,22.522c-1.78-0.164-3.178-1.711-3.178-3.536c0-0.958,0.39-2.035,0.949-2.741c0.686-0.817,3.534-4.291,3.562-7.198
	c0,0,6.737,0.006,9.345,0.006c2.279,0,1.571-1.204,1.571-1.204c-0.255-0.306-0.455-1.262-0.594-1.644
	c-0.002-0.005-0.004-0.01-0.008-0.016c0,0-1.685-4.293,3.295-4.687c1.97,0,3.503,1.568,3.503,3.504c0,5.525-6,10.476-6,10.476h0.044
	c-1.104,0.776-1.827,2.056-1.827,3.504c0,1.467,0.74,2.764,1.869,3.536H4.377z M19.419,22.22c-1.934,0-3.502-1.569-3.502-3.503
	c0-0.62,0.17-1.214,0.452-1.719v0.018l6.102-0.018c0.283,0.505,0.452,1.099,0.452,1.719C22.923,20.65,21.354,22.22,19.419,22.22z
	 M15.665,12.58H7.104v-0.605h8.561V12.58z M5.743,15.315h8.56v0.604h-8.56V15.315z M4.347,18.978h8.559v0.604H4.347V18.978z"/>
</svg>
