<?xml version="1.0" encoding="utf-8"?>
<!-- Generator: Adobe Illustrator 17.0.0, SVG Export Plug-In . SVG Version: 6.00 Build 0)  -->
<!DOCTYPE svg PUBLIC "-//W3C//DTD SVG 1.1//EN" "http://www.w3.org/Graphics/SVG/1.1/DTD/svg11.dtd">
<svg version="1.1" id="Capa_1" xmlns="http://www.w3.org/2000/svg" xmlns:xlink="http://www.w3.org/1999/xlink" x="0px" y="0px"
	 width="35.666px" height="25.199px" viewBox="0 0 35.666 25.199" enable-background="new 0 0 35.666 25.199" xml:space="preserve">
<path fill="#2D2D2D" d="M4.759,6.796c0-0.717,0.582-1.299,1.299-1.299s1.299,0.582,1.299,1.299c0,0.717-0.582,1.299-1.299,1.299
	S4.759,7.513,4.759,6.796z M3.536,12.87l1.165-3.95c-0.7-0.448-1.165-1.231-1.165-2.125c0-1.395,1.129-2.521,2.522-2.521
	S8.581,5.4,8.581,6.795c0,0.885-0.457,1.662-1.147,2.113l1.927,3.705L8.215,12.57l-0.622,0.963l-1.388-2.667l-0.758,2.567
	l-0.795-0.826L3.536,12.87z M4.767,8.698L4.749,8.723c0.003,0.001,0.006,0.002,0.008,0.004L4.767,8.698z M5.764,8.547
	c-0.253-0.041-0.491-0.135-0.703-0.28L4.769,8.693L5.1,8.917C5.282,8.999,5.473,9.06,5.674,9.093L5.764,8.547z M7.547,8.575
	L7.19,8.154C6.994,8.321,6.768,8.44,6.521,8.509l0.146,0.532C6.993,8.951,7.29,8.794,7.547,8.575z M8.312,6.437l-0.54,0.114
	c0.027,0.122,0.039,0.135,0.039,0.26c0,0.258-0.054,0.507-0.162,0.738l0.502,0.235C8.292,7.479,8.364,7.15,8.364,6.811
	C8.364,6.647,8.347,6.595,8.312,6.437z M6.883,5.26c0.223,0.119,0.422,0.289,0.576,0.493L7.9,5.422
	C7.699,5.153,7.438,4.93,7.145,4.771L6.883,5.26z M5.203,4.659l0.202,0.515C5.611,5.09,5.828,5.051,6.051,5.051
	c0.035,0,0.07,0.002,0.104,0.002l0.031-0.552C6.141,4.5,6.096,4.497,6.051,4.497C5.758,4.497,5.473,4.553,5.203,4.659z M3.861,6.066
	l0.523,0.177c0.081-0.239,0.217-0.464,0.392-0.647L4.377,5.215C4.147,5.456,3.969,5.75,3.861,6.066z M4.54,7.716
	C4.407,7.495,4.326,7.254,4.3,6.996l-0.55,0.06C3.787,7.391,3.893,7.708,4.066,8L4.54,7.716z M6.051,8.426
	c0.892,0,1.616-0.722,1.616-1.615c0-0.891-0.724-1.615-1.616-1.615c-0.892,0-1.615,0.723-1.615,1.615
	C4.436,7.703,5.159,8.426,6.051,8.426z M35.667,0.933v23.335c0,0.515-0.418,0.932-0.933,0.932H0.933C0.417,25.2,0,24.783,0,24.268
	V0.933C0,0.417,0.417,0,0.933,0h33.8C35.249,0,35.666,0.417,35.667,0.933z M33.801,1.866H1.865v21.469h31.936V1.866z M30.888,6.974
	V6.507H10.957l0,0.467H30.888z M30.888,9.886V9.421H10.957l0,0.465H30.888z M30.888,13.033v-0.465H10.957l0,0.465H30.888z
	 M27.805,18.499c-0.904,0.021-1.965-0.464-2.834-0.667c-0.238-0.056-0.539,0.123-0.688,0.362c-0.476-0.287-0.961-0.559-1.43-0.891
	c-0.35-0.248-0.858,0.207-0.86,0.575c-0.009,1.314,0.585,2.357,0.82,3.62c0.119,0.641,1.056-0.006,0.962-0.507
	c-0.138-0.743-0.436-1.424-0.628-2.135c0.608,0.361,1.217,0.715,1.753,1.203c0.413,0.374,0.977-0.418,0.819-0.807
	c-0.009-0.021-0.017-0.043-0.025-0.065c0.655,0.189,1.322,0.357,1.978,0.341c0.167-0.003,0.336-0.027,0.507-0.062
	c-0.572,0.484-1.101,0.995-1.481,1.558c-0.334,0.492,0.199,0.782,0.604,0.507c0.014-0.011,0.028-0.021,0.041-0.03
	c0.026-0.019,0.049-0.038,0.071-0.057c0.007,0.036,0.305-0.298,0.375-0.362c0.4-0.354,0.806-0.704,1.208-1.054
	c0.691-0.601,1.382-1.196,2.076-1.791c0.383-0.329,0.363-1.106-0.283-0.823C29.877,17.814,28.828,18.475,27.805,18.499z"/>
</svg>
