<?xml version="1.0" encoding="utf-8"?>
<!-- Generator: Adobe Illustrator 16.0.4, SVG Export Plug-In . SVG Version: 6.00 Build 0)  -->
<!DOCTYPE svg PUBLIC "-//W3C//DTD SVG 1.1//EN" "http://www.w3.org/Graphics/SVG/1.1/DTD/svg11.dtd">
<svg version="1.1" id="Capa_1" xmlns="http://www.w3.org/2000/svg" xmlns:xlink="http://www.w3.org/1999/xlink" x="0px" y="0px"
	 width="29.775px" height="38.136px" viewBox="0 0 29.775 38.136" enable-background="new 0 0 29.775 38.136" xml:space="preserve">
<path fill="#2D2D2D" d="M16.136,18.368c-0.098-0.064-0.156-0.176-0.156-0.293v-4.589c0-0.114,0.056-0.221,0.146-0.287
	c0.094-0.066,0.211-0.084,0.318-0.048l6.133,2.082c0.14,0.048,0.233,0.176,0.239,0.323c0.006,0.146-0.083,0.28-0.219,0.337
	l-6.134,2.508c-0.043,0.018-0.088,0.027-0.133,0.027C16.264,18.429,16.196,18.408,16.136,18.368z M26.813,20.779
	c-1.245,0-2.307,0.771-2.745,1.857h-6.394c-0.379-0.939-1.224-1.635-2.25-1.809v-7.759c0-0.018-0.003-0.037-0.006-0.056
	c0.308-0.117,0.526-0.414,0.526-0.764c-0.001-0.45-0.366-0.817-0.818-0.817h-0.321c-0.452,0-0.819,0.367-0.819,0.817
	c0,0.298,0.16,0.556,0.396,0.698c-0.009,0.04-0.015,0.079-0.015,0.121v7.766c-0.996,0.193-1.812,0.883-2.183,1.802H5.708
	c-0.438-1.088-1.5-1.856-2.745-1.856C1.327,20.779,0,22.107,0,23.742c0,1.637,1.327,2.963,2.963,2.963
	c1.245,0,2.308-0.77,2.745-1.856h6.478c0.438,1.088,1.5,1.856,2.745,1.856c1.244,0,2.307-0.77,2.744-1.856h6.394
	c0.438,1.088,1.5,1.856,2.745,1.856c1.637,0,2.963-1.326,2.963-2.963C29.776,22.107,28.449,20.779,26.813,20.779z"/>
</svg>
