<?xml version="1.0" encoding="utf-8"?>
<!-- Generator: Adobe Illustrator 17.0.0, SVG Export Plug-In . SVG Version: 6.00 Build 0)  -->
<!DOCTYPE svg PUBLIC "-//W3C//DTD SVG 1.1//EN" "http://www.w3.org/Graphics/SVG/1.1/DTD/svg11.dtd">
<svg version="1.1" id="Capa_1" xmlns="http://www.w3.org/2000/svg" xmlns:xlink="http://www.w3.org/1999/xlink" x="0px" y="0px"
	 width="29.868px" height="23.764px" viewBox="0 0 29.868 23.764" enable-background="new 0 0 29.868 23.764" xml:space="preserve">
<path fill="#1D1D1B" d="M24.032,8.488c0.286,0,0.518,0.232,0.518,0.518s-0.232,0.518-0.518,0.518s-0.518-0.232-0.518-0.518
	S23.746,8.488,24.032,8.488z M21.686,8.489c-0.583,0-1.055,0.472-1.055,1.055c0,0.583,0.472,1.055,1.055,1.055
	s1.055-0.472,1.055-1.055C22.741,8.961,22.269,8.489,21.686,8.489z M22.742,7.081c0,0.388,0.315,0.703,0.703,0.703
	c0.388,0,0.703-0.315,0.703-0.703c0-0.388-0.315-0.703-0.703-0.703C23.057,6.378,22.742,6.693,22.742,7.081z M29.672,9.442
	c-0.26,0.259-0.684,0.259-0.946,0L28.4,9.114l-8.666,8.668l-4.45-7.487l7.148-7.15l-0.328-0.326c-0.261-0.261-0.259-0.684,0-0.945
	c0.261-0.26,0.685-0.263,0.946-0.001l6.622,6.623C29.934,8.756,29.934,9.18,29.672,9.442z M27.404,8.121l-3.977-3.979l-5.53,5.559
	l-1.112,1.112h7.944L27.404,8.121z M10.485,15.191c0,0.61,0.494,1.104,1.104,1.104c0.61,0,1.104-0.494,1.104-1.104
	s-0.494-1.104-1.104-1.104C10.979,14.087,10.485,14.581,10.485,15.191z M8.429,13.516c-0.595-0.001-1.076,0.483-1.076,1.075
	c0,0.594,0.482,1.079,1.076,1.079s1.077-0.485,1.077-1.079C9.506,13.999,9.022,13.514,8.429,13.516z M11.462,12.695
	c0-0.436-0.353-0.789-0.789-0.789s-0.789,0.353-0.789,0.789c0,0.436,0.353,0.789,0.789,0.789S11.462,13.131,11.462,12.695z
	 M19.853,19.933c0.671,1.987-0.067,3.83-2.206,3.83H2.446c-2.139,0-2.876-1.826-2.208-3.814c0,0,2.636-4.912,6.932-11.962V3.904
	H6.904C6.52,3.905,6.207,3.592,6.207,3.21c0.001-0.382,0.314-0.695,0.696-0.696h1.106L7.353,0h5.34l-0.659,2.515h1.157
	c0.383-0.001,0.695,0.313,0.695,0.695c-0.002,0.382-0.312,0.694-0.696,0.694h-0.265v4.083
	C17.219,15.038,19.853,19.934,19.853,19.933z M16.638,17.265c-0.296-0.575-3.857-6.755-4.947-8.541l-0.169-0.278H8.57L8.402,8.724
	c-1.11,1.823-4.484,7.719-4.86,8.354c-0.028,0.055-0.06,0.119-0.093,0.186v0.001H16.638z"/>
</svg>
