<?xml version="1.0" encoding="iso-8859-1"?>
<!-- Generator: Adobe Illustrator 16.0.0, SVG Export Plug-In . SVG Version: 6.00 Build 0)  -->
<!DOCTYPE svg PUBLIC "-//W3C//DTD SVG 1.1//EN" "http://www.w3.org/Graphics/SVG/1.1/DTD/svg11.dtd">
<svg version="1.1" id="Capa_1" xmlns="http://www.w3.org/2000/svg" xmlns:xlink="http://www.w3.org/1999/xlink" x="0px" y="0px"
	 width="32.969px" height="25.93px" viewBox="0 0 32.969 25.93" style="enable-background:new 0 0 32.969 25.93;"
	 xml:space="preserve">
<g>
	<path style="fill:#2D2D2D;" d="M15.202,15.86c-0.073-0.125-0.206-0.201-0.352-0.201H9.389c-0.146,0-0.278,0.076-0.351,0.201
		l-2.594,4.494c-0.061-0.024-0.123-0.041-0.192-0.041H0.479C0.213,20.313,0,20.528,0,20.794s0.213,0.479,0.479,0.479h5.772
		c0.069,0,0.132-0.014,0.192-0.04l2.594,4.495c0.072,0.126,0.205,0.201,0.351,0.201h5.462c0.146,0,0.278-0.075,0.352-0.201
		l2.731-4.732c0.072-0.124,0.072-0.278,0-0.403L15.202,15.86z M14.618,25.121H9.621l-2.498-4.327l2.498-4.327h4.997l2.499,4.327
		L14.618,25.121z"/>
	<path style="fill:#2D2D2D;" d="M32.488,14.897h-5.6l-2.454-4.251h-5.464l-2.732,4.729l2.732,4.734h5.464l2.454-4.253h5.6
		c0.267,0,0.48-0.215,0.48-0.48C32.969,15.112,32.755,14.897,32.488,14.897z"/>
	<path style="fill:#2D2D2D;" d="M8.88,5.142L6.307,9.599c-0.074,0.125-0.074,0.278,0,0.403l2.731,4.731
		c0.072,0.127,0.205,0.202,0.351,0.202h5.462c0.146,0,0.278-0.075,0.352-0.202l2.731-4.731c0.072-0.125,0.072-0.278,0-0.403
		l-2.526-4.375c0.01-0.01,0.021-0.012,0.029-0.021l3.722-4.413c0.171-0.204,0.145-0.507-0.059-0.678
		c-0.201-0.171-0.505-0.145-0.675,0.059l-3.722,4.412c-0.021,0.027-0.027,0.055-0.044,0.081h-4.95
		C9.694,4.638,9.686,4.61,9.665,4.583L5.944,0.171C5.772-0.032,5.471-0.059,5.268,0.112S5.04,0.586,5.211,0.79L8.88,5.142z
		 M14.618,14.128H9.621L7.123,9.8l2.498-4.327h4.997L17.117,9.8L14.618,14.128z"/>
</g>
<g>
</g>
<g>
</g>
<g>
</g>
<g>
</g>
<g>
</g>
<g>
</g>
<g>
</g>
<g>
</g>
<g>
</g>
<g>
</g>
<g>
</g>
<g>
</g>
<g>
</g>
<g>
</g>
<g>
</g>
</svg>
