<?xml version="1.0" encoding="iso-8859-1"?>
<!-- Generator: Adobe Illustrator 16.0.0, SVG Export Plug-In . SVG Version: 6.00 Build 0)  -->
<!DOCTYPE svg PUBLIC "-//W3C//DTD SVG 1.1//EN" "http://www.w3.org/Graphics/SVG/1.1/DTD/svg11.dtd">
<svg version="1.1" xmlns="http://www.w3.org/2000/svg" xmlns:xlink="http://www.w3.org/1999/xlink" x="0px" y="0px"
	 width="26.099px" height="31.21px" viewBox="0 0 26.099 31.21" style="enable-background:new 0 0 26.099 31.21;"
	 xml:space="preserve">
<g id="c78_cinema">
	<path style="fill:#000000;" d="M25.093,15.124c0,0-16.502,0-21.049,0l0.703-0.5C9.972,11.606,21.534,4.353,21.534,4.353
		c0.48-0.277,0.645-0.893,0.369-1.373l-1.008-2.477c-0.277-0.482-0.893-0.645-1.373-0.368L0.501,11.694
		c-0.48,0.279-0.643,0.896-0.367,1.376l1.822,1.974L1.97,30.205c0,0.557,0.451,1.005,1.006,1.005h22.117
		c0.557,0,1.006-0.448,1.006-1.005V16.131C26.099,15.575,25.649,15.124,25.093,15.124z M17.802,15.843l-3.104,3.016h-4.021
		l3.018-3.016H17.802z M16.491,2.884l3.568-2.29l-0.52,3.36l-3.652,2.344L16.491,2.884z M10.13,6.798l3.631-2.262l-0.648,3.406
		l-3.627,2.262L10.13,6.798z M2.896,14.327l0.607-3.416l3.604-2.302l-0.611,3.411L2.896,14.327z M6.655,15.843h4.021l-3.016,3.016
		h-4.02L6.655,15.843z M24.368,29.984H3.683v-9.556h20.686V29.984z M21.8,18.858h-4.086l3.018-3.016h3.992L21.8,18.858z"/>
</g>
<g id="Capa_1">
</g>
</svg>
