<?xml version="1.0" encoding="iso-8859-1"?>
<!-- Generator: Adobe Illustrator 16.0.0, SVG Export Plug-In . SVG Version: 6.00 Build 0)  -->
<!DOCTYPE svg PUBLIC "-//W3C//DTD SVG 1.1//EN" "http://www.w3.org/Graphics/SVG/1.1/DTD/svg11.dtd">
<svg version="1.1" id="Capa_1" xmlns="http://www.w3.org/2000/svg" xmlns:xlink="http://www.w3.org/1999/xlink" x="0px" y="0px"
	 width="28.38px" height="24.814px" viewBox="0 0 28.38 24.814" style="enable-background:new 0 0 28.38 24.814;"
	 xml:space="preserve">
<g>
	<circle style="fill:#2D2D2D;" cx="5.783" cy="16.46" r="1.745"/>
	<path style="fill:#2D2D2D;" d="M12.561,16.46c0,0.966,0.783,1.745,1.747,1.745c0.961,0,1.746-0.779,1.746-1.745
		c0-0.964-0.784-1.745-1.746-1.745C13.344,14.715,12.561,15.496,12.561,16.46z"/>
	<path style="fill:#2D2D2D;" d="M21.09,16.241c0,0.96,0.784,1.743,1.748,1.743c0.963,0,1.746-0.783,1.746-1.743
		c0-0.966-0.783-1.748-1.746-1.748C21.874,14.493,21.09,15.275,21.09,16.241z"/>
	<path style="fill:#2D2D2D;" d="M26.884,22.307v-1.872c-0.159-1.913-2.383-1.887-2.383-1.887H21
		c-2.507,0.05-2.417,1.887-2.417,1.887v1.872h-0.23v-1.649c-0.159-1.913-2.382-1.889-2.382-1.889h-3.5
		c-2.509,0.05-2.42,1.889-2.42,1.889v1.649H9.83v-1.649c-0.161-1.913-2.382-1.889-2.382-1.889H3.945
		c-2.507,0.05-2.416,1.889-2.416,1.889v1.649H0v2.508h28.38v-2.508H26.884z"/>
	<path style="fill:#2D2D2D;" d="M13.81,4.058c-0.079-0.065-0.197-0.087-0.3-0.05c-0.103,0.037-0.169,0.124-0.169,0.22v3.957
		c0,0.097,0.067,0.186,0.169,0.221c0.103,0.036,0.221,0.017,0.3-0.05l2.293-1.981c0.107-0.093,0.107-0.243,0-0.335L13.81,4.058z"/>
	<path style="fill:#2D2D2D;" d="M26.88,0H1.525v12.412H26.88V0z M14.307,9.929c-2.056,0-3.722-1.668-3.722-3.723
		c0-2.054,1.667-3.722,3.722-3.722s3.722,1.668,3.722,3.722C18.029,8.261,16.362,9.929,14.307,9.929z"/>
</g>
<g>
</g>
<g>
</g>
<g>
</g>
<g>
</g>
<g>
</g>
<g>
</g>
<g>
</g>
<g>
</g>
<g>
</g>
<g>
</g>
<g>
</g>
<g>
</g>
<g>
</g>
<g>
</g>
<g>
</g>
</svg>
