<?xml version="1.0" encoding="iso-8859-1"?>
<!-- Generator: Adobe Illustrator 16.0.0, SVG Export Plug-In . SVG Version: 6.00 Build 0)  -->
<!DOCTYPE svg PUBLIC "-//W3C//DTD SVG 1.1//EN" "http://www.w3.org/Graphics/SVG/1.1/DTD/svg11.dtd">
<svg version="1.1" id="Capa_1" xmlns="http://www.w3.org/2000/svg" xmlns:xlink="http://www.w3.org/1999/xlink" x="0px" y="0px"
	 width="22.009px" height="23.611px" viewBox="0 0 22.009 23.611" style="enable-background:new 0 0 22.009 23.611;"
	 xml:space="preserve">
<g>
	<path style="fill-rule:evenodd;clip-rule:evenodd;fill:#2D2D2D;" d="M21.936,11.166c0-1.962-0.521-3.8-1.424-5.392
		c0.448,0.009,0.839-0.104,1.113-0.375c0.684-0.685,0.426-2.085-0.535-3.343l0.219-0.22c0.284-0.282,0.284-0.742,0-1.025
		c-0.282-0.282-0.741-0.282-1.025,0l-0.206,0.206c-1.29-1.041-2.76-1.339-3.466-0.632c-0.284,0.283-0.398,0.692-0.376,1.161
		c-1.563-0.859-3.358-1.349-5.268-1.349c-1.686,0-3.278,0.391-4.704,1.072C6.233,0.919,6.121,0.609,5.896,0.386
		c-0.688-0.688-2.1-0.425-3.365,0.552L2.404,0.812c-0.283-0.282-0.742-0.282-1.025,0c-0.283,0.283-0.283,0.743,0,1.025l0.117,0.117
		C0.469,3.238,0.181,4.695,0.883,5.399c0.156,0.154,0.357,0.249,0.579,0.31C0.538,7.317,0,9.177,0,11.166
		c0,3.603,1.745,6.79,4.427,8.789l-1.81,3.348l0.82,0.309l2.639-2.638c1.474,0.735,3.132,1.16,4.892,1.16
		c1.76,0,3.417-0.425,4.891-1.16l2.638,2.636l0.82-0.307l-1.81-3.348C20.19,17.956,21.936,14.769,21.936,11.166z M11.434,20.313
		h-0.931c-4.692-0.235-8.446-3.99-8.683-8.682V10.7c0.237-4.692,3.993-8.449,8.687-8.684c0,0.01-0.004,0.015-0.004,0.022h0.931
		c0-0.008-0.003-0.013-0.004-0.022c4.694,0.234,8.45,3.991,8.686,8.684v0.932C19.879,16.323,16.125,20.078,11.434,20.313z"/>
	<path style="fill-rule:evenodd;clip-rule:evenodd;fill:#2D2D2D;" d="M16.944,10.7h-5.51V5.655c0-0.258-0.209-0.466-0.466-0.466
		c-0.257,0-0.465,0.208-0.465,0.466v5.511c0,0.228,0.167,0.408,0.382,0.448c0.018,0.01,0.043,0.018,0.083,0.018h5.977
		c0.257,0,0.466-0.209,0.466-0.466S17.202,10.7,16.944,10.7z"/>
</g>
<g>
</g>
<g>
</g>
<g>
</g>
<g>
</g>
<g>
</g>
<g>
</g>
<g>
</g>
<g>
</g>
<g>
</g>
<g>
</g>
<g>
</g>
<g>
</g>
<g>
</g>
<g>
</g>
<g>
</g>
</svg>
