<?xml version="1.0" encoding="iso-8859-1"?>
<!-- Generator: Adobe Illustrator 16.0.0, SVG Export Plug-In . SVG Version: 6.00 Build 0)  -->
<!DOCTYPE svg PUBLIC "-//W3C//DTD SVG 1.1//EN" "http://www.w3.org/Graphics/SVG/1.1/DTD/svg11.dtd">
<svg version="1.1" id="Capa_1" xmlns="http://www.w3.org/2000/svg" xmlns:xlink="http://www.w3.org/1999/xlink" x="0px" y="0px"
	 width="23.314px" height="27.813px" viewBox="0 0 23.314 27.813" style="enable-background:new 0 0 23.314 27.813;"
	 xml:space="preserve">
<g>
	<circle style="fill:#2D2D2D;" cx="12.125" cy="1.568" r="1.568"/>
	<path style="fill:#2D2D2D;" d="M6.219,2.088l3.824,3.928l-0.006,10.846c0,0.494,0.4,0.896,0.895,0.896
		c0.494,0,0.893-0.401,0.893-0.896l-0.002-7.246h0.403v7.256l0.006,0.006c0.005,0.488,0.4,0.88,0.888,0.88
		c0.49,0,0.89-0.399,0.89-0.892L14.005,6.032l3.842-3.944c0.001-0.004,0.001-0.004,0.003-0.008c0.258-0.258,0.258-0.676,0-0.936
		c-0.259-0.257-0.677-0.257-0.936,0c0,0-0.003,0.005-0.005,0.005l-2.473,2.494H9.627L7.153,1.149c-0.001,0-0.003-0.003-0.003-0.003
		C6.89,0.888,6.471,0.888,6.213,1.145c-0.258,0.26-0.258,0.678,0,0.936C6.216,2.084,6.216,2.084,6.219,2.088z"/>
	<circle style="fill:#2D2D2D;" cx="3.82" cy="5.314" r="1.566"/>
	<path style="fill:#2D2D2D;" d="M5.313,7.39H2.172C-0.078,7.429,0,9.08,0,9.08v3.854h0.003C0.003,12.945,0,12.952,0,12.965
		c0,0.361,0.298,0.661,0.665,0.661c0.362,0,0.658-0.3,0.658-0.661c0-0.013,0-0.02,0-0.031h0V9.368h0.415L1.734,20.593
		c0,0.496,0.398,0.896,0.893,0.896c0.491,0,0.892-0.399,0.892-0.896l-0.002-7.241h0.401v7.251l0.006,0.005
		c0.006,0.486,0.402,0.881,0.889,0.881c0.49,0,0.889-0.397,0.889-0.89L5.699,9.352h0.429v3.582h0.001c0,0.004,0,0.004,0,0.006
		c0,0.367,0.294,0.659,0.662,0.659c0.362,0,0.66-0.292,0.66-0.659c0-0.002,0-0.002,0-0.006V9.08C7.306,7.361,5.313,7.39,5.313,7.39z
		"/>
	<circle style="fill:#2D2D2D;" cx="19.682" cy="6.271" r="1.567"/>
	<path style="fill:#2D2D2D;" d="M21.177,8.345h-3.141c-2.249,0.042-2.17,1.693-2.17,1.693v3.852h0.001
		c0,0.012-0.001,0.021-0.001,0.03c0,0.365,0.296,0.661,0.664,0.661c0.364,0,0.659-0.296,0.659-0.661c0-0.01-0.002-0.019-0.002-0.03
		h0.002v-3.563h0.414l-0.006,11.225c0,0.493,0.4,0.895,0.894,0.895c0.492,0,0.893-0.401,0.893-0.895V14.31h0.399v7.25l0.006,0.006
		c0.005,0.486,0.402,0.88,0.889,0.88c0.49,0,0.887-0.399,0.887-0.889L21.562,10.31h0.429v3.58h0.001c0,0.004,0,0.004,0,0.008
		c0,0.363,0.296,0.661,0.66,0.661c0.366,0,0.662-0.298,0.662-0.661c0-0.004,0-0.004,0-0.008v-3.852
		C23.17,8.318,21.177,8.345,21.177,8.345z"/>
	<path style="fill:#2D2D2D;" d="M8.867,27.813h5.98v-9.723h-5.98V27.813z M11.761,22.05h0.337v2.913h-0.379v-2.544h-0.01
		l-0.507,0.271l-0.075-0.3L11.761,22.05z"/>
	<path style="fill:#2D2D2D;" d="M16.601,27.813h5.979v-4.862h-5.979V27.813z M18.907,26.543c0.114,0.074,0.373,0.186,0.646,0.186
		c0.507,0,0.664-0.323,0.659-0.566c-0.003-0.407-0.373-0.583-0.752-0.583h-0.22v-0.294h0.22c0.286,0,0.648-0.146,0.648-0.491
		c0-0.234-0.145-0.44-0.511-0.44c-0.231,0-0.457,0.101-0.58,0.193l-0.104-0.286c0.153-0.113,0.448-0.227,0.762-0.227
		c0.575,0,0.833,0.34,0.833,0.696c0,0.299-0.181,0.555-0.539,0.686v0.009c0.358,0.07,0.651,0.34,0.651,0.749
		c0,0.463-0.363,0.872-1.062,0.872c-0.328,0-0.615-0.102-0.758-0.198L18.907,26.543z"/>
	<path style="fill:#2D2D2D;" d="M0.735,27.813h5.978v-5.979H0.735V27.813z M2.792,26.215l0.309-0.3
		c0.744-0.709,1.079-1.084,1.083-1.522c0-0.294-0.144-0.57-0.578-0.57c-0.264,0-0.486,0.135-0.618,0.247l-0.127-0.276
		c0.201-0.172,0.488-0.298,0.824-0.298c0.628,0,0.892,0.432,0.892,0.848c0,0.54-0.389,0.975-1.002,1.564l-0.233,0.215v0.009h1.307
		v0.327H2.792V26.215z"/>
</g>
<g>
</g>
<g>
</g>
<g>
</g>
<g>
</g>
<g>
</g>
<g>
</g>
<g>
</g>
<g>
</g>
<g>
</g>
<g>
</g>
<g>
</g>
<g>
</g>
<g>
</g>
<g>
</g>
<g>
</g>
</svg>
