<?xml version="1.0" encoding="iso-8859-1"?>
<!-- Generator: Adobe Illustrator 16.0.0, SVG Export Plug-In . SVG Version: 6.00 Build 0)  -->
<!DOCTYPE svg PUBLIC "-//W3C//DTD SVG 1.1//EN" "http://www.w3.org/Graphics/SVG/1.1/DTD/svg11.dtd">
<svg version="1.1" id="Capa_1" xmlns="http://www.w3.org/2000/svg" xmlns:xlink="http://www.w3.org/1999/xlink" x="0px" y="0px"
	 width="31.266px" height="22.61px" viewBox="0 0 31.266 22.61" style="enable-background:new 0 0 31.266 22.61;"
	 xml:space="preserve">
<path style="fill:#2D2D2D;" d="M29.275,0.118c-3.046,0.873-5.861,2.202-8.398,3.912V2.858c0-0.622-0.503-1.127-1.127-1.127H1.125
	C0.504,1.731,0,2.236,0,2.858v18.626c0,0.621,0.504,1.126,1.125,1.126H19.75c0.624,0,1.127-0.505,1.127-1.126V9.065
	c2.293-1.842,4.955-3.242,7.974-4.105C31.266,4.269,32.604-0.835,29.275,0.118z M2.253,20.357V3.985h16.373v1.729
	c-2.309,1.897-4.331,4.143-6.021,6.667c-1.653-1.69-3.576-3.094-5.103-4.959c-1.61-1.969-5.317,2.24-3.62,4.314
	c1.973,2.409,4.782,3.92,6.422,6.625c1.045,1.727,3.437,0.203,4.084-1.095c1.146-2.303,2.562-4.36,4.238-6.127v9.218H2.253z"/>
<g>
</g>
<g>
</g>
<g>
</g>
<g>
</g>
<g>
</g>
<g>
</g>
<g>
</g>
<g>
</g>
<g>
</g>
<g>
</g>
<g>
</g>
<g>
</g>
<g>
</g>
<g>
</g>
<g>
</g>
</svg>
