<?xml version="1.0" encoding="utf-8"?>
<!-- Generator: Adobe Illustrator 17.0.0, SVG Export Plug-In . SVG Version: 6.00 Build 0)  -->
<!DOCTYPE svg PUBLIC "-//W3C//DTD SVG 1.1//EN" "http://www.w3.org/Graphics/SVG/1.1/DTD/svg11.dtd">
<svg version="1.1" id="Capa_1" xmlns="http://www.w3.org/2000/svg" xmlns:xlink="http://www.w3.org/1999/xlink" x="0px" y="0px"
	 width="24.876px" height="25.567px" viewBox="0 0 24.876 25.567" enable-background="new 0 0 24.876 25.567" xml:space="preserve">
<path fill="#1D1D1B" d="M12.041,5.867l0.095,3.709h-1.783l1.664-3.709H12.041z M5.917,20.298H4.524l-0.564,2.64h1.158
	c0.874,0,1.734-0.193,1.957-1.245C7.239,20.923,6.867,20.298,5.917,20.298z M6.274,16.99H5.222l-0.521,2.419h1.113
	c0.86,0,1.41-0.549,1.558-1.247C7.564,17.243,6.972,16.99,6.274,16.99z M24.877,21.896l-2.045,3.6v0.07H11.629v-11.17h-0.407v11.17
	H0.018v-11.17H0l0.018-0.027v-0.006h0.004l2.047-3.305h3.55V2.934L7.292,0h10.942v10.885l-0.076,0.173h6.703l-0.322,0.547
	l0.313-0.507L24.877,21.896z M6.508,2.418h9.99l0.913-1.901H7.592L6.508,2.418z M17.34,3.052v8.589l0.376-0.864v-8.51L17.34,3.052z
	 M0.927,13.881h4.692v-2.307H2.356L0.927,13.881z M6.052,16.1H3.618l-0.191,0.89h0.8l-1.262,5.949h-0.8l-0.192,0.89h3.146
	c1.615,0,2.714-0.815,3.011-2.21c0.176-0.875-0.134-1.603-0.935-1.869c0.667-0.327,1.081-0.92,1.215-1.588
	C8.691,16.842,8.01,16.1,6.052,16.1z M13.063,12.681L12.73,4.809h-0.952l-3.686,7.872l0.736,0.214l1.178-2.604h2.164l0.061,2.604
	L13.063,12.681z M15.769,20.016c0.245-1.16,0.943-2.986,2.451-2.986c0.739,0,1.058,0.537,1.247,1.146l0.984-0.45
	c-0.319-1.001-0.87-1.608-2.044-1.608c-1.217,0-3.015,0.9-3.652,3.915c-0.393,1.868-0.132,3.899,2.073,3.899
	c1.173,0,2.028-0.624,2.84-1.582l-0.682-0.55c-0.593,0.681-1.159,1.218-2.044,1.218C15.406,23.018,15.522,21.191,15.769,20.016z
	 M23.957,11.574h-6.024l-1.007,2.307h5.677L23.957,11.574z M24.36,21.76l-0.02-8.854l-0.992,1.603v9.034L24.36,21.76z"/>
</svg>
