<?xml version="1.0" encoding="utf-8"?>
<!-- Generator: Adobe Illustrator 17.0.0, SVG Export Plug-In . SVG Version: 6.00 Build 0)  -->
<!DOCTYPE svg PUBLIC "-//W3C//DTD SVG 1.1//EN" "http://www.w3.org/Graphics/SVG/1.1/DTD/svg11.dtd">
<svg version="1.1" id="Capa_1" xmlns="http://www.w3.org/2000/svg" xmlns:xlink="http://www.w3.org/1999/xlink" x="0px" y="0px"
	 width="17.006px" height="23.831px" viewBox="0 0 17.006 23.831" enable-background="new 0 0 17.006 23.831" xml:space="preserve">
<path fill="#2D2D2D" d="M13.78,0.968V0h-1.544v0.968H4.771V0H3.226v0.968H0v22.863h17.006V0.968H13.78z M16.121,22.949
	L16.121,22.949H0.886V1.853h2.34V3.09h1.545V1.853h7.466V3.09h1.544V1.853h2.34V22.949z M7.172,6.584c0,0-0.168-0.6,0.078-0.484
	C7.078,5.188,7.207,4.879,7.207,4.879C7.429,4.19,8.196,3.858,8.196,3.858c0.168-0.187,0.172-0.124,0.157-0.069
	C8.4,3.729,8.447,3.694,8.447,3.694C8.4,3.742,8.368,3.792,8.344,3.839L8.429,3.88c0.047-0.079,0.104-0.131,0.104-0.131
	C8.494,3.795,8.466,3.846,8.446,3.888L8.485,3.91C8.53,3.751,8.662,3.662,8.719,3.63c0.072-0.088,0.153-0.129,0.153-0.129
	C8.796,3.566,8.75,3.646,8.722,3.729c0.069-0.103,0.191-0.16,0.191-0.16c0,0.183,0.194,0.347,0.293,0.418
	C9.184,3.942,9.169,3.914,9.169,3.914c0.037,0.037,0.067,0.073,0.09,0.11C9.273,4.026,9.284,4.03,9.3,4.035
	C9.262,3.979,9.229,3.946,9.229,3.946C9.265,3.979,9.298,4.01,9.327,4.04C9.358,4.048,9.39,4.054,9.419,4.063
	C9.403,4.039,9.392,4.026,9.392,4.026c0.021,0.015,0.039,0.03,0.058,0.045c0.525,0.157,0.741,0.453,0.741,0.453
	c0.459,0.518,0.221,1.352,0.148,1.566c0.206-0.06,0.051,0.495,0.051,0.495c-0.024,0.16-0.092,0.23-0.131,0.259
	C10.15,7.611,9.461,8.496,8.732,8.496c-0.633,0-1.329-0.841-1.427-1.652C7.263,6.815,7.197,6.745,7.172,6.584z M5.042,12.012
	c0,0,0.067-1.876,0.635-2.72c0,0,0.162-0.221,0.546-0.369c0,0,1.315-0.4,1.404-0.74c0,0,0.97,2.514,2.248-0.006
	c0,0,0.007,0.228,0.654,0.456c0,0,1.221,0.386,1.421,0.83c0,0,0.664,1.515,0.509,2.859c0,0-0.006,0.113-0.229,0.251
	c0,0-1.534,0.643-3.638,0.598c0,0-2.052-0.103-3.358-0.686C5.234,12.485,5.048,12.44,5.042,12.012z M3.109,18.421h9.546v0.55H3.109
	V18.421z M3.163,20.134h8.663v0.553H3.163V20.134z M3.109,16.679h10.43v0.554H3.109V16.679z M3.109,14.884h11.313v0.55H3.109V14.884
	z"/>
</svg>
