<?xml version="1.0" encoding="iso-8859-1"?>
<!-- Generator: Adobe Illustrator 16.0.0, SVG Export Plug-In . SVG Version: 6.00 Build 0)  -->
<!DOCTYPE svg PUBLIC "-//W3C//DTD SVG 1.1//EN" "http://www.w3.org/Graphics/SVG/1.1/DTD/svg11.dtd">
<svg version="1.1" id="Capa_1" xmlns="http://www.w3.org/2000/svg" xmlns:xlink="http://www.w3.org/1999/xlink" x="0px" y="0px"
	 width="32.398px" height="23.774px" viewBox="0 0 32.398 23.774" style="enable-background:new 0 0 32.398 23.774;"
	 xml:space="preserve">
<g>
	<g>
		<g>
			<path style="fill:#2D2D2D;" d="M13.853,12.367c-0.169,0-0.336-0.052-0.48-0.155L0.443,2.897C0.229,2.743,0.102,2.495,0.102,2.231
				V0.819C0.102,0.368,0.469,0,0.923,0h25.86c0.453,0,0.821,0.368,0.821,0.819v1.355c0,0.264-0.126,0.511-0.34,0.665l-12.93,9.37
				C14.191,12.315,14.021,12.367,13.853,12.367z M1.743,1.811l12.108,8.725l12.111-8.778V1.64H1.743V1.811z"/>
		</g>
	</g>
	<g>
		<g>
			<path style="fill:#2D2D2D;" d="M27.706,9.303V4.249l-13.853,9.878L0,4.249v15.942h18.493c1.323,2.146,3.688,3.583,6.395,3.583
				c4.148,0,7.511-3.362,7.511-7.513C32.398,13.113,30.457,10.419,27.706,9.303z M24.887,21.618c-1.404,0-2.677-0.543-3.631-1.427
				c-1.059-0.977-1.726-2.373-1.726-3.93c0-2.959,2.397-5.354,5.357-5.354c1.037,0,2,0.301,2.818,0.81
				c1.521,0.943,2.537,2.623,2.537,4.545C30.242,19.221,27.845,21.618,24.887,21.618z"/>
		</g>
	</g>
	<g>
		<g>
			<rect x="21.168" y="14.896" style="fill:#2D2D2D;" width="7.722" height="2.399"/>
		</g>
	</g>
</g>
<g>
</g>
<g>
</g>
<g>
</g>
<g>
</g>
<g>
</g>
<g>
</g>
<g>
</g>
<g>
</g>
<g>
</g>
<g>
</g>
<g>
</g>
<g>
</g>
<g>
</g>
<g>
</g>
<g>
</g>
</svg>
