<?xml version="1.0" encoding="utf-8"?>
<!-- Generator: Adobe Illustrator 17.0.0, SVG Export Plug-In . SVG Version: 6.00 Build 0)  -->
<!DOCTYPE svg PUBLIC "-//W3C//DTD SVG 1.1//EN" "http://www.w3.org/Graphics/SVG/1.1/DTD/svg11.dtd">
<svg version="1.1" id="Capa_1" xmlns="http://www.w3.org/2000/svg" xmlns:xlink="http://www.w3.org/1999/xlink" x="0px" y="0px"
	 width="36.118px" height="26.367px" viewBox="0 0 36.118 26.367" enable-background="new 0 0 36.118 26.367" xml:space="preserve">
<path d="M33.185,7.58h-6.533V6.571h6.533V7.58z M33.185,8.238h-6.533v1.011h6.533V8.238z M33.181,3.661h-6.523v2.223h6.523V3.661z
	 M35.268,1.271v23.827c-0.001,0.357-0.292,0.648-0.65,0.648h-9.397c-0.359,0-0.649-0.291-0.649-0.649V1.271
	c0-0.358,0.29-0.65,0.649-0.65h9.397C34.977,0.621,35.268,0.913,35.268,1.271z M33.969,1.918h-8.1v22.53h8.1V1.918z M33.185,9.907
	h-6.533v1.008h6.533V9.907z M32.122,17.424c0,1.162-0.939,2.099-2.097,2.099c-1.16,0-2.099-0.938-2.099-2.099
	c0-1.158,0.94-2.098,2.099-2.098C31.183,15.326,32.122,16.267,32.122,17.424z M31.365,17.424c0-0.739-0.6-1.341-1.341-1.341
	c-0.742,0-1.342,0.601-1.342,1.341s0.6,1.34,1.342,1.34C30.765,18.764,31.365,18.164,31.365,17.424z M22.787,5.192v13.505
	c0,0.814-0.655,1.473-1.461,1.473H14.03c0,0-0.414,2.948,2.212,2.948v1.475H14.03H9.608H7.396V23.12
	c2.529,0,2.212-2.948,2.212-2.948H2.315c-0.809,0-1.465-0.659-1.465-1.473V5.192c0-0.814,0.656-1.47,1.465-1.47h19.01
	C22.132,3.722,22.787,4.378,22.787,5.192z M13.182,18.368c0-0.698-0.566-1.263-1.264-1.263c-0.699,0-1.266,0.565-1.266,1.263
	c0,0.698,0.566,1.265,1.266,1.265C12.617,19.633,13.182,19.066,13.182,18.368z M21.221,5.285H2.418v11.387H21.22h0.001V5.285z
	 M11.931,17.577c-0.434,0-0.785,0.352-0.785,0.785s0.352,0.785,0.785,0.785s0.785-0.352,0.785-0.785S12.365,17.577,11.931,17.577z"
	/>
</svg>
