<?xml version="1.0" encoding="iso-8859-1"?>
<!-- Generator: Adobe Illustrator 16.0.0, SVG Export Plug-In . SVG Version: 6.00 Build 0)  -->
<!DOCTYPE svg PUBLIC "-//W3C//DTD SVG 1.1//EN" "http://www.w3.org/Graphics/SVG/1.1/DTD/svg11.dtd">
<svg version="1.1" id="Capa_1" xmlns="http://www.w3.org/2000/svg" xmlns:xlink="http://www.w3.org/1999/xlink" x="0px" y="0px"
	 width="28.09px" height="26.259px" viewBox="0 0 28.09 26.259" style="enable-background:new 0 0 28.09 26.259;"
	 xml:space="preserve">
<g>
	<path style="fill:#2D2D2D;" d="M10.319,21.33l0.106-0.105c0,0,4.238-4.238,8.037-8.035v-9.82c0-0.511-0.413-0.922-0.922-0.922
		L1.817,2.439c0-0.636,0.953-0.957,0.953-0.957h15.692c0.982,0,0.953,0.867,0.953,0.867v9.886c0.505-0.507,0.992-0.993,1.454-1.454
		V0.865c0-0.69-0.865-0.865-0.865-0.865H2.597C0,0,0,2.407,0,2.407v22.154c0,0.509,0.412,0.925,0.923,0.925h7.86
		c0.189-0.762,0.622-1.979,1.477-4.017L10.319,21.33z M4.537,7.678V5.877h9.53v1.801H4.537z"/>
	<path style="fill:#2D2D2D;" d="M20.869,19.1c-0.493,0.492-0.98,0.977-1.454,1.452v2.572c0,0-0.163,0.6-0.953,0.6v-2.218
		c-1.45,1.449-2.679,2.68-3.343,3.344l-0.61,0.637h3.031c0.509,0,0.922-0.416,0.922-0.925l1.483-0.001
		c0.993,0,0.924-0.979,0.924-0.979V19.1z"/>
	<path style="fill:#2D2D2D;" d="M24.807,7.797c-1.094,1.096-13.84,13.841-13.84,13.841s-1.805,4.293-1.507,4.589
		c0.297,0.296,4.572-1.522,4.572-1.522s0.024-0.004,0.032-0.011l0.02-0.006l-0.006-0.009c0.693-0.693,12.983-12.984,13.805-13.807
		c0.144-0.143,0.208-0.329,0.208-0.54C28.09,9.049,25.747,6.858,24.807,7.797z M27.348,10.372
		c-0.732,0.723-10.872,10.861-13.306,13.298l-2.03-2.032L25.33,8.32c0.018-0.021,0.144-0.021,0.345,0.062
		c0.233,0.096,0.467,0.258,0.688,0.45L14.352,20.84c-0.054,0.056-0.081,0.125-0.081,0.196c0,0.07,0.027,0.142,0.081,0.196
		c0.109,0.107,0.284,0.107,0.392,0L26.754,9.22c0.35,0.402,0.597,0.837,0.597,1.112C27.351,10.358,27.348,10.372,27.348,10.372z"/>
</g>
<g>
</g>
<g>
</g>
<g>
</g>
<g>
</g>
<g>
</g>
<g>
</g>
<g>
</g>
<g>
</g>
<g>
</g>
<g>
</g>
<g>
</g>
<g>
</g>
<g>
</g>
<g>
</g>
<g>
</g>
</svg>
