<?xml version="1.0" encoding="iso-8859-1"?>
<!-- Generator: Adobe Illustrator 16.0.0, SVG Export Plug-In . SVG Version: 6.00 Build 0)  -->
<!DOCTYPE svg PUBLIC "-//W3C//DTD SVG 1.1//EN" "http://www.w3.org/Graphics/SVG/1.1/DTD/svg11.dtd">
<svg version="1.1" id="Capa_1" xmlns="http://www.w3.org/2000/svg" xmlns:xlink="http://www.w3.org/1999/xlink" x="0px" y="0px"
	 width="19.341px" height="25.993px" viewBox="0 0 19.341 25.993" style="enable-background:new 0 0 19.341 25.993;"
	 xml:space="preserve">
<g>
	<path style="fill:#2D2D2D;" d="M18.488,0H0.853C0.381,0,0,0.382,0,0.854V25.14c0,0.471,0.381,0.853,0.853,0.853h13.083
		c0.21,0,0.413-0.078,0.569-0.218l4.551-4.073c0.181-0.162,0.285-0.392,0.285-0.636V0.854C19.341,0.382,18.959,0,18.488,0z
		 M17.634,20.591h-3.97v3.648l-0.053,0.047H1.707V1.706H11.5v9.763l2.181-2.844l2.181,2.844V1.706h1.772V20.591z"/>
	<rect x="3.242" y="9.597" style="fill:#2D2D2D;" width="2.315" height="2.315"/>
	<path style="fill:#2D2D2D;" d="M12.648,14.306h-7.49c-0.334,0-0.604,0.271-0.604,0.605s0.271,0.604,0.604,0.604h7.49
		c0.333,0,0.604-0.271,0.604-0.604S12.981,14.306,12.648,14.306z"/>
	<path style="fill:#2D2D2D;" d="M12.648,17.72h-7.49c-0.334,0-0.604,0.27-0.604,0.604c0,0.333,0.271,0.604,0.604,0.604h7.49
		c0.333,0,0.604-0.271,0.604-0.604C13.252,17.99,12.981,17.72,12.648,17.72z"/>
</g>
<g>
</g>
<g>
</g>
<g>
</g>
<g>
</g>
<g>
</g>
<g>
</g>
<g>
</g>
<g>
</g>
<g>
</g>
<g>
</g>
<g>
</g>
<g>
</g>
<g>
</g>
<g>
</g>
<g>
</g>
</svg>
