<?xml version="1.0" encoding="iso-8859-1"?>
<!-- Generator: Adobe Illustrator 16.0.0, SVG Export Plug-In . SVG Version: 6.00 Build 0)  -->
<!DOCTYPE svg PUBLIC "-//W3C//DTD SVG 1.1//EN" "http://www.w3.org/Graphics/SVG/1.1/DTD/svg11.dtd">
<svg version="1.1" id="Capa_1" xmlns="http://www.w3.org/2000/svg" xmlns:xlink="http://www.w3.org/1999/xlink" x="0px" y="0px"
	 width="25.632px" height="18.393px" viewBox="0 0 25.632 18.393" style="enable-background:new 0 0 25.632 18.393;"
	 xml:space="preserve">
<g>
	<g>
		<path style="fill:#2D2D2D;" d="M4.693,8.827c0.27,0.179,0.59,0.284,0.936,0.284c0.645,0,1.197-0.364,1.484-0.891L11.4,9.415
			c0,0.004-0.002,0.008-0.002,0.013c0,0.935,0.761,1.695,1.694,1.695c0.935,0,1.696-0.761,1.696-1.695
			c0-0.157-0.028-0.307-0.069-0.451l5.92-5.915c0.28,0.204,0.622,0.329,0.993,0.329c0.936,0,1.695-0.761,1.695-1.695
			c0-0.935-0.76-1.696-1.695-1.696c-0.935,0-1.696,0.761-1.696,1.696c0,0.301,0.087,0.581,0.226,0.827l-5.799,5.794
			c-0.311-0.355-0.763-0.584-1.271-0.584c-0.677,0-1.261,0.403-1.533,0.981L7.314,7.53c0.003-0.039,0.011-0.075,0.011-0.115
			c0-0.936-0.759-1.695-1.696-1.695c-0.935,0-1.695,0.76-1.695,1.695c0,0.328,0.099,0.631,0.261,0.891l-4.103,4.597
			c-0.133,0.148-0.119,0.375,0.029,0.508c0.068,0.061,0.155,0.091,0.239,0.091c0.1,0,0.197-0.041,0.269-0.121L4.693,8.827z
			 M21.633,0.72c0.538,0,0.976,0.438,0.976,0.976c0,0.538-0.438,0.976-0.976,0.976c-0.536,0-0.976-0.438-0.976-0.976
			C20.657,1.157,21.097,0.72,21.633,0.72z M13.093,8.452c0.539,0,0.977,0.438,0.977,0.977c0,0.538-0.438,0.976-0.977,0.976
			c-0.537,0-0.977-0.438-0.977-0.976C12.116,8.89,12.556,8.452,13.093,8.452z M5.629,6.439c0.54,0,0.977,0.438,0.977,0.976
			S6.169,8.39,5.629,8.39c-0.536,0-0.974-0.437-0.974-0.975S5.093,6.439,5.629,6.439z"/>
		<path style="fill:#2D2D2D;" d="M25.425,11.575L21.07,9.53c0.008-0.067,0.022-0.133,0.022-0.202c0-0.936-0.762-1.696-1.696-1.696
			c-0.937,0-1.696,0.76-1.696,1.696c0,0.33,0.099,0.636,0.263,0.897l-4.418,5.013c-0.25-0.147-0.536-0.236-0.848-0.236
			c-0.407,0-0.777,0.15-1.071,0.392l-2.613-1.999c0.08-0.197,0.126-0.412,0.126-0.637c0-0.935-0.761-1.695-1.695-1.695
			c-0.936,0-1.696,0.761-1.696,1.695c0,0.15,0.027,0.293,0.063,0.432l-5.132,3.201c-0.169,0.105-0.219,0.327-0.114,0.496
			c0.067,0.109,0.186,0.169,0.305,0.169c0.064,0,0.131-0.018,0.191-0.054l5.081-3.17c0.311,0.376,0.776,0.621,1.302,0.621
			c0.449,0,0.854-0.178,1.16-0.466l2.576,1.969c-0.108,0.225-0.178,0.473-0.178,0.74c0,0.935,0.761,1.696,1.695,1.696
			s1.695-0.761,1.695-1.696c0-0.363-0.116-0.699-0.312-0.976l4.385-4.978c0.269,0.176,0.587,0.281,0.932,0.281
			c0.608,0,1.139-0.326,1.437-0.809l4.287,2.011c0.18,0.084,0.393,0.008,0.478-0.172C25.682,11.873,25.605,11.659,25.425,11.575z
			 M8.401,12.929c-0.045,0.25-0.185,0.468-0.382,0.613c-0.162,0.12-0.36,0.192-0.576,0.192c-0.269,0-0.513-0.109-0.688-0.284
			c-0.172-0.172-0.279-0.408-0.285-0.67c0-0.007-0.003-0.014-0.003-0.021c0-0.538,0.438-0.976,0.977-0.976
			c0.537,0,0.976,0.438,0.976,0.976C8.419,12.817,8.41,12.874,8.401,12.929z M12.697,17.672c-0.538,0-0.977-0.437-0.977-0.975
			c0-0.101,0.021-0.197,0.051-0.289c0.074-0.24,0.235-0.438,0.452-0.559c0.14-0.079,0.301-0.128,0.474-0.128
			c0.128,0,0.25,0.026,0.361,0.071c0.23,0.093,0.418,0.271,0.521,0.496c0.059,0.125,0.093,0.262,0.093,0.409
			C13.673,17.235,13.235,17.672,12.697,17.672z M20.177,9.906c-0.177,0.241-0.46,0.398-0.78,0.398c-0.162,0-0.312-0.043-0.445-0.113
			c-0.223-0.114-0.393-0.31-0.476-0.55c-0.033-0.099-0.055-0.203-0.055-0.313c0-0.539,0.438-0.976,0.976-0.976
			c0.492,0,0.896,0.368,0.962,0.844c0.007,0.044,0.013,0.086,0.013,0.132C20.371,9.544,20.299,9.744,20.177,9.906z"/>
	</g>
	<path style="fill:#2D2D2D;" d="M13.232,6.677c-0.041,0.048-0.1,0.074-0.162,0.074c-0.062,0-0.121-0.026-0.163-0.074l-1.604-1.855
		c-0.054-0.063-0.067-0.153-0.031-0.229c0.034-0.076,0.11-0.125,0.193-0.125h0.989V2.909c0-0.118,0.097-0.214,0.216-0.214h0.8
		c0.118,0,0.214,0.096,0.214,0.214v1.558h0.989h0.002c0.12,0,0.214,0.095,0.214,0.214c0,0.062-0.025,0.118-0.068,0.157L13.232,6.677
		z"/>
</g>
<g>
</g>
<g>
</g>
<g>
</g>
<g>
</g>
<g>
</g>
<g>
</g>
<g>
</g>
<g>
</g>
<g>
</g>
<g>
</g>
<g>
</g>
<g>
</g>
<g>
</g>
<g>
</g>
<g>
</g>
</svg>
