<?xml version="1.0" encoding="iso-8859-1"?>
<!-- Generator: Adobe Illustrator 16.0.0, SVG Export Plug-In . SVG Version: 6.00 Build 0)  -->
<!DOCTYPE svg PUBLIC "-//W3C//DTD SVG 1.1//EN" "http://www.w3.org/Graphics/SVG/1.1/DTD/svg11.dtd">
<svg version="1.1" id="Capa_1" xmlns="http://www.w3.org/2000/svg" xmlns:xlink="http://www.w3.org/1999/xlink" x="0px" y="0px"
	 width="28.523px" height="22.88px" viewBox="0 0 28.523 22.88" style="enable-background:new 0 0 28.523 22.88;"
	 xml:space="preserve">
<g>
	<polygon style="fill:#2D2D2D;" points="9.564,8.951 9.564,13.256 9.564,18.258 20.44,18.258 26.785,18.258 26.785,13.171 
		26.785,8.951 24.008,8.951 24.008,9.66 26.237,9.66 26.237,12.965 26.238,12.965 26.238,17.549 20.797,17.549 10.112,17.549 
		10.112,13.397 10.112,13.397 10.112,9.66 14.851,9.66 19.681,9.66 19.681,8.951 15.208,8.951 	"/>
	<polygon style="fill:#2D2D2D;" points="7.963,22.88 28.247,22.88 28.396,22.381 7.773,22.381 	"/>
	<path style="fill:#2D2D2D;" d="M27.436,19.045H9.163l-1.388,3.076h20.699l0.05-0.168L27.436,19.045z M16.488,21.99l0.327-0.987
		h2.018l0.389,0.987H16.488z M9.153,20.841l0.68-1.439h16.633l0.584,1.439H9.153z"/>
	<path style="fill:#2D2D2D;" d="M8.572,18.482h0.202V8.389h7.516l0.232-0.086l0.113-0.569L16.454,6.94l-1.814-0.748
		c0,0-0.175,0.59,0.292,1.315c0,0-0.155,0.823-0.539,0.609l-1.051-0.528c0,0-0.354-0.151-0.922,0.188
		c-0.567,0.34-1.531-0.015-1.531-0.015s0.079-0.573,0.675-0.869l0.489-0.322c0,0-0.127-0.582-0.016-1.037
		c0.113-0.453,0.312-0.056,0.766-0.397c0.453-0.339,0.767,0.667,1.447,0.555c0.681-0.115,0.341-0.229,0.797-0.454
		c0.454-0.229,0.794,0.454,0.794,0.454l0.907,0.112c0,0-0.143-1.025-0.08-0.761c0.424,0.729,0.992,2.354,1.137,3.346h1.146
		C18.394,3.666,14.382,0,9.511,0C4.258,0,0,4.257,0,9.509c0,4.864,3.653,8.869,8.363,9.437L8.572,18.482z M13.086,3.775l0.68-0.455
		c0,0-0.286-0.735-0.238-1.094c0.166-0.078,0.836,0.272,1.403,0.867c-0.382,1.417-1.275,1.25-1.275,1.25S13,4.329,13.086,3.775z
		 M7.354,12.147c-0.043,0.214-0.299,0.726-0.468,1.064c-0.17,0.34-0.256,0.47-0.469,0.639c-0.213,0.173-0.341,0.468-0.341,0.468
		l-0.042,0.725c0,0,0.083,0.597,0.21,0.812c0.128,0.212-0.456,1.478-0.456,1.478c-0.369-0.071-0.574-0.501-0.703-0.841
		C4.957,16.15,4.788,15.97,4.83,15.587c0.043-0.383-0.331-0.586-0.457-0.799c-0.127-0.213-0.298-0.511-0.298-0.724
		c0-0.214-0.467-0.513-0.467-0.513S2.755,13.169,2.628,13c-0.128-0.171-0.257-0.896-0.299-1.193
		c-0.042-0.296,0.128-1.062,0.128-1.062s0.343-0.257,0.126-0.468c-0.212-0.213-0.254-0.77-0.254-0.77L1.945,9.083
		c0,0-0.297-0.425-0.339-0.639c-0.042-0.213,0-0.343,0.042-0.554c0.043-0.215-0.084-0.598-0.084-0.809
		C3.153,3.181,5.82,2.271,5.82,2.271l0.214,0.894c0,0-0.468,0.128-0.723,0.043C5.055,3.122,4.926,3.122,4.926,3.122L4.587,3.59
		c0,0-0.129,0.297-0.172,0.468C4.373,4.229,4.499,4.483,4.499,4.483s0.597,0.043,0.597-0.127c0-0.171-0.084-0.256-0.084-0.256
		L4.926,3.803c0,0,0.385-0.213,1.404-0.128c1.023,0.084,0.641,0.809,1.066,0.979c0.427,0.172-0.342,0.765-0.511,1.106
		C6.716,6.103,6.46,5.335,6.46,5.335s0.256-0.296-0.171-0.384C5.862,4.867,5.581,5.718,5.796,5.678
		c0.213-0.041,0.451,0.229,0.408,0.439C6.161,6.332,6.161,6.314,5.948,6.782C5.735,7.25,5.273,7.596,5.273,7.596
		S5.055,7.464,5.182,7.721c0.129,0.254-0.042,0.85-0.042,1.021c0,0.17-0.511-0.298-0.595-0.726C4.458,7.592,3.959,7.964,3.788,8.006
		c-0.17,0.043-0.479-0.074-0.563-0.285C3.139,7.508,2.371,8.146,2.158,8.271C1.945,8.401,2.032,8.742,2.371,8.57
		c0.341-0.169,0.638-0.041,0.554,0.302C2.84,9.21,2.5,8.998,2.542,9.21c0.041,0.213,0.382,0.425,0.466,0.726
		c0.086,0.296,0.896,0.041,1.151-0.087c0.255-0.128,0.979-0.255,1.063,0.087c0.088,0.341,0.896,0.465,1.194,0.552
		c0.299,0.085,0.894,0.126,1.235,0.468C7.992,11.296,7.396,11.935,7.354,12.147z M6.886,2.312c0.008-0.086,0.616-0.22,0.626-0.368
		c0.903-0.838,2.344-0.665,2.455-0.467C9.709,1.899,9.312,1.76,9.268,2.184c-0.043,0.428-0.721,0.98-0.637,1.151
		c0.085,0.172,0,0.899-0.597,0.261C7.438,2.957,6.841,2.739,6.886,2.312z"/>
	<path style="fill:#2D2D2D;" d="M20.244,9.402c0,0.478,0,0.793,0,0.793s-1.288,0-1.822,0c-0.532,0-0.042,0.461-0.042,0.461
		l3.231,3.905c0,0,0.264,0.311,0.543,0.032c0.381-0.383,3.13-4.03,3.13-4.03s0.488-0.485-0.16-0.485c-0.649,0-1.681,0-1.681,0
		s0-0.28,0-0.712c0-1.327,0-3.91,0-4.9c0,0,0.007-0.231-0.293-0.231c-0.299,0-2.141,0-2.561,0c-0.42,0-0.346,0.276-0.346,0.276
		C20.244,5.529,20.244,8.026,20.244,9.402z"/>
</g>
<g>
</g>
<g>
</g>
<g>
</g>
<g>
</g>
<g>
</g>
<g>
</g>
<g>
</g>
<g>
</g>
<g>
</g>
<g>
</g>
<g>
</g>
<g>
</g>
<g>
</g>
<g>
</g>
<g>
</g>
</svg>
