<?xml version="1.0" encoding="utf-8"?>
<!-- Generator: Adobe Illustrator 17.0.0, SVG Export Plug-In . SVG Version: 6.00 Build 0)  -->
<!DOCTYPE svg PUBLIC "-//W3C//DTD SVG 1.1//EN" "http://www.w3.org/Graphics/SVG/1.1/DTD/svg11.dtd">
<svg version="1.1" id="Capa_1" xmlns="http://www.w3.org/2000/svg" xmlns:xlink="http://www.w3.org/1999/xlink" x="0px" y="0px"
	 width="27.892px" height="22.49px" viewBox="0 0 27.892 22.49" enable-background="new 0 0 27.892 22.49" xml:space="preserve">
<path fill="#2D2D2D" d="M8.719,8.842c0.093-0.08,0.163-0.177,0.22-0.284H8.99C9.129,8.817,9.292,9.051,9.467,9.27H8.196L8.719,8.842
	z M19.012,17.867v-5.088V11.27h-0.548v1.303v4.581h-5.441H2.339v-4.149H2.337V9.27h0.52l-0.22-0.712H1.79v4.305v5.004h10.876H19.012
	z M0.188,22.49h20.284l0.15-0.5H0L0.188,22.49z M19.66,18.653l1.09,2.91l-0.052,0.167H0l1.389-3.077H19.66z M11.448,21.599
	l-0.389-0.988H9.041l-0.327,0.988H11.448z M19.277,20.449l-0.583-1.439H2.061l-0.683,1.439H19.277z M24.122,3.133
	c-0.124,0-0.247,0.006-0.369,0.02C23.006,1.304,21.197,0,19.079,0c-1.82,0-3.411,0.968-4.298,2.416
	C14.356,2.278,13.904,2.2,13.435,2.2c-2.432,0-4.402,1.971-4.402,4.403c0,3.852,4.024,4.296,4.024,4.296h11.906
	c1.678-0.453,2.929-2.204,2.929-3.997C27.892,4.82,26.204,3.133,24.122,3.133z M4.194,11.783c0.061,0.02,0.125,0.006,0.172-0.033
	l3.59-2.94c0.052-0.046,0.077-0.113,0.065-0.181C8.008,8.562,7.958,8.506,7.893,8.487L6.457,8.056
	C6.634,7.475,6.805,7.007,6.973,6.62c0.803-1.85,2.109-2.018,2.165-2.024c0.073-0.007,0.137-0.061,0.157-0.132
	c0.003-0.011,0.006-0.022,0.008-0.033C9.312,4.34,9.257,4.258,9.17,4.234c-2.905-0.875-4.562,2.392-4.907,3.16L2.927,6.993
	c-0.064-0.02-0.134-0.002-0.184,0.049C2.692,7.091,2.677,7.161,2.696,7.227l1.374,4.434C4.088,11.72,4.135,11.766,4.194,11.783z"/>
</svg>
