<?xml version="1.0" encoding="iso-8859-1"?>
<!-- Generator: Adobe Illustrator 16.0.0, SVG Export Plug-In . SVG Version: 6.00 Build 0)  -->
<!DOCTYPE svg PUBLIC "-//W3C//DTD SVG 1.1//EN" "http://www.w3.org/Graphics/SVG/1.1/DTD/svg11.dtd">
<svg version="1.1" id="Capa_1" xmlns="http://www.w3.org/2000/svg" xmlns:xlink="http://www.w3.org/1999/xlink" x="0px" y="0px"
	 width="17.95px" height="29.935px" viewBox="0 0 17.95 29.935" style="enable-background:new 0 0 17.95 29.935;"
	 xml:space="preserve">
<g>
	<g>
		<path style="fill-rule:evenodd;clip-rule:evenodd;fill:#2D2D2D;" d="M16.882,25.177l0.183-2.197l-2.872-7.808h1.593v1.259h0.777
			v-3.295h-0.777v1.26h-1.878l-1.861-5.059c0.199-0.448,0.312-0.94,0.312-1.461c0-1.838-1.368-3.335-3.137-3.576V0H8.249v4.3
			C6.48,4.539,5.111,6.038,5.111,7.876c0,0.735,0.221,1.417,0.599,1.988l-1.667,4.531H2.089v-1.26H1.311v3.295h0.778v-1.259h1.669
			l-2.872,7.808l0.183,2.197L0,29.935l2.403-4.21l1.727-1.618l4.845-12.4l4.846,12.4l1.726,1.618l2.403,4.21L16.882,25.177z
			 M8.792,10.388c-1.383,0-2.506-1.12-2.506-2.506c0-1.382,1.123-2.503,2.506-2.503c1.384,0,2.506,1.121,2.506,2.503
			C11.298,9.268,10.176,10.388,8.792,10.388z"/>
	</g>
	<g>
		<circle style="fill-rule:evenodd;clip-rule:evenodd;fill:#2D2D2D;" cx="8.792" cy="7.918" r="1.234"/>
	</g>
</g>
<g>
</g>
<g>
</g>
<g>
</g>
<g>
</g>
<g>
</g>
<g>
</g>
<g>
</g>
<g>
</g>
<g>
</g>
<g>
</g>
<g>
</g>
<g>
</g>
<g>
</g>
<g>
</g>
<g>
</g>
</svg>
