<?xml version="1.0" encoding="iso-8859-1"?>
<!-- Generator: Adobe Illustrator 16.0.0, SVG Export Plug-In . SVG Version: 6.00 Build 0)  -->
<!DOCTYPE svg PUBLIC "-//W3C//DTD SVG 1.1//EN" "http://www.w3.org/Graphics/SVG/1.1/DTD/svg11.dtd">
<svg version="1.1" id="Capa_1" xmlns="http://www.w3.org/2000/svg" xmlns:xlink="http://www.w3.org/1999/xlink" x="0px" y="0px"
	 width="27.851px" height="27.863px" viewBox="0 0 27.851 27.863" style="enable-background:new 0 0 27.851 27.863;"
	 xml:space="preserve">
<g>
	<g>
		<path style="fill:#2D2D2D;" d="M13.535,27.858l-0.332-0.018c-3.123-0.157-6.023-1.325-8.388-3.372L4.493,24.19l9.342-10.267
			l2.715,2.472l-0.257,0.307c-2.174,2.593-2.164,5.425-2.156,7.301c0.007,1.484-0.316,2.853-0.51,3.537L13.535,27.858z
			 M5.689,24.115c2.074,1.684,4.556,2.671,7.221,2.872c0.177-0.697,0.397-1.802,0.391-2.979c-0.008-1.924-0.018-4.797,2.1-7.528
			l-1.512-1.376L5.689,24.115z"/>
	</g>
	<g>
		<path style="fill:#2D2D2D;" d="M4.504,24.203l-0.31-0.301c-2.232-2.177-3.638-4.966-4.066-8.062l-0.046-0.33l0.312-0.116
			c0.653-0.247,1.962-0.681,3.393-0.809c1.867-0.171,4.691-0.432,7.062-2.834l0.282-0.284l2.717,2.47L4.504,24.203z M1.004,16.06
			c0.432,2.636,1.625,5.02,3.47,6.938l8.195-9.006l-1.514-1.376c-2.518,2.36-5.377,2.623-7.294,2.799
			C2.729,15.518,1.673,15.827,1.004,16.06z"/>
	</g>
	<g>
		<path style="fill:#2D2D2D;" d="M13.834,13.95l-2.714-2.469l0.257-0.308c2.171-2.593,2.162-5.43,2.155-7.303
			c-0.007-1.496,0.319-2.866,0.514-3.55l0.09-0.315l0.327,0.012c3.146,0.12,6.075,1.257,8.471,3.292l0.33,0.277L13.834,13.95z
			 M12.267,11.396l1.512,1.376l8.282-9.103C19.958,2,17.45,1.037,14.762,0.867c-0.179,0.699-0.402,1.812-0.396,3
			C14.372,5.791,14.381,8.662,12.267,11.396z"/>
	</g>
	<g>
		<path style="fill:#2D2D2D;" d="M16.537,16.409l-2.717-2.471l9.43-10.363l0.309,0.296c2.277,2.179,3.712,4.979,4.154,8.095
			l0.046,0.325l-0.305,0.121c-0.678,0.27-2.043,0.741-3.57,0.878c-1.867,0.17-4.688,0.426-7.065,2.835L16.537,16.409z
			 M14.999,13.883l1.513,1.377c2.524-2.365,5.381-2.627,7.297-2.8c1.238-0.111,2.387-0.472,3.028-0.705
			c-0.444-2.658-1.664-5.057-3.55-6.981L14.999,13.883z"/>
	</g>
	<g>
		<path style="fill:#2D2D2D;" d="M13.523,27.863l0.141-0.531c0.172-0.643,0.46-1.932,0.454-3.328
			c-0.007-1.984-0.016-4.702,2.136-7.287l0.278-0.336l7.662,6.972l-0.301,0.309c-2.594,2.663-6.083,4.154-9.821,4.197L13.523,27.863
			z M16.625,17.591c-1.686,2.256-1.678,4.646-1.672,6.412c0.004,1.138-0.166,2.196-0.349,3.003c3.166-0.162,6.111-1.434,8.386-3.624
			L16.625,17.591z"/>
	</g>
	<g>
		<path style="fill:#2D2D2D;" d="M0.081,15.523L0.04,14.975c-0.274-3.681,0.884-7.25,3.26-10.052l0.28-0.328l7.567,6.883
			l-0.307,0.311c-2.373,2.39-5.078,2.635-7.054,2.815c-1.283,0.115-2.442,0.462-3.188,0.731L0.081,15.523z M3.662,5.797
			c-1.937,2.438-2.927,5.45-2.82,8.575c0.765-0.244,1.772-0.501,2.869-0.601c1.759-0.159,4.136-0.374,6.222-2.27L3.662,5.797z"/>
	</g>
	<g>
		<path style="fill:#2D2D2D;" d="M24.182,23.365l-7.661-6.97l0.308-0.309c2.374-2.388,5.079-2.633,7.054-2.813
			c1.438-0.132,2.723-0.556,3.36-0.797l0.52-0.198l0.044,0.556c0.295,3.751-0.892,7.376-3.345,10.209L24.182,23.365z M17.735,16.373
			l6.371,5.795c2.004-2.47,3.021-5.536,2.9-8.724c-0.745,0.249-1.845,0.55-3.048,0.66C22.2,14.265,19.823,14.479,17.735,16.373z"/>
	</g>
	<g>
		<path style="fill:#2D2D2D;" d="M11.134,11.494L3.567,4.61l0.296-0.309c2.558-2.675,6.013-4.195,9.729-4.288L14.148,0l-0.143,0.537
			c-0.211,0.788-0.46,2.004-0.456,3.334c0.009,1.984,0.019,4.702-2.137,7.289L11.134,11.494z M4.766,4.572l6.276,5.712
			c1.69-2.256,1.681-4.644,1.674-6.409c-0.004-1.141,0.166-2.197,0.347-3.004C9.921,1.076,7.007,2.375,4.766,4.572z"/>
	</g>
</g>
<g>
</g>
<g>
</g>
<g>
</g>
<g>
</g>
<g>
</g>
<g>
</g>
<g>
</g>
<g>
</g>
<g>
</g>
<g>
</g>
<g>
</g>
<g>
</g>
<g>
</g>
<g>
</g>
<g>
</g>
</svg>
