<?xml version="1.0" encoding="utf-8"?>
<!-- Generator: Adobe Illustrator 17.0.0, SVG Export Plug-In . SVG Version: 6.00 Build 0)  -->
<!DOCTYPE svg PUBLIC "-//W3C//DTD SVG 1.1//EN" "http://www.w3.org/Graphics/SVG/1.1/DTD/svg11.dtd">
<svg version="1.1" id="Capa_1" xmlns="http://www.w3.org/2000/svg" xmlns:xlink="http://www.w3.org/1999/xlink" x="0px" y="0px"
	 width="25.325px" height="24.029px" viewBox="0 0 25.325 24.029" enable-background="new 0 0 25.325 24.029" xml:space="preserve">
<path d="M12.748,18.77c-0.082,0-0.164-0.021-0.239-0.06c-0.169-0.089-0.275-0.264-0.275-0.455V9.452
	c0-0.191,0.106-0.367,0.275-0.456c0.168-0.089,0.373-0.077,0.531,0.031l6.419,4.401c0.139,0.096,0.224,0.254,0.224,0.424
	s-0.084,0.328-0.224,0.424l-6.419,4.402C12.952,18.739,12.85,18.77,12.748,18.77z M24.632,3.677H11.961l0.525,0.826
	c0.081,0.12,0.122,0.19,0.153,0.265c0.024,0.056,0.06,0.147,0.063,0.294h11.236v17.58H6.36V10.231
	c-0.458-0.087-0.937-0.204-1.385-0.344v13.448c0,0.383,0.31,0.693,0.691,0.693h18.966c0.383,0,0.693-0.311,0.693-0.693V4.37
	C25.325,3.988,25.016,3.677,24.632,3.677z M11.7,4.357l-1.086-1.714l-2.945,3.96L2.863,5.864l0.508,2.125
	c0-0.003,0.002-0.007,0.005-0.011C3.361,8.073,3.369,8.162,3.402,8.242c0.293,0.703,4.147,1.644,5.131,1.235s3.678-4.07,3.386-4.773
	C11.888,4.627,11.833,4.562,11.7,4.357z M7.528,6.178L0,5.033l5.232-4.43L12.034,0L7.528,6.178z M0.176,5.338l1.299,4.143
	l0.858,1.047L2.17,9.192L0.176,5.338z"/>
</svg>
