<?xml version="1.0" encoding="iso-8859-1"?>
<!-- Generator: Adobe Illustrator 16.0.0, SVG Export Plug-In . SVG Version: 6.00 Build 0)  -->
<!DOCTYPE svg PUBLIC "-//W3C//DTD SVG 1.1//EN" "http://www.w3.org/Graphics/SVG/1.1/DTD/svg11.dtd">
<svg version="1.1" id="Capa_1" xmlns="http://www.w3.org/2000/svg" xmlns:xlink="http://www.w3.org/1999/xlink" x="0px" y="0px"
	 width="30.715px" height="22.335px" viewBox="0 0 30.715 22.335" style="enable-background:new 0 0 30.715 22.335;"
	 xml:space="preserve">
<g>
	<path style="fill:#2D2D2D;" d="M20.18,15.683H2.078L0,20.294l0.349,0.923h20.775c-0.79-1.001-1.265-2.26-1.265-3.634
		C19.859,16.92,19.976,16.28,20.18,15.683z M16.024,20.721h-2.91v-0.797h2.91V20.721z M19.331,18.45H1.896l0.761-2.086h16.751
		C19.408,16.364,19.133,16.914,19.331,18.45z"/>
	<path style="fill:#2D2D2D;" d="M12.223,11.398v0.614c0,0.223,0.179,0.401,0.398,0.401h9.766c0.38-0.206,0.79-0.364,1.215-0.481
		V4.234c0-0.221-0.18-0.401-0.402-0.401H12.621c-0.22,0-0.398,0.181-0.398,0.401V6.87c0.24,0.227,0.445,0.507,0.581,0.86
		l0.113-0.077c0.033-0.032,0.071-0.055,0.107-0.081V4.636H22.8v6.976h-9.775v-0.75L12.223,11.398z"/>
	<path style="fill:#2D2D2D;" d="M20.714,14.55c0.335-0.557,0.758-1.055,1.253-1.469h-3.444H6.26H5.697
		c0.019-0.065,0.04-0.132,0.04-0.203c0-0.011,0-0.023,0-0.033l0,0V8.859h0.462l-0.002,4.218h4.432l-0.002-4.236h0.483v1.31
		c0,0.002,0,0.004,0,0.006c0,0.406,0.329,0.738,0.737,0.738c0.121,0,0.229-0.033,0.329-0.085l0.004,0.004l1.278-0.857l0.671-0.45
		l0.48-0.32l0,0c0-0.004,0.002-0.004,0.004-0.005c0.243-0.244,0.289-0.607,0.137-0.892l3.878-2.634l-0.176-0.26L14.545,8.05
		c-0.123-0.091-0.267-0.14-0.415-0.146c-0.205-0.008-0.415,0.062-0.572,0.218c0,0-0.001,0.006-0.005,0.006l-0.094,0.066L12.586,8.79
		V8.538c-0.16-1.921-2.389-1.893-2.389-1.893H9.235L8.424,7.978L7.607,6.646H6.683C4.96,6.677,4.46,7.554,4.316,8.102v-0.54H4.314
		V1.468h6.302h14.205v5.52h0.001v4.805c0.297-0.047,0.599-0.08,0.908-0.08c0.253,0,0.504,0.023,0.749,0.056V7.214V0H10.797h-8.14
		v7.337v7.213h15.686H20.714z"/>
	<circle style="fill:#2D2D2D;" cx="8.378" cy="4.631" r="1.691"/>
	<path style="fill:#2D2D2D;" d="M25.73,12.365c-2.752,0-4.986,2.23-4.986,4.984c0,2.753,2.234,4.985,4.986,4.985
		s4.984-2.232,4.984-4.985C30.715,14.596,28.482,12.365,25.73,12.365z M28.136,17.573l-3.071,2.652
		c-0.106,0.092-0.265,0.118-0.4,0.07c-0.138-0.052-0.228-0.167-0.228-0.295v-5.303c0-0.128,0.09-0.245,0.228-0.295
		c0.136-0.049,0.294-0.021,0.4,0.068l3.071,2.653C28.28,17.25,28.28,17.449,28.136,17.573z"/>
</g>
<g>
</g>
<g>
</g>
<g>
</g>
<g>
</g>
<g>
</g>
<g>
</g>
<g>
</g>
<g>
</g>
<g>
</g>
<g>
</g>
<g>
</g>
<g>
</g>
<g>
</g>
<g>
</g>
<g>
</g>
</svg>
