<?xml version="1.0" encoding="iso-8859-1"?>
<!-- Generator: Adobe Illustrator 16.0.0, SVG Export Plug-In . SVG Version: 6.00 Build 0)  -->
<!DOCTYPE svg PUBLIC "-//W3C//DTD SVG 1.1//EN" "http://www.w3.org/Graphics/SVG/1.1/DTD/svg11.dtd">
<svg version="1.1" id="Capa_1" xmlns="http://www.w3.org/2000/svg" xmlns:xlink="http://www.w3.org/1999/xlink" x="0px" y="0px"
	 width="29.299px" height="28.148px" viewBox="0 0 29.299 28.148" style="enable-background:new 0 0 29.299 28.148;"
	 xml:space="preserve">
<g>
	<g>
		<path style="fill:#2D2D2D;" d="M25.12,19.356c-0.189-0.355-0.767-0.829-1.848-0.503l-0.024,0.01c-0.002,0-0.029,0.011-0.075,0.025
			c-0.342,0.103-0.954,0.142-1.223-0.745l-0.06-0.204l-0.841,0.255l0.025,0.179c0.005,0.033,0.123,0.804,0.764,1.212
			c0.434,0.277,0.989,0.316,1.652,0.118c0.035-0.008,0.261-0.053,0.408,0.027c-0.556,0.305-0.988,0.765-1.267,1.302
			c-0.15,0.292-0.253,0.607-0.309,0.931c-0.03,0.196-0.046,0.392-0.041,0.592c0.008,0.27,0.051,0.541,0.131,0.812l0.131,0.438
			l0.14,0.462l0.5,1.658c0.294,0.979,1.029,1.704,1.923,2.03c0.613,0.225,1.298,0.264,1.968,0.06c1.648-0.495,2.587-2.24,2.092-3.89
			l-0.496-1.646L28.526,22l-0.131-0.437C27.97,20.15,26.579,19.225,25.12,19.356z M28.761,24.247
			c0.43,1.427-0.382,2.937-1.807,3.365c-0.525,0.157-1.062,0.146-1.55,0c-0.841-0.252-1.543-0.908-1.815-1.809l-0.44-1.464
			c0.403,0.047,0.81,0.051,1.226,0.015c0.206-0.021,0.415-0.05,0.625-0.087c0.234-0.047,0.468-0.104,0.704-0.173l0,0
			c0.12-0.037,0.236-0.076,0.352-0.117c0.979-0.349,1.768-0.852,2.26-1.22L28.761,24.247z M27.99,21.686l0.176,0.586
			c-0.829,0.612-1.685,1.06-2.544,1.337c-0.041,0.011-0.082,0.031-0.124,0.043c-0.347,0.104-0.668,0.17-0.964,0.213
			c-0.239,0.036-0.46,0.055-0.658,0.061c-0.356,0.012-0.649-0.012-0.865-0.04l-0.192-0.643c-0.028-0.093-0.05-0.188-0.065-0.284
			c-0.041-0.223-0.056-0.443-0.041-0.661c0.021-0.344,0.108-0.674,0.25-0.979c0.268-0.566,0.731-1.044,1.339-1.315l0.114-0.051
			l0.054-0.024c0,0,0.236-0.093,0.39-0.109c0.16-0.022,0.168-0.023,0.168-0.023C26.334,19.606,27.609,20.421,27.99,21.686z"/>
		<path style="fill:#2D2D2D;" d="M24.769,20.351c-0.378,0.112-0.594,0.513-0.48,0.891l0.398,1.319
			c0.112,0.377,0.512,0.591,0.89,0.478c0.378-0.111,0.593-0.514,0.479-0.89l-0.397-1.32C25.544,20.449,25.145,20.235,24.769,20.351z
			"/>
	</g>
	<g>
		<g>
			<path style="fill:#2D2D2D;" d="M12.343,13.673c-1.427,0-2.588-2.511-2.588-5.598s1.161-5.597,2.588-5.597
				c1.428,0,2.59,2.51,2.59,5.597S13.771,13.673,12.343,13.673z M12.343,2.689c-1.311,0-2.378,2.416-2.378,5.386
				c0,2.971,1.067,5.387,2.378,5.387c1.313,0,2.379-2.416,2.379-5.387C14.722,5.105,13.656,2.689,12.343,2.689z"/>
		</g>
		<g>
			<path style="fill:#2D2D2D;" d="M13.71,10.273c-0.909,0.582-1.891,1.064-2.935,1.362c-0.524,0.143-1.063,0.248-1.616,0.232
				c-0.275-0.009-0.554-0.048-0.821-0.148c-0.263-0.102-0.513-0.269-0.681-0.521c-0.164-0.241-0.233-0.548-0.226-0.835
				c0.009-0.29,0.079-0.569,0.176-0.833c0.197-0.529,0.499-1.004,0.841-1.438c0.692-0.867,1.547-1.581,2.469-2.179
				c0.928-0.588,1.935-1.067,3.011-1.334c0.538-0.13,1.095-0.204,1.66-0.164c0.279,0.022,0.562,0.075,0.827,0.189
				c0.267,0.115,0.513,0.3,0.671,0.56c0.151,0.248,0.205,0.553,0.184,0.834c-0.018,0.282-0.101,0.553-0.206,0.807
				c-0.218,0.507-0.539,0.955-0.889,1.369c-0.349,0.416-0.741,0.79-1.157,1.139C14.605,9.664,14.167,9.983,13.71,10.273z
				 M13.71,10.273c0.905-0.589,1.748-1.291,2.42-2.136c0.334-0.422,0.624-0.884,0.81-1.382c0.092-0.248,0.154-0.507,0.159-0.765
				s-0.052-0.511-0.194-0.718c-0.135-0.2-0.348-0.349-0.582-0.436c-0.234-0.089-0.493-0.124-0.752-0.134
				c-0.519-0.015-1.042,0.088-1.55,0.228c-1.016,0.289-1.982,0.761-2.877,1.335c-0.447,0.283-0.88,0.599-1.285,0.941
				C9.454,7.55,9.067,7.917,8.729,8.32C8.386,8.725,8.076,9.157,7.872,9.635c-0.198,0.469-0.301,1.021-0.036,1.455
				c0.124,0.207,0.332,0.372,0.567,0.473c0.237,0.104,0.498,0.154,0.763,0.175c0.53,0.039,1.07-0.031,1.593-0.158
				C11.808,11.321,12.799,10.85,13.71,10.273z"/>
		</g>
		<g>
			<path style="fill:#2D2D2D;" d="M11.079,10.318c0.932,0.545,1.938,0.98,2.995,1.202c0.526,0.107,1.068,0.16,1.597,0.101
				c0.263-0.03,0.522-0.09,0.756-0.201c0.23-0.109,0.435-0.28,0.553-0.491c0.247-0.445,0.126-0.992-0.092-1.453
				c-0.221-0.471-0.544-0.894-0.898-1.283C15.634,7.8,15.235,7.448,14.817,7.12c-0.413-0.328-0.858-0.627-1.315-0.896
				c-0.915-0.542-1.895-0.979-2.922-1.233c-0.511-0.122-1.039-0.205-1.557-0.172c-0.26,0.017-0.516,0.063-0.747,0.16
				C8.044,5.076,7.838,5.228,7.709,5.438C7.576,5.646,7.526,5.902,7.541,6.158c0.014,0.257,0.087,0.515,0.186,0.76
				C7.93,7.408,8.235,7.86,8.585,8.27C9.287,9.089,10.152,9.764,11.079,10.318z M11.079,10.318c-0.468-0.272-0.918-0.577-1.342-0.91
				c-0.426-0.336-0.831-0.698-1.196-1.1C8.177,7.907,7.84,7.471,7.605,6.972C7.49,6.722,7.401,6.455,7.369,6.173
				C7.339,5.891,7.38,5.588,7.528,5.33c0.143-0.261,0.385-0.457,0.646-0.578c0.262-0.126,0.541-0.188,0.822-0.221
				c0.562-0.062,1.12-0.006,1.662,0.107c1.084,0.228,2.11,0.672,3.055,1.225c0.945,0.566,1.823,1.249,2.546,2.091
				c0.358,0.421,0.675,0.885,0.892,1.407c0.106,0.26,0.188,0.537,0.203,0.826c0.02,0.286-0.039,0.596-0.194,0.844
				c-0.159,0.258-0.401,0.435-0.663,0.544c-0.263,0.109-0.538,0.158-0.813,0.177c-0.553,0.036-1.096-0.05-1.622-0.175
				C13.007,11.315,12.007,10.87,11.079,10.318z"/>
		</g>
		<g>
			<circle style="fill:#2D2D2D;" cx="14.828" cy="8.181" r="0.559"/>
		</g>
		<g>
			<circle style="fill:#2D2D2D;" cx="13.19" cy="10.48" r="0.559"/>
		</g>
		<g>
			<circle style="fill:#2D2D2D;" cx="8.008" cy="7.518" r="0.558"/>
		</g>
	</g>
	<g>
		<g>
			<path style="fill:#2D2D2D;" d="M23.071,0H1.649C0.738,0,0,0.742,0,1.658v15.22c0,0.917,0.738,1.659,1.649,1.659h8.219
				c0,0,0.356,3.322-2.492,3.322v1.662h2.492h4.981h2.493v-1.662c-2.959,0-2.493-3.322-2.493-3.322h8.222
				c0.91,0,1.646-0.742,1.646-1.659V1.658C24.718,0.742,23.981,0,23.071,0z M11.043,16.506c0-0.788,0.641-1.425,1.426-1.425
				c0.788,0,1.427,0.637,1.427,1.425c0,0.787-0.639,1.427-1.427,1.427C11.684,17.933,11.043,17.293,11.043,16.506z M22.953,14.598
				H1.766V1.766h21.188V14.598z"/>
		</g>
		<g>
			<circle style="fill:#2D2D2D;" cx="12.485" cy="16.5" r="0.886"/>
		</g>
	</g>
</g>
<g>
</g>
<g>
</g>
<g>
</g>
<g>
</g>
<g>
</g>
<g>
</g>
<g>
</g>
<g>
</g>
<g>
</g>
<g>
</g>
<g>
</g>
<g>
</g>
<g>
</g>
<g>
</g>
<g>
</g>
</svg>
