<?xml version="1.0" encoding="utf-8"?>
<!-- Generator: Adobe Illustrator 17.0.0, SVG Export Plug-In . SVG Version: 6.00 Build 0)  -->
<!DOCTYPE svg PUBLIC "-//W3C//DTD SVG 1.1//EN" "http://www.w3.org/Graphics/SVG/1.1/DTD/svg11.dtd">
<svg version="1.1" id="Capa_1" xmlns="http://www.w3.org/2000/svg" xmlns:xlink="http://www.w3.org/1999/xlink" x="0px" y="0px"
	 width="26.408px" height="23.388px" viewBox="0 0 26.408 23.388" enable-background="new 0 0 26.408 23.388" xml:space="preserve">
<path fill="#2D2D2D" d="M11.876,9.868c-0.114-0.356-0.216-0.76-0.306-1.116l-0.116-0.457h-0.448l-0.052,0.206
	c-0.042,0.156-0.081,0.325-0.124,0.496c-0.073,0.296-0.148,0.605-0.224,0.873l-0.681,2.176h2.645L11.876,9.868z M10.67,11.499
	l0.462-1.475c0.034-0.127,0.069-0.255,0.104-0.391c0.036,0.136,0.076,0.271,0.117,0.399l0.468,1.467H10.67z M12.06,21.193
	c0,1.212-0.983,2.195-2.195,2.195c-1.212,0-2.195-0.983-2.195-2.195c0-1.212,0.983-2.195,2.195-2.195
	C11.077,18.998,12.06,19.981,12.06,21.193z M21.64,21.193c0,1.212-0.983,2.195-2.195,2.195c-1.212,0-2.195-0.983-2.195-2.195
	c0-1.212,0.983-2.195,2.195-2.195C20.657,18.998,21.64,19.981,21.64,21.193z M25.037,6.966h-0.7l-0.701,2.198l-0.682,2.309
	l-0.343,1.108l-0.162,0.07c-0.345,0.147-0.88,0.241-1.362,0.241c-1.463,0-2.304-0.872-2.304-2.392c0-1.532,0.865-2.448,2.314-2.448
	c0.611,0,1.063,0.144,1.339,0.263l0.293,0.128l0.423-1.597l-0.194-0.101c-0.335-0.175-1.013-0.358-1.914-0.358
	c-1.963,0-3.421,1.009-3.981,2.624c-0.482-0.239-1.077-0.343-1.953-0.343c-0.828,0-1.617,0.085-2.03,0.17L12.881,8.88l-0.54-1.66
	h-2.122l-1.365,4.257l-0.29-2.313L8.297,6.966c0,0-0.238-2.032-0.372-2.87C7.79,3.253,5.685,2.2,1.155,0.066
	c-1.063-0.447-1.954,1.501,0,2.521l3.572,1.668c0,0,0.829,0.482,0.9,1.129c0.072,0.65,1.52,11.39,1.52,11.39
	s0.057,1.495,1.415,1.495c1.359,0,12.487,0,13.627,0c1.139,0,1.362-1.191,1.362-1.191l2.699-8.019
	C26.251,9.058,27.053,6.966,25.037,6.966z M9.018,12.768l1.601-5h1.324l0.919,2.828v2.692l-0.245-0.769H9.876l-0.63,2.077
	L9.018,12.768z M12.863,15.682h-3.48l-0.068-0.521h0.331l0.637-2.094h1.935l0.645,2.021V15.682z M14.748,15.169v-0.008v-0.533
	v-1.352h0.396c0.528,0,1.415,0.123,1.415,0.944c0,0.79-0.746,0.954-1.372,0.954C15.02,15.175,14.872,15.175,14.748,15.169z
	 M17.366,15.583c-0.041,0.034-0.089,0.065-0.136,0.1h-1.533c0.889-0.144,1.407-0.665,1.407-1.461c0-0.934-0.733-1.492-1.962-1.492
	h-0.944v0.213v2.22v0.482l0.201,0.038h-0.991v-0.521v-0.549h0.001v-2.331v-1.773v-1.17c0.409-0.065,1.046-0.121,1.7-0.121
	c0.839,0,1.378,0.099,1.804,0.331c-0.061,0.297-0.096,0.607-0.102,0.936c-0.149-0.392-0.547-0.816-1.571-0.816
	c-0.382,0-0.646,0.019-0.828,0.062L14.199,9.78v2.521h0.966c0.911,0,1.541-0.394,1.694-1.029c0.035,0.245,0.087,0.476,0.154,0.697
	c-0.109,0.066-0.224,0.124-0.354,0.174l-0.18,0.065v0.438l0.208,0.053c0.621,0.156,1.284,0.648,1.284,1.555
	C17.971,14.915,17.641,15.342,17.366,15.583z M16.351,10.96c0,0.496-0.442,0.793-1.185,0.793h-0.418v-1.52
	c0.13-0.011,0.295-0.019,0.493-0.019C16.351,10.215,16.351,10.778,16.351,10.96z M21.708,15.682h-3.685
	c0.322-0.405,0.498-0.89,0.498-1.429c0-0.104-0.006-0.205-0.021-0.305c0.641,0.401,1.438,0.622,2.356,0.622
	c0.463,0,0.873-0.044,1.213-0.109L21.708,15.682z M22.348,13.522l-0.101,0.336c-0.326,0.087-0.796,0.163-1.392,0.163
	c-1.551,0-2.678-0.686-3.188-1.861c-0.082-0.188-0.148-0.392-0.198-0.606c-0.073-0.306-0.113-0.634-0.113-0.986
	c-0.001-0.221,0.019-0.432,0.049-0.636c0.032-0.216,0.078-0.424,0.141-0.621c0.463-1.459,1.75-2.375,3.498-2.375
	c0.642,0,1.148,0.102,1.462,0.213L22.359,7.7c-0.315-0.104-0.74-0.194-1.262-0.194c-1.739,0-2.862,1.177-2.862,2.995
	c0,0.004,0,0.008,0,0.012c0,0.126,0.007,0.248,0.019,0.369c0.145,1.588,1.199,2.56,2.833,2.56c0.428,0,0.889-0.066,1.267-0.178
	l0.018,0.096l-0.05,0.162H22.348z"/>
</svg>
