<?xml version="1.0" encoding="iso-8859-1"?>
<!-- Generator: Adobe Illustrator 16.0.0, SVG Export Plug-In . SVG Version: 6.00 Build 0)  -->
<!DOCTYPE svg PUBLIC "-//W3C//DTD SVG 1.1//EN" "http://www.w3.org/Graphics/SVG/1.1/DTD/svg11.dtd">
<svg version="1.1" id="Capa_1" xmlns="http://www.w3.org/2000/svg" xmlns:xlink="http://www.w3.org/1999/xlink" x="0px" y="0px"
	 width="31.106px" height="31.119px" viewBox="0 0 31.106 31.119" style="enable-background:new 0 0 31.106 31.119;"
	 xml:space="preserve">
<g>
	<path style="fill:#2D2D2D;" d="M15.111,21.099l1.945-3.049l0.542-0.848l0.516-0.808c0.314-0.494,0.688-0.931,1.104-1.31V3.88
		c0-0.531-0.502-0.705-1.032-0.705L1.821,3.171c-0.03-1.382,1.063-1.679,1.063-1.679h16.333c1.022,0,1.148,1.238,1.148,1.238v11.526
		c0.587-0.358,1.07-0.532,1.735-0.69V0.902C22.102,0.182,21.2,0,21.2,0H2.704C0,0,0,2.883,0,2.883v23.062
		c0,0.529,0.431,0.96,0.963,0.96h13.558C13.82,25.047,13.967,22.897,15.111,21.099z M12.498,25.281H1.625V4.541h0.267l15.701,0.003
		v9.871c-0.312,0.344-0.599,0.714-0.847,1.106l-0.517,0.808l-0.543,0.848l-1.941,3.048C12.767,21.759,12.345,23.523,12.498,25.281z"
		/>
	<path style="fill:#2D2D2D;" d="M29.131,15.221c0.3-0.788,0.265-2.344-1.718-3.609l-0.049-0.025
		c-0.006-0.004-0.061-0.033-0.144-0.085c-0.629-0.4-1.526-1.316-0.487-2.948l0.238-0.373l-1.544-0.983L25.18,7.484
		c-0.045,0.052-1.104,1.287-0.879,2.855c0.155,1.063,0.85,1.996,2.063,2.775c0.06,0.045,0.441,0.34,0.513,0.681
		c-1.236-0.463-2.552-0.522-3.783-0.23c-0.664,0.158-1.302,0.423-1.891,0.782c-0.351,0.213-0.684,0.458-0.992,0.738
		c-0.417,0.379-0.79,0.816-1.104,1.31l-0.516,0.808l-0.542,0.848l-1.943,3.049c-1.146,1.798-1.292,3.948-0.59,5.806
		c0.477,1.272,1.348,2.409,2.58,3.194c3.032,1.932,7.068,1.039,9.001-1.991l1.93-3.024l0.56-0.878l0.512-0.802
		C31.755,20.804,31.326,17.348,29.131,15.221z M26.354,27.633c-1.671,2.621-5.162,3.393-7.782,1.722
		c-0.963-0.615-1.675-1.476-2.108-2.45c-0.746-1.672-0.668-3.675,0.388-5.332l1.718-2.691c0.472,0.701,1.021,1.354,1.643,1.957
		c0.312,0.303,0.643,0.594,0.992,0.871c0.388,0.309,0.796,0.604,1.229,0.879c0,0,0,0,0,0c0.221,0.141,0.441,0.27,0.662,0.396
		c1.887,1.075,3.753,1.636,5.003,1.915L26.354,27.633z M29.352,22.929l-0.685,1.075c-2.101-0.479-3.968-1.223-5.573-2.204
		c-0.077-0.049-0.164-0.089-0.241-0.138c-0.639-0.407-1.179-0.825-1.649-1.234c-0.379-0.331-0.708-0.652-0.992-0.959
		c-0.501-0.544-0.867-1.04-1.112-1.42l0.753-1.178c0.11-0.174,0.23-0.338,0.359-0.495c0.293-0.368,0.627-0.69,0.992-0.965
		c0.571-0.43,1.212-0.744,1.891-0.932c1.261-0.35,2.643-0.267,3.899,0.323l0.234,0.112l0.113,0.053c0,0,0.468,0.248,0.705,0.467
		c0.25,0.221,0.263,0.23,0.263,0.23C30.388,17.478,30.838,20.603,29.352,22.929z"/>
	<path style="fill:#2D2D2D;" d="M27.083,16.01c-0.694-0.442-1.62-0.239-2.062,0.457l-1.547,2.425
		c-0.442,0.694-0.238,1.619,0.457,2.061c0.692,0.443,1.617,0.239,2.06-0.455l1.547-2.427C27.979,17.376,27.777,16.452,27.083,16.01z
		"/>
	<path style="fill:#2D2D2D;" d="M10.126,8.744c-2.989,0-4.937,2.376-4.937,5.112c0,2.602,1.908,4.204,4.109,4.204
		c0.921,0,1.642-0.133,2.415-0.506l-0.227-0.682c-0.547,0.281-1.268,0.441-1.989,0.441c-1.975,0-3.402-1.321-3.402-3.563
		c0-2.617,1.788-4.271,3.897-4.271c2.083,0,3.217,1.361,3.217,3.189c0,1.548-0.734,2.363-1.363,2.335
		c-0.399-0.013-0.521-0.427-0.359-1.308l0.414-2.442c-0.333-0.173-0.935-0.307-1.521-0.307c-1.881,0-3.136,1.481-3.136,3.124
		c0,1.08,0.64,1.721,1.469,1.721c0.758,0,1.36-0.374,1.801-1.095h0.039c0.027,0.748,0.495,1.095,1.082,1.095
		c1.348,0,2.455-1.215,2.455-3.177C14.09,10.373,12.462,8.744,10.126,8.744z M10.499,13.295c-0.133,0.788-0.732,1.574-1.347,1.574
		c-0.521,0-0.774-0.359-0.774-0.907c0-1.148,0.813-2.122,1.827-2.122c0.228,0,0.401,0.039,0.523,0.079L10.499,13.295z"/>
</g>
<g>
</g>
<g>
</g>
<g>
</g>
<g>
</g>
<g>
</g>
<g>
</g>
<g>
</g>
<g>
</g>
<g>
</g>
<g>
</g>
<g>
</g>
<g>
</g>
<g>
</g>
<g>
</g>
<g>
</g>
</svg>
