<?xml version="1.0" encoding="iso-8859-1"?>
<!-- Generator: Adobe Illustrator 16.0.0, SVG Export Plug-In . SVG Version: 6.00 Build 0)  -->
<!DOCTYPE svg PUBLIC "-//W3C//DTD SVG 1.1//EN" "http://www.w3.org/Graphics/SVG/1.1/DTD/svg11.dtd">
<svg version="1.1" id="Capa_1" xmlns="http://www.w3.org/2000/svg" xmlns:xlink="http://www.w3.org/1999/xlink" x="0px" y="0px"
	 width="28.365px" height="25.484px" viewBox="0 0 28.365 25.484" style="enable-background:new 0 0 28.365 25.484;"
	 xml:space="preserve">
<g>
	<path style="fill:#2D2D2D;" d="M13.994,19.659l-3.103-3.024c-0.488-0.476-0.667-1.201-0.456-1.85
		c0.21-0.645,0.781-1.127,1.456-1.223l4.286-0.624l1.917-3.886c0.094-0.19,0.22-0.355,0.366-0.496V3.369
		c0-0.511-0.412-0.923-0.921-0.923L1.817,2.438c0-0.633,0.953-0.955,0.953-0.955h15.691c0.983,0,0.954,0.865,0.954,0.865v5.728
		c0.097-0.016,0.194-0.027,0.294-0.027c0.435,0,0.841,0.153,1.158,0.421V0.866C20.868,0.175,20.003,0,20.003,0H2.597
		C0,0,0,2.405,0,2.405v22.156c0,0.509,0.411,0.923,0.923,0.923h12.82c-0.397-0.409-0.58-0.979-0.482-1.553L13.994,19.659z
		 M4.537,5.875h9.53v1.803h-9.53V5.875z"/>
	<path style="fill:#2D2D2D;" d="M28.338,15.326c-0.063-0.195-0.234-0.339-0.439-0.37l-5.128-0.743l-2.294-4.647
		c-0.091-0.187-0.281-0.304-0.488-0.304c-0.208,0-0.396,0.117-0.488,0.304l-2.293,4.647l-5.127,0.743
		c-0.205,0.031-0.376,0.175-0.439,0.37c-0.065,0.198-0.011,0.415,0.138,0.561l3.71,3.614l-0.876,5.109
		c-0.035,0.203,0.049,0.41,0.217,0.531c0.167,0.122,0.39,0.139,0.573,0.041l4.586-2.41l4.587,2.41
		c0.08,0.042,0.167,0.062,0.253,0.062c0.113,0,0.226-0.036,0.319-0.104c0.168-0.121,0.252-0.328,0.217-0.531l-0.876-5.109
		l3.711-3.614C28.35,15.741,28.402,15.524,28.338,15.326z M23.526,18.923c-0.129,0.125-0.187,0.305-0.157,0.481l0.738,4.303
		l-3.864-2.031c-0.08-0.041-0.167-0.064-0.253-0.064c-0.087,0-0.174,0.023-0.253,0.064l-3.864,2.031l0.739-4.303
		c0.029-0.177-0.029-0.356-0.157-0.481l-3.127-3.048l4.321-0.628c0.177-0.024,0.331-0.135,0.409-0.298l1.932-3.914l1.932,3.914
		c0.08,0.163,0.233,0.273,0.409,0.298l4.322,0.628L23.526,18.923z"/>
</g>
<g>
</g>
<g>
</g>
<g>
</g>
<g>
</g>
<g>
</g>
<g>
</g>
<g>
</g>
<g>
</g>
<g>
</g>
<g>
</g>
<g>
</g>
<g>
</g>
<g>
</g>
<g>
</g>
<g>
</g>
</svg>
