<?xml version="1.0" encoding="utf-8"?>
<!-- Generator: Adobe Illustrator 17.0.0, SVG Export Plug-In . SVG Version: 6.00 Build 0)  -->
<!DOCTYPE svg PUBLIC "-//W3C//DTD SVG 1.1//EN" "http://www.w3.org/Graphics/SVG/1.1/DTD/svg11.dtd">
<svg version="1.1" id="Capa_1" xmlns="http://www.w3.org/2000/svg" xmlns:xlink="http://www.w3.org/1999/xlink" x="0px" y="0px"
	 width="30.369px" height="30.367px" viewBox="0 0 30.369 30.367" enable-background="new 0 0 30.369 30.367" xml:space="preserve">
<path d="M15.901,26.913v2.436c3.165-0.16,6.052-1.352,8.338-3.247l-1.736-1.733C20.669,25.828,18.393,26.763,15.901,26.913z
	 M23.57,23.41l1.721,1.72c2.363-2.401,3.879-5.637,4.06-9.232h-2.436C26.739,18.82,25.494,21.45,23.57,23.41z M24.88,4.849
	c-2.373-2.229-5.506-3.657-8.98-3.831v2.436c2.802,0.169,5.329,1.324,7.26,3.114L24.88,4.849z M26.914,14.466h2.436
	c-0.163-3.285-1.45-6.266-3.474-8.591l-1.719,1.722C25.744,9.472,26.758,11.853,26.914,14.466z M3.454,15.899H1.018
	c0.174,3.473,1.602,6.606,3.831,8.98l1.719-1.72C4.779,21.228,3.623,18.7,3.454,15.899z M5.879,25.876
	c2.322,2.022,5.304,3.307,8.59,3.474v-2.436c-2.614-0.16-4.993-1.17-6.87-2.757L5.879,25.876z M5.999,7.864L4.265,6.13
	c-1.895,2.284-3.089,5.171-3.247,8.335h2.436C3.603,11.973,4.536,9.696,5.999,7.864z M6.957,6.795
	c1.96-1.922,4.588-3.167,7.511-3.341V1.018c-3.595,0.18-6.831,1.696-9.232,4.06L6.957,6.795z M8.602,13.422v-2.735l2.014-2.015
	v5.254L9.861,14.7L8.602,13.422z M10.616,16.21v5.252l-2.014-2.014v-2.734l1.259-1.26L10.616,16.21z M13.773,13.892V8.669
	l2.013,1.986v2.731l-1.259,1.278L13.773,13.892z M21.984,8.29l-2.014,2.011h-3.795L14.161,8.29H21.984z M21.984,21.845h-7.824
	l2.014-2.015h3.795L21.984,21.845z M20.221,14.06l1.008,1.005l-1.008,1.008h-4.298l-1.008-1.008l1.008-1.005H20.221z M22.352,16.198
	v5.249l-2.014-2.013v-2.731l1.259-1.259L22.352,16.198z"/>
</svg>
