<?xml version="1.0" encoding="iso-8859-1"?>
<!-- Generator: Adobe Illustrator 16.0.0, SVG Export Plug-In . SVG Version: 6.00 Build 0)  -->
<!DOCTYPE svg PUBLIC "-//W3C//DTD SVG 1.1//EN" "http://www.w3.org/Graphics/SVG/1.1/DTD/svg11.dtd">
<svg version="1.1" id="Capa_1" xmlns="http://www.w3.org/2000/svg" xmlns:xlink="http://www.w3.org/1999/xlink" x="0px" y="0px"
	 width="26.664px" height="25.188px" viewBox="0 0 26.664 25.188" style="enable-background:new 0 0 26.664 25.188;"
	 xml:space="preserve">
<g>
	<g>
		<g>
			<path style="fill:#2D2D2D;" d="M5.823,11.8v4.687H1.812V11.8H5.823 M7.032,9.987H0.604C0.27,9.987,0,10.258,0,10.591v13.993
				c0,0.333,0.27,0.604,0.604,0.604h6.429c0.334,0,0.603-0.271,0.603-0.604V10.591C7.635,10.258,7.366,9.987,7.032,9.987
				L7.032,9.987z"/>
		</g>
	</g>
	<g>
		<g>
			<path style="fill:#2D2D2D;" d="M15.279,8.168v9.419h-4.011V8.168H15.279 M16.489,6.355h-6.43c-0.333,0-0.604,0.271-0.604,0.604
				v17.625c0,0.333,0.271,0.604,0.604,0.604h6.43c0.332,0,0.603-0.271,0.603-0.604V6.959C17.092,6.625,16.821,6.355,16.489,6.355
				L16.489,6.355z"/>
		</g>
	</g>
	<g>
		<g>
			<path style="fill:#2D2D2D;" d="M24.852,1.813v11.652H20.84V1.813H24.852 M26.059,0h-6.427c-0.334,0-0.604,0.271-0.604,0.604
				v23.979c0,0.333,0.27,0.604,0.604,0.604h6.427c0.336,0,0.605-0.271,0.605-0.604V0.604C26.664,0.271,26.395,0,26.059,0L26.059,0z"
				/>
		</g>
	</g>
</g>
<g>
</g>
<g>
</g>
<g>
</g>
<g>
</g>
<g>
</g>
<g>
</g>
<g>
</g>
<g>
</g>
<g>
</g>
<g>
</g>
<g>
</g>
<g>
</g>
<g>
</g>
<g>
</g>
<g>
</g>
</svg>
