<?xml version="1.0" encoding="iso-8859-1"?>
<!-- Generator: Adobe Illustrator 16.0.0, SVG Export Plug-In . SVG Version: 6.00 Build 0)  -->
<!DOCTYPE svg PUBLIC "-//W3C//DTD SVG 1.1//EN" "http://www.w3.org/Graphics/SVG/1.1/DTD/svg11.dtd">
<svg version="1.1" id="Capa_1" xmlns="http://www.w3.org/2000/svg" xmlns:xlink="http://www.w3.org/1999/xlink" x="0px" y="0px"
	 width="31.304px" height="20.664px" viewBox="0 0 31.304 20.664" style="enable-background:new 0 0 31.304 20.664;"
	 xml:space="preserve">
<g>
	<path style="fill:#2D2D2D;" d="M7.402,1.398H0.569C0.256,1.398,0,1.655,0,1.97v18.123c0,0.314,0.256,0.571,0.569,0.571h6.833
		c0.312,0,0.57-0.257,0.57-0.571V1.97C7.973,1.655,7.715,1.398,7.402,1.398z M6.83,19.522H1.141v-7.051H4.71v-1.439H1.141v-0.776
		H4.71V8.812H1.141V2.541H6.83V19.522z"/>
	<path style="fill:#2D2D2D;" d="M16.391,1.398h-6.83c-0.317,0-0.57,0.257-0.57,0.571v18.123c0,0.314,0.253,0.571,0.57,0.571h6.83
		c0.315,0,0.57-0.257,0.57-0.571V1.97C16.961,1.655,16.706,1.398,16.391,1.398z M15.821,19.522H10.13V2.541h5.691V19.522z"/>
	<path style="fill:#2D2D2D;" d="M31.266,17.289L24.779,0.366c-0.055-0.14-0.162-0.255-0.302-0.317
		c-0.138-0.062-0.295-0.065-0.436-0.011l-6.38,2.445c-0.293,0.113-0.44,0.443-0.327,0.737l6.487,16.921
		c0.087,0.229,0.305,0.368,0.533,0.368c0.067,0,0.138-0.014,0.203-0.038l6.381-2.445c0.14-0.056,0.253-0.162,0.315-0.302
		C31.316,17.589,31.319,17.431,31.266,17.289z M24.684,19.202l-2.704-7.051l3.479-1.358L24.955,9.51l-3.467,1.354l-0.457-1.189
		l3.459-1.353l-0.504-1.283l-3.45,1.349l-1.933-5.043l5.314-2.037l6.08,15.859L24.684,19.202z"/>
	<rect x="1.952" y="3.679" style="fill:#2D2D2D;" width="4.088" height="2.757"/>
	<rect x="10.931" y="3.679" style="fill:#2D2D2D;" width="4.09" height="2.757"/>
	<rect x="11.596" y="8.812" style="fill:#2D2D2D;" width="2.758" height="7.511"/>
	<circle style="fill:#2D2D2D;" cx="22.106" cy="4.581" r="1.854"/>
</g>
<g>
</g>
<g>
</g>
<g>
</g>
<g>
</g>
<g>
</g>
<g>
</g>
<g>
</g>
<g>
</g>
<g>
</g>
<g>
</g>
<g>
</g>
<g>
</g>
<g>
</g>
<g>
</g>
<g>
</g>
</svg>
