<?xml version="1.0" encoding="iso-8859-1"?>
<!-- Generator: Adobe Illustrator 16.0.0, SVG Export Plug-In . SVG Version: 6.00 Build 0)  -->
<!DOCTYPE svg PUBLIC "-//W3C//DTD SVG 1.1//EN" "http://www.w3.org/Graphics/SVG/1.1/DTD/svg11.dtd">
<svg version="1.1" id="Capa_1" xmlns="http://www.w3.org/2000/svg" xmlns:xlink="http://www.w3.org/1999/xlink" x="0px" y="0px"
	 width="22.477px" height="28.308px" viewBox="0 0 22.477 28.308" style="enable-background:new 0 0 22.477 28.308;"
	 xml:space="preserve">
<g>
	<path style="fill:#2D2D2D;" d="M15.512,14.905l6.964-12.046l-4.958-2.7l-6.631,11.467L5.042,0L0,2.541l6.035,12.004
		c-1.886,1.39-3.117,3.619-3.117,6.137c0,4.205,3.422,7.627,7.628,7.627c4.205,0,7.627-3.422,7.627-7.627
		C18.173,18.372,17.138,16.304,15.512,14.905z M1.596,3.068l2.919-1.471l5.661,11.261l-0.128,0.221c-1.076,0.07-2.091,0.361-3,0.833
		L1.596,3.068z M10.546,25.336c-2.568,0-4.656-2.089-4.656-4.655c0-2.568,2.088-4.656,4.656-4.656c2.567,0,4.655,2.088,4.655,4.656
		C15.201,23.248,13.113,25.336,10.546,25.336z"/>
	<path style="fill:#2D2D2D;" d="M9.548,18.078c-0.431,0.337-0.83,0.564-1.198,0.685v1.278c0.699-0.23,1.305-0.586,1.82-1.068v5.308
		h1.408v-7.377h-1.143C10.274,17.352,9.979,17.743,9.548,18.078z"/>
</g>
<g>
</g>
<g>
</g>
<g>
</g>
<g>
</g>
<g>
</g>
<g>
</g>
<g>
</g>
<g>
</g>
<g>
</g>
<g>
</g>
<g>
</g>
<g>
</g>
<g>
</g>
<g>
</g>
<g>
</g>
</svg>
