<?xml version="1.0" encoding="utf-8"?>
<!-- Generator: Adobe Illustrator 16.0.4, SVG Export Plug-In . SVG Version: 6.00 Build 0)  -->
<!DOCTYPE svg PUBLIC "-//W3C//DTD SVG 1.1//EN" "http://www.w3.org/Graphics/SVG/1.1/DTD/svg11.dtd">
<svg version="1.1" id="Capa_1" xmlns="http://www.w3.org/2000/svg" xmlns:xlink="http://www.w3.org/1999/xlink" x="0px" y="0px"
	 width="29.775px" height="43.136px" viewBox="0 0 29.775 43.136" enable-background="new 0 0 29.775 43.136" xml:space="preserve">
<path fill="#1D1D1B" d="M4.315,20.867c-0.098-0.064-0.156-0.176-0.156-0.293v-4.589c0-0.114,0.055-0.221,0.147-0.287
	c0.092-0.065,0.211-0.084,0.317-0.048l6.132,2.082c0.141,0.048,0.235,0.176,0.239,0.323c0.005,0.146-0.083,0.28-0.22,0.337
	L4.645,20.9c-0.043,0.018-0.088,0.028-0.133,0.028C4.442,20.928,4.374,20.907,4.315,20.867z M26.813,23.279
	c-1.245,0-2.307,0.77-2.745,1.856h-6.395c-0.438-1.087-1.5-1.856-2.743-1.856c-1.244,0-2.306,0.771-2.744,1.856H5.708
	c-0.36-0.896-1.144-1.571-2.104-1.782v-7.784c0-0.018-0.003-0.037-0.005-0.056c0.309-0.117,0.526-0.414,0.526-0.764
	c-0.001-0.45-0.367-0.817-0.819-0.817H2.984c-0.451,0-0.817,0.367-0.817,0.817c0,0.298,0.159,0.556,0.396,0.698
	c-0.009,0.04-0.016,0.079-0.016,0.121v7.751C1.109,23.525,0,24.748,0,26.242c0,1.636,1.327,2.963,2.963,2.963
	c1.245,0,2.308-0.771,2.745-1.857h6.479c0.438,1.088,1.5,1.855,2.744,1.855c1.243,0,2.306-0.769,2.743-1.855h6.395
	c0.438,1.088,1.5,1.857,2.745,1.857c1.637,0,2.963-1.327,2.963-2.963C29.776,24.605,28.449,23.279,26.813,23.279z"/>
</svg>
