<?xml version="1.0" encoding="utf-8"?>
<!-- Generator: Adobe Illustrator 17.0.0, SVG Export Plug-In . SVG Version: 6.00 Build 0)  -->
<!DOCTYPE svg PUBLIC "-//W3C//DTD SVG 1.1//EN" "http://www.w3.org/Graphics/SVG/1.1/DTD/svg11.dtd">
<svg version="1.1" id="Capa_1" xmlns="http://www.w3.org/2000/svg" xmlns:xlink="http://www.w3.org/1999/xlink" x="0px" y="0px"
	 width="18.8px" height="25.506px" viewBox="0 0 18.8 25.506" enable-background="new 0 0 18.8 25.506" xml:space="preserve">
<path fill="#2D2D2D" d="M17.774,8.287c0.007,0.245-0.139,0.47-0.366,0.563L7.153,13.046C7.082,13.076,7.006,13.09,6.93,13.09
	c-0.115,0-0.23-0.034-0.329-0.1c-0.163-0.11-0.261-0.293-0.261-0.489V4.824c0-0.19,0.092-0.369,0.246-0.479
	c0.155-0.11,0.353-0.14,0.533-0.078l10.255,3.481C17.607,7.826,17.765,8.042,17.774,8.287z M8.03,22.051
	c0,1.156-1.539,2.063-3.502,2.063c-1.965,0-3.502-0.907-3.502-2.063c0-0.976,1.097-1.77,2.618-1.997V4.129
	c0-0.069,0.011-0.137,0.025-0.202c-0.395-0.24-0.662-0.67-0.662-1.167c0-0.756,0.614-1.369,1.369-1.369h0.539
	c0.756,0,1.369,0.613,1.369,1.369c0,0.584-0.367,1.079-0.881,1.275c0.004,0.032,0.01,0.062,0.01,0.094v15.925
	C6.933,20.281,8.03,21.075,8.03,22.051z M7.441,22.052c0-0.643-0.869-1.198-2.029-1.394v1.376c0,0.489-0.396,0.885-0.885,0.885
	c-0.489,0-0.885-0.396-0.885-0.885v-1.376c-1.16,0.196-2.029,0.751-2.029,1.394c0,0.799,1.335,1.474,2.913,1.474
	C6.107,23.525,7.441,22.851,7.441,22.052z"/>
</svg>
