<?xml version="1.0" encoding="iso-8859-1"?>
<!-- Generator: Adobe Illustrator 16.0.0, SVG Export Plug-In . SVG Version: 6.00 Build 0)  -->
<!DOCTYPE svg PUBLIC "-//W3C//DTD SVG 1.1//EN" "http://www.w3.org/Graphics/SVG/1.1/DTD/svg11.dtd">
<svg version="1.1" id="Capa_1" xmlns="http://www.w3.org/2000/svg" xmlns:xlink="http://www.w3.org/1999/xlink" x="0px" y="0px"
	 width="33.283px" height="27.772px" viewBox="0 0 33.283 27.772" style="enable-background:new 0 0 33.283 27.772;"
	 xml:space="preserve">
<path style="fill:#2D2D2D;" d="M33.079,9.654c-0.991-3.637-3.08-6.422-6.046-8.055c-1.611-0.888-3.453-1.415-5.388-1.56V0.038
	c-0.001,0-0.005,0-0.008,0c-0.988-0.074-1.999-0.039-3.016,0.091C8.533,0.697,4.921,7.384,4.891,7.522
	c-0.018,0.08-0.167,0.764-0.23,1.473C4.632,9.292,4.615,9.617,4.641,9.932c-0.328,0.17-0.545,0.52-0.518,0.913
	c0.035,0.529,0.492,0.929,1.019,0.892c1.3-0.086,2.351,0.042,3.141,0.379c-0.029,0.144-0.058,0.291-0.086,0.437
	c-0.266,1.369-0.58,2.968-0.984,4.56c-0.208-0.009-0.42-0.017-0.656-0.026c-0.997-0.041-1.294-0.576-3.682-0.585
	c-0.017-0.002-0.031-0.002-0.046,0c-0.901,0.041-1.625,0.114-2.089,0.646c-0.302,0.341-0.37,0.746-0.373,1.084
	c0,0.064,0.005,0.118,0.008,0.177c-0.034,0.47-0.297,4.469-0.375,7.41c0,0.007,0,0.014,0,0.023
	c-0.001,0.418,0.271,0.789,0.672,0.917c1.697,0.529,3.249,0.389,4.608-0.423c2.213-1.316,2.477-3.11,3.395-6.216
	c0.473-0.008,1.002-0.03,1.675-0.074c0.042,0.569,0.176,1.155,0.482,2.209l0.004,0.016l0.006,0.015
	c0.706,1.495,1.761,3.055,3.134,3.454c2.771,0.816,5.115,3.021,7.495,1.528l0.004-0.005l0.006-0.004
	c0.732-0.551,2.208-2.539,4.094-1.981c0.035,0.026,0.074,0.054,0.111,0.079l0.007,0.006l0.009,0.006
	c0.7,0.389,2.255,0.596,2.767,0.663c0.605,0.076,1.009-0.006,1.281-0.631c0.098-0.232,0.167-0.475,0.317-1.182
	c0.041-0.184,0.065-0.342,0.074-0.478l0.021-0.097c0.041-0.234,0.114-0.555,0.206-0.962C30.89,20.396,34.116,13.489,33.079,9.654z
	 M4.301,24.691c-0.705,0.421-1.482,0.554-2.361,0.405c0.027-0.767,0.064-1.551,0.104-2.29c0.079-0.188,0.2-0.392,0.396-0.579
	c0.533-0.503,0.648,0.072,3.25,0.425C5.035,24.037,5.307,24.091,4.301,24.691z M6.13,21.628c-2.27-0.35-2.894-1.239-3.987-0.524
	c0.078-1.236,0.146-2.584,0.147-2.602c0.001-0.015,0.001-0.029,0.001-0.043c0.125-0.015,0.316-0.031,0.604-0.045
	c3.606,0.375,4.229,0.469,3.781,1.659c-0.069-0.006-0.063,0.005,0,0.007C6.508,20.613,6.328,21.128,6.13,21.628z M10.181,17.062
	c-0.373,0.022-0.697,0.04-0.991,0.051c0.273-1.126,0.501-2.248,0.711-3.31C10.303,14.862,10.234,16.132,10.181,17.062z M18.3,16.333
	c-1.117,0-2.023-0.904-2.023-2.021s0.906-2.021,2.023-2.021s2.02,0.905,2.02,2.021S19.417,16.333,18.3,16.333z"/>
<g>
</g>
<g>
</g>
<g>
</g>
<g>
</g>
<g>
</g>
<g>
</g>
<g>
</g>
<g>
</g>
<g>
</g>
<g>
</g>
<g>
</g>
<g>
</g>
<g>
</g>
<g>
</g>
<g>
</g>
</svg>
