<?xml version="1.0" encoding="iso-8859-1"?>
<!-- Generator: Adobe Illustrator 16.0.0, SVG Export Plug-In . SVG Version: 6.00 Build 0)  -->
<!DOCTYPE svg PUBLIC "-//W3C//DTD SVG 1.1//EN" "http://www.w3.org/Graphics/SVG/1.1/DTD/svg11.dtd">
<svg version="1.1" id="Capa_1" xmlns="http://www.w3.org/2000/svg" xmlns:xlink="http://www.w3.org/1999/xlink" x="0px" y="0px"
	 width="23.389px" height="27.115px" viewBox="0 0 23.389 27.115" style="enable-background:new 0 0 23.389 27.115;"
	 xml:space="preserve">
<path style="fill:#2D2D2D;" d="M23.375,15.195l-0.163-0.551l-0.17-0.537l-0.205-0.499l-0.189-0.496l-0.197-0.486l-0.177-0.477
	l-0.149-0.499l-0.118-0.498l0.026-0.229l0.105-0.218l0.108-0.229l0.027-0.214l-0.093-0.438l-0.11-0.436l-0.118-0.442L21.815,8.52
	l-0.145-0.434L21.52,7.661l-0.163-0.435l-0.171-0.42l-0.189-0.397l-0.205-0.407l-0.197-0.4l0.615-0.379l-0.214-0.374l-0.244-0.347
	l-0.241-0.353l-0.244-0.336l-0.229-0.28l-0.242-0.27l-0.242-0.245l-0.251-0.241L19.05,2.548l0.563-0.215l-0.291-0.196l-0.281-0.205
	l-0.297-0.176l-0.293-0.17l-0.307-0.165l-0.311-0.15l-0.32-0.145l-0.34-0.136l-0.333-0.132l-0.337-0.124L16.1,0.603l-0.401-0.104
	l-0.407-0.11l-0.398-0.093l-0.419-0.085l-0.414-0.066l-0.417-0.053l-0.421-0.039l-0.412-0.026l-0.42-0.014L11.978,0l-0.434,0.013
	l-0.419,0.014l-0.414,0.026l-0.419,0.039L9.881,0.145L9.449,0.211L9.021,0.296L8.59,0.377L8.158,0.463L7.731,0.589L7.3,0.706
	L6.868,0.844L6.453,0.99L6.047,1.153L5.648,1.345L5.241,1.526L4.855,1.729l-0.38,0.229L4.114,2.188L3.766,2.444l-0.34,0.27
	L3.12,2.982L2.824,3.264L2.543,3.56L2.274,3.865L2.018,4.206L1.762,4.528l-0.23,0.347l-0.214,0.36l-0.21,0.366l-0.19,0.372
	L0.754,6.354L0.596,6.731l-0.136,0.39L0.34,7.51L0.241,7.915L0.163,8.304l-0.119,0.83L0,9.951l0.02,0.818l0.079,0.807l0.131,0.81
	l0.215,0.791l0.268,0.769l2.022,3.279c3.426,3.529,3.281,7.057,3.281,7.057l0.009,0.696l0.027,2.138h11.682l0.048-0.219v-0.683
	l0.028-0.687l0.052-1.533l0.079-0.778l0.038-0.185l0.074-0.148l0.077-0.133l0.104-0.111l0.138-0.077l0.158-0.054l0.176-0.058
	l0.188-0.028l0.244-0.024l0.229-0.013h0.056l0.229,0.024l0.215,0.013l0.23,0.028l0.208,0.017l0.244,0.029l0.23,0.024l-0.575,0.013
	l0.254,0.028l0.257,0.013l0.281,0.014l0.164-0.014l0.17-0.041l0.175-0.066l0.166-0.082l0.159-0.105l0.138-0.125l0.114-0.132
	l0.099-0.138l0.065-0.295l-0.035-0.319l-0.062-0.319V20.64l0.047-0.138l0.065-0.115l0.065-0.126l0.08-0.106l0.083-0.111l0.065-0.118
	l0.054-0.124l0.012-0.13l-0.012-0.151l-0.026-0.132l-0.041-0.138l-0.066-0.13l-0.097-0.124l-0.105-0.119l-0.125-0.09l-0.143-0.1
	l0.156-0.078l0.15-0.092l0.153-0.111l0.103-0.105l0.093-0.124l0.057-0.132l0.029-0.123l-0.029-0.132l-0.149-0.474l-0.093-0.429
	l-0.058-0.401v-0.394l0.229-0.091l0.204-0.093l0.177-0.099l0.143-0.104l0.113-0.117l0.066-0.124l0.039-0.13L23.375,15.195z
	 M10.961,16.049c-0.765,0-1.304-0.592-1.304-1.356c0-0.8,0.556-1.355,1.32-1.355c0.782,0,1.303,0.556,1.321,1.355
	C12.298,15.457,11.777,16.049,10.961,16.049z M12.889,9.551c-0.695,0.799-0.956,1.511-0.921,2.345v0.383h-1.893l-0.018-0.453
	c-0.087-0.92,0.226-1.876,1.042-2.85c0.66-0.799,1.111-1.405,1.111-2.084c0-0.729-0.468-1.218-1.441-1.234
	c-0.608,0-1.303,0.191-1.737,0.521l-0.522-1.53c0.625-0.399,1.616-0.711,2.728-0.711c2.155,0,3.145,1.25,3.145,2.641
	C14.383,7.845,13.637,8.699,12.889,9.551z"/>
<g>
</g>
<g>
</g>
<g>
</g>
<g>
</g>
<g>
</g>
<g>
</g>
<g>
</g>
<g>
</g>
<g>
</g>
<g>
</g>
<g>
</g>
<g>
</g>
<g>
</g>
<g>
</g>
<g>
</g>
</svg>
