<?xml version="1.0" encoding="utf-8"?>
<!-- Generator: Adobe Illustrator 16.0.4, SVG Export Plug-In . SVG Version: 6.00 Build 0)  -->
<!DOCTYPE svg PUBLIC "-//W3C//DTD SVG 1.1//EN" "http://www.w3.org/Graphics/SVG/1.1/DTD/svg11.dtd">
<svg version="1.1" id="Capa_1" xmlns="http://www.w3.org/2000/svg" xmlns:xlink="http://www.w3.org/1999/xlink" x="0px" y="0px"
	 width="35.07px" height="29.45px" viewBox="0 0 35.07 29.45" enable-background="new 0 0 35.07 29.45" xml:space="preserve">
<path fill="#2D2D2D" d="M5.028,9.604L2.673,8.592l2.501-0.565L5.41,5.476L6.72,7.678l2.5-0.565L7.528,9.041l1.31,2.203l-2.354-1.015
	l-1.691,1.927L5.028,9.604z M17.985,9.83L4.219,13.276l0.114,0.456l13.767-3.446L17.985,9.83z M18.46,11.732L4.693,15.176
	l0.114,0.456l13.766-3.444L18.46,11.732z M18.918,13.557L5.151,17.002l0.114,0.457l13.767-3.446L18.918,13.557z M19.392,15.46
	L5.627,18.905l0.114,0.457l13.766-3.444L19.392,15.46z M19.822,17.168L6.056,20.616l0.114,0.457l13.766-3.447L19.822,17.168z
	 M20.298,19.071L6.532,22.516l0.114,0.457l13.766-3.445L20.298,19.071z M20.755,20.897L6.988,24.34l0.115,0.458l13.766-3.444
	L20.755,20.897z M21.227,22.795L7.463,26.242l0.114,0.456l13.765-3.447L21.227,22.795z M35.052,5.527l-6.618,23.255
	c-0.075,0.264-0.351,0.415-0.614,0.342l-9.049-2.576L5.986,29.438c-0.27,0.061-0.537-0.107-0.598-0.377L0.013,5.292
	c-0.062-0.272,0.107-0.539,0.378-0.6L16.72,0.999l0.182-0.636c0.075-0.265,0.35-0.418,0.614-0.343l17.192,4.893
	C34.973,4.989,35.126,5.264,35.052,5.527z M22.853,24.596l-5.155-22.79L1.1,5.561l5.152,22.79L22.853,24.596z M33.959,5.733
	L18.626,1.37l0.824,3.643l0.646,0.185l1.419-2.111l0.093,2.541l2.446,0.697l-2.389,0.874l0.092,2.54l-1.567-2L20.076,7.78
	l0.575,2.546l9.743,2.535l-0.118,0.45l-9.509-2.473l0.365,1.621l8.771,2.281l-0.117,0.451l-8.538-2.22l0.349,1.537l7.837,2.038
	l-0.117,0.453l-7.604-1.979l0.367,1.622l6.864,1.786l-0.116,0.451l-6.632-1.727l0.318,1.41l5.989,1.557l-0.117,0.453l-5.757-1.496
	l0.366,1.62l5.02,1.306l-0.118,0.453l-4.785-1.246l0.349,1.539l4.084,1.062l-0.116,0.452l-3.852-1.002l0.362,1.602
	c0.001,0.008-0.001,0.014,0,0.02l3.117,0.811l-0.118,0.452l-3.145-0.817c-0.063,0.063-0.139,0.115-0.232,0.137l-2.77,0.627
	l6.82,1.941L33.959,5.733z"/>
</svg>
