<?xml version="1.0" encoding="utf-8"?>
<!-- Generator: Adobe Illustrator 17.0.0, SVG Export Plug-In . SVG Version: 6.00 Build 0)  -->
<!DOCTYPE svg PUBLIC "-//W3C//DTD SVG 1.1//EN" "http://www.w3.org/Graphics/SVG/1.1/DTD/svg11.dtd">
<svg version="1.1" id="Capa_1" xmlns="http://www.w3.org/2000/svg" xmlns:xlink="http://www.w3.org/1999/xlink" x="0px" y="0px"
	 width="35.352px" height="25.909px" viewBox="0 0 35.352 25.909" enable-background="new 0 0 35.352 25.909" xml:space="preserve">
<path fill="#1D1D1B" d="M11.427,21.568c0.878,0,1.728-0.125,2.542-0.336v1.327c-0.818,0.187-1.667,0.294-2.542,0.294
	C5.126,22.853,0,17.729,0,11.429C0,5.128,5.126,0,11.427,0c5.839,0,10.661,4.406,11.338,10.067
	c-0.412-0.124-0.859-0.211-1.338-0.251c-0.777-4.826-4.958-8.527-10-8.527c-5.592,0-10.14,4.546-10.14,10.14
	C1.287,17.018,5.835,21.567,11.427,21.568z M14.413,7.259c0.321,1.355,0.463,2.756,0.429,4.151
	c-0.021,0.886-0.116,1.766-0.271,2.637h-0.6V16.5c-0.004,0.002-0.007,0.002-0.011,0.004c-0.514,1.572-1.226,3.072-2.153,4.424
	c0.412-1.441,0.805-2.855,1.104-4.281c-0.489,0.056-0.981,0.09-1.475,0.103c-0.871,0.018-1.745-0.027-2.61-0.146
	c0.297,1.398,0.683,2.788,1.087,4.201c-0.916-1.338-1.621-2.821-2.135-4.376c-0.467-0.094-0.93-0.209-1.386-0.347
	c-0.486-0.149-0.964-0.323-1.43-0.52c0.407,1.331,0.926,2.645,1.544,3.957c-0.275-0.252-0.523-0.533-0.76-0.822
	c-0.24-0.288-0.459-0.59-0.669-0.9c-0.418-0.624-0.783-1.284-1.093-1.975c-0.135-0.302-0.257-0.61-0.369-0.922
	c-0.228-0.13-0.452-0.263-0.669-0.408c-0.349-0.236-0.689-0.486-0.991-0.779c0.478,0.214,0.963,0.395,1.451,0.562
	c-0.282-0.931-0.461-1.899-0.504-2.881c-0.049-1.026,0.059-2.062,0.319-3.055C2.853,8.47,2.486,8.614,2.122,8.778
	c0.302-0.293,0.643-0.543,0.992-0.776c0.081-0.055,0.166-0.106,0.25-0.158C3.47,7.514,3.59,7.188,3.732,6.875
	c0.63-1.404,1.593-2.632,2.773-3.538C5.744,4.564,5.112,5.81,4.714,7.11C5.31,6.836,5.928,6.602,6.559,6.409
	c0.335-0.101,0.674-0.188,1.017-0.265C7.817,5.367,8.12,4.605,8.492,3.886c0.196-0.374,0.407-0.74,0.643-1.091
	C9.37,2.446,9.62,2.107,9.911,1.806c-0.34,0.76-0.606,1.535-0.835,2.315C8.9,4.727,8.751,5.331,8.627,5.94
	c0.983-0.155,1.981-0.22,2.976-0.197c0.481,0.009,0.962,0.045,1.44,0.097c-0.113-0.534-0.247-1.065-0.402-1.598
	c-0.229-0.779-0.494-1.553-0.835-2.315c0.292,0.302,0.541,0.64,0.776,0.991c0.238,0.35,0.448,0.716,0.643,1.09
	c0.327,0.631,0.597,1.293,0.823,1.969c0.869,0.145,1.723,0.353,2.557,0.619c0.456,0.144,0.906,0.31,1.349,0.491
	c-0.396-1.336-1.043-2.614-1.822-3.873c1.179,0.906,2.142,2.132,2.772,3.538c0.136,0.301,0.252,0.615,0.355,0.929
	c0.644,0.328,1.268,0.691,1.861,1.097c-0.563-0.162-1.122-0.319-1.68-0.47c0.133,0.521,0.217,1.056,0.264,1.592
	c-0.45,0.08-0.867,0.2-1.249,0.351c-0.021-0.763-0.107-1.521-0.271-2.271c-0.611-0.148-1.22-0.288-1.833-0.405
	C15.706,7.447,15.059,7.341,14.413,7.259z M7.427,15.229c-0.328-1.285-0.519-2.609-0.55-3.942C6.845,9.953,6.973,8.614,7.265,7.312
	C7.108,7.337,6.952,7.362,6.796,7.39C6.023,7.528,5.255,7.707,4.492,7.927C4.23,9.048,4.133,10.19,4.187,11.336
	c0.052,1.116,0.24,2.229,0.524,3.334c0.635,0.173,1.275,0.316,1.917,0.431C6.893,15.148,7.16,15.189,7.427,15.229z M13.554,11.377
	c0.035-1.419-0.052-2.838-0.272-4.246c-0.569-0.052-1.14-0.087-1.711-0.1c-1.054-0.026-2.108,0.015-3.158,0.128
	C8.21,8.519,8.13,9.887,8.164,11.255c0.035,1.374,0.181,2.744,0.421,4.109c0.937,0.087,1.878,0.121,2.819,0.097
	c0.584-0.015,1.168-0.051,1.751-0.104C13.381,14.034,13.521,12.706,13.554,11.377z M27.217,23.269h3.772
	c-0.521-0.303-1.15-0.521-1.898-0.521C28.345,22.75,27.727,22.966,27.217,23.269z M19.023,23.269h3.775
	c-0.522-0.303-1.149-0.521-1.896-0.521C20.152,22.75,19.533,22.966,19.023,23.269z M35.352,14.932v10.979H14.92V14.933h0.575
	l0.023-0.628l0.147-0.473c0.109-0.196,0.521-0.876,1.277-1.572c0.789-0.722,2.116-1.58,3.959-1.58c1.832,0,3.174,0.85,3.978,1.567
	c0.046,0.041,0.092,0.085,0.136,0.126c0.039-0.035,0.079-0.074,0.121-0.113c0.788-0.722,2.114-1.58,3.956-1.58
	c1.836,0,3.177,0.85,3.976,1.567c0.724,0.648,1.151,1.293,1.3,1.541l0.084,0.189l0.111,0.502v0.453H35.352z M33.962,16.325h-0.789
	l-0.036-1.883c-0.163-0.255-0.484-0.7-0.996-1.157c-0.621-0.556-1.652-1.216-3.049-1.216c-1.395,0-2.41,0.662-3.015,1.216
	c-0.209,0.193-0.384,0.383-0.53,0.552l-0.53,0.618l-0.527-0.62c-0.148-0.173-0.331-0.361-0.543-0.556
	c-0.617-0.548-1.65-1.21-3.045-1.21c-1.397,0-2.413,0.662-3.02,1.218c-0.532,0.488-0.846,0.965-0.962,1.153l-0.033,0.13v1.755
	h-0.575v8.192h17.649h0.001V16.325z M21.326,3.177c0.04,0.072,0.118,0.112,0.199,0.1c0.06-0.007,1.474-0.17,2.8,1.564
	c0.275,0.363,0.576,0.813,0.913,1.376l-1.396,0.824c-0.063,0.039-0.101,0.108-0.099,0.184c0.005,0.075,0.05,0.14,0.116,0.171
	l4.534,2.16c0.06,0.03,0.132,0.026,0.189-0.009c0.057-0.035,0.093-0.095,0.098-0.16l0.294-5.016
	c0.004-0.075-0.033-0.144-0.097-0.183c-0.064-0.039-0.144-0.039-0.207-0.004l-1.298,0.769c-0.562-0.718-3.149-3.72-5.976-2.048
	c-0.083,0.049-0.121,0.146-0.087,0.239C21.313,3.158,21.319,3.166,21.326,3.177z M24.177,14.777c0.055,0.072,0.1,0.136,0.133,0.186
	v8.161c-0.764-0.677-1.941-1.369-3.483-1.369c-1.517,0-2.668,0.672-3.418,1.339v-8.138c0.133-0.203,0.421-0.603,0.858-0.99
	c0.599-0.526,1.437-1.009,2.56-1.009c1.156,0,2.034,0.518,2.654,1.066C23.786,14.296,24.026,14.573,24.177,14.777z M23.709,15.157
	c-0.002-0.002-0.003-0.006-0.005-0.008c-0.087-0.117-0.294-0.383-0.623-0.677c-0.685-0.606-1.444-0.914-2.254-0.914
	c-0.795,0-1.503,0.28-2.163,0.861c-0.297,0.262-0.517,0.532-0.655,0.724v6.775c0.73-0.423,1.672-0.764,2.818-0.764
	c1.17,0,2.135,0.353,2.882,0.792V15.157z M32.37,14.777c0.052,0.072,0.099,0.136,0.132,0.186v8.161
	c-0.767-0.679-1.941-1.369-3.485-1.369c-0.002,0-0.006,0-0.009,0c-1.51,0-2.658,0.674-3.406,1.339v-8.138
	c0.131-0.199,0.422-0.603,0.855-0.99c0.603-0.526,1.441-1.009,2.56-1.009c1.156,0,2.038,0.518,2.656,1.066
	C31.981,14.296,32.214,14.573,32.37,14.777z M31.9,21.947v-6.792c-0.005-0.006-0.01-0.015-0.015-0.02
	c-0.184-0.242-0.392-0.469-0.61-0.66c-0.686-0.609-1.446-0.917-2.259-0.917c-0.792,0-1.5,0.282-2.165,0.863
	c-0.292,0.26-0.511,0.53-0.65,0.722v6.775c0.728-0.425,1.667-0.764,2.806-0.764C30.184,21.154,31.151,21.508,31.9,21.947z
	 M26.525,19.222l0.316,0.334c0.095-0.087,2.35-2.167,4.513-0.004l0.326-0.326C29.198,16.748,26.553,19.198,26.525,19.222z
	 M26.525,17.732l0.316,0.335c0.095-0.09,2.35-2.17,4.513-0.004l0.326-0.326C29.198,15.258,26.553,17.706,26.525,17.732z
	 M26.525,16.292l0.316,0.335c0.095-0.09,2.35-2.167,4.513-0.003l0.326-0.326C29.198,13.815,26.553,16.268,26.525,16.292z
	 M18.281,19.222l0.316,0.334c0.095-0.087,2.35-2.167,4.513-0.004l0.327-0.326C20.954,16.748,18.309,19.198,18.281,19.222z
	 M18.281,17.732l0.316,0.335c0.095-0.09,2.35-2.17,4.513-0.004l0.327-0.326C20.954,15.258,18.309,17.706,18.281,17.732z
	 M18.281,16.292l0.316,0.335c0.095-0.09,2.35-2.167,4.513-0.003l0.327-0.326C20.954,13.815,18.309,16.268,18.281,16.292z"/>
</svg>
