<?xml version="1.0" encoding="iso-8859-1"?>
<!-- Generator: Adobe Illustrator 16.0.0, SVG Export Plug-In . SVG Version: 6.00 Build 0)  -->
<!DOCTYPE svg PUBLIC "-//W3C//DTD SVG 1.1//EN" "http://www.w3.org/Graphics/SVG/1.1/DTD/svg11.dtd">
<svg version="1.1" id="Capa_1" xmlns="http://www.w3.org/2000/svg" xmlns:xlink="http://www.w3.org/1999/xlink" x="0px" y="0px"
	 width="27.294px" height="19.899px" viewBox="0 0 27.294 19.899" style="enable-background:new 0 0 27.294 19.899;"
	 xml:space="preserve">
<path style="fill:#2D2D2D;" d="M27.141,11.008L22.366,0.577C22.162,0.223,21.781,0,21.371,0c-0.046,0-0.143,0.01-0.188,0.018
	c-0.472,0.074-0.85,0.444-0.941,0.916l1.794,2.402c-0.048,0.262-0.004,0.533,0.126,0.77l3.204,6.881H2.279l3.188-6.852
	C5.594,3.903,5.638,3.632,5.59,3.362l1.794-2.397c-0.09-0.473-0.469-0.841-0.94-0.917C6.399,0.04,6.3,0.032,6.254,0.032
	c-0.412,0-0.794,0.222-0.995,0.576L0.496,11.023l-0.045,0.065c-0.254,0.371-0.45,0.687-0.45,1.048v6.615
	c0,0.633-0.048,1.147,0.586,1.147h11.212c0.633,0,1.148-0.515,1.148-1.147v-6.07h1.398v6.07c0,0.633,0.516,1.147,1.149,1.147h11.212
	c0.634,0,0.586-0.515,0.586-1.147v-6.615l0-0.062C27.298,11.522,27.278,11.251,27.141,11.008z M11.531,12.757v5.354H1.759v-5.354
	H11.531z M25.54,12.757v5.354h-9.772v-5.354H25.54z"/>
<g>
</g>
<g>
</g>
<g>
</g>
<g>
</g>
<g>
</g>
<g>
</g>
<g>
</g>
<g>
</g>
<g>
</g>
<g>
</g>
<g>
</g>
<g>
</g>
<g>
</g>
<g>
</g>
<g>
</g>
</svg>
