<?xml version="1.0" encoding="iso-8859-1"?>
<!-- Generator: Adobe Illustrator 16.0.0, SVG Export Plug-In . SVG Version: 6.00 Build 0)  -->
<!DOCTYPE svg PUBLIC "-//W3C//DTD SVG 1.1//EN" "http://www.w3.org/Graphics/SVG/1.1/DTD/svg11.dtd">
<svg version="1.1" id="Capa_1" xmlns="http://www.w3.org/2000/svg" xmlns:xlink="http://www.w3.org/1999/xlink" x="0px" y="0px"
	 width="27.168px" height="24.378px" viewBox="0 0 27.168 24.378" style="enable-background:new 0 0 27.168 24.378;"
	 xml:space="preserve">
<g>
	<g>
		<path style="fill:#2D2D2D;" d="M4.478,12.335h7.978c0.112,0,0.205-0.092,0.205-0.205V8.589h1.328v3.541
			c0,0.113,0.092,0.205,0.207,0.205h7.976c0.114,0,0.205-0.092,0.205-0.205V6.886c0-0.088,0.009-0.417-0.026-0.479l-3.616-6.302
			c-0.041-0.076-0.126-0.115-0.212-0.102c-0.085,0.015-0.152,0.081-0.168,0.165l-0.312,1.623c-0.008,0.047,0,0.096,0.024,0.14
			l2.604,4.677c0.017,0.031,0.041,0.054,0.07,0.072H6.154c0.019-0.016,0.036-0.028,0.05-0.049l2.604-4.68
			C8.83,1.908,8.838,1.86,8.829,1.813L8.52,0.188C8.503,0.104,8.437,0.038,8.353,0.024C8.265,0.01,8.182,0.049,8.141,0.125
			L4.526,6.427C4.486,6.49,4.272,6.771,4.272,6.886v5.244C4.272,12.243,4.362,12.335,4.478,12.335z M15.292,7.985h5.778v3.043
			h-5.778V7.985z M5.576,7.985h5.778v3.043H5.576V7.985z"/>
	</g>
	<path style="fill:#2D2D2D;" d="M26.978,23.018c-0.363-0.601-2.71-4.761-0.066-7.405c0.244-0.237,0.311-0.596,0.186-0.91
		c-0.131-0.31-0.434-0.511-0.774-0.511H0.831C0.366,14.191,0,14.566,0,15.022v8.523c0,0.459,0.366,0.832,0.831,0.832h25.491
		c0.007,0,0.007,0,0.007,0c0.463,0,0.839-0.373,0.839-0.832C27.168,23.344,27.097,23.16,26.978,23.018z M1.152,22.856v-7.149h23.993
		c-0.521,0.974-0.719,1.997-0.719,2.982H6.293c-0.332,0-0.594,0.268-0.594,0.596c0,0.327,0.262,0.594,0.594,0.594h18.225
		c0.171,1.158,0.557,2.206,0.908,2.978H1.152z"/>
</g>
<g>
</g>
<g>
</g>
<g>
</g>
<g>
</g>
<g>
</g>
<g>
</g>
<g>
</g>
<g>
</g>
<g>
</g>
<g>
</g>
<g>
</g>
<g>
</g>
<g>
</g>
<g>
</g>
<g>
</g>
</svg>
