<?xml version="1.0" encoding="iso-8859-1"?>
<!-- Generator: Adobe Illustrator 16.0.0, SVG Export Plug-In . SVG Version: 6.00 Build 0)  -->
<!DOCTYPE svg PUBLIC "-//W3C//DTD SVG 1.1//EN" "http://www.w3.org/Graphics/SVG/1.1/DTD/svg11.dtd">
<svg version="1.1" id="Capa_1" xmlns="http://www.w3.org/2000/svg" xmlns:xlink="http://www.w3.org/1999/xlink" x="0px" y="0px"
	 width="26.466px" height="19.013px" viewBox="0 0 26.466 19.013" style="enable-background:new 0 0 26.466 19.013;"
	 xml:space="preserve">
<g>
	<path style="fill:#2D2D2D;" d="M0,0v19.013h26.466V0H0z M24.335,16.882H2.131V2.13h22.205V16.882z"/>
	<path style="fill:#2D2D2D;" d="M3.153,12.848c0.054,0,0.109-0.015,0.158-0.045l4.198-2.619c0.257,0.311,0.641,0.514,1.074,0.514
		c0.371,0,0.708-0.148,0.958-0.386l2.129,1.626c-0.091,0.186-0.147,0.391-0.147,0.612c0,0.772,0.628,1.4,1.401,1.4
		c0.772,0,1.4-0.628,1.4-1.4c0-0.3-0.096-0.577-0.258-0.806l3.623-4.113c0.221,0.145,0.484,0.231,0.769,0.231
		c0.503,0,0.941-0.269,1.188-0.668l3.541,1.663c0.149,0.068,0.325,0.005,0.396-0.143c0.069-0.148,0.006-0.326-0.143-0.395
		l-3.597-1.689c0.006-0.056,0.016-0.11,0.016-0.167c0-0.771-0.627-1.399-1.4-1.399c-0.773,0-1.401,0.628-1.401,1.399
		c0,0.273,0.081,0.526,0.217,0.741l-3.648,4.142c-0.207-0.121-0.445-0.196-0.701-0.196c-0.337,0-0.643,0.125-0.885,0.324l-2.16-1.65
		c0.066-0.163,0.104-0.34,0.104-0.526c0-0.771-0.629-1.4-1.401-1.4s-1.401,0.628-1.401,1.4c0,0.124,0.022,0.243,0.052,0.358
		l-4.237,2.644c-0.14,0.087-0.182,0.27-0.095,0.409C2.958,12.797,3.055,12.848,3.153,12.848z M18.458,5.656
		c0.407,0,0.741,0.305,0.794,0.697c0.006,0.037,0.011,0.072,0.011,0.109c0,0.18-0.061,0.344-0.16,0.478
		c-0.146,0.198-0.381,0.329-0.646,0.329c-0.133,0-0.257-0.036-0.368-0.093c-0.183-0.094-0.324-0.256-0.392-0.454
		c-0.027-0.082-0.046-0.168-0.046-0.26C17.651,6.019,18.013,5.656,18.458,5.656z M12.158,12.312
		c0.062-0.198,0.197-0.361,0.375-0.461c0.117-0.065,0.249-0.106,0.392-0.106c0.106,0,0.207,0.021,0.299,0.058
		c0.19,0.077,0.345,0.224,0.431,0.41c0.047,0.103,0.076,0.216,0.076,0.337c0,0.445-0.362,0.807-0.806,0.807
		c-0.445,0-0.806-0.362-0.806-0.807C12.118,12.466,12.134,12.387,12.158,12.312z M8.583,8.491c0.445,0,0.807,0.36,0.807,0.805
		c0,0.049-0.006,0.096-0.014,0.141C9.338,9.645,9.222,9.822,9.06,9.944c-0.134,0.099-0.297,0.159-0.477,0.159
		c-0.221,0-0.422-0.091-0.568-0.236C7.872,9.726,7.784,9.53,7.779,9.314c0-0.006-0.001-0.012-0.001-0.018
		C7.777,8.852,8.139,8.491,8.583,8.491z"/>
</g>
<g>
</g>
<g>
</g>
<g>
</g>
<g>
</g>
<g>
</g>
<g>
</g>
<g>
</g>
<g>
</g>
<g>
</g>
<g>
</g>
<g>
</g>
<g>
</g>
<g>
</g>
<g>
</g>
<g>
</g>
</svg>
