<?xml version="1.0" encoding="utf-8"?>
<!-- Generator: Adobe Illustrator 16.0.4, SVG Export Plug-In . SVG Version: 6.00 Build 0)  -->
<!DOCTYPE svg PUBLIC "-//W3C//DTD SVG 1.1//EN" "http://www.w3.org/Graphics/SVG/1.1/DTD/svg11.dtd">
<svg version="1.1" id="Capa_1" xmlns="http://www.w3.org/2000/svg" xmlns:xlink="http://www.w3.org/1999/xlink" x="0px" y="0px"
	 width="30.252px" height="30.393px" viewBox="0 0 30.252 30.393" enable-background="new 0 0 30.252 30.393" xml:space="preserve">
<path fill="#2D2D2D" d="M11.137,17.951c0.02,0.235,0.109,0.464,0.263,0.665l-6.64,6.642l-0.466-0.466L11.137,17.951z M29.663,3.433
	l-2.131,2.134c-0.51,0.509-1.219,0.68-1.872,0.533l-9.479,9.479c1.088,1.716,0.889,4.013-0.606,5.508
	c-1.053,0.727-2.882,0.727-3.425,1.54c-1.304,1.604-0.176,4.209-1.872,5.908c-2.415,2.414-6.254,2.482-8.579,0.159
	c-2.325-2.323-2.254-6.166,0.16-8.576c1.698-1.702,4.064-1.212,5.652-2.126c1.588-0.92,0.781-2.162,1.793-3.176
	c1.448-1.445,3.642-1.678,5.335-0.71l9.515-9.517c-0.148-0.649,0.025-1.361,0.533-1.871l2.131-2.13c0.787-0.784,2.059-0.784,2.846,0
	C30.449,1.375,30.449,2.648,29.663,3.433z M27.408,4.314c-0.125-0.126-0.328-0.126-0.455,0c-0.037,0.038-0.06,0.081-0.075,0.128
	L13.594,17.728c-0.041-0.26-0.161-0.508-0.362-0.711c-0.005-0.003-0.01-0.008-0.016-0.014L26.343,3.88
	c0.014,0.035,0.037,0.07,0.065,0.102c0.124,0.119,0.319,0.119,0.438,0c0.121-0.121,0.121-0.317,0-0.439
	c-0.119-0.121-0.314-0.121-0.438,0c-0.038,0.042-0.06,0.089-0.073,0.141l-13.23,13.23c-0.2-0.155-0.43-0.244-0.666-0.266
	L25.908,3.181c0.165,0.099,0.378,0.086,0.521-0.058c0.166-0.166,0.166-0.437,0-0.604c-0.166-0.167-0.438-0.167-0.604,0
	c-0.156,0.156-0.16,0.398-0.026,0.565L12.236,16.647c-0.279,0.019-0.552,0.128-0.762,0.34c-0.212,0.209-0.322,0.481-0.34,0.762
	l-6.943,6.944l-0.778-0.778l-0.879,0.879l2.708,2.709l0.88-0.88l-0.608-0.61L5.418,26.11L5.315,26.01l0.096-0.098l0.103,0.101
	l6.886-6.889c0.317,0.005,0.628-0.109,0.865-0.347c0.238-0.235,0.355-0.549,0.347-0.865L26.878,4.647
	c0.018,0.045,0.04,0.089,0.075,0.124c0.127,0.127,0.331,0.127,0.456,0C27.535,4.645,27.535,4.44,27.408,4.314z M5.413,25.91
	l6.802-6.806c-0.256-0.039-0.506-0.157-0.708-0.359c-0.005-0.004-0.008-0.012-0.014-0.017L4.859,25.36L5.413,25.91z M12.439,16.647
	c-0.069-0.004-0.135-0.006-0.203,0l-1.102,1.102c-0.004,0.066-0.004,0.135,0.001,0.202L12.439,16.647z M11.4,18.616
	c0.031,0.036,0.058,0.078,0.093,0.112l1.723-1.725c-0.034-0.033-0.072-0.062-0.11-0.091L11.4,18.616z M12.215,19.104
	c0.062,0.01,0.123,0.02,0.185,0.02l1.212-1.212c0-0.062-0.008-0.124-0.019-0.185L12.215,19.104z M4.66,25.356l0.102,0.102
	l0.097-0.098l-0.102-0.102L4.66,25.356z M4.095,24.788l0.101,0.105l0.098-0.102l-0.102-0.099L4.095,24.788z"/>
</svg>
