<?xml version="1.0" encoding="utf-8"?>
<!-- Generator: Adobe Illustrator 17.0.0, SVG Export Plug-In . SVG Version: 6.00 Build 0)  -->
<!DOCTYPE svg PUBLIC "-//W3C//DTD SVG 1.1//EN" "http://www.w3.org/Graphics/SVG/1.1/DTD/svg11.dtd">
<svg version="1.1" id="Capa_1" xmlns="http://www.w3.org/2000/svg" xmlns:xlink="http://www.w3.org/1999/xlink" x="0px" y="0px"
	 width="31.162px" height="29.987px" viewBox="0 0 31.162 29.987" enable-background="new 0 0 31.162 29.987" xml:space="preserve">
<path fill="#1D1D1B" d="M4.293,14.342H3.645v-4.253h11.64V9.263h0.65v0.826h11.256v4.123h-0.648v-3.474H15.935v3.283h-0.65v-3.283
	H4.293V14.342z M7.188,24.618H4.431v-1.731h-0.65v1.731H1.023v0.649h6.165V24.618z M18.636,24.78H15.88v-1.732h-0.651v1.732h-2.756
	v0.649h6.163V24.78z M27.329,23.048h-0.65v1.732h-2.756v0.649h6.162V24.78h-2.756V23.048z M15.694,2.812
	c0.776,0,1.406-0.629,1.406-1.406C17.1,0.629,16.471,0,15.694,0c-0.777,0-1.406,0.63-1.406,1.406
	C14.288,2.183,14.917,2.812,15.694,2.812z M12.864,8.857c0.328,0,0.592-0.266,0.592-0.594c0-0.006,0-0.015-0.002-0.026h0.002V5.039
	h0.371v3.072h3.553V5.026h0.385v3.211h0.002c0,0.004,0,0.006,0,0.008c0,0.326,0.267,0.592,0.592,0.592
	c0.327,0,0.592-0.266,0.592-0.592c0-0.002,0-0.004,0-0.008V4.783c-0.129-1.542-1.915-1.52-1.915-1.52h-2.818
	c-2.017,0.039-1.947,1.52-1.947,1.52s0,3.454,0,3.454c0,0.012-0.002,0.021-0.002,0.026C12.269,8.591,12.537,8.857,12.864,8.857z
	 M4.177,17.388c0.663,0,1.2-0.537,1.2-1.2c0-0.663-0.537-1.2-1.2-1.2s-1.2,0.537-1.2,1.2C2.977,16.851,3.514,17.388,4.177,17.388z
	 M1.76,22.553c0.281,0,0.506-0.227,0.506-0.507c0-0.008-0.002-0.016-0.002-0.021h0.002v-2.732h0.319l-0.002,2.621h3.034
	l-0.002-2.636h0.33v2.747c0,0.002,0,0.002,0,0.003c0,0.281,0.228,0.508,0.506,0.508c0.28,0,0.508-0.227,0.508-0.508
	c0-0.001,0-0.001,0-0.003v-2.951c-0.111-1.317-1.638-1.299-1.638-1.299H2.915c-1.723,0.032-1.664,1.299-1.664,1.299v2.951h0.004
	c0,0.005-0.004,0.013-0.004,0.021C1.251,22.326,1.482,22.553,1.76,22.553z M1.316,27.664c0.298,0,0.54-0.242,0.54-0.54
	s-0.242-0.54-0.54-0.54c-0.298,0-0.54,0.242-0.54,0.54S1.018,27.664,1.316,27.664z M1.832,27.838H0.749
	C-0.026,27.853,0,28.421,0,28.421v1.327h0.001C0.001,29.751,0,29.755,0,29.757c0,0.129,0.104,0.23,0.229,0.23
	c0.127,0,0.229-0.102,0.229-0.23c0-0.002-0.002-0.006-0.002-0.009h0.002V28.52H0.6v1.18h1.365v-1.186h0.146v1.234h0.002
	c0,0.001,0,0.001,0,0.001c0,0.128,0.102,0.229,0.228,0.229s0.228-0.101,0.228-0.229c0,0,0,0,0-0.001v-1.327
	C2.518,27.83,1.832,27.838,1.832,27.838z M6.693,26.584c-0.298,0-0.54,0.242-0.54,0.54s0.242,0.54,0.54,0.54s0.54-0.242,0.54-0.54
	S6.991,26.584,6.693,26.584z M7.208,27.838H6.123c-0.773,0.015-0.746,0.583-0.746,0.583v1.327c0,0.003,0,0.007,0,0.009
	c0,0.129,0.102,0.23,0.229,0.23c0.126,0,0.228-0.102,0.228-0.23c0-0.002,0-0.006-0.001-0.009h0.001V28.52h0.143v1.18h1.366v-1.186
	H7.49v1.234c0,0.001,0,0.001,0,0.001c0,0.128,0.101,0.229,0.228,0.229c0.125,0,0.226-0.101,0.226-0.229c0,0,0,0,0-0.001v-1.327
	C7.894,27.83,7.208,27.838,7.208,27.838z M12.092,27.123c0,0.298,0.241,0.539,0.539,0.539c0.298,0,0.539-0.241,0.539-0.539
	c0-0.298-0.241-0.539-0.539-0.539C12.333,26.584,12.092,26.825,12.092,27.123z M13.144,27.838h-1.08
	c-0.775,0.015-0.749,0.583-0.749,0.583v1.327h0.001c0,0.003-0.001,0.007-0.001,0.009c0,0.129,0.103,0.23,0.229,0.23
	c0.127,0,0.228-0.102,0.228-0.23c0-0.002,0-0.006-0.003-0.009h0.003V28.52h0.143v1.18h1.365v-1.186h0.146v1.234
	c0,0.001,0,0.001,0,0.001c0,0.128,0.104,0.229,0.229,0.229c0.124,0,0.228-0.101,0.228-0.229c0,0,0,0,0-0.001v-1.327
	C13.83,27.83,13.144,27.838,13.144,27.838z M17.465,27.123c0,0.299,0.242,0.541,0.541,0.541c0.299,0,0.541-0.242,0.541-0.541
	c0-0.299-0.242-0.541-0.541-0.541C17.707,26.582,17.465,26.824,17.465,27.123z M18.52,27.838h-1.081
	c-0.775,0.015-0.749,0.583-0.749,0.583v1.327h0.001c0,0.003-0.001,0.007-0.001,0.009c0,0.129,0.104,0.23,0.23,0.23
	c0.124,0,0.228-0.102,0.228-0.23c0-0.002-0.002-0.006-0.002-0.009h0.002V28.52h0.141v1.18h1.365v-1.186h0.148v1.234h0.001
	c0,0.001,0,0.001,0,0.001c0,0.128,0.101,0.229,0.227,0.229c0.124,0,0.228-0.101,0.228-0.229c0,0,0,0,0-0.001v-1.327
	C19.208,27.83,18.52,27.838,18.52,27.838z M23.997,27.123c0,0.298,0.242,0.54,0.54,0.54s0.54-0.242,0.54-0.54
	c0-0.298-0.242-0.54-0.54-0.54S23.997,26.825,23.997,27.123z M25.051,27.838h-1.082c-0.775,0.015-0.749,0.583-0.749,0.583v1.327
	h0.002c0,0.003-0.002,0.007-0.002,0.009c0,0.129,0.103,0.23,0.23,0.23c0.125,0,0.228-0.102,0.228-0.23
	c0-0.002-0.002-0.006-0.002-0.009h0.002V28.52h0.143v1.18h1.363v-1.186h0.148v1.234h0.002c0,0.001,0,0.001,0,0.001
	c0,0.128,0.1,0.229,0.226,0.229c0.125,0,0.228-0.101,0.228-0.229c0,0,0,0,0-0.001v-1.327C25.737,27.83,25.051,27.838,25.051,27.838z
	 M29.373,27.123c0,0.298,0.242,0.54,0.54,0.54c0.298,0,0.54-0.242,0.54-0.54c0-0.298-0.242-0.54-0.54-0.54
	C29.615,26.583,29.373,26.825,29.373,27.123z M30.426,27.838h-1.081c-0.775,0.015-0.748,0.583-0.748,0.583v1.327
	c0,0.003,0,0.007,0,0.009c0,0.129,0.102,0.23,0.227,0.23c0.129,0,0.228-0.102,0.228-0.23c0-0.002,0-0.006,0-0.009V28.52h0.145v1.18
	h1.364v-1.186h0.148v1.234c0,0.001,0,0.001,0,0.001c0,0.128,0.102,0.229,0.227,0.229c0.126,0,0.228-0.101,0.228-0.229
	c0,0,0,0,0-0.001v-1.327C31.113,27.83,30.426,27.838,30.426,27.838z M16.689,16.188c0-0.663-0.537-1.2-1.2-1.2
	c-0.663,0-1.2,0.537-1.2,1.2c0,0.663,0.537,1.2,1.2,1.2C16.152,17.388,16.689,16.851,16.689,16.188z M13.073,22.553
	c0.282,0,0.507-0.227,0.507-0.507c0-0.008-0.002-0.016-0.002-0.021h0.002v-2.732h0.316l-0.002,2.621h3.035v-2.636h0.33v2.747
	c0,0.002,0,0.002,0,0.003c0,0.281,0.227,0.508,0.505,0.508c0.279,0,0.506-0.227,0.506-0.508c0-0.001,0-0.001,0-0.003v-2.951
	c-0.11-1.317-1.637-1.299-1.637-1.299h-2.405c-1.723,0.032-1.663,1.299-1.663,1.299v2.951h0.002c0,0.005-0.002,0.013-0.002,0.021
	C12.565,22.326,12.794,22.553,13.073,22.553z M25.388,16.188c0,0.663,0.537,1.2,1.2,1.2c0.663,0,1.2-0.537,1.2-1.2
	c0-0.663-0.537-1.2-1.2-1.2C25.925,14.988,25.388,15.525,25.388,16.188z M25.327,17.775c-1.723,0.032-1.662,1.299-1.662,1.299v2.951
	h0.001c0,0.005-0.001,0.013-0.001,0.021c0,0.28,0.228,0.507,0.507,0.507c0.281,0,0.506-0.227,0.506-0.507
	c0-0.008-0.002-0.016-0.002-0.021h0.002v-2.732h0.317l-0.002,2.621h3.035v-2.636h0.327v2.747h0.002c0,0.002,0,0.002,0,0.003
	c0,0.281,0.228,0.508,0.507,0.508c0.277,0,0.505-0.227,0.505-0.508c0-0.001,0-0.001,0-0.003v-2.951
	c-0.109-1.317-1.638-1.299-1.638-1.299H25.327z"/>
</svg>
