<?xml version="1.0" encoding="utf-8"?>
<!-- Generator: Adobe Illustrator 17.0.0, SVG Export Plug-In . SVG Version: 6.00 Build 0)  -->
<!DOCTYPE svg PUBLIC "-//W3C//DTD SVG 1.1//EN" "http://www.w3.org/Graphics/SVG/1.1/DTD/svg11.dtd">
<svg version="1.1" id="Capa_1" xmlns="http://www.w3.org/2000/svg" xmlns:xlink="http://www.w3.org/1999/xlink" x="0px" y="0px"
	 width="24.859px" height="28.457px" viewBox="0 0 24.859 28.457" enable-background="new 0 0 24.859 28.457" xml:space="preserve">
<path fill="#1D1D1B" d="M3.879,2.403c0-1.33,1.078-2.408,2.408-2.408c1.329,0,2.407,1.078,2.407,2.408S7.616,4.811,6.287,4.811
	C4.957,4.811,3.879,3.733,3.879,2.403z M9.391,11.278v2.296h6.354v14.883h2.729V13.574h6.387v-2.296H9.391z M12.539,15.027H6.062
	L6.7,10.631h6.017V10.63c0,0,0.007,0,0.012,0c0.832,0,1.509-0.675,1.509-1.51c0-0.829-0.677-1.505-1.506-1.505
	c-0.007,0-0.011,0-0.015,0H7.135l0.3-2.057c0-0.19-0.152-0.347-0.347-0.347h-2.63c-0.189,0-0.346,0.156-0.346,0.347L0,18
	c0,0.191,0.154,0.348,0.344,0.348h9.218l-0.005,8.463c0,0.907,0.748,1.646,1.674,1.646c0.917,0,1.665-0.739,1.665-1.646l-0.01-11.44
	C12.886,15.18,12.73,15.027,12.539,15.027z M0.778,20.414h3.344v7.828H5.56v-7.828h3.36v-1.211H0.778V20.414z M22.603,8.196h-7.46
	v2.228h7.46V8.196z M16.658,7.77h7.455V5.538h-7.455V7.77z M16.533,5.121h7.457V2.894h-7.457V5.121z M22.923,0.288h-7.458v2.227
	h7.458V0.288z"/>
</svg>
