<?xml version="1.0" encoding="iso-8859-1"?>
<!-- Generator: Adobe Illustrator 16.0.0, SVG Export Plug-In . SVG Version: 6.00 Build 0)  -->
<!DOCTYPE svg PUBLIC "-//W3C//DTD SVG 1.1//EN" "http://www.w3.org/Graphics/SVG/1.1/DTD/svg11.dtd">
<svg version="1.1" id="Capa_1" xmlns="http://www.w3.org/2000/svg" xmlns:xlink="http://www.w3.org/1999/xlink" x="0px" y="0px"
	 width="28.683px" height="28.961px" viewBox="0 0 28.683 28.961" style="enable-background:new 0 0 28.683 28.961;"
	 xml:space="preserve">
<g>
	<path style="fill:#2D2D2D;" d="M15.929,10.9c1.679-0.452,2.931-2.203,2.931-3.997c0-2.08-1.688-3.768-3.77-3.768
		c-0.124,0-0.248,0.007-0.37,0.02C13.974,1.305,12.164,0,10.048,0c-1.82,0-3.413,0.97-4.3,2.416
		C5.324,2.279,4.871,2.203,4.399,2.203C1.97,2.203,0,4.175,0,6.604C0,10.458,4.023,10.9,4.023,10.9H15.929z"/>
	<path style="fill:#2D2D2D;" d="M28.682,27.368V8.051c0-0.577-0.725-0.726-0.725-0.726h-8.304c-0.012,0.533-0.118,1.056-0.3,1.547
		h7.013c0.818,0,0.794,0.723,0.794,0.723v17.391c0,0-0.135,0.503-0.794,0.503V10.45c0-0.428-0.348-0.772-0.772-0.772
		c0,0-1.43,0.004-2.75,0.006c0.002,0.019,0.004,0.033,0.004,0.033c0,0.988,0,3.571,0,4.898c0,0.432,0,0.712,0,0.712s1.03,0,1.68,0
		c0.646,0,0.159,0.487,0.159,0.487s-2.748,3.646-3.131,4.028c-0.278,0.278-0.542-0.032-0.542-0.032l-3.232-3.903
		c0,0-0.488-0.463,0.042-0.463c0.535,0,1.823,0,1.823,0s0-0.315,0-0.793c0-1.374,0-3.875,0-4.894c0,0-0.011-0.035-0.002-0.082H18.97
		c-0.602,1.013-1.549,1.798-2.66,2.098l-0.073,0.019l-5.323-0.002v16.399c0,0.426,0.343,0.771,0.771,0.771h13.909
		c0.425,0,0.772-0.346,0.772-0.771l1.543-0.002C28.741,28.188,28.682,27.368,28.682,27.368z"/>
	<path style="fill:#2D2D2D;" d="M8.084,13.424c-0.033-0.062-0.097-0.096-0.167-0.098c-0.068,0.005-0.131,0.044-0.161,0.104
		l-0.677,1.339c-0.54-0.28-0.975-0.529-1.324-0.76c-1.679-1.12-1.613-2.436-1.609-2.49c0.005-0.075-0.039-0.145-0.103-0.177
		c-0.01-0.006-0.021-0.011-0.032-0.015c-0.087-0.025-0.177,0.015-0.219,0.095c-1.369,2.707,1.553,4.914,2.25,5.39l-0.63,1.243
		c-0.032,0.061-0.026,0.132,0.016,0.19c0.039,0.056,0.105,0.086,0.173,0.077l4.606-0.571c0.062-0.007,0.114-0.046,0.143-0.1
		c0.029-0.057,0.028-0.123-0.004-0.175L8.084,13.424z"/>
</g>
<g>
</g>
<g>
</g>
<g>
</g>
<g>
</g>
<g>
</g>
<g>
</g>
<g>
</g>
<g>
</g>
<g>
</g>
<g>
</g>
<g>
</g>
<g>
</g>
<g>
</g>
<g>
</g>
<g>
</g>
</svg>
