<?xml version="1.0" encoding="iso-8859-1"?>
<!-- Generator: Adobe Illustrator 16.0.0, SVG Export Plug-In . SVG Version: 6.00 Build 0)  -->
<!DOCTYPE svg PUBLIC "-//W3C//DTD SVG 1.1//EN" "http://www.w3.org/Graphics/SVG/1.1/DTD/svg11.dtd">
<svg version="1.1" id="Capa_1" xmlns="http://www.w3.org/2000/svg" xmlns:xlink="http://www.w3.org/1999/xlink" x="0px" y="0px"
	 width="27.597px" height="24.73px" viewBox="0 0 27.597 24.73" style="enable-background:new 0 0 27.597 24.73;"
	 xml:space="preserve">
<g>
	<path style="fill:#2D2D2D;" d="M22.141,11.712l-0.093-0.344l-1.921-0.002c0.109,0.128,0.207,0.249,0.286,0.353
		c0.067,0.084,0.119,0.162,0.158,0.221v9.899c-0.93-0.819-2.352-1.662-4.223-1.662c-1.839-0.002-3.234,0.818-4.146,1.627v-9.869
		c0.088-0.132,0.233-0.338,0.429-0.57h-0.054c-1.265-0.14-3.437-0.974-4.226-3.105C8.28,8.236,8.201,8.22,8.128,8.196
		c0.007,0.025,0.02,0.048,0.026,0.074c0.052,0.286-0.05,0.558-0.257,0.733L7.192,9.58c1.021,0.18,1.836,0.688,2.439,1.222
		c0.371,0.331,0.661,0.667,0.845,0.917c0.066,0.084,0.119,0.162,0.159,0.221v9.899c-0.927-0.817-2.353-1.662-4.223-1.662H6.411
		c-1.84,0-3.234,0.818-4.146,1.627v-9.869c0.122-0.189,0.354-0.511,0.69-0.862L2.443,9.42c-0.09,0.072-0.18,0.146-0.261,0.221
		c-0.913,0.834-1.358,1.649-1.387,1.697l-0.097,0.374v1.393H0V24.73h23.097V13.104h-0.956V11.712z M4.135,22.37
		c0.617-0.363,1.37-0.629,2.278-0.631c0.904,0,1.668,0.266,2.3,0.631H4.135z M14.073,22.37c0.616-0.363,1.369-0.629,2.275-0.631
		c0.905,0,1.67,0.266,2.301,0.631H14.073z"/>
	<path style="fill:#2D2D2D;" d="M3.183,14.274l0.389,0.409c0.116-0.109,2.867-2.66,5.521-0.006L9.49,14.28
		C6.454,11.244,3.218,14.244,3.183,14.274z"/>
	<path style="fill:#2D2D2D;" d="M3.183,15.953l0.389,0.407c0.116-0.108,2.867-2.658,5.521-0.006l0.397-0.397
		C6.454,12.921,3.218,15.922,3.183,15.953z"/>
	<path style="fill:#2D2D2D;" d="M3.183,17.859l0.389,0.408c0.116-0.109,2.867-2.659,5.521-0.006l0.397-0.397
		C6.454,14.828,3.218,17.829,3.183,17.859z"/>
	<path style="fill:#2D2D2D;" d="M19.053,14.641l0.397-0.398c-3.036-3.036-6.273-0.035-6.306-0.005l0.387,0.408
		C13.647,14.536,16.405,11.994,19.053,14.641z"/>
	<path style="fill:#2D2D2D;" d="M13.531,16.323c0.116-0.109,2.874-2.652,5.521-0.006l0.397-0.397
		c-3.036-3.036-6.273-0.035-6.306-0.006L13.531,16.323z"/>
	<path style="fill:#2D2D2D;" d="M13.531,18.23c0.116-0.109,2.874-2.652,5.521-0.006l0.397-0.399
		c-3.036-3.034-6.273-0.035-6.306-0.004L13.531,18.23z"/>
	<path style="fill:#2D2D2D;" d="M23.828,3.135c-0.125,0-0.247,0.008-0.37,0.021C22.71,1.306,20.9,0,18.783,0
		c-1.821,0-3.412,0.97-4.299,2.417c-0.424-0.138-0.875-0.213-1.348-0.213c-2.43,0-4.4,1.971-4.4,4.4
		c0,3.854,4.022,4.297,4.022,4.297h11.907c1.68-0.451,2.931-2.204,2.931-3.998C27.597,4.823,25.909,3.135,23.828,3.135z"/>
	<path style="fill:#2D2D2D;" d="M3.774,11.517c0.02,0.062,0.064,0.106,0.124,0.123c0.059,0.02,0.124,0.007,0.172-0.034l3.59-2.939
		c0.054-0.045,0.078-0.111,0.066-0.181C7.71,8.417,7.661,8.363,7.596,8.344L6.161,7.912c0.179-0.578,0.347-1.05,0.516-1.436
		c0.805-1.852,2.109-2.018,2.166-2.022c0.074-0.01,0.136-0.062,0.155-0.134C9.003,4.309,9.005,4.3,9.007,4.286
		c0.008-0.091-0.045-0.169-0.131-0.198C5.969,3.217,4.312,6.481,3.967,7.251L2.632,6.85C2.567,6.831,2.495,6.848,2.446,6.898
		C2.398,6.947,2.379,7.017,2.399,7.085L3.774,11.517z"/>
</g>
<g>
</g>
<g>
</g>
<g>
</g>
<g>
</g>
<g>
</g>
<g>
</g>
<g>
</g>
<g>
</g>
<g>
</g>
<g>
</g>
<g>
</g>
<g>
</g>
<g>
</g>
<g>
</g>
<g>
</g>
</svg>
