<?xml version="1.0" encoding="iso-8859-1"?>
<!-- Generator: Adobe Illustrator 16.0.0, SVG Export Plug-In . SVG Version: 6.00 Build 0)  -->
<!DOCTYPE svg PUBLIC "-//W3C//DTD SVG 1.1//EN" "http://www.w3.org/Graphics/SVG/1.1/DTD/svg11.dtd">
<svg version="1.1" id="Capa_1" xmlns="http://www.w3.org/2000/svg" xmlns:xlink="http://www.w3.org/1999/xlink" x="0px" y="0px"
	 width="24.861px" height="23.588px" viewBox="0 0 24.861 23.588" style="enable-background:new 0 0 24.861 23.588;"
	 xml:space="preserve">
<g>
	<g>
		<path style="fill:#2D2D2D;" d="M24.181,3.61H11.741l0.516,0.81c0.079,0.118,0.119,0.187,0.15,0.261
			c0.023,0.055,0.058,0.145,0.062,0.29h11.032v17.258H6.243V10.043c-0.45-0.085-0.918-0.2-1.361-0.338v13.204
			c0,0.375,0.305,0.679,0.681,0.679h18.618c0.376,0,0.68-0.304,0.68-0.679V4.29C24.861,3.915,24.557,3.61,24.181,3.61z"/>
	</g>
	<g>
		<g>
			<g>
				<path style="fill:#2D2D2D;" d="M11.485,4.276l-1.067-1.681l-2.89,3.887L2.81,5.756l0.499,2.086c0-0.003,0.001-0.007,0.004-0.012
					C3.299,7.924,3.306,8.012,3.34,8.091c0.286,0.691,4.07,1.614,5.036,1.212c0.968-0.402,3.611-3.996,3.324-4.686
					C11.669,4.542,11.615,4.479,11.485,4.276z"/>
			</g>
			<g>
				<polygon style="fill:#2D2D2D;" points="7.39,6.064 0,4.94 5.135,0.592 11.813,0 				"/>
			</g>
		</g>
		<g>
			<polygon style="fill:#2D2D2D;" points="0.172,5.24 1.447,9.308 2.289,10.335 2.13,9.023 			"/>
		</g>
	</g>
	<g>
		<g>
			<path style="fill:#2D2D2D;" d="M21.747,11.59L14.69,8.22c-0.083-0.04-0.181-0.005-0.22,0.077l-1.535,3.213h0.836l1.127-2.362
				l6.117,2.923l-1.913,4.004l-1.077-0.514v2.117l0.662,0.317c0.083,0.039,0.182,0.004,0.22-0.078l2.917-6.107
				C21.864,11.728,21.829,11.629,21.747,11.59z"/>
		</g>
		<g>
			<path style="fill:#2D2D2D;" d="M17.37,11.898H9.551c-0.092,0-0.166,0.074-0.166,0.165v6.767c0,0.09,0.073,0.165,0.166,0.165
				h7.819c0.092,0,0.166-0.075,0.166-0.165v-6.767C17.536,11.973,17.462,11.898,17.37,11.898z M16.919,17.085h-0.496
				c-0.289-0.74-0.645-1.776-1.183-1.639c-0.632,0.163-0.948,1.639-0.948,1.639s-0.323-1.667-1.215-2.559s-1.757,2.559-1.757,2.559
				h-1.18v-4.438h6.779V17.085z"/>
		</g>
		<g>
			<circle style="fill:#2D2D2D;" cx="11.233" cy="13.599" r="0.553"/>
		</g>
		<g>
			<path style="fill:#2D2D2D;" d="M14.944,13.989c0.125,0,0.241-0.013,0.345-0.033c0.12,0.051,0.268,0.082,0.426,0.082
				c0.407,0,0.737-0.199,0.737-0.444c0-0.246-0.33-0.445-0.737-0.445c-0.153,0-0.295,0.029-0.412,0.077
				c-0.049-0.048-0.114-0.077-0.186-0.077h-0.107c-0.136,0-0.245,0.104-0.26,0.236c-0.33,0.035-0.575,0.154-0.575,0.296
				C14.174,13.852,14.519,13.989,14.944,13.989z"/>
		</g>
	</g>
</g>
<g>
</g>
<g>
</g>
<g>
</g>
<g>
</g>
<g>
</g>
<g>
</g>
<g>
</g>
<g>
</g>
<g>
</g>
<g>
</g>
<g>
</g>
<g>
</g>
<g>
</g>
<g>
</g>
<g>
</g>
</svg>
