<?xml version="1.0" encoding="iso-8859-1"?>
<!-- Generator: Adobe Illustrator 16.0.0, SVG Export Plug-In . SVG Version: 6.00 Build 0)  -->
<!DOCTYPE svg PUBLIC "-//W3C//DTD SVG 1.1//EN" "http://www.w3.org/Graphics/SVG/1.1/DTD/svg11.dtd">
<svg version="1.1" id="Capa_1" xmlns="http://www.w3.org/2000/svg" xmlns:xlink="http://www.w3.org/1999/xlink" x="0px" y="0px"
	 width="26.992px" height="27.162px" viewBox="0 0 26.992 27.162" style="enable-background:new 0 0 26.992 27.162;"
	 xml:space="preserve">
<g>
	<path style="fill:#2D2D2D;" d="M12.094,24.221v-3.235V18.3H4.729h-3.59v2.737v3.184h6.919H12.094z M1.487,21.128v-2.377h3.015
		h7.243v2.104h0.002v2.913H8.286H1.489v-2.64H1.487z"/>
	<polygon style="fill:#2D2D2D;" points="0.12,27.162 13.024,27.162 13.119,26.844 0,26.844 	"/>
	<path style="fill:#2D2D2D;" d="M0.883,24.722L0,26.678h13.169l0.032-0.105l-0.693-1.851H0.883z M5.543,26.596l0.209-0.628h1.284
		l0.245,0.628H5.543z M0.878,25.864l0.433-0.916h10.58l0.372,0.916H0.878z"/>
	<path style="fill:#2D2D2D;" d="M14.931,21.037v3.184h6.919h4.036v-3.235V18.3H18.52h-3.589V21.037z M15.278,18.751h3.016h7.243
		v2.104l0,0v2.913h-3.461h-6.797v-2.64h-0.001V18.751z"/>
	<polygon style="fill:#2D2D2D;" points="13.91,27.162 26.815,27.162 26.909,26.844 13.791,26.844 	"/>
	<path style="fill:#2D2D2D;" d="M26.3,24.722H14.674l-0.881,1.956h13.166l0.033-0.105L26.3,24.722z M19.336,26.596l0.207-0.628
		h1.284l0.247,0.628H19.336z M14.669,25.864l0.432-0.916h10.583l0.371,0.916H14.669z"/>
	<circle style="fill:#2D2D2D;" cx="4.753" cy="17.065" r="0.339"/>
	<circle style="fill:#2D2D2D;" cx="5.895" cy="15.297" r="0.701"/>
	<circle style="fill:#2D2D2D;" cx="7.123" cy="12.881" r="1.375"/>
	<circle style="fill:#2D2D2D;" cx="21.306" cy="17.237" r="0.339"/>
	<circle style="fill:#2D2D2D;" cx="20.163" cy="15.469" r="0.702"/>
	<circle style="fill:#2D2D2D;" cx="18.788" cy="12.736" r="1.375"/>
	<path style="fill:#2D2D2D;" d="M15.245,8.231h1.526c-0.209-0.122-0.465-0.211-0.768-0.211C15.702,8.022,15.451,8.109,15.245,8.231z
		"/>
	<path style="fill:#2D2D2D;" d="M13.765,4.372c-0.253-0.223-0.607-0.434-1.076-0.434c-0.454,0-0.793,0.198-1.033,0.411
		c-0.179,0.154-0.295,0.318-0.349,0.399v3.292c0.303-0.27,0.769-0.541,1.382-0.541c0.625,0,1.101,0.279,1.411,0.555V4.751
		c-0.014-0.019-0.032-0.046-0.056-0.073C13.985,4.594,13.887,4.481,13.765,4.372z M13.612,6.884
		c-0.928-0.929-1.892-0.035-1.933,0.002l-0.135-0.143c0.011-0.012,1.144-1.062,2.207,0.001L13.612,6.884z M13.612,6.217
		c-0.928-0.929-1.892-0.035-1.933,0.002l-0.135-0.143c0.011-0.012,1.144-1.062,2.207,0.001L13.612,6.217z M13.612,5.63
		c-0.928-0.93-1.892-0.037-1.933,0.002L11.545,5.49c0.011-0.013,1.144-1.063,2.207,0L13.612,5.63z"/>
	<path style="fill:#2D2D2D;" d="M11.931,8.231h1.527c-0.213-0.122-0.466-0.211-0.77-0.211C12.387,8.022,12.135,8.109,11.931,8.231z"
		/>
	<path style="fill:#2D2D2D;" d="M17.08,4.372c-0.251-0.223-0.607-0.434-1.076-0.434c-0.453,0-0.793,0.198-1.036,0.411
		c-0.176,0.154-0.292,0.318-0.347,0.399v3.292c0.304-0.27,0.77-0.543,1.383-0.541c0.624,0,1.1,0.279,1.41,0.555V4.751
		c-0.013-0.019-0.033-0.046-0.053-0.073C17.299,4.594,17.204,4.481,17.08,4.372z M16.948,6.869
		c-0.925-0.925-1.891-0.034-1.932,0.004l-0.135-0.144c0.012-0.011,1.144-1.059,2.206,0.002L16.948,6.869z M16.948,6.204
		c-0.925-0.927-1.891-0.038-1.932,0.002l-0.135-0.144c0.012-0.011,1.144-1.061,2.206,0.002L16.948,6.204z M16.948,5.615
		c-0.925-0.925-1.891-0.035-1.932,0.002l-0.135-0.143c0.012-0.01,1.144-1.062,2.206,0.002L16.948,5.615z"/>
	<path style="fill:#2D2D2D;" d="M8.996,10.898h11.907c1.678-0.45,2.931-2.201,2.931-3.995c0-2.083-1.688-3.77-3.771-3.77
		c-0.124,0-0.247,0.008-0.368,0.019C18.945,1.305,17.137,0,15.021,0c-1.823,0-3.413,0.967-4.3,2.415
		c-0.424-0.139-0.876-0.212-1.347-0.212c-2.431,0-4.401,1.969-4.401,4.4C4.973,10.457,8.996,10.898,8.996,10.898z M10.551,5.14
		h0.231V4.674l0.033-0.123c0.01-0.017,0.158-0.288,0.463-0.566c0.305-0.279,0.779-0.568,1.41-0.568c0.634,0,1.113,0.289,1.422,0.566
		c0.096,0.086,0.179,0.171,0.246,0.249c0.063-0.076,0.145-0.161,0.237-0.247c0.303-0.279,0.778-0.568,1.41-0.568
		c0.631,0,1.113,0.289,1.422,0.566c0.31,0.276,0.466,0.548,0.475,0.563l0.036,0.128V5.14h0.319v3.878h-7.705V5.14z"/>
</g>
<g>
</g>
<g>
</g>
<g>
</g>
<g>
</g>
<g>
</g>
<g>
</g>
<g>
</g>
<g>
</g>
<g>
</g>
<g>
</g>
<g>
</g>
<g>
</g>
<g>
</g>
<g>
</g>
<g>
</g>
</svg>
