<?xml version="1.0" encoding="utf-8"?>
<!-- Generator: Adobe Illustrator 16.0.4, SVG Export Plug-In . SVG Version: 6.00 Build 0)  -->
<!DOCTYPE svg PUBLIC "-//W3C//DTD SVG 1.1//EN" "http://www.w3.org/Graphics/SVG/1.1/DTD/svg11.dtd">
<svg version="1.1" id="Capa_1" xmlns="http://www.w3.org/2000/svg" xmlns:xlink="http://www.w3.org/1999/xlink" x="0px" y="0px"
	 width="30.29px" height="30.29px" viewBox="0 0 30.29 30.29" enable-background="new 0 0 30.29 30.29" xml:space="preserve">
<path fill="#2D2D2D" d="M4.468,20.44l5.38,5.38l12.238-12.24l-5.381-5.379L4.468,20.44z M10.019,24.567l-4.297-4.3L16.624,9.368
	l4.295,4.299L10.019,24.567z M16.985,4.986l8.316,8.325l-0.984,0.983L16,5.969L16.985,4.986z M30.29,7.336l-0.811,0.811l-1.46-1.461
	l-4.065,4.065L19.54,6.333l4.063-4.062l-1.46-1.459L22.954,0L30.29,7.336z M5.547,22.95l1.792,1.791L0.718,30.29L0,29.57
	L5.547,22.95z M8.374,17.639l2.691,2.69l-1.006,1.007l-2.691-2.689L8.374,17.639z M10.856,15.158l2.692,2.69l-1.007,1.008
	l-2.692-2.69L10.856,15.158z M13.258,12.757l2.691,2.688l-1.008,1.009l-2.691-2.687L13.258,12.757z M15.385,10.63l2.689,2.69
	l-1.006,1.007l-2.69-2.69L15.385,10.63z"/>
</svg>
