<?xml version="1.0" encoding="utf-8"?>
<!-- Generator: Adobe Illustrator 16.0.4, SVG Export Plug-In . SVG Version: 6.00 Build 0)  -->
<!DOCTYPE svg PUBLIC "-//W3C//DTD SVG 1.1//EN" "http://www.w3.org/Graphics/SVG/1.1/DTD/svg11.dtd">
<svg version="1.1" id="Capa_1" xmlns="http://www.w3.org/2000/svg" xmlns:xlink="http://www.w3.org/1999/xlink" x="0px" y="0px"
	 width="18.164px" height="28.773px" viewBox="0 0 18.164 28.773" enable-background="new 0 0 18.164 28.773" xml:space="preserve">
<g>
	<path fill="#010002" d="M16.225,13.274v-0.853l1.098-1.101c0.545-0.541,0.843-1.261,0.843-2.028c0-0.766-0.298-1.485-0.843-2.025
		l-1.055-1.06V4.829c0-1.581-1.287-2.867-2.869-2.867h-1.381L10.896,0.84C10.354,0.298,9.635,0,8.868,0
		C8.104,0,7.382,0.298,6.841,0.84L5.717,1.962H4.31c-1.582,0-2.868,1.286-2.868,2.867v1.333L0.84,6.781C0.297,7.323,0,8.043,0,8.809
		c0,0.766,0.297,1.485,0.84,2.027l0.564,0.564L1.4,13.274c0,1.581,1.286,2.868,2.866,2.868h1.879l0.085,0.084
		c-0.348,1.7-1.854,8.502-3.922,9.872L4.99,26.18l-0.007,2.593c2.441-2.242,4.11-5.834,4.393-9.956
		c0.282,4.121,1.95,7.713,4.396,9.956l-0.01-2.593l2.682-0.083c-2.104-1.396-3.629-8.419-3.938-9.956h0.852
		C14.938,16.142,16.225,14.855,16.225,13.274z M12.204,15.538l-1.308,1.298c-0.855,0.854-2.348,0.855-3.201,0l-1.301-1.298
		l-2.128-0.001c-1.247,0-2.264-1.015-2.264-2.263l0.008-2.12l-0.744-0.745c-0.427-0.428-0.661-0.996-0.661-1.6
		c0-0.605,0.234-1.174,0.661-1.601l0.778-0.777l0.002-1.603c0-1.248,1.015-2.264,2.263-2.264h1.655L7.27,1.267
		c0.854-0.855,2.345-0.855,3.199,0l1.299,1.298h1.631c1.248,0,2.264,1.016,2.264,2.264v1.629l1.234,1.236
		c0.428,0.428,0.662,0.995,0.662,1.6c0,0.605-0.234,1.173-0.662,1.602l-1.277,1.272v1.107c0,1.248-1.016,2.263-2.264,2.263H12.204z"
		/>
	<path fill="#010002" d="M9.082,3.463c-3.081,0-5.587,2.508-5.587,5.588c0,3.081,2.506,5.588,5.587,5.588
		c3.08,0.001,5.587-2.507,5.587-5.588C14.669,5.97,12.162,3.463,9.082,3.463z M9.082,14.034c-2.748,0.001-4.983-2.235-4.983-4.983
		c0-2.747,2.235-4.982,4.983-4.982c2.747,0,4.98,2.235,4.98,4.982C14.062,11.799,11.829,14.034,9.082,14.034z"/>
</g>
</svg>
