<?xml version="1.0" encoding="iso-8859-1"?>
<!-- Generator: Adobe Illustrator 16.0.0, SVG Export Plug-In . SVG Version: 6.00 Build 0)  -->
<!DOCTYPE svg PUBLIC "-//W3C//DTD SVG 1.1//EN" "http://www.w3.org/Graphics/SVG/1.1/DTD/svg11.dtd">
<svg version="1.1" id="Capa_1" xmlns="http://www.w3.org/2000/svg" xmlns:xlink="http://www.w3.org/1999/xlink" x="0px" y="0px"
	 width="20.019px" height="27.363px" viewBox="0 0 20.019 27.363" style="enable-background:new 0 0 20.019 27.363;"
	 xml:space="preserve">
<g>
	<path style="fill:#2D2D2D;" d="M10.009,18.245c2.753,0,4.985-2.23,4.985-4.983c0-2.754-2.232-4.985-4.985-4.985
		s-4.985,2.231-4.985,4.985C5.023,16.015,7.256,18.245,10.009,18.245z M8.714,10.61c0-0.129,0.09-0.245,0.228-0.295
		c0.138-0.047,0.297-0.021,0.401,0.07l3.072,2.651c0.144,0.125,0.144,0.326,0,0.45l-3.072,2.651
		c-0.104,0.091-0.264,0.115-0.401,0.068c-0.136-0.049-0.226-0.166-0.228-0.294V10.61z"/>
	<path style="fill:#2D2D2D;" d="M18.163,0H1.856C0.828,0,0,0.832,0,1.857v23.649c0,1.025,0.828,1.856,1.856,1.856h16.307
		c1.025,0,1.855-0.831,1.855-1.856V1.857C20.019,0.832,19.188,0,18.163,0z M10.009,26.67c-0.609,0-1.104-0.495-1.104-1.104
		c0-0.608,0.494-1.103,1.104-1.103c0.611,0,1.104,0.494,1.104,1.103C11.113,26.175,10.62,26.67,10.009,26.67z M18.142,23.495H1.879
		V2.234h16.263V23.495z"/>
</g>
<g>
</g>
<g>
</g>
<g>
</g>
<g>
</g>
<g>
</g>
<g>
</g>
<g>
</g>
<g>
</g>
<g>
</g>
<g>
</g>
<g>
</g>
<g>
</g>
<g>
</g>
<g>
</g>
<g>
</g>
</svg>
