<?xml version="1.0" encoding="iso-8859-1"?>
<!-- Generator: Adobe Illustrator 16.0.0, SVG Export Plug-In . SVG Version: 6.00 Build 0)  -->
<!DOCTYPE svg PUBLIC "-//W3C//DTD SVG 1.1//EN" "http://www.w3.org/Graphics/SVG/1.1/DTD/svg11.dtd">
<svg version="1.1" id="Capa_1" xmlns="http://www.w3.org/2000/svg" xmlns:xlink="http://www.w3.org/1999/xlink" x="0px" y="0px"
	 width="28.914px" height="25.979px" viewBox="0 0 28.914 25.979" style="enable-background:new 0 0 28.914 25.979;"
	 xml:space="preserve">
<path style="fill:#2D2D2D;" d="M28.879,12.976L21.16,0.322c-0.069-0.113-0.22-0.15-0.333-0.079l-9.961,6.074
	c-0.148-0.083-0.413-0.271-0.483-0.571c-0.091-0.401,0.173-0.948,0.765-1.581c0.793-0.849,1.139-1.688,1.024-2.495
	C12.016,0.59,11.081,0.024,11.041,0l-0.496,0.837c0.005,0.004,0.575,0.356,0.664,0.971c0.07,0.499-0.188,1.07-0.771,1.694
	c-0.836,0.891-1.173,1.72-1.003,2.463C9.527,6.362,9.75,6.652,9.978,6.859l-9.861,6.018c-0.055,0.035-0.094,0.087-0.109,0.148
	c-0.016,0.063-0.005,0.131,0.028,0.186l7.722,12.653c0.044,0.073,0.124,0.115,0.207,0.115c0.042,0,0.086-0.012,0.125-0.037
	l20.708-12.632C28.912,13.239,28.948,13.09,28.879,12.976z M23.527,9.04l-2.155,1.314l-1.316-2.156l2.157-1.314L23.527,9.04z
	 M20.006,3.266l1.314,2.156l-2.155,1.315l-1.314-2.156L20.006,3.266z M19.921,11.237l-2.155,1.316l-1.314-2.156l2.154-1.315
	L19.921,11.237z M16.401,5.467l1.315,2.154L15.56,8.937l-1.315-2.155L16.401,5.467z M16.152,13.536l-2.153,1.316l-1.315-2.156
	l2.155-1.315L16.152,13.536z M13.948,9.92l-2.156,1.313L10.478,9.08l2.155-1.315L13.948,9.92z M12.5,15.767l-2.156,1.315
	L9.03,14.926l2.152-1.315L12.5,15.767z M8.978,9.996l1.314,2.154l-2.154,1.313L6.821,11.31L8.978,9.996z M3.184,13.531l2.154-1.315
	l1.314,2.156l-2.154,1.313L3.184,13.531z M5.388,17.148l2.156-1.316l1.313,2.156l-2.154,1.314L5.388,17.148z M8.73,22.794
	l-1.276-2.095l9.674-5.9l1.276,2.093L8.73,22.794z M19.867,15.998l-1.314-2.155l2.156-1.316l1.314,2.156L19.867,15.998z
	 M23.474,13.799l-1.315-2.155l2.156-1.316l1.313,2.156L23.474,13.799z"/>
<g>
</g>
<g>
</g>
<g>
</g>
<g>
</g>
<g>
</g>
<g>
</g>
<g>
</g>
<g>
</g>
<g>
</g>
<g>
</g>
<g>
</g>
<g>
</g>
<g>
</g>
<g>
</g>
<g>
</g>
</svg>
