<?xml version="1.0" encoding="iso-8859-1"?>
<!-- Generator: Adobe Illustrator 16.0.0, SVG Export Plug-In . SVG Version: 6.00 Build 0)  -->
<!DOCTYPE svg PUBLIC "-//W3C//DTD SVG 1.1//EN" "http://www.w3.org/Graphics/SVG/1.1/DTD/svg11.dtd">
<svg version="1.1" id="Capa_1" xmlns="http://www.w3.org/2000/svg" xmlns:xlink="http://www.w3.org/1999/xlink" x="0px" y="0px"
	 width="20.429px" height="26.625px" viewBox="0 0 20.429 26.625" style="enable-background:new 0 0 20.429 26.625;"
	 xml:space="preserve">
<g>
	<path style="fill-rule:evenodd;clip-rule:evenodd;fill:#2D2D2D;" d="M20.079,0c-5.489,1.107-9.676,5.836-9.676,5.836l-0.23,2.377
		L9.216,7.205C4.824,12.189,4.367,19.47,4.367,19.47c0.066,0.321,0.178,0.574,0.314,0.778C11.703,10.184,14.937,6.839,14.937,6.839
		C13.784,8.05,8.878,15.8,5.676,20.928c0.499,0.125,0.943,0.037,0.943,0.037c10.167-4.838,12.164-11.51,12.164-11.51
		c-0.374-0.48-2.09-0.693-2.09-0.693l2.839-0.432c0.075-0.237,0.146-0.472,0.209-0.699C21.058,2.967,20.079,0,20.079,0z"/>
	<path style="fill-rule:evenodd;clip-rule:evenodd;fill:#2D2D2D;" d="M4.682,20.248C3.684,21.678,1.152,24.914,0,26.625l1.403-0.715
		c0,0,2.389-2.789,4.272-4.982C5.328,20.842,4.953,20.647,4.682,20.248z"/>
</g>
<g>
</g>
<g>
</g>
<g>
</g>
<g>
</g>
<g>
</g>
<g>
</g>
<g>
</g>
<g>
</g>
<g>
</g>
<g>
</g>
<g>
</g>
<g>
</g>
<g>
</g>
<g>
</g>
<g>
</g>
</svg>
