<?xml version="1.0" encoding="utf-8"?>
<!-- Generator: Adobe Illustrator 17.0.0, SVG Export Plug-In . SVG Version: 6.00 Build 0)  -->
<!DOCTYPE svg PUBLIC "-//W3C//DTD SVG 1.1//EN" "http://www.w3.org/Graphics/SVG/1.1/DTD/svg11.dtd">
<svg version="1.1" id="Capa_1" xmlns="http://www.w3.org/2000/svg" xmlns:xlink="http://www.w3.org/1999/xlink" x="0px" y="0px"
	 width="16.232px" height="31.396px" viewBox="0 0 16.232 31.396" enable-background="new 0 0 16.232 31.396" xml:space="preserve">
<path d="M2.766,15.408h10.697l-2.633,13.829H5.405L2.766,15.408z M1.116,12.813v2.06h14v-2.06H1.116z M8.244,6.44
	c1.184,0,2.143-0.957,2.143-2.141c0-1.186-0.959-2.141-2.143-2.141c-1.182,0-2.142,0.955-2.142,2.14
	C6.101,5.483,7.061,6.44,8.244,6.44z M3.026,12.424h1.808V9.841h0.568l-0.006,2.583h5.42V9.816L11.4,9.819v2.606h1.808V9.447
	c-0.198-2.347-2.923-2.314-2.923-2.314H8.83l-0.587,0.96l-0.586-0.96H5.991C2.916,7.189,3.026,9.447,3.026,9.447V12.424z"/>
</svg>
