<?xml version="1.0" encoding="utf-8"?>
<!-- Generator: Adobe Illustrator 17.0.0, SVG Export Plug-In . SVG Version: 6.00 Build 0)  -->
<!DOCTYPE svg PUBLIC "-//W3C//DTD SVG 1.1//EN" "http://www.w3.org/Graphics/SVG/1.1/DTD/svg11.dtd">
<svg version="1.1" id="Capa_1" xmlns="http://www.w3.org/2000/svg" xmlns:xlink="http://www.w3.org/1999/xlink" x="0px" y="0px"
	 width="23.552px" height="32.963px" viewBox="0 0 23.552 32.963" enable-background="new 0 0 23.552 32.963" xml:space="preserve">
<path d="M2.215,10.018c0,0-0.128-2.618,3.436-2.686h1.935l0.679,1.114l0.678-1.114h1.689c0,0,3.159-0.035,3.39,2.686v3.453h-2.097
	v-3.023l-0.679-0.002v3.025H4.963l0.007-2.996H4.312v2.996H2.215V10.018z M8.265,6.532c1.371,0,2.483-1.112,2.483-2.483
	c0-1.371-1.112-2.483-2.483-2.483c-1.371,0-2.483,1.112-2.483,2.483C5.782,5.42,6.894,6.532,8.265,6.532z M4.972,32.963h6.29
	l3.053-16.034H1.912L4.972,32.963z M23.551,3.353c0,1.776-1.961,3.223-4.44,3.341c-1.309,1.058-3.58,1.676-3.58,1.676
	c1.066-0.968,1.175-1.649,1.106-2.028c-1.552-0.551-2.616-1.68-2.616-2.988C14.021,1.501,16.154,0,18.786,0
	S23.552,1.501,23.551,3.353z M21.61,4.186c0-0.165-0.133-0.297-0.299-0.297h-5.052c-0.165,0-0.297,0.132-0.297,0.297
	c0,0.165,0.132,0.297,0.297,0.297h5.052C21.477,4.483,21.61,4.351,21.61,4.186z M21.61,2.566c0-0.164-0.133-0.298-0.299-0.298
	h-5.052c-0.165,0-0.297,0.134-0.297,0.298s0.132,0.298,0.297,0.298h5.052C21.477,2.864,21.61,2.73,21.61,2.566z M0,16.307h16.231
	v-2.386H0V16.307z"/>
</svg>
