<?xml version="1.0" encoding="utf-8"?>
<!-- Generator: Adobe Illustrator 17.0.0, SVG Export Plug-In . SVG Version: 6.00 Build 0)  -->
<!DOCTYPE svg PUBLIC "-//W3C//DTD SVG 1.1//EN" "http://www.w3.org/Graphics/SVG/1.1/DTD/svg11.dtd">
<svg version="1.1" id="Capa_1" xmlns="http://www.w3.org/2000/svg" xmlns:xlink="http://www.w3.org/1999/xlink" x="0px" y="0px"
	 width="36.356px" height="24.515px" viewBox="0 0 36.356 24.515" enable-background="new 0 0 36.356 24.515" xml:space="preserve">
<path d="M22.405,17.239c0.201-0.196,0.257-0.494,0.153-0.755c-0.109-0.255-0.36-0.423-0.642-0.423H0.763
	c-0.387,0-0.692,0.31-0.692,0.689v7.074c0,0.38,0.306,0.689,0.692,0.689h21.154c0.004,0,0.004,0,0.004,0
	c0.385,0,0.697-0.31,0.697-0.689c0-0.168-0.06-0.321-0.157-0.44C22.159,22.888,20.211,19.435,22.405,17.239z M1.027,23.253v-5.935
	H20.94c-0.435,0.809-0.597,1.657-0.597,2.477H5.296c-0.277,0-0.495,0.223-0.495,0.493c0,0.271,0.218,0.492,0.495,0.492h15.123
	c0.141,0.963,0.462,1.831,0.753,2.473H1.027z M0.688,14.918h21.157c0.005,0,0.005,0,0.005,0c0.385,0,0.695-0.312,0.695-0.691
	c0-0.169-0.059-0.321-0.159-0.439c-0.301-0.498-2.249-3.951-0.054-6.146c0.202-0.197,0.257-0.494,0.154-0.756
	c-0.109-0.256-0.362-0.423-0.642-0.423H0.688C0.305,6.463,0,6.772,0,7.153v7.073C0,14.606,0.305,14.918,0.688,14.918z M0.956,7.721
	h19.913c-0.435,0.808-0.599,1.656-0.599,2.476H5.223c-0.277,0-0.494,0.223-0.494,0.492c0,0.271,0.217,0.494,0.494,0.494h15.122
	c0.144,0.962,0.465,1.83,0.755,2.473H0.956V7.721z M36.332,20.914L30.723,0.516c-0.001-0.004-0.001-0.004-0.001-0.004
	c-0.104-0.371-0.485-0.588-0.851-0.487c-0.163,0.044-0.294,0.142-0.381,0.268c-0.402,0.422-3.215,3.216-5.913,1.683
	c-0.243-0.143-0.544-0.117-0.768,0.052c-0.218,0.173-0.313,0.459-0.238,0.732l5.608,20.396c0.102,0.371,0.482,0.584,0.848,0.482
	l6.821-1.875C36.214,21.662,36.433,21.285,36.332,20.914z M29.322,22.565l-5.278-19.2c0.893,0.203,1.755,0.136,2.544-0.081
	l3.989,14.51c0.075,0.268,0.346,0.418,0.606,0.345c0.262-0.071,0.418-0.339,0.344-0.604l-4.01-14.583
	c0.892-0.393,1.643-0.932,2.185-1.383l5.342,19.424C35.044,20.993,29.322,22.565,29.322,22.565z"/>
</svg>
