<?xml version="1.0" encoding="utf-8"?>
<!-- Generator: Adobe Illustrator 17.0.0, SVG Export Plug-In . SVG Version: 6.00 Build 0)  -->
<!DOCTYPE svg PUBLIC "-//W3C//DTD SVG 1.1//EN" "http://www.w3.org/Graphics/SVG/1.1/DTD/svg11.dtd">
<svg version="1.1" id="Capa_1" xmlns="http://www.w3.org/2000/svg" xmlns:xlink="http://www.w3.org/1999/xlink" x="0px" y="0px"
	 width="22.35px" height="28.103px" viewBox="0 0 22.35 28.103" enable-background="new 0 0 22.35 28.103" xml:space="preserve">
<path d="M3.471,3.674h15.45v20.848l-1.775-0.001V5.353H3.471V3.674z M6.102,1.006v1.679h13.673v19.169l1.775,0.004V1.006H6.102z
	 M2.574,6.248H16.25v19.17v1.68L0.8,27.079V6.248H2.574z M4.469,17.988c1.26,1.537,3.456,1.853,5.087,0.796l3.651,4.714l1.141-0.867
	l-4.027-4.5c1.266-1.393,1.355-3.538,0.126-5.038c-1.352-1.651-3.785-1.893-5.435-0.542C3.363,13.903,3.12,16.337,4.469,17.988z
	 M7.459,18.435c1.599,0,2.896-1.296,2.896-2.896s-1.296-2.896-2.896-2.896c-1.599,0-2.896,1.296-2.896,2.896
	S5.86,18.435,7.459,18.435z"/>
</svg>
