<?xml version="1.0" encoding="iso-8859-1"?>
<!-- Generator: Adobe Illustrator 16.0.0, SVG Export Plug-In . SVG Version: 6.00 Build 0)  -->
<!DOCTYPE svg PUBLIC "-//W3C//DTD SVG 1.1//EN" "http://www.w3.org/Graphics/SVG/1.1/DTD/svg11.dtd">
<svg version="1.1" id="Capa_1" xmlns="http://www.w3.org/2000/svg" xmlns:xlink="http://www.w3.org/1999/xlink" x="0px" y="0px"
	 width="29.825px" height="22.387px" viewBox="0 0 29.825 22.387" style="enable-background:new 0 0 29.825 22.387;"
	 xml:space="preserve">
<g>
	<path style="fill:#2D2D2D;" d="M18.498,17.754c-0.232-0.231-0.431-0.482-0.603-0.748h-1.312c0.318-0.186,0.672-0.344,1.05-0.471
		c-0.279-0.566-0.432-1.176-0.462-1.792c-1.159,0.36-2.096,0.977-2.79,1.594V4.704c0.19-0.286,0.601-0.861,1.225-1.412
		c0.861-0.754,2.058-1.446,3.661-1.446c1.651,0,2.909,0.741,3.798,1.526c0.438,0.391,0.771,0.786,0.992,1.08
		c0.078,0.1,0.142,0.191,0.189,0.261v5.903c0.283,0.181,0.552,0.391,0.797,0.638c1.631,1.643,1.771,4.201,0.426,6.003l1.751,1.613
		V6.086h-1.126V4.443L25.97,3.985c-0.034-0.054-0.584-1.01-1.683-1.991C23.195,1.018,21.499,0,19.267,0s-3.91,1.02-4.983,2.002
		c-0.33,0.305-0.61,0.603-0.839,0.876c-0.235-0.276-0.526-0.577-0.864-0.884C11.486,1.018,9.789,0,7.559,0
		C5.323,0,3.646,1.02,2.573,2.002c-1.078,0.985-1.603,1.944-1.635,2L0.822,4.443v1.643H0v13.7h26.201l-1.567-1.666
		C22.817,19.562,20.17,19.439,18.498,17.754z M4.873,17.006c0.728-0.429,1.614-0.742,2.686-0.744c1.066,0,1.964,0.313,2.711,0.744
		H4.873z M12.534,16.38c-1.09-0.964-2.771-1.957-4.976-1.957H7.555c-2.168,0-3.81,0.961-4.885,1.914V4.704
		c0.19-0.289,0.603-0.861,1.228-1.412c0.855-0.754,2.055-1.446,3.661-1.446c1.65,0,2.907,0.741,3.792,1.526
		c0.436,0.391,0.777,0.786,0.996,1.08c0.077,0.1,0.142,0.191,0.188,0.261V16.38z"/>
	<path style="fill:#2D2D2D;" d="M25.042,16.93c1.213-1.625,1.087-3.934-0.384-5.415c-1.621-1.63-4.252-1.638-5.884-0.019
		c-1.631,1.618-1.64,4.253-0.02,5.883c1.507,1.518,3.895,1.629,5.534,0.329l4.398,4.679l1.138-1.048L25.042,16.93z M23.904,16.66
		c-1.223,1.213-3.197,1.209-4.412-0.016c-1.215-1.221-1.205-3.196,0.017-4.411c1.221-1.216,3.197-1.209,4.41,0.015
		C25.137,13.472,25.128,15.447,23.904,16.66z"/>
	<path style="fill:#2D2D2D;" d="M3.776,6.054l0.427,0.368c0.118-0.137,2.939-3.307,7.216,0.037l0.348-0.442
		C7.073,2.344,3.81,6.018,3.776,6.054z"/>
	<path style="fill:#2D2D2D;" d="M3.776,7.943l0.427,0.368c0.118-0.137,2.939-3.309,7.216,0.036l0.348-0.442
		C7.073,4.232,3.81,7.905,3.776,7.943z"/>
	<path style="fill:#2D2D2D;" d="M3.776,9.954l0.427,0.369c0.118-0.136,2.939-3.306,7.216,0.038l0.348-0.442
		C7.073,6.244,3.81,9.919,3.776,9.954z"/>
	<path style="fill:#2D2D2D;" d="M15.262,5.203l0.424,0.369c0.119-0.136,2.939-3.307,7.217,0.038l0.346-0.443
		C18.556,1.492,15.292,5.167,15.262,5.203z"/>
	<path style="fill:#2D2D2D;" d="M15.262,7.094l0.424,0.368c0.119-0.137,2.939-3.306,7.217,0.038l0.346-0.443
		C18.556,3.383,15.292,7.057,15.262,7.094z"/>
	<path style="fill:#2D2D2D;" d="M15.262,9.104l0.424,0.369c0.119-0.136,2.939-3.308,7.217,0.038l0.346-0.443
		C18.556,5.396,15.292,9.068,15.262,9.104z"/>
</g>
<g>
</g>
<g>
</g>
<g>
</g>
<g>
</g>
<g>
</g>
<g>
</g>
<g>
</g>
<g>
</g>
<g>
</g>
<g>
</g>
<g>
</g>
<g>
</g>
<g>
</g>
<g>
</g>
<g>
</g>
</svg>
