<?xml version="1.0" encoding="iso-8859-1"?>
<!-- Generator: Adobe Illustrator 16.0.0, SVG Export Plug-In . SVG Version: 6.00 Build 0)  -->
<!DOCTYPE svg PUBLIC "-//W3C//DTD SVG 1.1//EN" "http://www.w3.org/Graphics/SVG/1.1/DTD/svg11.dtd">
<svg version="1.1" id="Capa_1" xmlns="http://www.w3.org/2000/svg" xmlns:xlink="http://www.w3.org/1999/xlink" x="0px" y="0px"
	 width="25.635px" height="29.887px" viewBox="0 0 25.635 29.887" style="enable-background:new 0 0 25.635 29.887;"
	 xml:space="preserve">
<g>
	<path style="fill:#2D2D2D;" d="M19.256,24.718c0.247-0.32,0.435-0.669,0.572-1.03c0.609-1.617,0.125-3.512-1.315-4.617
		c-1.762-1.354-4.297-1.02-5.646,0.741c-1.354,1.763-1.021,4.296,0.74,5.647c1.441,1.107,3.396,1.085,4.8,0.078
		C18.721,25.313,19.009,25.041,19.256,24.718z M18.439,23.163c-0.087,0.234-0.21,0.454-0.361,0.652
		c-0.152,0.195-0.333,0.371-0.535,0.515c-0.903,0.649-2.151,0.629-3.033-0.047c-1.112-0.854-1.322-2.457-0.469-3.568
		c0.855-1.111,2.456-1.323,3.568-0.469C18.49,20.922,18.83,22.123,18.439,23.163z"/>
	<path style="fill:#2D2D2D;" d="M25.178,27.795l-5.013-3.848c-0.138,0.36-0.326,0.706-0.573,1.029
		c-0.247,0.322-0.534,0.596-0.849,0.819l5.016,3.851c0.511,0.391,1.243,0.296,1.634-0.215
		C25.786,28.921,25.689,28.189,25.178,27.795z"/>
	<path style="fill:#2D2D2D;" d="M10.844,22.45c0-1.127,0.365-2.197,1.051-3.09c0.825-1.076,2.022-1.767,3.369-1.943
		c0.918-0.12,1.826,0.014,2.652,0.366c-0.167-0.461-0.289-0.735-0.289-0.735c-0.509-1.133-3.618-2.113-3.618-2.113
		c-1.66-0.584-1.672-1.168-1.672-1.168c-3.26,6.429-5.736,0.019-5.736,0.019c-0.229,0.867-3.585,1.885-3.585,1.885
		c-0.98,0.377-1.396,0.943-1.396,0.943C0.169,18.763,0,23.552,0,23.552c0.019,1.093,0.491,1.205,0.491,1.205
		c3.335,1.491,8.567,1.755,8.567,1.755c1.296,0.026,2.504-0.049,3.596-0.179C11.505,25.368,10.844,23.968,10.844,22.45z"/>
	<path style="fill:#2D2D2D;" d="M14.154,6.629l-0.538,0.68c-0.673,0.853-3.579,2.54-4.378,2.54c-0.679,0-2.793-1.376-3.59-2.337
		L5.105,6.857l0.077,0.847c0.032,0.331,0.075,0.669,0.139,1.027C5.256,8.76,5.2,8.803,5.156,8.863
		c-0.248,0.325-0.064,1.115,0.021,1.409c0.06,0.391,0.21,0.622,0.352,0.758c0.317,2.207,2.218,4.339,3.892,4.339
		c1.987,0,3.8-2.268,4.137-4.335c0.143-0.136,0.292-0.362,0.349-0.731c0.09-0.324,0.275-1.116,0.026-1.443
		c-0.021-0.03-0.048-0.057-0.078-0.08c0.087-0.301,0.192-0.767,0.231-1.288L14.154,6.629z M13.391,10.193
		c-0.049,0.315-0.167,0.441-0.231,0.488l-0.092,0.066l-0.016,0.11c-0.26,1.842-1.903,3.982-3.632,3.982
		c-1.438,0-3.145-2.007-3.383-3.977L6.021,10.75l-0.091-0.068c-0.065-0.049-0.186-0.175-0.241-0.521
		c-0.095-0.345-0.15-0.733-0.129-0.91l0.429,0.204L5.894,8.946C5.858,8.763,5.83,8.588,5.803,8.414
		c0.999,0.897,2.652,1.963,3.436,1.963c0.852,0,3.059-1.237,4.217-2.187c-0.065,0.32-0.142,0.569-0.183,0.693l-0.161,0.476
		l0.414-0.121C13.549,9.411,13.493,9.812,13.391,10.193z"/>
	<path style="fill:#2D2D2D;" d="M5.447,6.626c0.785,0.948,2.964,2.431,3.791,2.431c0.894,0,3.861-1.722,4.586-2.64
		c0.103-0.13,0.16-0.245,0.16-0.336c0-0.079-0.024-0.156-0.065-0.386L13.588,3.78l-0.381,0.227L9.531,6.198L5.926,4.007L5.553,3.78
		l-0.33,2.065c0-0.004,0.004-0.006,0.007-0.01c-0.047,0.08-0.073,0.16-0.073,0.245C5.156,6.219,5.265,6.408,5.447,6.626z"/>
	<polygon style="fill:#2D2D2D;" points="9.562,5.772 12.946,3.711 15.814,1.966 9.58,0 3.329,1.993 6.148,3.702 	"/>
	<polygon style="fill:#2D2D2D;" points="3.718,6.468 3.371,2.329 2.998,6.468 3.371,7.708 	"/>
</g>
<g>
</g>
<g>
</g>
<g>
</g>
<g>
</g>
<g>
</g>
<g>
</g>
<g>
</g>
<g>
</g>
<g>
</g>
<g>
</g>
<g>
</g>
<g>
</g>
<g>
</g>
<g>
</g>
<g>
</g>
</svg>
