<?xml version="1.0" encoding="iso-8859-1"?>
<!-- Generator: Adobe Illustrator 16.0.0, SVG Export Plug-In . SVG Version: 6.00 Build 0)  -->
<!DOCTYPE svg PUBLIC "-//W3C//DTD SVG 1.1//EN" "http://www.w3.org/Graphics/SVG/1.1/DTD/svg11.dtd">
<svg version="1.1" id="Capa_1" xmlns="http://www.w3.org/2000/svg" xmlns:xlink="http://www.w3.org/1999/xlink" x="0px" y="0px"
	 width="24.723px" height="27.58px" viewBox="0 0 24.723 27.58" style="enable-background:new 0 0 24.723 27.58;"
	 xml:space="preserve">
<g>
	<polygon style="fill:#2D2D2D;" points="6.914,21.089 6,20.287 8.27,18.993 3.664,19.286 4.577,20.087 2.249,21.329 	"/>
	<polygon style="fill:#2D2D2D;" points="2.237,24.351 3.681,25.615 0,27.58 7.374,27.203 5.93,25.937 9.518,23.892 	"/>
	<path style="fill:#2D2D2D;" d="M21.537,2.313c-3.878-3.398-9.798-3.007-13.194,0.874l-7.461,9.445l4.129,3.616l7.461-9.447
		c1.403-1.602,3.848-1.764,5.45-0.361c1.602,1.403,1.765,3.848,0.361,5.45l-8.379,8.644l4.128,3.615l8.379-8.643
		C25.808,11.627,25.415,5.708,21.537,2.313z M21.952,15.105l-5.383,5.523l-3.211-2.813l5.383-5.521
		c1.625-1.856,1.436-4.688-0.417-6.312c-1.855-1.625-4.687-1.437-6.311,0.418l-4.765,6.066L4.037,9.653l4.765-6.066
		c3.175-3.623,8.708-3.991,12.333-0.815C24.76,5.946,25.127,11.479,21.952,15.105z"/>
</g>
<g>
</g>
<g>
</g>
<g>
</g>
<g>
</g>
<g>
</g>
<g>
</g>
<g>
</g>
<g>
</g>
<g>
</g>
<g>
</g>
<g>
</g>
<g>
</g>
<g>
</g>
<g>
</g>
<g>
</g>
</svg>
