<?xml version="1.0" encoding="iso-8859-1"?>
<!-- Generator: Adobe Illustrator 16.0.0, SVG Export Plug-In . SVG Version: 6.00 Build 0)  -->
<!DOCTYPE svg PUBLIC "-//W3C//DTD SVG 1.1//EN" "http://www.w3.org/Graphics/SVG/1.1/DTD/svg11.dtd">
<svg version="1.1" id="Capa_1" xmlns="http://www.w3.org/2000/svg" xmlns:xlink="http://www.w3.org/1999/xlink" x="0px" y="0px"
	 width="27.708px" height="20.142px" viewBox="0 0 27.708 20.142" style="enable-background:new 0 0 27.708 20.142;"
	 xml:space="preserve">
<g>
	<g>
		<g>
			<polygon style="fill:#2D2D2D;" points="0,4.199 0,20.142 27.708,20.142 27.708,4.199 13.854,14.075 			"/>
		</g>
	</g>
	<g>
		<g>
			<path style="fill:#2D2D2D;" d="M13.854,12.269c-0.169,0-0.336-0.054-0.48-0.157L0.561,2.883C0.347,2.729,0.22,2.481,0.22,2.216
				V0.819C0.22,0.364,0.588,0,1.041,0h25.625c0.453,0,0.82,0.364,0.82,0.819v1.343c0,0.262-0.126,0.509-0.338,0.664l-12.813,9.285
				C14.191,12.215,14.022,12.269,13.854,12.269z M1.861,1.796l11.991,8.638l11.994-8.689V1.639H1.861V1.796z"/>
		</g>
	</g>
</g>
<g>
</g>
<g>
</g>
<g>
</g>
<g>
</g>
<g>
</g>
<g>
</g>
<g>
</g>
<g>
</g>
<g>
</g>
<g>
</g>
<g>
</g>
<g>
</g>
<g>
</g>
<g>
</g>
<g>
</g>
</svg>
