<?xml version="1.0" encoding="iso-8859-1"?>
<!-- Generator: Adobe Illustrator 16.0.0, SVG Export Plug-In . SVG Version: 6.00 Build 0)  -->
<!DOCTYPE svg PUBLIC "-//W3C//DTD SVG 1.1//EN" "http://www.w3.org/Graphics/SVG/1.1/DTD/svg11.dtd">
<svg version="1.1" id="Capa_1" xmlns="http://www.w3.org/2000/svg" xmlns:xlink="http://www.w3.org/1999/xlink" x="0px" y="0px"
	 width="26.465px" height="19.013px" viewBox="0 0 26.465 19.013" style="enable-background:new 0 0 26.465 19.013;"
	 xml:space="preserve">
<path style="fill:#2D2D2D;" d="M0,0v19.013h26.465V0H0z M24.335,13.975H13.366V4.269c1.538,0.081,2.768,1.343,2.768,2.9
	c-0.001,0.04-0.006,0.314,0,0.71c-0.027,1.157,0.018,3.347,0.72,3.867c0.021,0.022,0.077,0.074,0.165,0.139
	c0.003,0.001,0.006,0.005,0.009,0.006c0.316,0.224,1.086,0.601,2.72,0.601c0.357,0,0.752-0.019,1.194-0.061l-0.021-0.214
	c-3.107,0.287-3.903-0.614-3.91-0.622l-0.022-0.019c-0.295-0.21-0.461-0.822-0.551-1.542c-0.063-0.584-0.088-1.24-0.094-1.808
	c0.002-0.421,0.018-0.793,0.035-1.058c0-1.684-1.343-3.056-3.014-3.12V2.13h10.969V13.975z M13.099,2.13v1.919
	c-1.672,0.064-3.015,1.437-3.015,3.129c0.016,0.235,0.029,0.562,0.034,0.927c-0.011,0.919-0.069,2.103-0.271,2.823
	c-0.012,0.038-0.023,0.077-0.036,0.114c-0.005,0.012-0.009,0.026-0.015,0.04c-0.085,0.229-0.192,0.402-0.323,0.496l-0.021,0.019
	c-0.008,0.007-0.803,0.906-3.911,0.622l-0.021,0.214c0.441,0.042,0.837,0.061,1.194,0.061c2.133,0,2.802-0.646,2.894-0.747
	c0.704-0.521,0.749-2.718,0.721-3.87c0.006-0.394,0.001-0.668,0.001-0.708c0-1.557,1.23-2.82,2.768-2.9v9.706H2.13V2.13H13.099z
	 M2.13,14.242h10.969v2.64H2.13V14.242z M13.366,16.882v-2.64h10.969v2.64H13.366z"/>
<g>
</g>
<g>
</g>
<g>
</g>
<g>
</g>
<g>
</g>
<g>
</g>
<g>
</g>
<g>
</g>
<g>
</g>
<g>
</g>
<g>
</g>
<g>
</g>
<g>
</g>
<g>
</g>
<g>
</g>
</svg>
