<?xml version="1.0" encoding="iso-8859-1"?>
<!-- Generator: Adobe Illustrator 16.0.0, SVG Export Plug-In . SVG Version: 6.00 Build 0)  -->
<!DOCTYPE svg PUBLIC "-//W3C//DTD SVG 1.1//EN" "http://www.w3.org/Graphics/SVG/1.1/DTD/svg11.dtd">
<svg version="1.1" id="Capa_1" xmlns="http://www.w3.org/2000/svg" xmlns:xlink="http://www.w3.org/1999/xlink" x="0px" y="0px"
	 width="26.647px" height="26.646px" viewBox="0 0 26.647 26.646" style="enable-background:new 0 0 26.647 26.646;"
	 xml:space="preserve">
<path d="M14.426,0v11.867h12.222V0H14.426z M25.312,7.328h-3.314v3.381h-2.883V7.328h-3.357V4.443h3.357V1.158h2.883v3.285h3.314
	V7.328z"/>
<path d="M0,11.867h12.224V0H0V11.867z M2.709,4.535h7.364v2.797H2.709V4.535z"/>
<path d="M14.426,26.646h12.222V14.068H14.426V26.646z M16.854,16.762h7.364v2.795h-7.364V16.762z M16.854,21.567h7.364v2.795h-7.364
	V21.567z"/>
<path d="M0,26.646h12.224V14.068H0V26.646z M1.785,17.634l1.602-1.604c0,0,2.559,2.725,2.723,2.725c0.168,0,2.726-2.725,2.726-2.725
	l1.604,1.604c0,0-2.725,2.538-2.725,2.728c0,0.184,2.725,2.723,2.725,2.723l-1.604,1.601c0,0-2.536-2.724-2.726-2.724
	c-0.185,0-2.723,2.724-2.723,2.724l-1.602-1.601c0,0,2.723-2.5,2.723-2.723C4.508,20.134,1.785,17.634,1.785,17.634z"/>
<g>
</g>
<g>
</g>
<g>
</g>
<g>
</g>
<g>
</g>
<g>
</g>
<g>
</g>
<g>
</g>
<g>
</g>
<g>
</g>
<g>
</g>
<g>
</g>
<g>
</g>
<g>
</g>
<g>
</g>
</svg>
