<?xml version="1.0" encoding="utf-8"?>
<!-- Generator: Adobe Illustrator 17.0.0, SVG Export Plug-In . SVG Version: 6.00 Build 0)  -->
<!DOCTYPE svg PUBLIC "-//W3C//DTD SVG 1.1//EN" "http://www.w3.org/Graphics/SVG/1.1/DTD/svg11.dtd">
<svg version="1.1" id="Capa_1" xmlns="http://www.w3.org/2000/svg" xmlns:xlink="http://www.w3.org/1999/xlink" x="0px" y="0px"
	 width="29.514px" height="27.409px" viewBox="0 0 29.514 27.409" enable-background="new 0 0 29.514 27.409" xml:space="preserve">
<path fill="#2D2D2D" d="M4.511,23.079h15.095l0.71,0.71H3.619l0.092-0.43c0.856-3.954,4.414-6.824,8.461-6.824
	c0.321,0,0.637,0.025,0.95,0.06l0.868,0.869c-0.588-0.14-1.196-0.218-1.818-0.218C8.604,17.246,5.451,19.674,4.511,23.079z
	 M22.877,26.595h-0.733v-0.976l-0.064-0.064h-0.181v1.041h-0.664v-1.041H20.99v1.041h-0.617v-2.098h-0.246v2.098h-0.576v-1.041
	h-0.246v1.041h-0.733v-1.041h-0.245v1.041h-0.664v-1.041h-0.246v1.041h-0.675v-2.098h-0.246v2.098h-0.664v-1.041h-0.246v1.041
	h-0.733v-1.041H14.61v1.041h-0.664v-1.041H13.7v1.041h-0.675v-2.098H12.78v2.098h-0.609v-1.041h-0.246v1.041h-0.733v-1.041h-0.246
	v1.041h-0.664v-1.041h-0.246v1.041H9.421v-2.097l-0.245-0.001v2.098H8.6v-1.041H8.354v1.041H7.621v-1.041H7.376v1.041H6.712v-1.041
	H6.466v1.041H5.792v-2.098l-0.245,0.001l-0.001,2.097H4.883v-1.041H4.637v1.041H3.904v-1.041H3.658v1.041H2.995v-1.041H2.749v1.041
	H2.074v-2.097H1.829v2.097h-1.12v-1.402c0-5.719,4.213-10.458,9.697-11.313l-0.622-0.622C4.212,14.372,0,19.298,0,25.193v2.112
	h23.75l-0.873-0.953V26.595z M17.755,10.138l-0.992-0.993l0.317-0.317l0.486,0.488l0.118-0.118L17.197,8.71l0.351-0.35l0.487,0.488
	l0.118-0.118l-0.487-0.488l0.318-0.318l0.487,0.488l0.117-0.117L18.1,7.808l0.324-0.324l0.992,0.993l0.118-0.118L18.54,7.368
	l0.223-0.222l0.486,0.487l0.118-0.118l-0.486-0.488l0.35-0.35l0.487,0.488l0.118-0.119L19.348,6.56l0.318-0.317l0.487,0.487
	l0.117-0.117l-0.487-0.487l0.295-0.296l0.992,0.993l0.118-0.117l-0.993-0.992l0.275-0.276l0.488,0.488l0.118-0.118L20.588,5.32
	l0.352-0.351l0.488,0.487l0.117-0.117l-0.488-0.487l0.318-0.318l0.487,0.488l0.118-0.118l-0.487-0.487l0.322-0.322l0.993,0.992
	l0.118-0.118l-0.993-0.992l0.317-0.316l0.487,0.487l0.118-0.118l-0.487-0.487l0.35-0.351l0.487,0.488l0.118-0.119l-0.487-0.487
	l0.317-0.317l0.487,0.488l0.118-0.119L23.27,2.637l0.323-0.323l0.992,0.993l0.119-0.118L23.71,2.197l1.094-1.093v16.235l0.646,0.646
	V0.323c0-0.13-0.078-0.249-0.199-0.299c-0.121-0.05-0.26-0.022-0.351,0.07l-8.67,8.669l1.449,1.45L17.755,10.138z M22.865,15.4
	V6.563c0-0.13-0.078-0.249-0.2-0.298c-0.121-0.051-0.258-0.023-0.352,0.07l-4.256,4.257l0.457,0.457l3.705-3.706v7.411L22.865,15.4z
	 M29.345,23.297l-3.94,3.941c-0.227,0.226-0.594,0.226-0.82-0.001L7.939,10.593c-0.226-0.227-0.227-0.593,0-0.82l3.94-3.94
	c0.226-0.227,0.593-0.227,0.82,0l16.644,16.646C29.571,22.705,29.571,23.072,29.345,23.297z M28.957,22.889L12.291,6.223
	l-3.962,3.961l1.067,1.068l2.982-2.982l0.345,0.344l-2.982,2.983l0.953,0.953l1.491-1.491l0.346,0.346l-1.491,1.491l0.937,0.937
	l1.491-1.492l0.346,0.348l-1.491,1.49l1.034,1.036l1.492-1.492l0.346,0.346l-1.491,1.491l0.937,0.936l2.982-2.981l0.346,0.346
	l-2.982,2.983l0.953,0.952l1.491-1.491l0.346,0.346l-1.491,1.491l0.936,0.937l1.492-1.491l0.346,0.347l-1.491,1.49l1.034,1.036
	l1.492-1.492l0.347,0.348l-1.491,1.492l0.813,0.812l2.981-2.982l0.347,0.347l-2.982,2.982l0.871,0.871l1.491-1.491l0.346,0.346
	l-1.491,1.491l0.937,0.937l1.491-1.491l0.347,0.347l-1.491,1.491l1.035,1.035l1.492-1.491l0.346,0.346l-1.49,1.491l0.999,1
	L28.957,22.889z"/>
</svg>
