<?xml version="1.0" encoding="iso-8859-1"?>
<!-- Generator: Adobe Illustrator 16.0.0, SVG Export Plug-In . SVG Version: 6.00 Build 0)  -->
<!DOCTYPE svg PUBLIC "-//W3C//DTD SVG 1.1//EN" "http://www.w3.org/Graphics/SVG/1.1/DTD/svg11.dtd">
<svg version="1.1" id="Capa_1" xmlns="http://www.w3.org/2000/svg" xmlns:xlink="http://www.w3.org/1999/xlink" x="0px" y="0px"
	 width="26.751px" height="25.27px" viewBox="0 0 26.751 25.27" style="enable-background:new 0 0 26.751 25.27;"
	 xml:space="preserve">
<g>
	<g>
		<circle style="fill:#2D2D2D;" cx="2.075" cy="2.429" r="2.075"/>
	</g>
	<g>
		<path style="fill:#2D2D2D;" d="M9.981,23.833c0,0.782-0.645,1.419-1.436,1.419c-0.796,0-1.438-0.637-1.438-1.419l0.003-7.292H0.94
			c-0.164,0-0.297-0.128-0.297-0.296V5.896c0-0.166,0.133-0.299,0.297-0.299h2.269c0.162,0,0.297,0.134,0.297,0.299v7.786h6.169
			c0.165,0,0.296,0.131,0.296,0.299L9.981,23.833z"/>
	</g>
	<g>
		<circle style="fill:#2D2D2D;" cx="24.676" cy="2.445" r="2.075"/>
	</g>
	<g>
		<path style="fill:#2D2D2D;" d="M16.771,23.85c0,0.782,0.642,1.42,1.434,1.42c0.794,0,1.438-0.638,1.438-1.42L19.64,16.56h6.169
			c0.164,0,0.298-0.134,0.298-0.3V5.912c0-0.166-0.134-0.299-0.298-0.299h-2.265c-0.163,0-0.3,0.133-0.3,0.299v7.787h-6.17
			c-0.164,0-0.3,0.132-0.3,0.296L16.771,23.85z"/>
	</g>
	<g>
		<g>
			<path style="fill:#2D2D2D;" d="M12.383,12.447H6.908v-1.978h13.329v1.978h-5.5V25.27h-2.354V12.447z"/>
		</g>
	</g>
	<g>
		<g>
			<circle style="fill:#2D2D2D;" cx="13.822" cy="2.109" r="2.109"/>
		</g>
		<g>
			<path style="fill:#2D2D2D;" d="M10.588,7.344h0.559l-0.002,2.547h5.334v-2.57h0.577v2.57h1.78V6.955
				c-0.194-2.311-2.878-2.278-2.878-2.278H11.73C8.697,4.732,8.808,6.955,8.808,6.955v2.936h1.78V7.344z"/>
		</g>
	</g>
</g>
<g>
</g>
<g>
</g>
<g>
</g>
<g>
</g>
<g>
</g>
<g>
</g>
<g>
</g>
<g>
</g>
<g>
</g>
<g>
</g>
<g>
</g>
<g>
</g>
<g>
</g>
<g>
</g>
<g>
</g>
</svg>
