<?xml version="1.0" encoding="iso-8859-1"?>
<!-- Generator: Adobe Illustrator 16.0.0, SVG Export Plug-In . SVG Version: 6.00 Build 0)  -->
<!DOCTYPE svg PUBLIC "-//W3C//DTD SVG 1.1//EN" "http://www.w3.org/Graphics/SVG/1.1/DTD/svg11.dtd">
<svg version="1.1" id="Capa_1" xmlns="http://www.w3.org/2000/svg" xmlns:xlink="http://www.w3.org/1999/xlink" x="0px" y="0px"
	 width="17.563px" height="24.03px" viewBox="0 0 17.563 24.03" style="enable-background:new 0 0 17.563 24.03;"
	 xml:space="preserve">
<g>
	<rect x="7.562" style="fill:#2D2D2D;" width="4.98" height="1.578"/>
	<path style="fill:#2D2D2D;" d="M5.558,20.843h8.99v-3.354h-0.642v-0.571H6.2v0.571H5.979c-2.575-1.102-4.38-3.658-4.38-6.637
		c0-3.798,2.94-6.907,6.668-7.188v7.188H6.2v0.572h0.479c-0.057,0.124-0.091,0.26-0.091,0.404v1.666
		c0,0.537,0.437,0.976,0.975,0.976c0.539,0,0.974-0.438,0.974-0.976v-1.666c0-0.144-0.033-0.28-0.089-0.404h0.729
		c-0.061,0.129-0.1,0.271-0.1,0.422v2.808c0,0.537,0.437,0.973,0.976,0.973c0.539,0,0.976-0.436,0.976-0.973v-2.808
		c0-0.151-0.039-0.293-0.1-0.422h0.729c-0.056,0.124-0.09,0.26-0.09,0.404v1.666c0,0.537,0.436,0.976,0.975,0.976
		c0.538,0,0.975-0.438,0.975-0.976v-1.666c0-0.144-0.034-0.28-0.091-0.404h0.479v-0.572H11.84V1.639H8.267v0.426
		C3.655,2.351,0,6.169,0,10.852c0,3.718,2.302,6.891,5.558,8.187V20.843z"/>
	<path style="fill:#2D2D2D;" d="M2.542,21.509v2.521h15.021v-2.521H2.542z M16.969,23.436H3.136v-1.333h13.833V23.436z"/>
</g>
<g>
</g>
<g>
</g>
<g>
</g>
<g>
</g>
<g>
</g>
<g>
</g>
<g>
</g>
<g>
</g>
<g>
</g>
<g>
</g>
<g>
</g>
<g>
</g>
<g>
</g>
<g>
</g>
<g>
</g>
</svg>
