<?xml version="1.0" encoding="iso-8859-1"?>
<!-- Generator: Adobe Illustrator 16.0.0, SVG Export Plug-In . SVG Version: 6.00 Build 0)  -->
<!DOCTYPE svg PUBLIC "-//W3C//DTD SVG 1.1//EN" "http://www.w3.org/Graphics/SVG/1.1/DTD/svg11.dtd">
<svg version="1.1" id="Capa_1" xmlns="http://www.w3.org/2000/svg" xmlns:xlink="http://www.w3.org/1999/xlink" x="0px" y="0px"
	 width="21.286px" height="27.856px" viewBox="0 0 21.286 27.856" style="enable-background:new 0 0 21.286 27.856;"
	 xml:space="preserve">
<path style="fill:#2D2D2D;" d="M20.551,17.538c-0.668-0.346-1.49-0.085-1.835,0.581c-0.049,0.094-0.082,0.191-0.108,0.289
	l-1.261-0.054c-0.058-0.302-0.174-0.596-0.373-0.859c-0.592-0.787-1.634-1.03-2.498-0.65l-2.91-4.749
	c1-0.813,1.189-2.273,0.407-3.312c-0.566-0.755-1.492-1.071-2.361-0.914L7.813,2.967c0.052-0.03,0.106-0.06,0.157-0.096
	c0.704-0.529,0.845-1.529,0.313-2.234C7.756-0.068,6.755-0.209,6.051,0.32C5.348,0.85,5.207,1.851,5.735,2.556
	C6.109,3.051,6.714,3.26,7.284,3.16L9.07,8.033c-0.164,0.072-0.324,0.16-0.474,0.272C8.164,8.631,7.881,9.076,7.74,9.557
	L3.175,8.266c0.055-0.554-0.177-1.12-0.666-1.461C1.785,6.3,0.792,6.475,0.288,7.198c-0.505,0.72-0.33,1.717,0.393,2.221
	c0.723,0.505,1.717,0.33,2.223-0.394c0.049-0.068,0.084-0.143,0.121-0.217l4.624,1.31c-0.026,0.543,0.118,1.097,0.471,1.565
	c0.121,0.16,0.264,0.296,0.412,0.417l-0.485,0.91c-0.396-0.115-0.84-0.052-1.194,0.216c-0.601,0.452-0.721,1.305-0.269,1.906
	c0.45,0.601,1.304,0.721,1.904,0.269c0.602-0.451,0.722-1.305,0.271-1.906c-0.063-0.082-0.137-0.155-0.213-0.221L9.012,12.4
	c0.648,0.308,1.415,0.327,2.081,0.004l2.904,4.738c-0.727,0.593-0.949,1.579-0.597,2.413l-3.603,2.141
	c-0.438-0.461-1.158-0.535-1.68-0.143c-0.562,0.422-0.675,1.22-0.253,1.78c0.421,0.562,1.219,0.675,1.78,0.251
	c0.446-0.334,0.604-0.902,0.44-1.404l3.602-2.141c0.098,0.124,0.211,0.231,0.331,0.328l-2.901,4.872
	c-0.406-0.138-0.869-0.08-1.238,0.196c-0.595,0.448-0.714,1.29-0.266,1.884c0.445,0.594,1.289,0.713,1.881,0.266
	c0.593-0.446,0.715-1.289,0.269-1.882c-0.05-0.064-0.104-0.123-0.163-0.176l2.902-4.874c0.659,0.279,1.445,0.217,2.061-0.245
	c0.494-0.371,0.766-0.919,0.813-1.488l1.21,0.05c0.069,0.408,0.318,0.779,0.713,0.984c0.667,0.345,1.488,0.085,1.833-0.584
	C21.479,18.704,21.217,17.882,20.551,17.538z"/>
<g>
</g>
<g>
</g>
<g>
</g>
<g>
</g>
<g>
</g>
<g>
</g>
<g>
</g>
<g>
</g>
<g>
</g>
<g>
</g>
<g>
</g>
<g>
</g>
<g>
</g>
<g>
</g>
<g>
</g>
</svg>
