<?xml version="1.0" encoding="iso-8859-1"?>
<!-- Generator: Adobe Illustrator 16.0.0, SVG Export Plug-In . SVG Version: 6.00 Build 0)  -->
<!DOCTYPE svg PUBLIC "-//W3C//DTD SVG 1.1//EN" "http://www.w3.org/Graphics/SVG/1.1/DTD/svg11.dtd">
<svg version="1.1" id="Capa_1" xmlns="http://www.w3.org/2000/svg" xmlns:xlink="http://www.w3.org/1999/xlink" x="0px" y="0px"
	 width="27.2px" height="22.368px" viewBox="0 0 27.2 22.368" style="enable-background:new 0 0 27.2 22.368;" xml:space="preserve"
	>
<g>
	<path style="fill:#2D2D2D;" d="M26.964,0.161l-1.003,0.511c0.074,0.146,0.162,0.484,0.08,0.585
		c-0.003,0.002-0.354,0.384-2.348-0.232c-1.522-0.472-2.773-0.388-3.718,0.247c-0.667,0.448-1.041,1.083-1.252,1.623l-0.438-0.431
		l-0.06-0.05c-3.205-2.362-6.151-3.613-8.965-0.799L6.464,4.41L5.907,4.967l-3.53,3.53c-3.168,3.171-3.168,8.326,0,11.495
		c3.169,3.168,8.325,3.168,11.494-0.002l3.556-3.553l0.526-0.529l2.403-2.401c2.878-2.879,1.978-6.283-0.509-9.507l-0.023-0.031
		l-0.196-0.19c0.086-0.386,0.329-1.137,0.975-1.572c0.648-0.435,1.576-0.471,2.757-0.105c1.863,0.577,2.989,0.539,3.542-0.121
		C27.501,1.268,27.021,0.272,26.964,0.161z M13.073,19.195c-2.729,2.729-7.17,2.729-9.9,0s-2.729-7.171,0-9.9l2.948-2.948
		c1.225,2.499,2.722,4.642,4.455,6.373c2.028,2.028,3.992,3.104,5.316,3.656L13.073,19.195z M19.559,12.711l-2.437,2.438
		c-2.05-0.73-3.935-1.946-5.608-3.619v-0.002c-2.248-2.246-3.6-4.792-4.271-6.302l2.814-2.813c2.414-2.414,4.71-1.124,7.47,0.888
		l1.453,1.419C21.096,7.493,22.029,10.24,19.559,12.711z"/>
	<path style="fill:#2D2D2D;" d="M14.837,4.886l-2.533,2.531c-0.731,0.731-0.731,1.919-0.001,2.65
		c0.729,0.729,1.918,0.727,2.647-0.002l2.533-2.533c0.729-0.731,0.73-1.919,0-2.646C16.754,4.155,15.566,4.155,14.837,4.886z
		 M16.687,6.735l-2.533,2.533c-0.291,0.29-0.764,0.292-1.054,0.002c-0.291-0.293-0.291-0.766,0-1.057l2.532-2.533
		c0.292-0.29,0.765-0.29,1.055,0C16.978,5.972,16.977,6.444,16.687,6.735z"/>
</g>
<g>
</g>
<g>
</g>
<g>
</g>
<g>
</g>
<g>
</g>
<g>
</g>
<g>
</g>
<g>
</g>
<g>
</g>
<g>
</g>
<g>
</g>
<g>
</g>
<g>
</g>
<g>
</g>
<g>
</g>
</svg>
