<?xml version="1.0" encoding="iso-8859-1"?>
<!-- Generator: Adobe Illustrator 16.0.0, SVG Export Plug-In . SVG Version: 6.00 Build 0)  -->
<!DOCTYPE svg PUBLIC "-//W3C//DTD SVG 1.1//EN" "http://www.w3.org/Graphics/SVG/1.1/DTD/svg11.dtd">
<svg version="1.1" id="Capa_1" xmlns="http://www.w3.org/2000/svg" xmlns:xlink="http://www.w3.org/1999/xlink" x="0px" y="0px"
	 width="21.153px" height="24.55px" viewBox="0 0 21.153 24.55" style="enable-background:new 0 0 21.153 24.55;"
	 xml:space="preserve">
<g>
	<g>
		<g>
			<path style="fill:#2D2D2D;" d="M19.737,21.093h-2.439c-0.215,0-0.391-0.174-0.391-0.39V8.088c0-0.216,0.176-0.39,0.391-0.39
				h2.439c0.216,0,0.388,0.174,0.388,0.39v12.615C20.125,20.919,19.953,21.093,19.737,21.093z M17.688,20.314h1.66V8.478h-1.66
				V20.314z"/>
		</g>
	</g>
	<g>
		<g>
			<path style="fill:#2D2D2D;" d="M20.407,7.167H0.744c-0.17,0-0.322-0.112-0.373-0.276c-0.05-0.166,0.017-0.343,0.158-0.439
				l9.688-6.387c0.129-0.084,0.298-0.086,0.425-0.004l9.976,6.389c0.146,0.093,0.213,0.271,0.165,0.438
				C20.734,7.053,20.581,7.167,20.407,7.167z"/>
		</g>
	</g>
	<g>
		<g>
			<path style="fill:#2D2D2D;" d="M3.856,21.093H1.418c-0.216,0-0.393-0.174-0.393-0.39V8.088c0-0.216,0.177-0.39,0.393-0.39h2.438
				c0.214,0,0.389,0.174,0.389,0.39v12.615C4.245,20.919,4.07,21.093,3.856,21.093z M1.808,20.314h1.658V8.478H1.808V20.314z"/>
		</g>
	</g>
	<g>
		<g>
			<path style="fill:#2D2D2D;" d="M8.986,21.093H6.547c-0.215,0-0.389-0.174-0.389-0.39V8.088c0-0.216,0.174-0.39,0.389-0.39h2.439
				c0.214,0,0.389,0.174,0.389,0.39v12.615C9.375,20.919,9.2,21.093,8.986,21.093z M6.938,20.314h1.658V8.478H6.938V20.314z"/>
		</g>
	</g>
	<g>
		<g>
			<path style="fill:#2D2D2D;" d="M14.419,21.093h-2.439c-0.215,0-0.391-0.174-0.391-0.39V8.088c0-0.216,0.176-0.39,0.391-0.39
				h2.439c0.215,0,0.389,0.174,0.389,0.39v12.615C14.808,20.919,14.634,21.093,14.419,21.093z M12.368,20.314h1.66V8.478h-1.66
				V20.314z"/>
		</g>
	</g>
	<g>
		<g>
			<path style="fill:#2D2D2D;" d="M20.764,24.55H0.391C0.175,24.55,0,24.374,0,24.159v-2.271c0-0.216,0.175-0.391,0.391-0.391
				h20.373c0.214,0,0.39,0.175,0.39,0.391v2.271C21.153,24.374,20.978,24.55,20.764,24.55z"/>
		</g>
	</g>
</g>
<g>
</g>
<g>
</g>
<g>
</g>
<g>
</g>
<g>
</g>
<g>
</g>
<g>
</g>
<g>
</g>
<g>
</g>
<g>
</g>
<g>
</g>
<g>
</g>
<g>
</g>
<g>
</g>
<g>
</g>
</svg>
