<?xml version="1.0" encoding="iso-8859-1"?>
<!-- Generator: Adobe Illustrator 16.0.0, SVG Export Plug-In . SVG Version: 6.00 Build 0)  -->
<!DOCTYPE svg PUBLIC "-//W3C//DTD SVG 1.1//EN" "http://www.w3.org/Graphics/SVG/1.1/DTD/svg11.dtd">
<svg version="1.1" id="Capa_1" xmlns="http://www.w3.org/2000/svg" xmlns:xlink="http://www.w3.org/1999/xlink" x="0px" y="0px"
	 width="20.351px" height="20.351px" viewBox="0 0 20.351 20.351" style="enable-background:new 0 0 20.351 20.351;"
	 xml:space="preserve">
<g>
	<g>
		<g>
			<path style="fill:#2D2D2D;" d="M19.657,20.351H0.692C0.31,20.351,0,20.041,0,19.658V0.693C0,0.31,0.31,0,0.692,0h18.965
				c0.385,0,0.693,0.31,0.693,0.693v18.965C20.351,20.041,20.042,20.351,19.657,20.351z M1.386,18.965h17.579V1.386H1.386V18.965z"
				/>
		</g>
	</g>
	<g id="_x3C_Group_x3E__19_">
		<g>
			<path style="fill:#2D2D2D;" d="M13.864,4.653L7.598,5.668v7.538c-0.33-0.115-0.722-0.135-1.122-0.036
				c-0.89,0.222-1.47,0.955-1.299,1.637c0.099,0.631,1.03,1.053,1.918,0.831c0.779-0.194,1.323-0.787,1.327-1.388h0.001l0.022-6.368
				l4.593-0.84v5.119c-0.335-0.118-0.732-0.139-1.139-0.039c-0.899,0.226-1.487,0.964-1.315,1.654
				c0.173,0.689,1.039,1.064,1.938,0.842c0.817-0.208,1.342-0.768,1.342-1.471V4.653z"/>
		</g>
	</g>
</g>
<g>
</g>
<g>
</g>
<g>
</g>
<g>
</g>
<g>
</g>
<g>
</g>
<g>
</g>
<g>
</g>
<g>
</g>
<g>
</g>
<g>
</g>
<g>
</g>
<g>
</g>
<g>
</g>
<g>
</g>
</svg>
