<?xml version="1.0" encoding="iso-8859-1"?>
<!-- Generator: Adobe Illustrator 16.0.0, SVG Export Plug-In . SVG Version: 6.00 Build 0)  -->
<!DOCTYPE svg PUBLIC "-//W3C//DTD SVG 1.1//EN" "http://www.w3.org/Graphics/SVG/1.1/DTD/svg11.dtd">
<svg version="1.1" id="Capa_1" xmlns="http://www.w3.org/2000/svg" xmlns:xlink="http://www.w3.org/1999/xlink" x="0px" y="0px"
	 width="32.454px" height="23.841px" viewBox="0 0 32.454 23.841" style="enable-background:new 0 0 32.454 23.841;"
	 xml:space="preserve">
<g>
	<g>
		<g>
			<path style="fill:#2D2D2D;" d="M13.908,12.497c-0.168,0-0.336-0.051-0.48-0.154L0.341,2.916C0.127,2.761,0,2.515,0,2.251V0.822
				C0,0.368,0.368,0,0.821,0h26.174c0.453,0,0.821,0.368,0.821,0.822v1.372c0,0.262-0.126,0.511-0.339,0.663L14.39,12.343
				C14.246,12.446,14.077,12.497,13.908,12.497z M1.642,1.829l12.265,8.836l12.268-8.89V1.642H1.642V1.829z"/>
		</g>
	</g>
	<g>
		<g>
			<path style="fill:#2D2D2D;" d="M27.761,9.369V4.315l-13.854,9.878L0.055,4.315v15.942h18.494
				c1.322,2.146,3.687,3.583,6.394,3.583c4.148,0,7.511-3.362,7.511-7.513C32.454,13.18,30.512,10.483,27.761,9.369z M24.942,21.685
				c-1.403,0-2.676-0.543-3.632-1.427c-1.058-0.977-1.724-2.373-1.724-3.93c0-2.959,2.397-5.354,5.356-5.354
				c1.036,0,1.999,0.301,2.819,0.81c1.521,0.943,2.537,2.623,2.537,4.545C30.298,19.287,27.899,21.685,24.942,21.685z"/>
		</g>
	</g>
	<g>
		<g>
			<polygon style="fill:#2D2D2D;" points="26.052,12.522 23.789,12.522 23.789,15.104 21.154,15.104 21.154,17.368 23.789,17.368 
				23.789,20.024 26.052,20.024 26.052,17.368 28.655,17.368 28.655,15.104 26.052,15.104 			"/>
		</g>
	</g>
</g>
<g>
</g>
<g>
</g>
<g>
</g>
<g>
</g>
<g>
</g>
<g>
</g>
<g>
</g>
<g>
</g>
<g>
</g>
<g>
</g>
<g>
</g>
<g>
</g>
<g>
</g>
<g>
</g>
<g>
</g>
</svg>
