<?xml version="1.0" encoding="iso-8859-1"?>
<!-- Generator: Adobe Illustrator 16.0.0, SVG Export Plug-In . SVG Version: 6.00 Build 0)  -->
<!DOCTYPE svg PUBLIC "-//W3C//DTD SVG 1.1//EN" "http://www.w3.org/Graphics/SVG/1.1/DTD/svg11.dtd">
<svg version="1.1" id="Capa_1" xmlns="http://www.w3.org/2000/svg" xmlns:xlink="http://www.w3.org/1999/xlink" x="0px" y="0px"
	 width="29.495px" height="18.811px" viewBox="0 0 29.495 18.811" style="enable-background:new 0 0 29.495 18.811;"
	 xml:space="preserve">
<g>
	<path style="fill:#2D2D2D;" d="M1.918,0.748C0.94,1.263,0.407,2.253,0.452,3.331c0.192,4.69-0.026,9.393-0.445,14.066
		c-0.087,0.971,0.68,1.609,1.619,1.358c1.004-0.27,1.849-1.277,1.941-2.312c0.446-4.982,0.616-9.969,0.41-14.967
		C3.933,0.41,2.603,0.388,1.918,0.748z"/>
	<path style="fill:#2D2D2D;" d="M18.426,13.856c-1.746-0.788-2.995-1.04-2.995-1.04c-0.882-0.128-1.763-0.136-2.634-0.053
		c1.005-1.424,1.759-2.999,2.089-4.752c0.729-3.868-2.414-6.497-5.601-7.867C7.537-0.607,5.233,2.943,7.248,3.809
		c2.102,0.904,4.38,2.459,4.111,4.94c-0.092,0.851-0.644,1.82-1.218,2.591c-0.972,1.304-2.19,2.373-3.468,3.365
		c-0.656,0.509-1.175,1.439-1.024,2.289c0.188,1.062,1.262,1.089,2.059,0.729c2.098-0.952,4.358-1.478,6.661-1.089
		c2.194,0.365,2.019,0.888,2.019,0.888S20.459,14.655,18.426,13.856z"/>
	<path style="fill:#2D2D2D;" d="M28.027,6.444c-0.929-0.871-2.159-1.208-3.439-1.257c0.542-1.052,0.764-2.192,0.346-3.347
		c-0.895-2.469-4.661-1.877-6.572-1.474c-1.885,0.397-2.905,4.214-0.322,3.67c0.85-0.177,1.679-0.274,2.547-0.216
		c0.271,0.019,0.536,0.121,0.785,0.22c0.028,0.015,0.166,0.136,0.196,0.184c0.005,0.01,0.008,0.017,0.012,0.024
		c-0.003,0.028-0.006,0.051-0.008,0.072c0,0-0.001,0-0.001,0.002c0.002-0.021,0.005-0.044,0.008-0.068
		c-0.009,0.033-0.017,0.062-0.022,0.087c-0.021,0.027-0.05,0.074-0.097,0.162c-0.26,0.475-1.044,1.183-1.651,1.675
		c-0.648,0.523-1.177,1.425-1.023,2.288c0.139,0.785,0.881,1.097,1.602,0.908c1.026-0.268,2.025-0.436,3.088-0.369
		c0.55,0.031,1.265,0.293,1.612,0.548c0.101,0.074,0.193,0.161,0.284,0.247c0.045,0.042,0.075,0.07,0.097,0.089
		c0.001,0.007,0.012,0.026,0.038,0.062c0.093,0.128,0.167,0.27,0.238,0.412c0.029,0.055,0.049,0.093,0.063,0.119
		c0.003,0.011,0.006,0.024,0.012,0.045c0.064,0.215,0.1,0.438,0.122,0.663c-0.013-0.092-0.004,0.273-0.009,0.354
		c-0.009,0.138-0.029,0.277-0.052,0.414c0.041-0.293-0.142,0.472-0.2,0.626c-0.003,0.01-0.005,0.014-0.007,0.019
		c-0.014,0.029-0.031,0.063-0.055,0.109c-0.076,0.149-0.163,0.297-0.252,0.442c-0.001,0.001-0.001,0.001-0.003,0.003
		c-0.103,0.14-0.218,0.27-0.334,0.399c-0.026,0.021-0.056,0.045-0.099,0.083c-0.042,0.038-0.161,0.122-0.242,0.183
		c-0.204,0.104-0.514,0.245-0.513,0.257c-0.127,0.039-0.257,0.071-0.388,0.102c-0.018,0.004-0.032,0.004-0.047,0.008
		c-0.067,0.006-0.133,0.013-0.2,0.015c-0.767,0.041-1.337-0.15-2.186-0.6c-1.664-0.874-3.989,2.639-2.038,3.668
		c4.22,2.218,8.925-1.192,9.957-5.436C29.742,9.919,29.53,7.854,28.027,6.444z M21.59,4.315c0-0.002,0-0.002-0.001-0.004
		c-0.003-0.012-0.006-0.032-0.006-0.059C21.614,4.315,21.6,4.346,21.59,4.315z"/>
</g>
<g>
</g>
<g>
</g>
<g>
</g>
<g>
</g>
<g>
</g>
<g>
</g>
<g>
</g>
<g>
</g>
<g>
</g>
<g>
</g>
<g>
</g>
<g>
</g>
<g>
</g>
<g>
</g>
<g>
</g>
</svg>
