<?xml version="1.0" encoding="iso-8859-1"?>
<!-- Generator: Adobe Illustrator 16.0.0, SVG Export Plug-In . SVG Version: 6.00 Build 0)  -->
<!DOCTYPE svg PUBLIC "-//W3C//DTD SVG 1.1//EN" "http://www.w3.org/Graphics/SVG/1.1/DTD/svg11.dtd">
<svg version="1.1" id="Capa_1" xmlns="http://www.w3.org/2000/svg" xmlns:xlink="http://www.w3.org/1999/xlink" x="0px" y="0px"
	 width="34.775px" height="28.599px" viewBox="0 0 34.775 28.599" style="enable-background:new 0 0 34.775 28.599;"
	 xml:space="preserve">
<g>
	<path style="fill:#2D2D2D;" d="M22.976,11.083c-6.053,2.913-10.901,0-10.901,0c-0.288,0-0.044,0.901,0.039,1.177L16.635,26.9
		c0.117,0.381,0.468,0.641,0.868,0.641h0.044c0.399,0,0.752-0.26,0.867-0.641l4.521-14.641
		C22.935,12.26,23.561,10.797,22.976,11.083z"/>
	<path style="fill:#2D2D2D;" d="M15.78,10.581h0.646c-2.283-4.796,1.56-5.291,1.56-5.291c-1.164,1.021,0.68,2.282,0.68,2.282
		c1.555,0.971,0,3.009,0,3.009h1.262C25.074,0.681,15.003,0,15.003,0s1.222,1.443-1.761,4.84C10.26,8.239,15.78,10.581,15.78,10.581
		z"/>
	<path style="fill:#2D2D2D;" d="M28.785,19.787c0.766-1.805,1.005-3.893,0.393-5.768c-0.364-1.165-0.994-2.199-1.765-3.113
		c0.53-0.294,0.552-1.313,0.048-2.281c-0.505-0.966-2.389-2.2-2.389-2.2s-0.042,2.29,0.464,3.259
		c0.473,0.91,1.241,1.439,1.773,1.256c0.731,0.95,1.307,2.006,1.606,3.155c0.501,1.833,0.176,3.788-0.63,5.473
		c-0.801,1.7-2,3.192-3.336,4.521c-1.34,1.323-2.843,2.521-4.412,3.515l0.588,0.918c1.627-1.141,3.081-2.428,4.412-3.865
		C26.854,23.216,28.029,21.608,28.785,19.787z"/>
	<path style="fill:#2D2D2D;" d="M31.535,13.192c1.033-0.348,2.549-2.015,2.549-2.015s-2.257-0.4-3.292-0.051
		c-1.036,0.347-1.707,1.092-1.501,1.664C29.496,13.359,30.501,13.541,31.535,13.192z"/>
	<path style="fill:#2D2D2D;" d="M26.048,13.693c0.97,0.503,1.99,0.482,2.28-0.05c0.294-0.531-0.256-1.371-1.223-1.874
		c-0.968-0.507-3.259-0.466-3.259-0.466S25.083,13.187,26.048,13.693z"/>
	<path style="fill:#2D2D2D;" d="M28.324,17.343c0.322-0.514-0.173-1.386-1.11-1.946c-0.937-0.561-3.226-0.655-3.226-0.655
		s1.121,1.952,2.057,2.515C26.982,17.816,28.001,17.857,28.324,17.343z"/>
	<path style="fill:#2D2D2D;" d="M26.569,20.868c0.429-0.43,0.136-1.39-0.653-2.144c-0.789-0.756-3.001-1.351-3.001-1.351
		s0.663,2.151,1.451,2.905C25.155,21.035,26.142,21.297,26.569,20.868z"/>
	<path style="fill:#2D2D2D;" d="M20.964,20.785c0,0,0.538,2.188,1.283,2.985c0.745,0.799,1.715,1.116,2.168,0.714
		c0.45-0.405,0.213-1.38-0.533-2.179C23.14,21.507,20.964,20.785,20.964,20.785z"/>
	<path style="fill:#2D2D2D;" d="M31.485,15.228c-1.036,0.349-1.71,1.094-1.504,1.664c0.207,0.568,1.21,0.75,2.245,0.403
		c1.035-0.348,2.549-2.015,2.549-2.015S32.519,14.881,31.485,15.228z"/>
	<path style="fill:#2D2D2D;" d="M30.1,19.936c-1.036,0.346-1.707,1.091-1.502,1.662c0.204,0.568,1.211,0.752,2.244,0.405
		c1.035-0.35,2.55-2.017,2.55-2.017S31.134,19.586,30.1,19.936z"/>
	<path style="fill:#2D2D2D;" d="M26.935,24.588c-1.035,0.346-1.708,1.092-1.503,1.66c0.206,0.573,1.212,0.752,2.246,0.403
		c1.034-0.346,2.55-2.013,2.55-2.013S27.97,24.239,26.935,24.588z"/>
	<path style="fill:#2D2D2D;" d="M6.919,20.483c-0.985-1.586-1.521-3.491-1.226-5.371c0.172-1.176,0.629-2.288,1.251-3.312
		c0.551,0.123,1.256-0.488,1.627-1.443c0.396-1.018,0.103-3.29,0.103-3.29S6.938,8.501,6.542,9.517
		c-0.396,1.017-0.262,2.028,0.296,2.261c-0.664,0.995-1.178,2.091-1.411,3.288c-0.403,1.93,0.062,3.98,1.02,5.689
		c0.95,1.73,2.295,3.198,3.76,4.485c1.481,1.283,3.068,2.402,4.81,3.358l0.485-0.975c-1.669-0.815-3.294-1.843-4.77-3.014
		C9.257,23.438,7.9,22.085,6.919,20.483z"/>
	<path style="fill:#2D2D2D;" d="M5.18,13.855C5.32,13.268,4.57,12.6,3.503,12.368c-1.064-0.235-3.265,0.411-3.265,0.411
		s1.688,1.49,2.755,1.723C4.058,14.733,5.038,14.445,5.18,13.855z"/>
	<path style="fill:#2D2D2D;" d="M6.229,14.602c0.349,0.496,1.364,0.405,2.271-0.204c0.906-0.607,1.929-2.615,1.929-2.615
		s-2.283,0.212-3.188,0.819C6.331,13.209,5.879,14.104,6.229,14.602z"/>
	<path style="fill:#2D2D2D;" d="M6.638,18.277c0.378,0.474,1.388,0.323,2.257-0.338c0.867-0.66,1.77-2.725,1.77-2.725
		s-2.266,0.345-3.137,1.006C6.659,16.881,6.261,17.8,6.638,18.277z"/>
	<path style="fill:#2D2D2D;" d="M9.183,19.387c-0.703,0.835-0.887,1.82-0.415,2.201c0.473,0.381,1.424,0.012,2.125-0.826
		c0.703-0.836,1.128-3.047,1.128-3.047S9.884,18.55,9.183,19.387z"/>
	<path style="fill:#2D2D2D;" d="M11.306,24.944C11.8,25.299,12.729,24.876,13.38,24c0.653-0.874,0.95-3.107,0.95-3.107
		s-2.084,0.955-2.734,1.832C10.94,23.597,10.813,24.594,11.306,24.944z"/>
	<path style="fill:#2D2D2D;" d="M4.94,18.01c0.141-0.591-0.608-1.258-1.676-1.489C2.199,16.288,0,16.931,0,16.931
		s1.688,1.493,2.753,1.726C3.819,18.888,4.798,18.597,4.94,18.01z"/>
	<path style="fill:#2D2D2D;" d="M6.831,22.534c0.144-0.588-0.607-1.256-1.675-1.487c-1.065-0.233-3.266,0.411-3.266,0.411
		s1.688,1.49,2.755,1.724C5.711,23.414,6.691,23.124,6.831,22.534z"/>
	<path style="fill:#2D2D2D;" d="M8.811,25.325c-1.065-0.232-3.266,0.41-3.266,0.41s1.688,1.491,2.753,1.726
		c1.068,0.23,2.048-0.06,2.189-0.648C10.628,26.224,9.878,25.557,8.811,25.325z"/>
</g>
<g>
</g>
<g>
</g>
<g>
</g>
<g>
</g>
<g>
</g>
<g>
</g>
<g>
</g>
<g>
</g>
<g>
</g>
<g>
</g>
<g>
</g>
<g>
</g>
<g>
</g>
<g>
</g>
<g>
</g>
</svg>
