<?xml version="1.0" encoding="utf-8"?>
<!-- Generator: Adobe Illustrator 17.0.0, SVG Export Plug-In . SVG Version: 6.00 Build 0)  -->
<!DOCTYPE svg PUBLIC "-//W3C//DTD SVG 1.1//EN" "http://www.w3.org/Graphics/SVG/1.1/DTD/svg11.dtd">
<svg version="1.1" id="Capa_1" xmlns="http://www.w3.org/2000/svg" xmlns:xlink="http://www.w3.org/1999/xlink" x="0px" y="0px"
	 width="31.582px" height="31.657px" viewBox="0 0 31.582 31.657" enable-background="new 0 0 31.582 31.657" xml:space="preserve">
<path fill="#1D1D1B" d="M8.606,6.364c0,1.028-0.82,1.861-1.831,1.861S4.944,7.392,4.944,6.364c0-1.028,0.82-1.861,1.831-1.861
	S8.606,5.336,8.606,6.364z M30.567,30.344c-1.456,1.633-3.947,1.759-5.554,0.28l-1.79-1.647l-0.284-0.26l-1.417-1.304
	c-1.427-1.315-0.893-2.792,0.171-4.422l0.023-0.032l0.196-0.225c-0.263-0.089-0.581-0.26-0.813-0.574
	c-0.33-0.448-0.399-1.063-0.209-1.82c0.055-0.217,0.084-0.386,0.104-0.53h-5.383c0,0-0.488,3.548,2.622,3.548v1.776h-2.622h-5.235
	H7.755v-1.776c2.995,0,2.621-3.548,2.621-3.548H1.735C0.776,19.81,0,19.017,0,18.036V1.773C0,0.794,0.776,0,1.735,0h22.521
	c0.958,0,1.732,0.794,1.729,1.773v16.264c0,0.981-0.773,1.774-1.731,1.774h-2.712c-0.022,0.196-0.063,0.418-0.126,0.668
	c-0.148,0.59-0.108,1.042,0.119,1.351c0.225,0.306,0.594,0.407,0.782,0.441l0.087-0.102l0.015-0.011
	c1.498-1.3,3.123-1.827,4.581-0.483l1.221,1.12l0.265,0.247l1.805,1.658C31.898,26.179,32.021,28.71,30.567,30.344z M4.417,11.016
	H3.875v4.583h0.54L4.417,11.016z M14.163,17.638c0-0.589-0.471-1.068-1.053-1.068c-0.581,0-1.053,0.479-1.053,1.068
	c0,0.591,0.472,1.071,1.053,1.071C13.692,18.709,14.163,18.229,14.163,17.638z M24.133,15.599V1.887H1.857v13.711h0.521v-4.496
	h0.001c0-0.689,0.019-2.522,2.561-2.522h1.002l0.882,1.469L7.703,8.58h1.043c0,0,2.412-0.031,2.584,2.082v0.278l0.943-0.653
	l0.103-0.074c0.003,0,0.006-0.006,0.006-0.006c0.171-0.173,0.397-0.251,0.619-0.241c0.16,0.006,0.316,0.058,0.45,0.159l0.389-0.268
	c-0.16-0.448-0.251-0.926-0.251-1.428c0-2.348,1.91-4.259,4.259-4.259c0.032,0,0.059,0.027,0.059,0.06v4.142h4.141
	c0.033,0,0.059,0.027,0.059,0.058c0,2.351-1.91,4.26-4.259,4.26c-1.722,0-3.206-1.028-3.876-2.503l-0.298,0.204
	c0.165,0.31,0.115,0.711-0.148,0.979c-0.002,0.002-0.003,0.002-0.004,0.006h0.001l-0.521,0.354l-0.728,0.493l-1.382,0.944
	l-0.004-0.006c-0.109,0.058-0.227,0.095-0.358,0.095c-0.439,0-0.798-0.364-0.798-0.812c0-0.002,0-0.007,0-0.007v-1.442H9.211
	l0.001,4.604H24.133z M23.315,28.317c0.713-0.367,1.911-1.096,2.942-2.253c0.768-0.862,1.311-1.819,1.613-2.841l-1.234-1.137
	c-1.253-1.153-2.558-0.627-3.847,0.479l-0.651,0.75c-0.905,1.402-1.474,2.561-0.249,3.688L23.315,28.317z M29.925,25.11
	l-1.429-1.315c-0.236,0.664-0.709,1.655-1.64,2.701c-0.795,0.894-1.795,1.679-2.972,2.343l1.495,1.375
	c1.385,1.275,3.53,1.165,4.784-0.241C31.416,28.565,31.308,26.383,29.925,25.11z M25.469,24.411c0.37,0.342,0.399,0.926,0.064,1.301
	c-0.334,0.376-0.909,0.405-1.279,0.065l-1.284-1.183c-0.371-0.34-0.399-0.922-0.064-1.299c0.334-0.376,0.908-0.404,1.278-0.064
	L25.469,24.411z M25.101,24.824l-1.284-1.184c-0.147-0.136-0.375-0.123-0.509,0.026c-0.133,0.15-0.122,0.382,0.026,0.519
	l1.284,1.182c0.148,0.136,0.377,0.124,0.51-0.026C25.262,25.192,25.25,24.96,25.101,24.824z M21.422,4.699l-2.875,3.035
	c-0.011,0.011-0.026,0.017-0.042,0.017c-0.007,0-0.015,0-0.023-0.004c-0.022-0.007-0.037-0.031-0.037-0.055V3.516
	c0-0.033,0.026-0.06,0.06-0.06c1.085,0,2.122,0.414,2.915,1.159c0.013,0.013,0.02,0.027,0.02,0.042
	C21.441,4.675,21.435,4.689,21.422,4.699z M20.781,4.691c-0.545-0.411-1.186-0.667-1.862-0.739v2.704L20.781,4.691z M21.813,4.818
	c0.866,0.816,1.344,1.917,1.344,3.1c0,0.034-0.028,0.06-0.059,0.06h-4.201c-0.032,0-0.059-0.027-0.059-0.06V7.895
	c0-0.016,0.006-0.03,0.016-0.04l2.875-3.034C21.752,4.799,21.789,4.797,21.813,4.818z M22.662,7.507
	c-0.081-0.76-0.387-1.464-0.889-2.047l-1.94,2.047H22.662z"/>
</svg>
