<?xml version="1.0" encoding="utf-8"?>
<!-- Generator: Adobe Illustrator 17.0.0, SVG Export Plug-In . SVG Version: 6.00 Build 0)  -->
<!DOCTYPE svg PUBLIC "-//W3C//DTD SVG 1.1//EN" "http://www.w3.org/Graphics/SVG/1.1/DTD/svg11.dtd">
<svg version="1.1" id="Capa_1" xmlns="http://www.w3.org/2000/svg" xmlns:xlink="http://www.w3.org/1999/xlink" x="0px" y="0px"
	 width="31.581px" height="31.655px" viewBox="0 0 31.581 31.655" enable-background="new 0 0 31.581 31.655" xml:space="preserve">
<path fill="#2D2D2D" d="M24.182,23.229c-0.369-0.341-0.942-0.311-1.275,0.064c-0.336,0.377-0.308,0.959,0.063,1.298l1.284,1.185
	c0.369,0.34,0.943,0.311,1.278-0.064c0.334-0.377,0.307-0.961-0.065-1.301L24.182,23.229z M25.13,25.339
	c-0.135,0.151-0.363,0.16-0.511,0.025l-1.284-1.181c-0.149-0.137-0.16-0.371-0.026-0.52c0.133-0.148,0.361-0.162,0.509-0.024
	l1.283,1.182C25.25,24.957,25.262,25.188,25.13,25.339z M30.29,24.698l-1.805-1.66l-0.266-0.245L27,21.673
	c-1.458-1.345-3.083-0.819-4.581,0.481l-0.015,0.013l-0.087,0.101c-0.188-0.034-0.557-0.134-0.782-0.439
	c-0.227-0.309-0.265-0.763-0.117-1.354c0.062-0.248,0.102-0.47,0.126-0.666h2.712c0.957,0,1.731-0.795,1.731-1.775V1.771
	c0-0.98-0.774-1.771-1.731-1.771H1.735C0.775,0,0,0.791,0,1.771v16.262c0,0.98,0.775,1.775,1.735,1.775h8.641
	c0,0,0.374,3.549-2.62,3.549v1.775h2.62h5.234h2.623v-1.775c-3.112,0-2.623-3.549-2.623-3.549h5.383
	c-0.02,0.145-0.05,0.313-0.104,0.529c-0.19,0.76-0.119,1.372,0.209,1.82c0.234,0.316,0.551,0.484,0.813,0.575l-0.195,0.226
	l-0.022,0.03c-1.064,1.633-1.598,3.107-0.172,4.422l1.419,1.304l0.283,0.26l1.79,1.649c1.606,1.478,4.099,1.353,5.554-0.283
	C32.021,28.709,31.898,26.177,30.29,24.698z M13.11,18.705c-0.581,0-1.054-0.478-1.054-1.068c0-0.592,0.473-1.069,1.054-1.069
	c0.58,0,1.051,0.478,1.051,1.069S13.69,18.705,13.11,18.705z M2.324,15.434V2.359h21.395v13.075H2.324z M21.889,27.001
	c-1.227-1.125-0.657-2.287,0.249-3.69l0.65-0.747c1.288-1.107,2.595-1.631,3.848-0.479l1.234,1.137
	c-0.301,1.023-0.846,1.98-1.612,2.842c-1.033,1.159-2.229,1.885-2.943,2.251L21.889,27.001z M30.163,29.972
	c-1.254,1.406-3.4,1.516-4.784,0.242l-1.494-1.377c1.177-0.662,2.176-1.45,2.972-2.342c0.929-1.046,1.402-2.037,1.639-2.7
	l1.43,1.314C31.308,26.382,31.416,28.563,30.163,29.972z M17.772,7.807l1.601,1.603c0.027,0.027,0.027,0.07,0,0.096l-0.52,0.52
	c-0.026,0.025-0.067,0.025-0.093,0l-1.604-1.603l-0.229,1.359c-0.016,0.017-0.045,0.024-0.067,0.015
	c-0.025-0.008-0.041-0.032-0.045-0.056L15.79,6.513c-0.001-0.021,0.005-0.037,0.019-0.053c0.015-0.014,0.033-0.023,0.054-0.021
	l3.038,0.839c0.018,0.002,0.03,0.008,0.042,0.02c0.006,0.006,0.011,0.014,0.015,0.023c0.007,0.024,0.003,0.051-0.015,0.07
	L17.772,7.807z M5.823,3.112c-1.038,0-1.882,0.845-1.882,1.883s0.844,1.883,1.882,1.883c1.039,0,1.882-0.845,1.882-1.883
	S6.862,3.112,5.823,3.112z M5.823,6.085c-0.601,0-1.09-0.488-1.09-1.09s0.489-1.089,1.09-1.089c0.601,0,1.09,0.487,1.09,1.089
	S6.424,6.085,5.823,6.085z M5.823,10.043c-1.038,0-1.882,0.844-1.882,1.882c0,1.036,0.844,1.881,1.882,1.881
	c1.039,0,1.882-0.845,1.882-1.881C7.705,10.887,6.862,10.043,5.823,10.043z M5.823,13.015c-0.601,0-1.09-0.488-1.09-1.09
	c0-0.601,0.489-1.091,1.09-1.091c0.601,0,1.09,0.49,1.09,1.091S6.424,13.015,5.823,13.015z M11.07,5.915h0.017l0.049,0.291h0.595
	c-0.031-0.163-0.044-0.394-0.044-0.628V4.641c0-0.574-0.242-1.105-1.075-1.105c-0.414,0-0.751,0.113-0.942,0.231l0.127,0.428
	c0.177-0.111,0.444-0.192,0.702-0.192c0.459,0,0.528,0.285,0.528,0.457V4.5C10.064,4.494,9.48,4.834,9.48,5.487
	c0,0.396,0.293,0.776,0.819,0.776C10.643,6.264,10.914,6.119,11.07,5.915z M10.134,5.415c0-0.396,0.444-0.491,0.91-0.485v0.357
	c0,0.05,0,0.097-0.018,0.146c-0.062,0.188-0.249,0.358-0.518,0.358C10.3,5.792,10.134,5.674,10.134,5.415z M11.396,11.141
	c-0.392,0-0.676,0.167-0.837,0.419H10.55v-1.556H9.89v3.07c0,0.268-0.01,0.559-0.02,0.735h0.562l0.031-0.392h0.011
	c0.188,0.319,0.488,0.45,0.825,0.45c0.589,0,1.185-0.468,1.185-1.404C12.489,11.672,12.033,11.141,11.396,11.141z M11.149,13.349
	c-0.282,0-0.516-0.194-0.583-0.46c-0.011-0.049-0.016-0.103-0.016-0.154v-0.427c0-0.063,0.009-0.123,0.021-0.17
	c0.069-0.29,0.316-0.484,0.584-0.484c0.439,0,0.659,0.377,0.659,0.837C11.814,13.021,11.562,13.349,11.149,13.349z M6.727,11.925
	c0,0.499-0.405,0.904-0.904,0.904c-0.499,0-0.904-0.405-0.904-0.904s0.405-0.904,0.904-0.904
	C6.322,11.021,6.727,11.426,6.727,11.925z"/>
</svg>
