<?xml version="1.0" encoding="iso-8859-1"?>
<!-- Generator: Adobe Illustrator 16.0.0, SVG Export Plug-In . SVG Version: 6.00 Build 0)  -->
<!DOCTYPE svg PUBLIC "-//W3C//DTD SVG 1.1//EN" "http://www.w3.org/Graphics/SVG/1.1/DTD/svg11.dtd">
<svg version="1.1" id="Capa_1" xmlns="http://www.w3.org/2000/svg" xmlns:xlink="http://www.w3.org/1999/xlink" x="0px" y="0px"
	 width="27.707px" height="22.815px" viewBox="0 0 27.707 22.815" style="enable-background:new 0 0 27.707 22.815;"
	 xml:space="preserve">
<g>
	<polygon style="fill:#2D2D2D;" points="24.287,9.311 13.853,16.751 3.419,9.311 0,6.873 0,22.815 27.707,22.815 27.707,6.873 	"/>
	<path style="fill:#2D2D2D;" d="M2.944,8.312l10.433,7.436c0.142,0.102,0.309,0.153,0.476,0.153c0.167,0,0.334-0.052,0.477-0.153
		l10.434-7.438c0.217-0.155,0.345-0.404,0.345-0.67V0.822C25.107,0.368,24.74,0,24.287,0H3.419C2.966,0,2.6,0.368,2.6,0.822v6.82
		C2.6,7.908,2.728,8.157,2.944,8.312z M4.24,1.642h19.226v5.577l-9.614,6.854L4.24,7.219V1.642z"/>
	<path style="fill:#2D2D2D;" d="M7.486,5.153h12.217c0.493,0,0.892-0.401,0.892-0.894s-0.399-0.891-0.892-0.891H7.486
		c-0.493,0-0.892,0.398-0.892,0.891S6.993,5.153,7.486,5.153z"/>
	<path style="fill:#2D2D2D;" d="M20.595,7.359c0-0.491-0.399-0.891-0.892-0.891H7.486c-0.493,0-0.892,0.399-0.892,0.891
		c0,0.494,0.399,0.892,0.892,0.892h12.217C20.196,8.251,20.595,7.854,20.595,7.359z"/>
</g>
<g>
</g>
<g>
</g>
<g>
</g>
<g>
</g>
<g>
</g>
<g>
</g>
<g>
</g>
<g>
</g>
<g>
</g>
<g>
</g>
<g>
</g>
<g>
</g>
<g>
</g>
<g>
</g>
<g>
</g>
</svg>
