<?xml version="1.0" encoding="iso-8859-1"?>
<!-- Generator: Adobe Illustrator 16.0.0, SVG Export Plug-In . SVG Version: 6.00 Build 0)  -->
<!DOCTYPE svg PUBLIC "-//W3C//DTD SVG 1.1//EN" "http://www.w3.org/Graphics/SVG/1.1/DTD/svg11.dtd">
<svg version="1.1" id="Capa_1" xmlns="http://www.w3.org/2000/svg" xmlns:xlink="http://www.w3.org/1999/xlink" x="0px" y="0px"
	 width="30.789px" height="28.399px" viewBox="0 0 30.789 28.399" style="enable-background:new 0 0 30.789 28.399;"
	 xml:space="preserve">
<g>
	<path style="fill-rule:evenodd;clip-rule:evenodd;fill:#2D2D2D;" d="M22.896,11.481c0,0,1.245-0.946,0.299-1.895
		c-0.948-0.945-1.869,0.275-1.869,0.275l-9.53,9.53c0,0-2.231,2.879-3.927,1.137c-1.693-1.743,1.138-3.926,1.138-3.926L21.5,4.108
		c0,0,2.914-3.213,5.653-0.474c2.741,2.741-0.48,5.664-0.48,5.664L12.635,23.336c0,0-4.492,5.189-8.651,1.03
		c-4.158-4.159,1.079-8.602,1.079-8.602L15.722,5.105c0,0,1.195-0.997,0.299-1.894c-0.896-0.897-1.894,0.3-1.894,0.3L1.9,15.74
		c0,0-4.616,5.064,0.54,10.218c5.155,5.157,10.219,0.541,10.219,0.541l16.81-16.812c0,0,3.363-3.709-0.646-7.72
		c-4.009-4.011-7.72-0.648-7.72-0.648L6.642,15.782c0,0-3.71,3.009-0.348,6.369c3.363,3.364,6.321-0.394,6.321-0.394L22.896,11.481z
		"/>
</g>
<g>
</g>
<g>
</g>
<g>
</g>
<g>
</g>
<g>
</g>
<g>
</g>
<g>
</g>
<g>
</g>
<g>
</g>
<g>
</g>
<g>
</g>
<g>
</g>
<g>
</g>
<g>
</g>
<g>
</g>
</svg>
