<?xml version="1.0" encoding="utf-8"?>
<!-- Generator: Adobe Illustrator 17.0.0, SVG Export Plug-In . SVG Version: 6.00 Build 0)  -->
<!DOCTYPE svg PUBLIC "-//W3C//DTD SVG 1.1//EN" "http://www.w3.org/Graphics/SVG/1.1/DTD/svg11.dtd">
<svg version="1.1" id="Capa_1" xmlns="http://www.w3.org/2000/svg" xmlns:xlink="http://www.w3.org/1999/xlink" x="0px" y="0px"
	 width="36.895px" height="21.657px" viewBox="0 0 36.895 21.657" enable-background="new 0 0 36.895 21.657" xml:space="preserve">
<path fill="#2D2D2D" d="M10.058,9.352c0.076,0.062,0.119,0.156,0.113,0.252L9.446,21.379c-0.01,0.154-0.135,0.276-0.29,0.278
	c-0.002,0-0.004,0-0.007,0c-0.151,0-0.279-0.113-0.295-0.266L7.659,10.21c-0.015-0.141,0.072-0.275,0.208-0.314l1.92-0.594
	C9.88,9.272,9.982,9.29,10.058,9.352z M36.834,0.117c-0.079-0.101-0.213-0.143-0.334-0.1L0.242,6.833
	C0.104,6.857,0.002,6.978,0,7.118c-0.003,0.141,0.094,0.266,0.232,0.296l7.03,2.287c0.051,0.014,0.102,0.013,0.152-0.004
	l28.728-9.261L13.82,8.489l-1.577,0.484c-0.132,0.039-0.219,0.165-0.21,0.303c0.009,0.137,0.111,0.251,0.247,0.273l16.363,2.606
	c0.016,0.002,0.033,0.004,0.049,0.004c0.099,0,0.19-0.048,0.245-0.129l7.906-11.564C36.916,0.36,36.912,0.219,36.834,0.117z
	 M21.119,11.631l-9.64-1.468c-0.081-0.012-0.165,0.008-0.231,0.059c-0.065,0.051-0.106,0.126-0.114,0.209l-0.96,10.904
	c-0.011,0.116,0.05,0.229,0.154,0.287c0.045,0.024,0.093,0.035,0.142,0.035c0.064,0,0.129-0.02,0.182-0.061l10.601-9.436
	c0.093-0.073,0.135-0.195,0.106-0.308C21.33,11.736,21.236,11.651,21.119,11.631z"/>
</svg>
