<?xml version="1.0" encoding="iso-8859-1"?>
<!-- Generator: Adobe Illustrator 16.0.0, SVG Export Plug-In . SVG Version: 6.00 Build 0)  -->
<!DOCTYPE svg PUBLIC "-//W3C//DTD SVG 1.1//EN" "http://www.w3.org/Graphics/SVG/1.1/DTD/svg11.dtd">
<svg version="1.1" id="Capa_1" xmlns="http://www.w3.org/2000/svg" xmlns:xlink="http://www.w3.org/1999/xlink" x="0px" y="0px"
	 width="42.121px" height="22.474px" viewBox="0 0 42.121 22.474" style="enable-background:new 0 0 42.121 22.474;"
	 xml:space="preserve">
<g>
	<g>
		<line style="fill:#2D2D2D;" x1="0" y1="0.405" x2="42.121" y2="0.405"/>
		<rect style="fill:#2D2D2D;" width="42.121" height="0.808"/>
	</g>
	<g>
		<line style="fill:#2D2D2D;" x1="0" y1="11.575" x2="42.121" y2="11.575"/>
		<rect y="11.172" style="fill:#2D2D2D;" width="42.121" height="0.807"/>
	</g>
	<g>
		<line style="fill:#2D2D2D;" x1="0" y1="19.271" x2="42.121" y2="19.271"/>
		<rect y="18.866" style="fill:#2D2D2D;" width="42.121" height="0.809"/>
	</g>
	<g>
		<line style="fill:#2D2D2D;" x1="0" y1="22.072" x2="42.121" y2="22.072"/>
		<rect y="21.667" style="fill:#2D2D2D;" width="42.121" height="0.807"/>
	</g>
	<g>
		<path style="fill:#2D2D2D;" d="M14.21,14.054l-1.585,5.218H9.158l5.898-18.41h4.289l5.981,18.41h-3.633l-1.666-5.218H14.21z
			 M19.481,11.513l-1.446-4.534c-0.356-1.117-0.657-2.374-0.929-3.439H17.05c-0.272,1.065-0.573,2.349-0.874,3.439l-1.42,4.534
			H19.481z"/>
		<path style="fill:#2D2D2D;" d="M35.169,16.075c0,1.2,0.054,2.377,0.217,3.196h-3.03l-0.246-1.473h-0.083
			c-0.791,1.036-2.185,1.771-3.933,1.771c-2.676,0-4.178-1.939-4.178-3.96c0-3.331,2.977-5.052,7.894-5.023v-0.219
			c0-0.875-0.355-2.324-2.704-2.324c-1.311,0-2.677,0.413-3.579,0.988l-0.655-2.187c0.984-0.602,2.704-1.176,4.808-1.176
			c4.26,0,5.49,2.705,5.49,5.628V16.075z M31.891,12.124c-2.377-0.026-5.289,1.109-5.289,3.132c0,1.31,1.492,1.913,2.558,1.913
			c1.365,0,2.321-0.23,2.649-1.184c0.082-0.247,0.082-0.493,0.082-0.738V12.124z"/>
	</g>
</g>
<g>
</g>
<g>
</g>
<g>
</g>
<g>
</g>
<g>
</g>
<g>
</g>
<g>
</g>
<g>
</g>
<g>
</g>
<g>
</g>
<g>
</g>
<g>
</g>
<g>
</g>
<g>
</g>
<g>
</g>
</svg>
