<?xml version="1.0" encoding="utf-8"?>
<!-- Generator: Adobe Illustrator 17.0.0, SVG Export Plug-In . SVG Version: 6.00 Build 0)  -->
<!DOCTYPE svg PUBLIC "-//W3C//DTD SVG 1.1//EN" "http://www.w3.org/Graphics/SVG/1.1/DTD/svg11.dtd">
<svg version="1.1" id="Capa_1" xmlns="http://www.w3.org/2000/svg" xmlns:xlink="http://www.w3.org/1999/xlink" x="0px" y="0px"
	 width="23.858px" height="28.543px" viewBox="0 0 23.858 28.543" enable-background="new 0 0 23.858 28.543" xml:space="preserve">
<path fill="#2D2D2D" d="M17.835,12.564c0,1.22-0.676,1.856-1.816,1.848c-0.179,0-0.363,0-0.483-0.021v-3.446
	c0.127-0.027,0.319-0.049,0.596-0.049C17.23,10.896,17.845,11.511,17.835,12.564z M12.046,10.891c-0.241,0-0.412,0.021-0.505,0.041
	v1.611c0.114,0.035,0.248,0.043,0.428,0.043c0.654,0,1.054-0.327,1.054-0.884C13.022,11.167,12.653,10.891,12.046,10.891z
	 M23.858,8.893v7.528H8.355V8.893H23.858z M13.893,11.666c0-0.45-0.188-0.827-0.472-1.063c-0.306-0.256-0.768-0.392-1.41-0.392
	c-0.585,0-1.02,0.043-1.341,0.101v4.739h0.87v-1.817c0.12,0.029,0.264,0.036,0.428,0.036c0.621,0,1.162-0.171,1.519-0.521
	C13.75,12.492,13.894,12.123,13.893,11.666z M18.763,12.535c0-0.812-0.284-1.391-0.756-1.768c-0.442-0.371-1.055-0.556-1.954-0.556
	c-0.517,0-1.003,0.043-1.397,0.101v4.727c0.292,0.035,0.679,0.063,1.184,0.063c0.935,0,1.697-0.22,2.175-0.656
	C18.471,14.034,18.764,13.398,18.763,12.535z M20.407,12.294v-1.326h1.902v-0.72H19.53v4.804h0.877v-2.045h1.768v-0.713H20.407z
	 M19.365,22.61h-0.001h-4.358v4.007l-0.062,0.053H1.873V1.875h17.491v6.088h1.873V0.938C21.237,0.422,20.818,0,20.301,0H0.936
	C0.417,0,0,0.422,0,0.938v26.669c0,0.519,0.417,0.937,0.936,0.937h14.367c0.231,0,0.453-0.084,0.626-0.239l4.997-4.471
	c0.198-0.179,0.312-0.431,0.312-0.698v-5.884h-1.873V22.61z"/>
</svg>
