<?xml version="1.0" encoding="utf-8"?>
<!-- Generator: Adobe Illustrator 17.0.0, SVG Export Plug-In . SVG Version: 6.00 Build 0)  -->
<!DOCTYPE svg PUBLIC "-//W3C//DTD SVG 1.1//EN" "http://www.w3.org/Graphics/SVG/1.1/DTD/svg11.dtd">
<svg version="1.1" id="Capa_1" xmlns="http://www.w3.org/2000/svg" xmlns:xlink="http://www.w3.org/1999/xlink" x="0px" y="0px"
	 width="24.72px" height="23.522px" viewBox="0 0 24.72 23.522" enable-background="new 0 0 24.72 23.522" xml:space="preserve">
<path fill="#2D2D2D" d="M22.381,0.759H2.341c-0.854,0-1.544,0.693-1.544,1.553v14.236c0,0.859,0.689,1.553,1.544,1.553h7.688
	c0,0,0.334,3.108-2.331,3.108v1.555h2.331h4.66h2.332v-1.555c-2.768,0-2.332-3.108-2.332-3.108h7.692
	c0.85,0,1.541-0.694,1.541-1.553V2.312C23.922,1.452,23.231,0.759,22.381,0.759z M12.464,17.535c-0.737,0-1.334-0.6-1.334-1.334
	c0-0.738,0.597-1.333,1.334-1.333s1.332,0.595,1.332,1.333C13.796,16.935,13.201,17.535,12.464,17.535z M22.271,14.415
	L22.271,14.415H2.451V2.41h19.821V14.415z M13.305,16.194c0,0.457-0.371,0.828-0.828,0.828c-0.457,0-0.828-0.371-0.828-0.828
	s0.371-0.828,0.828-0.828C12.934,15.366,13.305,15.737,13.305,16.194z M13.588,8.115c-0.089,0-0.154-0.004-0.207-0.016V7.3
	c0.044-0.012,0.129-0.02,0.253-0.02c0.309,0,0.478,0.148,0.478,0.398C14.113,7.951,13.912,8.115,13.588,8.115z M15.933,9.092
	c-0.073,0-0.16,0-0.214-0.012V7.309c0.054-0.011,0.146-0.024,0.279-0.024c0.529,0,0.858,0.277,0.858,0.861
	C16.856,8.791,16.49,9.095,15.933,9.092z M11.731,10.123h8.561V6.262h-8.561V10.123z M19.558,6.835v0.503h-1.037v0.616h0.972v0.499
	h-0.972V9.54h-0.609V6.835H19.558z M15.109,6.876c0.225-0.041,0.519-0.06,0.824-0.06c0.517,0,0.854,0.083,1.111,0.281
	c0.282,0.208,0.457,0.546,0.457,1.028c0,0.519-0.189,0.875-0.444,1.096c-0.287,0.237-0.725,0.349-1.255,0.349
	c-0.317,0-0.545-0.021-0.693-0.04V6.876z M13.603,6.815c0.376,0,0.649,0.07,0.832,0.22c0.172,0.133,0.284,0.358,0.284,0.622
	c0,0.27-0.085,0.493-0.245,0.643c-0.208,0.194-0.522,0.285-0.882,0.285c-0.08,0-0.153-0.003-0.21-0.016V9.54h-0.604V6.87h-0.001
	C12.965,6.839,13.228,6.815,13.603,6.815z M8.338,12.677l-2.555-2.281v-6.69h12.099v2.151h-0.716V4.419H6.548V9.73l2.653-0.008
	l-0.002,2.188h7.968v-1.247h0.716v2.013H8.338z"/>
</svg>
