<?xml version="1.0" encoding="utf-8"?>
<!-- Generator: Adobe Illustrator 17.0.0, SVG Export Plug-In . SVG Version: 6.00 Build 0)  -->
<!DOCTYPE svg PUBLIC "-//W3C//DTD SVG 1.1//EN" "http://www.w3.org/Graphics/SVG/1.1/DTD/svg11.dtd">
<svg version="1.1" id="Capa_1" xmlns="http://www.w3.org/2000/svg" xmlns:xlink="http://www.w3.org/1999/xlink" x="0px" y="0px"
	 width="10.641px" height="30.599px" viewBox="0 0 10.641 30.599" enable-background="new 0 0 10.641 30.599" xml:space="preserve">
<path fill="#2D2D2D" d="M10.549,8.809L5.922,0.373C5.764,0.086,5.406-0.063,5.081,0.024C4.867,0.082,4.68,0.245,4.614,0.414
	L0.089,8.773c-0.092,0.173-0.113,0.368-0.06,0.555l1.809,6.325c0.09,0.315,0.382,0.535,0.711,0.535h0.003l5.464-0.036
	c0.327-0.002,0.609-0.213,0.704-0.525l1.888-6.248C10.666,9.19,10.645,8.982,10.549,8.809z M7.846,15.191l-5.129,0.034L0.979,9.15
	l4.297-7.956l4.385,7.995L7.846,15.191z M8.212,17.336c-0.076-0.179-0.249-0.295-0.444-0.295H2.761c-0.187,0-0.359,0.11-0.437,0.278
	c-0.048,0.106-1.195,2.581-1.194,3.93c-0.001,1.243,0,8.868,0,8.868c0,0.266,0.216,0.482,0.481,0.482h7.23
	c0.265,0,0.48-0.216,0.48-0.482c0,0,0.001-7.68,0-8.866C9.322,19.976,8.257,17.442,8.212,17.336z M8.36,21.25
	c0,0.785,0,4.401,0,6.767v1.62H2.093c-0.001-1.696-0.002-7.333,0-8.388c-0.001-0.732,0.496-2.131,0.98-3.246h4.372
	C7.898,19.142,8.36,20.553,8.36,21.25z M3.68,5.816c0,0.853,0.693,1.547,1.546,1.547c0.853,0,1.546-0.693,1.546-1.546
	c0-0.853-0.693-1.547-1.546-1.547C4.373,4.27,3.68,4.963,3.68,5.816z M5.81,5.816c0,0.322-0.262,0.585-0.584,0.585
	c-0.322,0-0.584-0.263-0.584-0.585c0-0.321,0.262-0.583,0.584-0.583C5.548,5.233,5.81,5.495,5.81,5.816z"/>
</svg>
