<?xml version="1.0" encoding="utf-8"?>
<!-- Generator: Adobe Illustrator 17.0.0, SVG Export Plug-In . SVG Version: 6.00 Build 0)  -->
<!DOCTYPE svg PUBLIC "-//W3C//DTD SVG 1.1//EN" "http://www.w3.org/Graphics/SVG/1.1/DTD/svg11.dtd">
<svg version="1.1" id="Capa_1" xmlns="http://www.w3.org/2000/svg" xmlns:xlink="http://www.w3.org/1999/xlink" x="0px" y="0px"
	 width="10.573px" height="31.442px" viewBox="0 0 10.573 31.442" enable-background="new 0 0 10.573 31.442" xml:space="preserve">
<path fill="#1D1D1B" d="M0.74,12.898h9.329c0.166,0,0.322-0.082,0.417-0.219c0.094-0.137,0.114-0.312,0.053-0.469L5.874,0.303
	C5.802,0.119,5.617,0,5.405,0C5.191,0,5.008,0.119,4.936,0.303L0.271,12.21c-0.061,0.156-0.041,0.332,0.053,0.468
	C0.419,12.816,0.574,12.898,0.74,12.898z M1.479,11.892l2.164-5.44l3.571-0.008l2.117,5.448H1.479z M10.069,13.687H0.503
	C0.225,13.687,0,13.914,0,14.191v16.747c0,0.278,0.225,0.504,0.503,0.504h9.566c0.278,0,0.504-0.226,0.503-0.504V14.191
	C10.572,13.914,10.347,13.687,10.069,13.687z M4.458,15.812H4.456c-0.738,0-1.342,0.599-1.345,1.338
	C3.072,24.465,3.068,28.929,3.1,30.434H1.006V14.697h8.56v15.738h-3.78c-0.029-1.348-0.015-7.631,0.016-13.271
	C5.806,16.422,5.203,15.816,4.458,15.812z"/>
</svg>
