<?xml version="1.0" encoding="utf-8"?>
<!-- Generator: Adobe Illustrator 17.0.0, SVG Export Plug-In . SVG Version: 6.00 Build 0)  -->
<!DOCTYPE svg PUBLIC "-//W3C//DTD SVG 1.1//EN" "http://www.w3.org/Graphics/SVG/1.1/DTD/svg11.dtd">
<svg version="1.1" id="Capa_1" xmlns="http://www.w3.org/2000/svg" xmlns:xlink="http://www.w3.org/1999/xlink" x="0px" y="0px"
	 width="10.822px" height="32.371px" viewBox="0 0 10.822 32.371" enable-background="new 0 0 10.822 32.371" xml:space="preserve">
<path fill="#2D2D2D" d="M0.55,10.953l9.663-0.003c0.18,0,0.35-0.096,0.444-0.25c0.095-0.157,0.099-0.352,0.017-0.512L7.473,4.077
	C7.38,3.904,7.218,3.806,7.008,3.801L4.154,3.82c-0.181,0-0.352,0.097-0.445,0.254l-3.606,6.093
	c-0.095,0.16-0.096,0.359-0.006,0.524C0.191,10.853,0.364,10.953,0.55,10.953z M6.698,4.844l2.656,5.065L1.461,9.912l2.993-5.055
	L6.698,4.844z M10.684,11.934c-0.1-0.105-0.237-0.166-0.381-0.166l-9.782,0.01c-0.144,0-0.281,0.06-0.378,0.164
	c-0.099,0.104-0.151,0.244-0.142,0.384l1.043,18.728c0.009,0.197,0.133,0.375,0.317,0.452c1.38,0.575,2.758,0.865,4.094,0.865
	c2.308,0,3.705-0.871,3.764-0.909c0.138-0.087,0.227-0.238,0.239-0.399l1.363-18.737C10.831,12.183,10.782,12.039,10.684,11.934z
	 M5.455,31.331c-1.102,0-2.243-0.223-3.392-0.665L1.07,12.818l8.672-0.008L8.44,30.703C7.981,30.928,6.947,31.331,5.455,31.331z
	 M7.185,2.981H4.052L4.98,0.212C4.999,0.191,5.174,0,5.439,0C5.753,0,6.014,0.256,6.21,0.76c0.24,0.597,0.826,1.895,0.832,1.907
	L7.185,2.981z"/>
</svg>
