<?xml version="1.0" encoding="iso-8859-1"?>
<!-- Generator: Adobe Illustrator 16.0.0, SVG Export Plug-In . SVG Version: 6.00 Build 0)  -->
<!DOCTYPE svg PUBLIC "-//W3C//DTD SVG 1.1//EN" "http://www.w3.org/Graphics/SVG/1.1/DTD/svg11.dtd">
<svg version="1.1" id="Capa_1" xmlns="http://www.w3.org/2000/svg" xmlns:xlink="http://www.w3.org/1999/xlink" x="0px" y="0px"
	 width="20.168px" height="29.774px" viewBox="0 0 20.168 29.774" style="enable-background:new 0 0 20.168 29.774;"
	 xml:space="preserve">
<g>
	<polygon style="fill:#2D2D2D;" points="13.396,9.405 13.396,9.506 13.419,9.4 	"/>
	<circle style="fill:#2D2D2D;" cx="10.241" cy="2.629" r="2.629"/>
	<path style="fill:#2D2D2D;" d="M19.844,1.918c-0.434-0.433-1.136-0.433-1.57,0.001c0,0-0.002,0.005-0.006,0.008l-4.153,4.181v0.004
		V6.108H6.053L1.904,1.927C1.9,1.924,1.897,1.921,1.897,1.921c-0.437-0.436-1.14-0.436-1.572-0.003
		c-0.434,0.434-0.434,1.137,0,1.569C0.329,3.49,0.331,3.491,0.332,3.494v0.002l6.417,6.589L6.741,28.278
		c0,0.827,0.669,1.496,1.5,1.496c0.823,0,1.496-0.669,1.496-1.496l-0.002-12.16h0.672v12.172l0.011,0.009
		c0.01,0.818,0.674,1.474,1.49,1.474c0.822,0,1.491-0.665,1.491-1.49l-0.004-18.172l6.44-6.615V3.494
		c0.002-0.003,0.004-0.004,0.008-0.007C20.276,3.055,20.276,2.352,19.844,1.918z M13.396,9.405L13.419,9.4l-0.023,0.106V9.405z"/>
</g>
<g>
</g>
<g>
</g>
<g>
</g>
<g>
</g>
<g>
</g>
<g>
</g>
<g>
</g>
<g>
</g>
<g>
</g>
<g>
</g>
<g>
</g>
<g>
</g>
<g>
</g>
<g>
</g>
<g>
</g>
</svg>
