<?xml version="1.0" encoding="utf-8"?>
<!-- Generator: Adobe Illustrator 16.0.4, SVG Export Plug-In . SVG Version: 6.00 Build 0)  -->
<!DOCTYPE svg PUBLIC "-//W3C//DTD SVG 1.1//EN" "http://www.w3.org/Graphics/SVG/1.1/DTD/svg11.dtd">
<svg version="1.1" id="Capa_1" xmlns="http://www.w3.org/2000/svg" xmlns:xlink="http://www.w3.org/1999/xlink" x="0px" y="0px"
	 width="35.088px" height="41.67px" viewBox="0 0 35.088 41.67" enable-background="new 0 0 35.088 41.67" xml:space="preserve">
<path fill="#1D1D1B" d="M7.644,23.941c0,0.72-0.803,1.521-2.41,2.41c-0.586,0.274-1.32,0.414-2.204,0.414
	c-1.601,0-2.588-0.806-2.961-2.411L0,23.528c0-1.158,0.321-2.604,0.964-4.338c0,0,0.075-2.349,4.958-3.925
	c0.203-0.091,0.511-0.161,1.108-0.275c0.212,0,0.477,0.619,0.477,0.619s-0.078,0.86-1.24,1.446l-2.892,1.515
	c-0.609,0.855-0.931,1.476-0.964,1.86v0.137h0.207c1.514-0.597,2.41-0.895,2.686-0.895c0.551,0,0.826,0.206,0.826,0.62
	c0,0.654-1.859,1.582-1.859,1.582s-2.386,1.131-2.41,1.24c0,0-0.245,1.602,1.377,1.791h0.619c0.781,0,1.791-0.574,3.03-1.722
	C7.392,23.275,7.644,23.528,7.644,23.941z M14.461,20.801h-0.55c-1.544,0-5.234,0.896-5.234,1.444c0.241,0.78,0.516,1.17,0.826,1.17
	c0.827-0.319,5.48-1.17,5.991-1.858C15.385,21.052,15.041,20.801,14.461,20.801z M15.701,16.461c-1.011,0-7.438,1.52-7.438,1.858
	c0,0.396,0.253,0.719,0.759,0.964c2.076-0.414,7.368-1.537,7.368-1.929v-0.413C16.241,16.72,16.011,16.56,15.701,16.461z
	 M24.249,18.604H24.11c-0.567,0-1.44,0.85-2.616,2.548h-0.138c-0.229-0.843-0.344-1.463-0.344-1.858c0-0.648-0.437-1.107-1.31-1.378
	c-0.207,0-0.481,0.138-0.827,0.414h-0.068c-0.225-0.26-0.66-0.442-1.309-0.552c-0.322,0.214-0.482,0.512-0.481,0.896v0.069
	c0.138,0.471,0.207,0.976,0.207,1.515v0.551l0.138,3.236l-0.138,0.756c0.189,0.781,0.556,1.172,1.102,1.172h0.55
	c0.321-0.24,0.481-0.492,0.481-0.758l-0.068-2.479c0.107-0.689,0.225-1.033,0.344-1.033c0.215,0,0.87,2.961,0.87,2.961
	c0,0.584,0.392,0.976,1.171,1.17c0.506-0.185,0.758-0.412,0.758-0.688c0.459-1.944,0.6-3.394,1.608-4.338
	c0.274,0,0.458,1.769,0.551,5.3c0.201,0.414,0.478,0.713,0.826,0.896c0.644-0.332,0.964-0.813,0.964-1.446v-0.481
	c-0.183-3.08-0.438-4.895-0.757-5.438C25.626,19.271,25.167,18.924,24.249,18.604z M34.438,23.846l-0.274,0.067
	c-3.742,1.719-4.89,1.312-4.89,1.312c-0.481,0-0.803-0.322-0.963-0.965c0-0.815,0.252-1.457,0.756-1.929h0.139
	c0.161,0.139,0.438,0.207,0.826,0.207c0.367-0.229,0.552-0.598,0.552-1.103c0-0.424-0.161-1.029-1.033-1.17
	c-0.872-0.142-1.928,0.482-1.928,0.48c-0.826,1.066-1.24,1.984-1.24,2.755c0,0.979,0.229,1.738,0.688,2.271
	c0.752,0.733,1.578,1.103,2.479,1.103c0.448,0,1.021-0.114,1.721-0.344c2.39-0.673,3.582-1.451,3.582-2.343V24.12
	C34.853,24.046,34.714,23.954,34.438,23.846z M35.088,15.291v-0.218c0-0.083-0.063-0.188-0.188-0.312l-0.529-0.095
	c-0.328,0.043-0.518,0.084-0.564,0.125c-0.791,0.381-1.188,0.745-1.188,1.095c0,0.218,0.167,0.364,0.5,0.438l0.72-0.562h0.156v0.094
	c-0.689,1.461-1.284,2.565-1.782,3.314v0.061c0,0.287,0.208,0.496,0.626,0.626c0.979-0.229,1.471-0.376,1.471-0.438
	c0.312,0,0.572-0.188,0.78-0.562c0-0.146-0.136-0.219-0.405-0.219h-0.221l-0.779,0.125h-0.031l-0.031-0.031
	c0-0.105,0.115-0.356,0.344-0.751C34.713,16.535,35.088,15.638,35.088,15.291z"/>
</svg>
