<?xml version="1.0" encoding="utf-8"?>
<!-- Generator: Adobe Illustrator 17.0.0, SVG Export Plug-In . SVG Version: 6.00 Build 0)  -->
<!DOCTYPE svg PUBLIC "-//W3C//DTD SVG 1.1//EN" "http://www.w3.org/Graphics/SVG/1.1/DTD/svg11.dtd">
<svg version="1.1" id="Capa_1" xmlns="http://www.w3.org/2000/svg" xmlns:xlink="http://www.w3.org/1999/xlink" x="0px" y="0px"
	 width="20.351px" height="20.351px" viewBox="0 0 20.351 20.351" enable-background="new 0 0 20.351 20.351" xml:space="preserve">
<path fill="#2D2D2D" d="M19.659,0H0.694C0.311,0,0,0.31,0,0.693v18.965c0,0.383,0.311,0.693,0.694,0.693h18.965
	c0.383,0,0.692-0.31,0.691-0.693V0.693C20.35,0.31,20.042,0,19.659,0z M18.967,18.965H1.387V1.386h17.58V18.965z M9.306,7.161H8.454
	l1.564-3.273c0.039-0.084,0.142-0.12,0.224-0.079l7.188,3.433c0.084,0.041,0.12,0.14,0.08,0.224l-2.971,6.22
	c-0.04,0.084-0.141,0.121-0.226,0.08l-0.673-0.323v-2.156l1.098,0.524l1.948-4.079l-6.231-2.977L9.306,7.161z M5.007,14.783h7.965
	c0.095,0,0.17-0.075,0.17-0.167V7.724c0-0.093-0.076-0.168-0.17-0.168H5.007c-0.095,0-0.169,0.075-0.169,0.167v6.893
	C4.838,14.708,4.912,14.783,5.007,14.783z M5.606,8.318h6.905v4.522h-0.503c-0.294-0.754-0.656-1.81-1.204-1.669
	c-0.645,0.165-0.968,1.669-0.968,1.669s-0.329-1.698-1.237-2.606C7.688,9.324,6.81,12.84,6.81,12.84H5.606V8.318z M6.721,9.851
	c-0.311,0-0.563-0.252-0.563-0.563S6.41,8.725,6.721,8.725c0.311,0,0.563,0.252,0.563,0.563S7.032,9.851,6.721,9.851z M9.716,9.372
	c0-0.146,0.251-0.267,0.588-0.302c0.017-0.136,0.126-0.241,0.265-0.241h0.109c0.073,0,0.139,0.03,0.189,0.077
	c0.119-0.048,0.263-0.077,0.421-0.077c0.412,0,0.75,0.203,0.75,0.453c0,0.251-0.338,0.454-0.75,0.454
	c-0.164,0-0.314-0.032-0.436-0.084c-0.106,0.021-0.225,0.034-0.351,0.034C10.067,9.686,9.716,9.546,9.716,9.372z"/>
</svg>
