<?xml version="1.0" encoding="iso-8859-1"?>
<!-- Generator: Adobe Illustrator 16.0.0, SVG Export Plug-In . SVG Version: 6.00 Build 0)  -->
<!DOCTYPE svg PUBLIC "-//W3C//DTD SVG 1.1//EN" "http://www.w3.org/Graphics/SVG/1.1/DTD/svg11.dtd">
<svg version="1.1" id="Capa_1" xmlns="http://www.w3.org/2000/svg" xmlns:xlink="http://www.w3.org/1999/xlink" x="0px" y="0px"
	 width="24.52px" height="23.663px" viewBox="0 0 24.52 23.663" style="enable-background:new 0 0 24.52 23.663;"
	 xml:space="preserve">
<g>
	<path style="fill:#2D2D2D;" d="M21.682,12.594H11.067V1.98c0-0.083-0.068-0.151-0.151-0.151C4.896,1.83,0,6.726,0,12.745
		c0,6.021,4.896,10.918,10.916,10.918s10.917-4.898,10.917-10.918C21.833,12.662,21.763,12.594,21.682,12.594z"/>
	<path style="fill:#2D2D2D;" d="M12.544,10.992c0.02,0.008,0.038,0.011,0.059,0.011c0.039,0,0.079-0.017,0.108-0.047l7.368-7.771
		c0.027-0.028,0.043-0.067,0.041-0.107c0-0.041-0.018-0.079-0.048-0.106C18.037,1.055,15.383,0,12.603,0
		c-0.085,0-0.153,0.067-0.153,0.151v10.701C12.449,10.914,12.488,10.969,12.544,10.992z M18.433,3.167L13.659,8.2V1.266
		C15.39,1.456,17.035,2.11,18.433,3.167z"/>
	<path style="fill:#2D2D2D;" d="M21.075,3.491c-0.062-0.057-0.155-0.055-0.215,0.006l-7.366,7.771
		c-0.027,0.027-0.042,0.065-0.042,0.104v0.062c0,0.084,0.068,0.151,0.151,0.151h10.765c0.083,0,0.151-0.067,0.151-0.151
		C24.52,8.404,23.296,5.583,21.075,3.491z M16.003,10.378l4.973-5.245c1.284,1.492,2.07,3.299,2.279,5.245H16.003z"/>
</g>
<g>
</g>
<g>
</g>
<g>
</g>
<g>
</g>
<g>
</g>
<g>
</g>
<g>
</g>
<g>
</g>
<g>
</g>
<g>
</g>
<g>
</g>
<g>
</g>
<g>
</g>
<g>
</g>
<g>
</g>
</svg>
