<?xml version="1.0" encoding="iso-8859-1"?>
<!-- Generator: Adobe Illustrator 16.0.0, SVG Export Plug-In . SVG Version: 6.00 Build 0)  -->
<!DOCTYPE svg PUBLIC "-//W3C//DTD SVG 1.1//EN" "http://www.w3.org/Graphics/SVG/1.1/DTD/svg11.dtd">
<svg version="1.1" id="Capa_1" xmlns="http://www.w3.org/2000/svg" xmlns:xlink="http://www.w3.org/1999/xlink" x="0px" y="0px"
	 width="22.906px" height="27.661px" viewBox="0 0 22.906 27.661" style="enable-background:new 0 0 22.906 27.661;"
	 xml:space="preserve">
<g>
	<rect x="1.1" y="24.298" style="fill:#2D2D2D;" width="20.707" height="3.363"/>
	<rect x="1.1" y="13.896" style="fill:#2D2D2D;" width="4.106" height="9.612"/>
	<rect x="6.724" y="13.896" style="fill:#2D2D2D;" width="4.105" height="9.612"/>
	<rect x="12.199" y="13.896" style="fill:#2D2D2D;" width="4.105" height="9.612"/>
	<rect x="17.702" y="13.896" style="fill:#2D2D2D;" width="4.105" height="9.612"/>
	<polygon style="fill:#2D2D2D;" points="13.917,8.915 13.917,7.896 13.917,1.878 12.355,1.878 12.355,4.699 10.552,4.699 
		10.552,1.878 8.99,1.878 8.99,7.896 8.99,8.915 8.99,9.273 1.1,9.273 1.1,13.171 21.807,13.171 21.807,9.273 13.917,9.273 	"/>
	<path style="fill:#2D2D2D;" d="M4.088,8.915c0.896,0,1.789-0.381,2.451-1.04c0.66-0.663,1.04-1.555,1.04-2.451
		c0-1.661-1.354-3.015-3.015-3.015c-0.48,0-0.938,0.129-1.34,0.366C3.668,2.429,4.227,2.22,4.832,2.22h13.243
		c0.605,0,1.165,0.209,1.607,0.556c-0.402-0.237-0.861-0.366-1.339-0.366c-1.662,0-3.014,1.354-3.014,3.015
		c-0.001,0.896,0.379,1.788,1.041,2.451c0.66,0.659,1.554,1.04,2.45,1.04c2.253,0,4.087-1.833,4.087-4.088
		c0-1.288-0.503-2.5-1.418-3.412C20.579,0.503,19.366,0,18.075,0H4.832C3.544,0,2.33,0.503,1.418,1.415C0.504,2.327,0,3.539,0,4.827
		C0,7.082,1.835,8.915,4.088,8.915z M1.952,1.95c0.74-0.738,1.758-1.195,2.88-1.195h13.243c1.123,0,2.142,0.457,2.879,1.195
		c0.739,0.736,1.194,1.756,1.194,2.877c0,1.839-1.491,3.33-3.329,3.33c-1.458,0-2.733-1.271-2.733-2.733
		c0-1.246,1.013-2.261,2.257-2.261c1.037,0,1.878,0.846,1.876,1.88c0,0.867-0.706,1.573-1.571,1.573
		c-0.733,0-1.328-0.597-1.328-1.328h0.705c0,0.343,0.279,0.62,0.623,0.62c0.476,0,0.864-0.387,0.864-0.865
		c0-0.645-0.523-1.17-1.169-1.17c-0.853,0-1.55,0.696-1.55,1.551c-0.001,1.083,0.942,2.027,2.024,2.027h0.002
		c1.447,0,2.624-1.176,2.624-2.624c-0.002-1.855-1.513-3.363-3.368-3.365H4.832c-1.854,0.002-3.366,1.51-3.368,3.365
		c0,1.448,1.176,2.624,2.624,2.624c1.084,0,2.027-0.944,2.027-2.027c0-0.854-0.694-1.551-1.551-1.551c-0.644,0-1.17,0.525-1.17,1.17
		c0,0.479,0.389,0.865,0.865,0.865c0.345,0,0.622-0.277,0.622-0.62h0.707c0,0.731-0.596,1.328-1.329,1.328
		c-0.867,0-1.571-0.706-1.571-1.573c-0.001-1.034,0.841-1.88,1.875-1.88c0.002,0,0.002,0,0.002,0c1.247,0,2.258,1.015,2.258,2.261
		c0,1.462-1.275,2.733-2.734,2.733c-1.837,0-3.33-1.491-3.33-3.33C0.759,3.706,1.214,2.687,1.952,1.95z"/>
</g>
<g>
</g>
<g>
</g>
<g>
</g>
<g>
</g>
<g>
</g>
<g>
</g>
<g>
</g>
<g>
</g>
<g>
</g>
<g>
</g>
<g>
</g>
<g>
</g>
<g>
</g>
<g>
</g>
<g>
</g>
</svg>
