<?xml version="1.0" encoding="iso-8859-1"?>
<!-- Generator: Adobe Illustrator 16.0.0, SVG Export Plug-In . SVG Version: 6.00 Build 0)  -->
<!DOCTYPE svg PUBLIC "-//W3C//DTD SVG 1.1//EN" "http://www.w3.org/Graphics/SVG/1.1/DTD/svg11.dtd">
<svg version="1.1" id="Capa_1" xmlns="http://www.w3.org/2000/svg" xmlns:xlink="http://www.w3.org/1999/xlink" x="0px" y="0px"
	 width="19.568px" height="23.755px" viewBox="0 0 19.568 23.755" style="enable-background:new 0 0 19.568 23.755;"
	 xml:space="preserve">
<g>
	<path style="fill:#2D2D2D;" d="M8.129,20.757v-1.545c-1.302,0.219-2.277,0.844-2.277,1.565c0,0.896,1.497,1.654,3.27,1.654
		s3.27-0.758,3.27-1.654c0-0.721-0.975-1.346-2.277-1.565v1.545c0,0.548-0.444,0.992-0.992,0.992
		C8.573,21.749,8.129,21.305,8.129,20.757z"/>
	<rect x="8.129" style="fill:#2D2D2D;" width="1.985" height="2.284"/>
	<path style="fill:#2D2D2D;" d="M8.129,19.197C6.421,19.45,5.19,20.343,5.19,21.438c0,1.299,1.728,2.317,3.932,2.317
		c2.205,0,3.931-1.018,3.931-2.317c0-1.095-1.23-1.989-2.939-2.241V9.216H8.129V19.197z M10.114,21.418v-1.544
		c1.302,0.22,2.277,0.843,2.277,1.565c0,0.897-1.497,1.655-3.27,1.655s-3.27-0.758-3.27-1.655c0-0.722,0.975-1.345,2.277-1.565
		v1.544c0,0.549,0.444,0.993,0.993,0.993C9.67,22.411,10.114,21.967,10.114,21.418z"/>
	<path style="fill:#2D2D2D;" d="M19.464,5.532l-2.65-2.497c-0.062-0.057-0.143-0.089-0.227-0.089h-6.472H8.129H0.331
		c-0.136,0-0.259,0.084-0.309,0.212C-0.027,3.285,0.007,3.43,0.108,3.521l2.388,2.16L0.102,7.984
		C0.004,8.078-0.027,8.221,0.024,8.346c0.05,0.125,0.172,0.208,0.307,0.208h7.799h1.985h6.472c0.083,0,0.164-0.032,0.225-0.088
		l2.651-2.45c0.067-0.062,0.106-0.148,0.106-0.241C19.569,5.682,19.531,5.594,19.464,5.532z"/>
</g>
<g>
</g>
<g>
</g>
<g>
</g>
<g>
</g>
<g>
</g>
<g>
</g>
<g>
</g>
<g>
</g>
<g>
</g>
<g>
</g>
<g>
</g>
<g>
</g>
<g>
</g>
<g>
</g>
<g>
</g>
</svg>
