<?xml version="1.0" encoding="utf-8"?>
<!-- Generator: Adobe Illustrator 16.0.4, SVG Export Plug-In . SVG Version: 6.00 Build 0)  -->
<!DOCTYPE svg PUBLIC "-//W3C//DTD SVG 1.1//EN" "http://www.w3.org/Graphics/SVG/1.1/DTD/svg11.dtd">
<svg version="1.1" id="Capa_1" xmlns="http://www.w3.org/2000/svg" xmlns:xlink="http://www.w3.org/1999/xlink" x="0px" y="0px"
	 width="42.504px" height="55.473px" viewBox="0 0 42.504 55.473" enable-background="new 0 0 42.504 55.473" xml:space="preserve">
<path fill="#2D2D2D" d="M42.493,24.445c-0.063-0.394-0.317-0.663-0.529-0.83c-0.226-0.178-0.458-0.291-0.688-0.392
	c-0.463-0.197-0.928-0.317-1.393-0.418c-0.929-0.195-1.855-0.291-2.783-0.342c-1.852-0.104-3.695-0.072-5.531,0.047
	c-1.42,0.09-2.834,0.225-4.243,0.381c-1.476-1.919-3.798-3.152-6.402-3.126c-3.413,0.039-6.293,2.216-7.397,5.244
	c-1.24,0.245-2.478,0.507-3.708,0.807c-1.789,0.428-3.556,0.958-5.292,1.608c-0.868,0.325-1.723,0.7-2.546,1.168
	c-0.412,0.232-0.816,0.487-1.195,0.812c-0.189,0.164-0.372,0.342-0.529,0.572c-0.151,0.224-0.299,0.536-0.245,0.907
	c0.058,0.363,0.297,0.618,0.507,0.78c0.219,0.17,0.448,0.276,0.676,0.372c0.458,0.189,0.919,0.307,1.382,0.396
	c0.924,0.18,1.85,0.265,2.772,0.314c1.847,0.095,3.687,0.055,5.522-0.021c1.247-0.062,2.491-0.15,3.735-0.251
	c1.47,1.982,3.829,3.261,6.484,3.231c3.372-0.035,6.226-2.166,7.359-5.137c1.407-0.286,2.811-0.594,4.202-0.959
	c1.781-0.466,3.551-0.991,5.287-1.651c0.867-0.331,1.724-0.702,2.553-1.169c0.412-0.234,0.82-0.488,1.205-0.815
	c0.188-0.165,0.377-0.345,0.537-0.58C42.389,25.169,42.548,24.843,42.493,24.445z M13.863,31.26
	c-0.547,0.048-1.096,0.097-1.645,0.133c-1.593,0.104-3.19,0.173-4.785,0.122c-0.796-0.029-1.593-0.078-2.379-0.193
	c-0.392-0.058-0.782-0.134-1.155-0.252c-0.35-0.119-0.781-0.292-0.849-0.616c-0.031-0.329,0.329-0.624,0.628-0.84
	C4,29.389,4.352,29.201,4.709,29.032c0.716-0.342,1.465-0.62,2.218-0.88c1.51-0.511,3.052-0.927,4.603-1.306
	c0.534-0.128,1.073-0.241,1.61-0.358c-0.031,0.2-0.059,0.403-0.076,0.609c-5.024,1.083-8.827,2.298-8.697,3.157
	c0.13,0.854,4.123,0.891,9.242,0.437C13.687,30.885,13.772,31.073,13.863,31.26z M13.556,30.553
	c-5.51,0.487-8.945,0.316-9.042-0.322c-0.097-0.64,3.135-1.818,8.545-2.987c-0.012,0.192-0.026,0.384-0.024,0.579
	C13.045,28.785,13.234,29.701,13.556,30.553z M11.467,32.23c-1.724,0.061-3.456,0.046-5.178-0.104
	c-0.86-0.077-1.72-0.186-2.561-0.375c-0.419-0.098-0.835-0.217-1.223-0.391c-0.375-0.16-0.776-0.437-0.816-0.728
	c-0.045-0.293,0.264-0.664,0.577-0.922c0.322-0.271,0.688-0.498,1.062-0.705c0.751-0.414,1.546-0.75,2.342-1.078
	c1.602-0.642,3.252-1.146,4.905-1.64c0.918-0.268,1.843-0.515,2.77-0.745c-0.061,0.213-0.116,0.429-0.159,0.647
	c-0.573,0.134-1.145,0.269-1.715,0.412c-1.553,0.39-3.098,0.821-4.613,1.35c-0.757,0.266-1.508,0.553-2.233,0.902
	c-0.362,0.177-0.718,0.37-1.054,0.603c-0.167,0.118-0.328,0.249-0.469,0.407c-0.133,0.158-0.272,0.363-0.236,0.615
	c0.041,0.251,0.235,0.408,0.409,0.52c0.181,0.106,0.373,0.186,0.568,0.249c0.39,0.121,0.787,0.199,1.186,0.261
	c0.796,0.116,1.599,0.166,2.4,0.189c1.603,0.043,3.205,0.01,4.805-0.073c0.585-0.029,1.17-0.072,1.754-0.116
	c0.104,0.19,0.217,0.379,0.335,0.561C13.372,32.141,12.42,32.2,11.467,32.23z M28.15,24.222c0.77-0.071,1.539-0.137,2.309-0.194
	c1.592-0.116,3.188-0.189,4.781-0.168c0.796,0.015,1.595,0.058,2.381,0.168c0.395,0.056,0.785,0.126,1.161,0.243
	c0.352,0.121,0.79,0.281,0.874,0.636c0.025,0.371-0.344,0.647-0.645,0.868c-0.324,0.225-0.675,0.415-1.035,0.582
	c-0.724,0.334-1.474,0.607-2.229,0.855c-1.517,0.492-3.063,0.889-4.615,1.261c-0.75,0.179-1.504,0.344-2.26,0.5
	c0.03-0.195,0.06-0.39,0.075-0.589c5.158-1.099,9.102-2.343,8.97-3.215c-0.133-0.875-4.271-0.895-9.524-0.412
	C28.318,24.573,28.236,24.397,28.15,24.222z M28.445,24.894c5.676-0.52,9.227-0.354,9.324,0.298c0.1,0.651-3.242,1.86-8.816,3.046
	c0.013-0.193,0.025-0.387,0.023-0.585C28.967,26.68,28.773,25.752,28.445,24.894z M40.154,25.585
	c-0.317,0.271-0.68,0.498-1.053,0.704c-0.748,0.415-1.539,0.753-2.338,1.074c-1.603,0.631-3.248,1.143-4.91,1.598
	c-1.043,0.282-2.092,0.544-3.144,0.79c0.032-0.119,0.063-0.244,0.09-0.366c0.808-0.188,1.611-0.377,2.413-0.583
	c1.555-0.396,3.092-0.851,4.602-1.394c0.752-0.275,1.502-0.569,2.224-0.927c0.358-0.179,0.716-0.368,1.046-0.604
	c0.166-0.116,0.325-0.244,0.463-0.4c0.131-0.152,0.262-0.36,0.229-0.584l-0.002-0.007c-0.035-0.234-0.221-0.388-0.389-0.498
	c-0.179-0.109-0.369-0.188-0.562-0.251c-0.384-0.126-0.782-0.206-1.179-0.27c-0.795-0.122-1.6-0.176-2.398-0.217
	c-1.604-0.072-3.207-0.041-4.809,0.026c-0.828,0.035-1.653,0.093-2.479,0.16c-0.097-0.174-0.201-0.336-0.31-0.498
	c1.111-0.067,2.226-0.119,3.338-0.14c1.727-0.019,3.453-0.015,5.171,0.128c0.854,0.08,1.715,0.174,2.553,0.352
	c0.416,0.093,0.83,0.204,1.213,0.367c0.371,0.148,0.763,0.424,0.785,0.669C40.755,24.959,40.465,25.332,40.154,25.585z"/>
</svg>
