<?xml version="1.0" encoding="utf-8"?>
<!-- Generator: Adobe Illustrator 17.0.0, SVG Export Plug-In . SVG Version: 6.00 Build 0)  -->
<!DOCTYPE svg PUBLIC "-//W3C//DTD SVG 1.1//EN" "http://www.w3.org/Graphics/SVG/1.1/DTD/svg11.dtd">
<svg version="1.1" id="Capa_1" xmlns="http://www.w3.org/2000/svg" xmlns:xlink="http://www.w3.org/1999/xlink" x="0px" y="0px"
	 width="24.752px" height="24.815px" viewBox="0 0 24.752 24.815" enable-background="new 0 0 24.752 24.815" xml:space="preserve">
<path fill="#2D2D2D" d="M9.636,20.485c3.078,0,5.573-2.495,5.573-5.572c0-3.077-2.495-5.572-5.573-5.572
	c-3.075,0-5.571,2.496-5.571,5.572C4.064,17.991,6.561,20.485,9.636,20.485z M8.323,12.436c0-0.107,0.06-0.206,0.156-0.255
	c0.095-0.05,0.209-0.043,0.298,0.018l3.614,2.478c0.077,0.053,0.126,0.143,0.126,0.238c0,0.096-0.049,0.185-0.126,0.239L8.777,17.63
	c-0.05,0.034-0.105,0.051-0.166,0.051c-0.044,0-0.091-0.012-0.132-0.034c-0.097-0.05-0.156-0.148-0.156-0.256V12.436z M24.098,0
	H6.138C5.774,0,5.481,0.293,5.481,0.656v2.007H3.474c-0.361,0-0.656,0.293-0.656,0.656v2.225H0.656C0.293,5.544,0,5.836,0,6.199
	v17.96c0,0.363,0.293,0.656,0.656,0.656h17.96c0.361,0,0.656-0.293,0.656-0.656v-2.224h2.162c0.36,0,0.655-0.294,0.655-0.656v-2.007
	h2.008c0.361,0,0.654-0.293,0.654-0.656V0.656C24.752,0.293,24.459,0,24.098,0z M17.96,23.502H1.313V6.855H17.96V23.502z
	 M20.777,20.623h-1.505V6.199c0-0.363-0.294-0.655-0.656-0.655H4.13V3.976h16.647V20.623z M23.439,17.96h-1.35V3.319
	c0.001-0.362-0.294-0.656-0.654-0.656H6.793V1.312h16.646V17.96z"/>
</svg>
