<?xml version="1.0" encoding="iso-8859-1"?>
<!-- Generator: Adobe Illustrator 16.0.0, SVG Export Plug-In . SVG Version: 6.00 Build 0)  -->
<!DOCTYPE svg PUBLIC "-//W3C//DTD SVG 1.1//EN" "http://www.w3.org/Graphics/SVG/1.1/DTD/svg11.dtd">
<svg version="1.1" id="Capa_1" xmlns="http://www.w3.org/2000/svg" xmlns:xlink="http://www.w3.org/1999/xlink" x="0px" y="0px"
	 width="37.4px" height="21.946px" viewBox="0 0 37.4 21.946" style="enable-background:new 0 0 37.4 21.946;" xml:space="preserve"
	>
<g>
	<path style="fill:#2D2D2D;" d="M18.701,5.401c-6.218,0-11.687,4.408-13,10.483l-0.143,0.661h26.284l-0.142-0.661
		C30.384,9.809,24.917,5.401,18.701,5.401z M6.932,15.455c1.444-5.233,6.29-8.963,11.77-8.963s10.324,3.73,11.77,8.963H6.932z"/>
	<path style="fill:#2D2D2D;" d="M18.701,0C8.389,0,0,8.389,0,18.701v3.245h37.4v-3.245C37.4,8.389,29.013,0,18.701,0z
		 M36.311,20.856h-0.784v-1.599h-0.378v1.599h-1.126v-1.599h-0.378v1.599h-1.019v-1.599h-0.377l-0.002,1.599h-0.946v-3.223l-0.378,0
		v3.223h-0.884v-1.599h-0.377v1.599h-1.128v-1.6l-0.378,0.001v1.599h-1.02v-1.599h-0.376v1.599h-1.037v-3.223l-0.376,0l-0.002,3.223
		h-1.018l-0.002-1.599l-0.376-0.001v1.6h-1.127l0.002-1.599h-0.378v1.599h-1.02v-1.6l-0.378,0.001v1.599h-1.037v-3.223h-0.377v3.223
		h-0.935v-1.599h-0.378v1.599h-1.126v-1.599h-0.378v1.599H15.8v-1.599h-0.378v1.599h-0.946v-3.222l-0.378,0v3.223h-0.885v-1.599
		h-0.378v1.599H11.71v-1.599l-0.378,0v1.599h-1.02v-1.599H9.935v1.599H8.898v-3.223l-0.377,0l-0.001,3.222h-1.02v-1.599l-0.377,0
		v1.599H5.998v-1.599H5.622v1.599h-1.02v-1.599l-0.378,0v1.599H3.187v-3.222H2.812v3.222H1.09v-2.155
		C1.09,8.99,8.989,1.09,18.701,1.09c9.709,0,17.609,7.899,17.609,17.611V20.856z"/>
</g>
<g>
</g>
<g>
</g>
<g>
</g>
<g>
</g>
<g>
</g>
<g>
</g>
<g>
</g>
<g>
</g>
<g>
</g>
<g>
</g>
<g>
</g>
<g>
</g>
<g>
</g>
<g>
</g>
<g>
</g>
</svg>
