<?xml version="1.0" encoding="iso-8859-1"?>
<!-- Generator: Adobe Illustrator 16.0.0, SVG Export Plug-In . SVG Version: 6.00 Build 0)  -->
<!DOCTYPE svg PUBLIC "-//W3C//DTD SVG 1.1//EN" "http://www.w3.org/Graphics/SVG/1.1/DTD/svg11.dtd">
<svg version="1.1" id="Capa_1" xmlns="http://www.w3.org/2000/svg" xmlns:xlink="http://www.w3.org/1999/xlink" x="0px" y="0px"
	 width="20.566px" height="25.161px" viewBox="0 0 20.566 25.161" style="enable-background:new 0 0 20.566 25.161;"
	 xml:space="preserve">
<g>
	<path style="fill:#2D2D2D;" d="M20.135,4.784l-6.133-4.57C13.81,0.07,13.583,0,13.361,0c-0.327,0-0.65,0.149-0.859,0.433
		c-0.354,0.474-0.257,1.146,0.218,1.499l0.863,0.643c-0.6,0.824-3.776,5.053-5.69,5.195c-2.119,0.159-2.836,3.273-2.836,3.273
		l2.597,1.936l-7.649,12.18l9.688-10.66l2.594,1.934c0,0,2.669-1.303,2.325-3.648c-0.308-2.111,2.74-6.156,3.353-6.941l0.889,0.66
		c0.195,0.145,0.418,0.213,0.64,0.213c0.33,0,0.65-0.149,0.863-0.43C20.708,5.81,20.609,5.137,20.135,4.784z M17.026,5.111
		c-1.2,1.541-3.95,5.387-3.591,7.844c0.133,0.911-0.561,1.629-1.094,2.036L10.4,13.544l-0.863-0.644l-0.294-0.22l-0.88-0.655
		L6.45,10.599c0.287-0.696,0.808-1.59,1.53-1.644c2.227-0.167,5.067-3.63,6.563-5.681L17.026,5.111z"/>
	<polygon style="fill:#2D2D2D;" points="0,25.161 0.004,25.158 0,25.161 	"/>
</g>
<g>
</g>
<g>
</g>
<g>
</g>
<g>
</g>
<g>
</g>
<g>
</g>
<g>
</g>
<g>
</g>
<g>
</g>
<g>
</g>
<g>
</g>
<g>
</g>
<g>
</g>
<g>
</g>
<g>
</g>
</svg>
