<?xml version="1.0" encoding="iso-8859-1"?>
<!-- Generator: Adobe Illustrator 16.0.0, SVG Export Plug-In . SVG Version: 6.00 Build 0)  -->
<!DOCTYPE svg PUBLIC "-//W3C//DTD SVG 1.1//EN" "http://www.w3.org/Graphics/SVG/1.1/DTD/svg11.dtd">
<svg version="1.1" id="Capa_1" xmlns="http://www.w3.org/2000/svg" xmlns:xlink="http://www.w3.org/1999/xlink" x="0px" y="0px"
	 width="25.086px" height="27.107px" viewBox="0 0 25.086 27.107" style="enable-background:new 0 0 25.086 27.107;"
	 xml:space="preserve">
<g>
	<path style="fill:#2D2D2D;" d="M22.12,23.509c0.735-0.859,1.269-1.748,1.602-2.666c0.443-1.202,0.664-2.596,0.664-4.182
		c0-2.996-0.798-5.326-2.391-6.991c-1.264-1.319-2.885-2.106-4.855-2.38c0.024-0.216,0.014-0.392-0.049-0.499
		c-0.06-0.103-0.152-0.184-0.382-0.456l-1.896-2.255l-1.874,3.386l-1.595,2.884l-2.883-0.053l-4.179-0.076l1.145,2.96
		c-0.001-0.005,0.001-0.011,0.003-0.018c-0.001,0.14,0.027,0.266,0.091,0.376c0.144,0.246,0.631,0.467,1.295,0.649
		c-0.14,0.768-0.218,1.587-0.218,2.472c0,3.004,0.799,5.337,2.397,6.998c1.598,1.66,3.807,2.49,6.627,2.49
		c2.03,0,3.574-0.777,4.563-1.358l4.106,2.316l0.794-2.046L22.12,23.509z M20.211,19.391c-0.238,0.792-0.595,1.468-1.071,2.027
		l-3.492-1.877l-1.039,2.116l2.29,1.151c-0.476,0.176-0.98,0.262-1.514,0.262c-1.436,0-2.623-0.532-3.561-1.596
		c-0.939-1.063-1.408-2.668-1.408-4.813c0-0.727,0.06-1.387,0.171-1.988c1.112,0.018,2.098-0.083,2.559-0.352
		c0.704-0.412,1.911-2.209,2.818-3.961c1.296,0.1,2.365,0.615,3.201,1.551c0.935,1.047,1.402,2.631,1.402,4.75
		C20.567,17.688,20.448,18.598,20.211,19.391z"/>
	<polygon style="fill:#2D2D2D;" points="11.059,9.768 12.186,7.684 16.343,0 6.669,2.191 0,9.583 8.948,9.733 	"/>
	<polygon style="fill:#2D2D2D;" points="0.312,9.989 2.987,15.699 4.425,17.039 3.932,15.147 	"/>
</g>
<g>
</g>
<g>
</g>
<g>
</g>
<g>
</g>
<g>
</g>
<g>
</g>
<g>
</g>
<g>
</g>
<g>
</g>
<g>
</g>
<g>
</g>
<g>
</g>
<g>
</g>
<g>
</g>
<g>
</g>
</svg>
