<?xml version="1.0" encoding="iso-8859-1"?>
<!-- Generator: Adobe Illustrator 16.0.0, SVG Export Plug-In . SVG Version: 6.00 Build 0)  -->
<!DOCTYPE svg PUBLIC "-//W3C//DTD SVG 1.1//EN" "http://www.w3.org/Graphics/SVG/1.1/DTD/svg11.dtd">
<svg version="1.1" id="Capa_1" xmlns="http://www.w3.org/2000/svg" xmlns:xlink="http://www.w3.org/1999/xlink" x="0px" y="0px"
	 width="24.087px" height="24.083px" viewBox="0 0 24.087 24.083" style="enable-background:new 0 0 24.087 24.083;"
	 xml:space="preserve">
<g>
	<path style="fill:#2D2D2D;" d="M10.767,2.554C4.821,2.554,0,7.374,0,13.319c0,5.946,4.821,10.765,10.767,10.765
		c5.943,0,10.764-4.819,10.764-10.765H10.767V2.554z"/>
	<path style="fill:#2D2D2D;" d="M12.716,0c-0.334,0-0.604,0.271-0.604,0.604v10.764c0,0.334,0.27,0.605,0.604,0.605h10.766
		c0.333,0,0.605-0.271,0.605-0.605C24.087,5.1,18.985,0,12.716,0z M13.321,10.765V1.227c5.121,0.301,9.237,4.416,9.538,9.538H13.321
		z"/>
</g>
<g>
</g>
<g>
</g>
<g>
</g>
<g>
</g>
<g>
</g>
<g>
</g>
<g>
</g>
<g>
</g>
<g>
</g>
<g>
</g>
<g>
</g>
<g>
</g>
<g>
</g>
<g>
</g>
<g>
</g>
</svg>
