<?xml version="1.0" encoding="iso-8859-1"?>
<!-- Generator: Adobe Illustrator 16.0.0, SVG Export Plug-In . SVG Version: 6.00 Build 0)  -->
<!DOCTYPE svg PUBLIC "-//W3C//DTD SVG 1.1//EN" "http://www.w3.org/Graphics/SVG/1.1/DTD/svg11.dtd">
<svg version="1.1" id="Capa_1" xmlns="http://www.w3.org/2000/svg" xmlns:xlink="http://www.w3.org/1999/xlink" x="0px" y="0px"
	 width="34.48px" height="27.918px" viewBox="0 0 34.48 27.918" style="enable-background:new 0 0 34.48 27.918;"
	 xml:space="preserve">
<g>
	<path style="fill:#2D2D2D;" d="M4.582,22.373c0,0.257,0.205,0.468,0.468,0.468h11.128c-0.378-0.266-0.722-0.576-1.021-0.933H5.05
		C4.787,21.908,4.582,22.115,4.582,22.373z"/>
	<path style="fill:#2D2D2D;" d="M20.395,23.675c-0.264,0.062-0.534,0.091-0.808,0.112c0.148,0.528,0.329,1.008,0.505,1.395H1.007
		V19.56h13.02c-0.078-0.39-0.115-0.789-0.102-1.19H0.752c-0.363,0-0.652,0.294-0.652,0.653v6.702c0,0.359,0.289,0.654,0.652,0.654
		h20.047c0.004,0,0.004,0,0.004,0c0.365,0,0.66-0.295,0.66-0.654c0-0.072-0.016-0.14-0.037-0.204L20.395,23.675z"/>
	<path style="fill:#2D2D2D;" d="M0.685,17.284h13.387c0.005-0.021,0.007-0.041,0.011-0.062c0.102-0.399,0.253-0.776,0.437-1.134
		H0.938v-5.624h18.867c-0.41,0.767-0.565,1.57-0.565,2.347H4.981c-0.263,0-0.467,0.211-0.467,0.467c0,0.259,0.204,0.468,0.467,0.468
		h11.982c0.701-0.33,1.464-0.511,2.241-0.511c0.354,0,0.702,0.045,1.043,0.115c-0.106-0.999,0.069-2.087,0.944-2.961
		c0.193-0.187,0.244-0.468,0.146-0.714c-0.102-0.243-0.34-0.401-0.606-0.401H0.685c-0.364,0-0.652,0.293-0.652,0.653v6.703
		C0.032,16.989,0.32,17.284,0.685,17.284z"/>
	<path style="fill:#2D2D2D;" d="M0.656,8.012H20.7c0.004,0,0.004,0,0.004,0c0.364,0,0.66-0.294,0.66-0.654
		c0-0.16-0.057-0.305-0.151-0.416c-0.283-0.474-2.13-3.745-0.052-5.824c0.192-0.186,0.244-0.467,0.146-0.715
		C21.204,0.16,20.966,0,20.7,0H0.656C0.291,0,0,0.294,0,0.654v6.703C0,7.718,0.291,8.012,0.656,8.012z M0.907,1.193h18.867
		c-0.411,0.765-0.565,1.569-0.565,2.344H4.949c-0.262,0-0.468,0.212-0.468,0.468c0,0.259,0.206,0.467,0.468,0.467h14.329
		c0.136,0.912,0.439,1.736,0.715,2.344H0.907V1.193z"/>
	<path style="fill:#2D2D2D;" d="M34.456,22.968L29.143,3.64c-0.002-0.004-0.002-0.004-0.002-0.004
		c-0.096-0.353-0.459-0.559-0.806-0.462c-0.152,0.042-0.278,0.134-0.361,0.252c-0.38,0.401-3.045,3.05-5.601,1.595
		c-0.231-0.134-0.518-0.109-0.729,0.051c-0.208,0.164-0.298,0.436-0.226,0.692l5.315,19.328c0.096,0.352,0.456,0.552,0.802,0.455
		l6.463-1.777C34.345,23.677,34.555,23.318,34.456,22.968z M27.814,24.531L22.812,6.34c0.848,0.192,1.664,0.128,2.411-0.078
		l3.781,13.749c0.07,0.254,0.326,0.396,0.575,0.328c0.249-0.068,0.396-0.322,0.326-0.575L26.105,5.948
		c0.844-0.374,1.557-0.885,2.07-1.31l5.06,18.402L27.814,24.531z"/>
	<path style="fill:#2D2D2D;" d="M22.646,16.393c-1.178-1.974-3.73-2.62-5.705-1.444c-1.973,1.175-2.62,3.728-1.444,5.703
		c1.095,1.837,3.384,2.523,5.29,1.658l3.135,5.608l1.355-0.742l-3.57-5.438C23.277,20.457,23.712,18.187,22.646,16.393z
		 M20.67,21.199c-1.484,0.884-3.396,0.399-4.28-1.081c-0.882-1.481-0.395-3.395,1.084-4.276c1.48-0.883,3.396-0.397,4.278,1.082
		C22.636,18.404,22.148,20.319,20.67,21.199z"/>
</g>
<g>
</g>
<g>
</g>
<g>
</g>
<g>
</g>
<g>
</g>
<g>
</g>
<g>
</g>
<g>
</g>
<g>
</g>
<g>
</g>
<g>
</g>
<g>
</g>
<g>
</g>
<g>
</g>
<g>
</g>
</svg>
