<?xml version="1.0" encoding="utf-8"?>
<!-- Generator: Adobe Illustrator 16.0.4, SVG Export Plug-In . SVG Version: 6.00 Build 0)  -->
<!DOCTYPE svg PUBLIC "-//W3C//DTD SVG 1.1//EN" "http://www.w3.org/Graphics/SVG/1.1/DTD/svg11.dtd">
<svg version="1.1" id="Capa_1" xmlns="http://www.w3.org/2000/svg" xmlns:xlink="http://www.w3.org/1999/xlink" x="0px" y="0px"
	 width="23.389px" height="27.115px" viewBox="0 0 23.389 27.115" enable-background="new 0 0 23.389 27.115" xml:space="preserve">
<path fill="#2D2D2D" d="M6.177,10.816c-0.417,0.104-0.841-0.158-0.946-0.584s0.146-0.855,0.563-0.959
	C6.211,9.17,6.635,9.432,6.74,9.857C6.847,10.284,6.594,10.713,6.177,10.816z M12.981,5.941c-0.919,0-1.667,0.731-1.667,1.631
	c0,0.898,0.749,1.63,1.667,1.63c0.917,0,1.667-0.731,1.667-1.63C14.647,6.673,13.898,5.941,12.981,5.941z M23.374,15.194
	l-0.162-0.551l-0.171-0.537l-0.205-0.5l-0.19-0.496l-0.193-0.486l-0.18-0.477l-0.146-0.499l-0.119-0.498l0.026-0.229l0.104-0.218
	l0.108-0.229l0.024-0.214L22.18,9.824l-0.11-0.436l-0.115-0.442L21.816,8.52l-0.144-0.434l-0.151-0.425l-0.163-0.435l-0.171-0.42
	l-0.188-0.397l-0.205-0.407l-0.196-0.4l0.614-0.379l-0.214-0.374l-0.244-0.347l-0.241-0.353l-0.244-0.336l-0.229-0.28l-0.242-0.27
	l-0.242-0.245l-0.251-0.241L19.05,2.548l0.562-0.215l-0.291-0.196l-0.277-0.205l-0.297-0.176l-0.293-0.17l-0.31-0.165l-0.311-0.15
	l-0.32-0.145l-0.34-0.136L16.84,0.858l-0.336-0.124L16.1,0.603L15.7,0.499l-0.406-0.11l-0.399-0.093l-0.419-0.085l-0.414-0.066
	l-0.417-0.053l-0.42-0.039l-0.412-0.026l-0.42-0.014L11.978,0l-0.433,0.013l-0.419,0.014l-0.414,0.026l-0.419,0.039L9.881,0.145
	L9.449,0.211L9.022,0.296L8.59,0.377L8.159,0.463L7.731,0.589l-0.43,0.117L6.868,0.844L6.453,0.99L6.047,1.153L5.648,1.345
	L5.241,1.526L4.855,1.729l-0.38,0.229l-0.361,0.23L3.766,2.444l-0.341,0.27L3.119,2.982L2.824,3.264L2.543,3.56L2.273,3.866
	l-0.255,0.34L1.761,4.528L1.531,4.875l-0.217,0.36l-0.21,0.366L0.917,5.974l-0.163,0.38L0.596,6.731L0.46,7.121L0.341,7.51
	l-0.1,0.405L0.163,8.304l-0.118,0.83L0,9.951l0.02,0.818l0.079,0.807l0.131,0.81l0.215,0.791l0.271,0.769l2.021,3.28
	c3.429,3.528,3.282,7.059,3.282,7.059l0.009,0.693l0.027,2.141h11.682l0.052-0.221v-0.684l0.024-0.688l0.052-1.532l0.079-0.778
	l0.038-0.185l0.074-0.148l0.078-0.133l0.104-0.11l0.141-0.078l0.158-0.054l0.176-0.058l0.188-0.028l0.244-0.024l0.229-0.013h0.056
	l0.229,0.024l0.217,0.013L20.1,22.45l0.209,0.017l0.243,0.029l0.23,0.024l-0.575,0.013l0.254,0.028l0.257,0.013l0.28,0.014
	l0.164-0.014l0.169-0.041l0.175-0.066l0.166-0.082l0.158-0.104l0.137-0.125l0.114-0.134l0.1-0.139l0.065-0.295l-0.035-0.318
	l-0.062-0.317V20.64l0.047-0.138l0.065-0.114l0.065-0.127l0.081-0.104l0.083-0.111l0.062-0.117l0.054-0.123l0.015-0.132
	l-0.015-0.149l-0.023-0.131l-0.041-0.141l-0.066-0.13l-0.097-0.124l-0.106-0.119l-0.124-0.09l-0.144-0.102l0.156-0.078l0.148-0.092
	l0.152-0.109l0.104-0.104l0.095-0.123l0.057-0.135l0.029-0.123l-0.029-0.132l-0.149-0.476l-0.093-0.43l-0.058-0.4v-0.395
	l0.229-0.091l0.204-0.093l0.178-0.1l0.146-0.104l0.112-0.117l0.063-0.124l0.039-0.13L23.374,15.194z M8.206,11.113L7.93,11.578
	c-0.018,0.033-0.717-0.113-0.717-0.113l-0.258,0.194c0,0-0.094,0.727-0.125,0.733L6.31,12.521c-0.035,0.007-0.434-0.598-0.434-0.598
	l-0.318-0.047c0,0-0.566,0.438-0.6,0.418L4.5,12.011c-0.033-0.021,0.102-0.729,0.102-0.729l-0.188-0.266c0,0-0.712-0.1-0.723-0.136
	l-0.13-0.529C3.552,10.315,4.14,9.913,4.14,9.913l0.047-0.321c0,0-0.438-0.585-0.419-0.615l0.274-0.466
	c0.02-0.031,0.717,0.112,0.717,0.112l0.258-0.191c0,0,0.092-0.724,0.126-0.733L5.66,7.573c0.038-0.01,0.437,0.596,0.437,0.596
	l0.317,0.049c0,0,0.566-0.439,0.598-0.422L7.471,8.08C7.503,8.1,7.37,8.809,7.37,8.809L7.56,9.075c0,0,0.711,0.1,0.723,0.138
	l0.13,0.527c0.009,0.036-0.58,0.436-0.58,0.436l-0.046,0.325C7.786,10.501,8.224,11.082,8.206,11.113z M18.18,8.152L18.18,8.152
	c-0.001,0.079-1.431,0.588-1.431,0.588l-0.264,0.622c0,0,0.611,1.376,0.56,1.431l-0.812,0.791c-0.054,0.053-1.433-0.576-1.433-0.576
	l-0.637,0.258c0,0-0.562,1.395-0.641,1.395h-1.141c-0.079,0-0.599-1.398-0.599-1.398l-0.64-0.258c0,0-1.401,0.597-1.458,0.544
	L8.884,10.76c-0.055-0.056,0.588-1.404,0.588-1.404L9.208,8.732c0,0-1.426-0.55-1.426-0.625V6.989c0-0.077,1.43-0.586,1.43-0.586
	l0.262-0.622c0,0-0.61-1.379-0.557-1.432L9.725,3.56c0.059-0.054,1.437,0.574,1.437,0.574l0.636-0.257c0,0,0.562-1.396,0.638-1.396
	h1.145c0.077,0,0.6,1.4,0.6,1.4l0.634,0.256c0,0,1.407-0.598,1.461-0.542l0.811,0.789c0.056,0.055-0.587,1.404-0.587,1.404
	L16.76,6.41c0,0,1.426,0.55,1.426,0.624v1.118H18.18z"/>
</svg>
