<?xml version="1.0" encoding="iso-8859-1"?>
<!-- Generator: Adobe Illustrator 16.0.0, SVG Export Plug-In . SVG Version: 6.00 Build 0)  -->
<!DOCTYPE svg PUBLIC "-//W3C//DTD SVG 1.1//EN" "http://www.w3.org/Graphics/SVG/1.1/DTD/svg11.dtd">
<svg version="1.1" id="Capa_1" xmlns="http://www.w3.org/2000/svg" xmlns:xlink="http://www.w3.org/1999/xlink" x="0px" y="0px"
	 width="26.608px" height="24.885px" viewBox="0 0 26.608 24.885" style="enable-background:new 0 0 26.608 24.885;"
	 xml:space="preserve">
<g>
	<path style="fill:#2D2D2D;" d="M8.484,0L0,8.486l12.404,12.404l8.485-8.485L8.484,0z M1.791,8.486l6.693-6.694l10.612,10.613
		l-6.692,6.695L1.791,8.486z"/>
	<path style="fill:#2D2D2D;" d="M26.534,17.692l-4.45-4.451c-0.1-0.101-0.261-0.101-0.357,0l-8.487,8.485
		c-0.099,0.099-0.099,0.259,0,0.358l2.711,2.71c0.039,0.042,0.091,0.066,0.147,0.072l3.467,0.015
		c0.076,0.012,0.154-0.017,0.211-0.072l6.759-6.759C26.634,17.952,26.634,17.793,26.534,17.692z"/>
</g>
<g>
</g>
<g>
</g>
<g>
</g>
<g>
</g>
<g>
</g>
<g>
</g>
<g>
</g>
<g>
</g>
<g>
</g>
<g>
</g>
<g>
</g>
<g>
</g>
<g>
</g>
<g>
</g>
<g>
</g>
</svg>
