<?xml version="1.0" encoding="utf-8"?>
<!-- Generator: Adobe Illustrator 17.0.0, SVG Export Plug-In . SVG Version: 6.00 Build 0)  -->
<!DOCTYPE svg PUBLIC "-//W3C//DTD SVG 1.1//EN" "http://www.w3.org/Graphics/SVG/1.1/DTD/svg11.dtd">
<svg version="1.1" id="Capa_1" xmlns="http://www.w3.org/2000/svg" xmlns:xlink="http://www.w3.org/1999/xlink" x="0px" y="0px"
	 width="20.768px" height="30.12px" viewBox="0 0 20.768 30.12" enable-background="new 0 0 20.768 30.12" xml:space="preserve">
<path fill="#2D2D2D" d="M19.875,2.167h-4.12c-0.327-0.36-0.796-0.591-1.32-0.591H12.64V1.272C12.64,0.57,11.783,0,10.729,0
	C9.674,0,8.82,0.57,8.82,1.272v0.304H7.027c-0.527,0-0.995,0.23-1.325,0.591H0.891C0.397,2.167,0,2.567,0,3.059v26.169
	c0,0.492,0.397,0.892,0.891,0.892h18.984c0.493,0,0.893-0.399,0.893-0.892V3.059C20.768,2.567,20.368,2.167,19.875,2.167z
	 M18.982,28.337h-17.2V3.951h3.554c0.241,0.705,0.902,1.214,1.691,1.214h7.407c0.787,0,1.446-0.51,1.688-1.214h2.86V28.337
	L18.982,28.337L18.982,28.337z M4.19,9.406h13.076V10H4.19V9.406z M4.19,11.486h13.076v0.595H4.19V11.486z M4.19,13.752h13.076
	v0.595H4.19V13.752z M4.19,15.832h13.076v0.594H4.19V15.832z M15.276,19.964c-2.027,1.578-3.6,3.595-5.287,5.511
	c-0.266,0.303-0.927,0.745-1.312,0.353c-0.943-0.953-1.901-1.965-2.439-3.209c-0.394-0.917,1.264-2.397,1.702-1.38
	c0.384,0.893,0.984,1.633,1.641,2.332c1.538-1.778,3.059-3.573,4.924-5.026C15.664,17.643,16.247,19.209,15.276,19.964z"/>
</svg>
