<?xml version="1.0" encoding="iso-8859-1"?>
<!-- Generator: Adobe Illustrator 16.0.0, SVG Export Plug-In . SVG Version: 6.00 Build 0)  -->
<!DOCTYPE svg PUBLIC "-//W3C//DTD SVG 1.1//EN" "http://www.w3.org/Graphics/SVG/1.1/DTD/svg11.dtd">
<svg version="1.1" id="Capa_1" xmlns="http://www.w3.org/2000/svg" xmlns:xlink="http://www.w3.org/1999/xlink" x="0px" y="0px"
	 width="29.716px" height="28.473px" viewBox="0 0 29.716 28.473" style="enable-background:new 0 0 29.716 28.473;"
	 xml:space="preserve">
<g>
	<path style="fill:#2D2D2D;" d="M27.905,16.368c0,0-0.004-0.028-0.012-0.037l-0.008-0.023l-0.008,0.007
		C27.069,15.509,12.758,1.198,11.803,0.242C11.635,0.075,11.418,0,11.172,0C9.68,0,7.128,2.728,8.222,3.823
		c1.274,1.274,16.114,16.115,16.114,16.115s4.998,2.101,5.342,1.754C30.024,21.346,27.905,16.368,27.905,16.368z M24.336,18.721
		L8.83,3.214C8.807,3.192,8.806,3.047,8.902,2.812c0.112-0.271,0.301-0.544,0.522-0.8l13.982,13.983
		c0.063,0.063,0.146,0.095,0.229,0.095c0.082,0,0.164-0.032,0.228-0.095c0.125-0.126,0.125-0.331,0-0.456L9.879,1.555
		c0.465-0.407,0.973-0.694,1.292-0.694c0.032,0,0.045,0.003,0.045,0.003c0.845,0.852,12.65,12.658,15.483,15.491L24.336,18.721z"/>
	<path style="fill:#2D2D2D;" d="M5.771,5.217c-0.226-0.227-0.593-0.227-0.82,0L0.17,9.998c-0.227,0.226-0.227,0.594,0,0.821
		l17.486,17.485c0.226,0.226,0.594,0.226,0.82,0l4.781-4.781c0.227-0.226,0.227-0.593,0-0.818L5.771,5.217z M18.066,27.074l-1-1.001
		l1.49-1.49l-0.346-0.347l-1.491,1.491l-1.035-1.035l1.491-1.49l-0.347-0.348l-1.491,1.492l-0.937-0.937l1.492-1.492l-0.347-0.346
		l-1.492,1.491l-0.871-0.871l2.983-2.982l-0.347-0.346l-2.983,2.983l-0.812-0.813l1.491-1.491l-0.347-0.347l-1.491,1.491
		l-1.035-1.035l1.491-1.491l-0.346-0.347l-1.492,1.492L9.36,18.369l1.491-1.491l-0.347-0.347l-1.491,1.492L8.061,17.07l2.982-2.983
		l-0.346-0.345l-2.982,2.981l-0.937-0.936l1.491-1.491l-0.346-0.347L6.432,15.44l-1.035-1.036l1.491-1.49l-0.347-0.348l-1.491,1.491
		l-0.937-0.936l1.492-1.491l-0.347-0.347l-1.491,1.491l-0.953-0.953L5.796,8.84L5.449,8.494l-2.981,2.982l-1.068-1.069l3.961-3.961
		l16.667,16.667L18.066,27.074z"/>
</g>
<g>
</g>
<g>
</g>
<g>
</g>
<g>
</g>
<g>
</g>
<g>
</g>
<g>
</g>
<g>
</g>
<g>
</g>
<g>
</g>
<g>
</g>
<g>
</g>
<g>
</g>
<g>
</g>
<g>
</g>
</svg>
