<?xml version="1.0" encoding="iso-8859-1"?>
<!-- Generator: Adobe Illustrator 16.0.0, SVG Export Plug-In . SVG Version: 6.00 Build 0)  -->
<!DOCTYPE svg PUBLIC "-//W3C//DTD SVG 1.1//EN" "http://www.w3.org/Graphics/SVG/1.1/DTD/svg11.dtd">
<svg version="1.1" id="Capa_1" xmlns="http://www.w3.org/2000/svg" xmlns:xlink="http://www.w3.org/1999/xlink" x="0px" y="0px"
	 width="29.394px" height="26.77px" viewBox="0 0 29.394 26.77" style="enable-background:new 0 0 29.394 26.77;"
	 xml:space="preserve">
<g>
	<rect y="7.046" style="fill:#2D2D2D;" width="3.02" height="4.767"/>
	<rect x="26.445" y="7.046" style="fill:#2D2D2D;" width="2.948" height="4.767"/>
	<path style="fill:#2D2D2D;" d="M25.771,4.492L3.677,4.668v9.43l-1.161,1.201v6.534h24.418v-6.302l-1.162-0.969V4.492z M5.395,5.416
		h8.856v1.63h-1.648v0.916h1.648v4.031H5.395V5.416z M7.589,19.752c-1.027,0-1.858-0.833-1.858-1.858c0-1.026,0.831-1.86,1.858-1.86
		c1.028,0,1.86,0.834,1.86,1.86C9.449,18.919,8.617,19.752,7.589,19.752z M18.21,19.132h-6.971v-0.695h6.971V19.132z M18.21,17.826
		h-6.971v-0.697h6.971V17.826z M18.21,16.401h-6.971v-0.697h6.971V16.401z M21.453,19.752c-1.027,0-1.858-0.833-1.858-1.858
		c0-1.026,0.831-1.86,1.858-1.86s1.858,0.834,1.858,1.86C23.312,18.919,22.48,19.752,21.453,19.752z M23.81,11.993h-8.475V7.962
		h1.847V7.046h-1.847v-1.63h8.475V11.993z"/>
	<rect x="3.677" y="22.385" style="fill:#2D2D2D;" width="3.313" height="4.385"/>
	<rect x="22.579" y="22.385" style="fill:#2D2D2D;" width="3.192" height="4.385"/>
	<path style="fill:#2D2D2D;" d="M25.771,2.037c0,0-2.294-2.037-4.391-2.037C19.285,0,9.424,0.019,7.732,0.019
		c-1.692,0-4.056,2.019-4.056,2.019v1.73h22.095V2.037z M6.205,3.1c-0.481,0-0.87-0.39-0.87-0.873c0-0.479,0.389-0.869,0.87-0.869
		c0.482,0,0.872,0.39,0.872,0.869C7.077,2.71,6.688,3.1,6.205,3.1z M9.1,3.1c-0.48,0-0.872-0.39-0.872-0.873
		c0-0.479,0.392-0.869,0.872-0.869s0.872,0.39,0.872,0.869C9.972,2.71,9.58,3.1,9.1,3.1z M20.07,3.1
		c-0.482,0-0.872-0.39-0.872-0.873c0-0.479,0.39-0.869,0.872-0.869c0.48,0,0.871,0.39,0.871,0.869C20.941,2.71,20.551,3.1,20.07,3.1
		z M22.964,3.1c-0.479,0-0.871-0.39-0.871-0.873c0-0.479,0.392-0.869,0.871-0.869c0.482,0,0.872,0.39,0.872,0.869
		C23.836,2.71,23.446,3.1,22.964,3.1z"/>
</g>
<g>
</g>
<g>
</g>
<g>
</g>
<g>
</g>
<g>
</g>
<g>
</g>
<g>
</g>
<g>
</g>
<g>
</g>
<g>
</g>
<g>
</g>
<g>
</g>
<g>
</g>
<g>
</g>
<g>
</g>
</svg>
