<?xml version="1.0" encoding="utf-8"?>
<!-- Generator: Adobe Illustrator 17.0.0, SVG Export Plug-In . SVG Version: 6.00 Build 0)  -->
<!DOCTYPE svg PUBLIC "-//W3C//DTD SVG 1.1//EN" "http://www.w3.org/Graphics/SVG/1.1/DTD/svg11.dtd">
<svg version="1.1" id="Capa_1" xmlns="http://www.w3.org/2000/svg" xmlns:xlink="http://www.w3.org/1999/xlink" x="0px" y="0px"
	 width="30.804px" height="32.301px" viewBox="0 0 30.804 32.301" enable-background="new 0 0 30.804 32.301" xml:space="preserve">
<path d="M18.367,13.988l0.854-4.478h-7.68l0.858,4.495c0.342-0.149,0.731-0.245,1.17-0.281c-0.246-0.371-0.391-0.813-0.391-1.292
	c0-1.293,1.051-2.347,2.346-2.347c1.294,0,2.348,1.054,2.348,2.347c0,0.482-0.146,0.929-0.396,1.302
	C17.758,13.776,18.065,13.858,18.367,13.988z M10.357,7.649h10.048v1.477H10.357V7.649z M15.475,0c0.849,0,1.537,0.688,1.537,1.537
	s-0.688,1.537-1.537,1.537s-1.537-0.688-1.537-1.537S14.626,0,15.475,0z M11.727,7.368h1.299V5.516h0.407L13.43,7.368h3.89V5.497
	l0.419,0.002v1.869h1.298V5.233c-0.143-1.685-2.098-1.662-2.098-1.662h-1.043l-0.421,0.688l-0.421-0.688h-1.198
	c-2.206,0.041-2.129,1.662-2.129,1.662S11.727,7.368,11.727,7.368z M6.98,10.712c0.964,0,1.746,0.782,1.746,1.746
	s-0.782,1.746-1.746,1.746s-1.746-0.782-1.746-1.746S6.016,10.712,6.98,10.712z M15.507,10.712c0.964,0,1.746,0.782,1.746,1.746
	s-0.782,1.746-1.746,1.746s-1.746-0.782-1.746-1.746S14.543,10.712,15.507,10.712z M24.037,13.983c0.962,0,1.744-0.784,1.744-1.745
	c0-0.967-0.782-1.749-1.744-1.749c-0.964,0-1.748,0.782-1.748,1.749C22.289,13.199,23.073,13.983,24.037,13.983z M12.725,18.303
	h0.461h4.413h0.48h1.474v-1.649c-0.16-1.912-2.382-1.887-2.382-1.887h-3.499c-2.51,0.048-2.422,1.887-2.422,1.887v1.649H12.725z
	 M2.729,18.303h1.473h0.461h4.415h0.478h1.472v-1.649c-0.158-1.912-2.38-1.887-2.38-1.887H5.145
	c-2.507,0.048-2.415,1.887-2.415,1.887L2.729,18.303L2.729,18.303z M30.804,21.951v-2.89h-2.726h-1.474h-0.478h-4.415h-0.463h-1.473
	h-0.228h-1.473h-0.479h-4.414H12.72h-1.475h-0.22H9.549H9.074H4.656H4.195H2.723H0v2.89h3.185v8.75h-1.25v1.6H28.68v-1.6h-1.066
	v-8.75H30.804z M19.782,16.433v1.87h1.473h0.463h4.413h0.479h1.474v-1.87c-0.159-1.913-2.383-1.886-2.383-1.886H22.2
	C19.691,14.596,19.782,16.433,19.782,16.433z"/>
</svg>
