<?xml version="1.0" encoding="utf-8"?>
<!-- Generator: Adobe Illustrator 17.0.0, SVG Export Plug-In . SVG Version: 6.00 Build 0)  -->
<!DOCTYPE svg PUBLIC "-//W3C//DTD SVG 1.1//EN" "http://www.w3.org/Graphics/SVG/1.1/DTD/svg11.dtd">
<svg version="1.1" id="Capa_1" xmlns="http://www.w3.org/2000/svg" xmlns:xlink="http://www.w3.org/1999/xlink" x="0px" y="0px"
	 width="37.463px" height="27.425px" viewBox="0 0 37.463 27.425" enable-background="new 0 0 37.463 27.425" xml:space="preserve">
<path fill="#1D1D1B" d="M36.355,24.523L36.355,24.523v-7.679l-1.01-6.055h-9.622l3.126,2.338v3.704l-2.018-1.493v0.735h-0.599v8.448
	h-0.624v-9.257h0.599v-1.112h-0.925L18.268,8.99l-6.774,5.287h-0.821v1.114h0.675v9.131H10.69V16.2h-0.675v-0.466l-1.434,1.191
	v-3.779l2.873-2.356H1.502l-1.01,6.055v7.678H0v2.902h37.463v-2.902H36.355z M4.93,23.025H1.583v-1.832H4.93V23.025z M4.93,20.099
	H1.583v-1.83H4.93V20.099z M6.318,23.025v-1.832h3.346v1.832H6.318z M6.319,20.099v-1.83h3.346v1.83H6.319z M18.396,11.259
	c0.733,0,1.326,0.595,1.326,1.326s-0.593,1.326-1.326,1.326c-0.732,0-1.326-0.595-1.326-1.326S17.664,11.259,18.396,11.259z
	 M23.784,24.521h-0.735v-8.358h-9.507v8.358h-0.666V15.39h0.64v-0.43h9.852v0.304h0.416V24.521z M30.186,22.835H26.84v-1.832h3.346
	V22.835z M30.186,19.908H26.84v-1.83h3.346V19.908z M34.921,22.835h-3.346v-1.832h3.346V22.835z M34.921,19.908h-3.346v-1.83h3.346
	V19.908z M18.295,5.856h-0.204V0.391h0.427v0.104c0.468,0.204,1.601,0.591,2.239-0.101c0.817-0.885,2.248,0,2.248,0v2.522
	c0,0-1.158-0.953-2.248,0c-0.829,0.724-1.814,0.347-2.239,0.124v2.815v0.001h-0.221l9.928,7.425v2.111L18.183,7.965l-8.945,7.427
	v-2.111L18.295,5.856z"/>
</svg>
