<?xml version="1.0" encoding="utf-8"?>
<!-- Generator: Adobe Illustrator 17.0.0, SVG Export Plug-In . SVG Version: 6.00 Build 0)  -->
<!DOCTYPE svg PUBLIC "-//W3C//DTD SVG 1.1//EN" "http://www.w3.org/Graphics/SVG/1.1/DTD/svg11.dtd">
<svg version="1.1" id="Capa_1" xmlns="http://www.w3.org/2000/svg" xmlns:xlink="http://www.w3.org/1999/xlink" x="0px" y="0px"
	 width="26.372px" height="27.47px" viewBox="0 0 26.372 27.47" enable-background="new 0 0 26.372 27.47" xml:space="preserve">
<path fill="#1D1D1B" d="M7.743,17.451c0,0.187-0.151,0.338-0.338,0.338s-0.338-0.151-0.338-0.338c0-0.187,0.151-0.338,0.338-0.338
	S7.743,17.264,7.743,17.451z M7.652,15.682c0,0.388,0.314,0.702,0.702,0.702c0.388,0,0.702-0.314,0.702-0.702
	S8.742,14.98,8.354,14.98C7.966,14.98,7.652,15.294,7.652,15.682z M11.103,12.949c0-0.759-0.615-1.374-1.374-1.374
	c-0.759,0-1.374,0.615-1.374,1.374c0,0.759,0.615,1.374,1.374,1.374C10.488,14.323,11.103,13.708,11.103,12.949z M21.193,17.51
	c0-0.187-0.151-0.338-0.338-0.338c-0.187,0-0.338,0.151-0.338,0.338c0,0.187,0.151,0.338,0.338,0.338
	C21.042,17.848,21.193,17.697,21.193,17.51z M19.01,15.742c0,0.388,0.314,0.702,0.702,0.702s0.702-0.314,0.702-0.702
	S20.1,15.04,19.712,15.04S19.01,15.354,19.01,15.742z M18.338,11.633c-0.759,0-1.375,0.616-1.375,1.375s0.616,1.375,1.375,1.375
	s1.375-0.616,1.375-1.375S19.097,11.633,18.338,11.633z M4.195,21.919c0.356-0.307,0.988-2.214,0.77-2.47
	c-0.024-0.028-0.057-0.048-0.14-0.117l-0.692-0.568L3.44,20.831l-2.122,0.348l0.504,0.822c0-0.002,0-0.002,0-0.006
	c0.008,0.043,0.024,0.078,0.049,0.107C2.089,22.359,3.837,22.226,4.195,21.919z M4.367,17.457l-2.774,1.186L0,21.223l3.322-0.551
	L4.367,17.457z M1.734,23.21l-0.251-0.539l-1.367-1.345l1.114,1.563L1.734,23.21z M11.435,19.46H5.198l-0.071,0.583h5.648v4.617
	h-8.15v-2.196l-0.66-0.088v2.864h9.47V19.46z M1.262,27.47h10.509l0.076-0.258H1.166L1.262,27.47z M11.352,25.481l0.562,1.508
	l-0.026,0.087H1.166l0.719-1.595H11.352z M7.096,27.008l-0.2-0.511H5.851l-0.172,0.511H7.096z M11.154,26.412l-0.305-0.745H2.233
	l-0.352,0.745H11.154z M25.053,21.179l-2.12-0.348l-0.695-2.067l-0.691,0.568c-0.083,0.069-0.116,0.089-0.139,0.117
	c-0.22,0.256,0.411,2.163,0.768,2.47c0.358,0.307,2.106,0.44,2.327,0.184c0.022-0.029,0.039-0.064,0.048-0.107
	c0,0.004,0,0.004,0,0.006L25.053,21.179z M23.05,20.672l3.322,0.551l-1.594-2.58l-2.775-1.186L23.05,20.672z M24.638,23.21
	l0.504-0.321l1.114-1.563l-1.368,1.345L24.638,23.21z M14.938,25.24h9.468v-2.864l-0.659,0.088v2.196h-8.15v-4.617h5.647
	l-0.07-0.583h-6.236V25.24z M14.601,27.47h10.507l0.097-0.258H14.523L14.601,27.47z M25.203,27.076h-10.72l-0.026-0.087l0.563-1.508
	h9.467L25.203,27.076z M15.218,26.412h9.271l-0.352-0.745h-8.614L15.218,26.412z M20.692,27.008l-0.171-0.511h-1.046l-0.199,0.511
	H20.692z M15.487,9.165H10.81h-0.215c0.007-0.026,0.016-0.05,0.016-0.076c0-0.006,0-0.01-0.002-0.014h0.002V7.556h0.177v1.606h1.69
	l-0.002-1.616h0.184v0.5c0,0,0,0.002,0,0.004c0,0.154,0.126,0.282,0.281,0.282c0.046,0,0.087-0.014,0.126-0.034L13.07,8.3
	l0.485-0.326l0.258-0.173l0.183-0.121c0-0.002,0.001-0.002,0.001-0.002c0.093-0.094,0.112-0.232,0.053-0.341l1.48-1.005
	l-0.068-0.099l-1.49,1.013c-0.047-0.036-0.103-0.055-0.158-0.057c-0.078-0.002-0.157,0.024-0.218,0.085c0,0,0,0-0.002,0L13.556,7.3
	l-0.331,0.227V7.43c-0.061-0.733-0.911-0.722-0.911-0.722h-0.368l-0.309,0.509l-0.311-0.509h-0.354
	c-0.657,0.013-0.847,0.347-0.902,0.559v-0.21h-0.002V4.734h2.404h5.418v2.107h0.002v2.323v0.001H15.487z M12.288,5.941
	c0-0.356-0.289-0.646-0.644-0.646c-0.358,0-0.646,0.29-0.646,0.646c0,0.356,0.289,0.645,0.646,0.645
	C11.999,6.586,12.287,6.297,12.288,5.941z M13.237,8.909h4.188V8.725V5.788c0-0.083-0.069-0.152-0.154-0.152h-4.034
	c-0.085,0-0.152,0.069-0.152,0.152v1.004c0.092,0.089,0.171,0.193,0.222,0.329l0.044-0.029c0.011-0.011,0.025-0.018,0.039-0.03
	V5.941h3.729v2.663H13.39V8.316l-0.305,0.206v0.235C13.085,8.842,13.152,8.909,13.237,8.909z M3.955,6.603
	c0-2.431,1.969-4.4,4.399-4.4c0.472,0,0.925,0.076,1.349,0.214C10.589,0.969,12.18,0,14.001,0c2.118,0,3.926,1.305,4.675,3.152
	c0.12-0.013,0.245-0.019,0.369-0.019c2.082,0,3.77,1.689,3.77,3.77c0,1.794-1.252,3.545-2.931,3.997H7.977
	C7.977,10.9,3.955,10.455,3.955,6.603z M9.437,9.723h5.98h2.474l0.631-0.004V4.176h-5.981H9.437v2.797V9.723z"/>
</svg>
