<?xml version="1.0" encoding="utf-8"?>
<!-- Generator: Adobe Illustrator 17.0.0, SVG Export Plug-In . SVG Version: 6.00 Build 0)  -->
<!DOCTYPE svg PUBLIC "-//W3C//DTD SVG 1.1//EN" "http://www.w3.org/Graphics/SVG/1.1/DTD/svg11.dtd">
<svg version="1.1" id="Capa_1" xmlns="http://www.w3.org/2000/svg" xmlns:xlink="http://www.w3.org/1999/xlink" x="0px" y="0px"
	 width="32.702px" height="21.955px" viewBox="0 0 32.702 21.955" enable-background="new 0 0 32.702 21.955" xml:space="preserve">
<path fill="#1D1D1B" d="M10.973,6.324c-0.11,0.087-0.185,0.216-0.185,0.366c0,0.262,0.212,0.474,0.474,0.474
	c0.083,0,0.157-0.026,0.225-0.063c0.037,0.044,0.075,0.086,0.113,0.129c-0.275,0.356-0.517,0.74-0.678,1.171
	c-0.083,0.222-0.142,0.461-0.148,0.706c-0.007,0.243,0.051,0.505,0.19,0.709c0.143,0.214,0.354,0.355,0.58,0.442
	c0.225,0.085,0.462,0.119,0.695,0.126c0.354,0.01,0.703-0.037,1.043-0.116c0.404,1.008,0.998,1.648,1.66,1.648
	c0.682,0,1.291-0.672,1.695-1.729c0.373,0.077,0.754,0.125,1.141,0.1c0.233-0.017,0.468-0.059,0.69-0.15
	c0.222-0.092,0.429-0.243,0.563-0.463c0.132-0.21,0.181-0.472,0.166-0.715c-0.015-0.245-0.083-0.481-0.173-0.701
	c-0.176-0.425-0.431-0.8-0.717-1.146c0.252-0.313,0.482-0.649,0.642-1.026c0.091-0.214,0.16-0.442,0.176-0.684
	c0.019-0.237-0.027-0.498-0.156-0.708c-0.134-0.221-0.342-0.377-0.567-0.474c-0.226-0.098-0.467-0.143-0.706-0.161
	c-0.359-0.027-0.717,0.003-1.066,0.067c-0.403-1.046-1.01-1.713-1.688-1.713c-0.692,0-1.31,0.696-1.713,1.784
	c-0.37-0.061-0.749-0.083-1.127-0.042c-0.238,0.027-0.476,0.082-0.699,0.188c-0.222,0.105-0.427,0.271-0.549,0.492
	c-0.125,0.22-0.159,0.476-0.133,0.713c0.025,0.241,0.102,0.467,0.199,0.679C10.936,6.26,10.956,6.292,10.973,6.324z M12.246,10.271
	c-0.224-0.019-0.447-0.06-0.647-0.148c-0.2-0.085-0.377-0.227-0.483-0.399c-0.223-0.371-0.138-0.839,0.033-1.236
	c0.159-0.373,0.396-0.714,0.658-1.033c0.286,0.305,0.596,0.583,0.924,0.84c0.028,0.022,0.059,0.043,0.088,0.063
	c0.083,0.692,0.233,1.321,0.439,1.853C12.922,10.271,12.582,10.297,12.246,10.271z M12.816,8.34
	c-0.353-0.278-0.682-0.587-0.98-0.921c0.012-0.015,0.024-0.032,0.037-0.047c0.271-0.32,0.577-0.612,0.897-0.888
	c-0.015,0.222-0.025,0.448-0.025,0.68C12.746,7.569,12.771,7.963,12.816,8.34z M14.942,11.738c-0.592,0-1.125-0.586-1.495-1.513
	c0.054-0.014,0.108-0.024,0.163-0.04c0.478-0.136,0.939-0.32,1.386-0.537c0.454,0.2,0.921,0.369,1.404,0.488
	c0.022,0.005,0.046,0.009,0.068,0.013C16.098,11.12,15.553,11.738,14.942,11.738z M16.489,10.1
	c-0.025-0.004-0.051-0.007-0.077-0.013c-0.48-0.101-0.948-0.257-1.4-0.447c0.097-0.047,0.191-0.096,0.286-0.146
	c0.086,0.108,0.214,0.184,0.365,0.184c0.261,0,0.474-0.211,0.474-0.474c0-0.062-0.014-0.122-0.035-0.175
	c-0.07-0.176-0.239-0.3-0.438-0.3c-0.262,0-0.474,0.213-0.474,0.475c0,0.108,0.042,0.201,0.104,0.281
	c-0.098,0.052-0.196,0.1-0.296,0.146c-0.387-0.163-0.765-0.352-1.128-0.564c0.358,0.213,0.731,0.403,1.113,0.572
	c-0.446,0.208-0.908,0.379-1.384,0.498c-0.057,0.013-0.114,0.023-0.171,0.035c-0.187-0.48-0.33-1.048-0.414-1.676
	c0.276,0.204,0.561,0.396,0.856,0.57c-0.296-0.178-0.581-0.375-0.859-0.583c-0.056-0.42-0.086-0.86-0.086-1.321
	c0-0.284,0.013-0.562,0.035-0.835c0.309-0.252,0.63-0.487,0.965-0.7c0.32-0.206,0.652-0.391,0.993-0.56
	c0.344,0.159,0.682,0.331,1.01,0.526c0.344,0.201,0.676,0.428,0.995,0.671c0.016,0.175,0.025,0.354,0.032,0.537
	c-0.214,0.045-0.376,0.227-0.376,0.453c0,0.223,0.159,0.402,0.369,0.453c-0.014,0.26-0.037,0.515-0.069,0.76
	c-0.25,0.2-0.507,0.388-0.774,0.562c0.267-0.169,0.522-0.355,0.772-0.55C16.796,9.083,16.663,9.632,16.489,10.1z M18.801,8.354
	c0.184,0.389,0.287,0.853,0.076,1.232c-0.098,0.179-0.271,0.324-0.468,0.417c-0.198,0.094-0.418,0.146-0.642,0.171
	c-0.367,0.04-0.742,0.018-1.112-0.043c0.194-0.522,0.336-1.135,0.415-1.804c0.047-0.037,0.097-0.073,0.143-0.111
	c0.318-0.27,0.618-0.56,0.894-0.873C18.379,7.653,18.629,7.983,18.801,8.354z M17.132,6.797c-0.004-0.132-0.013-0.262-0.022-0.388
	c0.33,0.262,0.646,0.542,0.927,0.854c0.014,0.015,0.027,0.03,0.04,0.047c-0.302,0.364-0.64,0.698-1.004,1.001
	c0.022-0.197,0.041-0.394,0.052-0.598c0.225-0.036,0.4-0.224,0.4-0.459C17.525,7.02,17.353,6.834,17.132,6.797z M17.683,4.303
	c0.22,0.007,0.438,0.037,0.638,0.114c0.199,0.071,0.38,0.197,0.494,0.367c0.121,0.178,0.169,0.39,0.165,0.61
	c-0.004,0.217-0.058,0.439-0.135,0.648c-0.136,0.366-0.34,0.705-0.574,1.021c0-0.002-0.002-0.004-0.003-0.004
	c-0.359-0.42-0.768-0.787-1.204-1.121c-0.069-0.558-0.183-1.076-0.335-1.534C17.044,4.338,17.364,4.292,17.683,4.303z M16.87,5.794
	c-0.248-0.179-0.501-0.35-0.763-0.507c-0.253-0.15-0.515-0.282-0.78-0.41c0.339-0.149,0.685-0.281,1.04-0.383
	c0.064-0.019,0.13-0.032,0.196-0.049C16.696,4.85,16.802,5.301,16.87,5.794z M14.942,2.591c0.606,0,1.148,0.61,1.52,1.569
	c-0.058,0.014-0.116,0.023-0.173,0.038c-0.477,0.117-0.937,0.284-1.379,0.488c-0.45-0.187-0.916-0.341-1.396-0.441
	c-0.038-0.008-0.078-0.013-0.115-0.021C13.769,3.226,14.323,2.591,14.942,2.591z M13.3,4.515c0.049,0.01,0.098,0.019,0.146,0.03
	c0.358,0.089,0.709,0.209,1.053,0.347c-0.261,0.135-0.518,0.278-0.766,0.437c-0.249,0.16-0.489,0.335-0.723,0.519
	C13.074,5.364,13.174,4.916,13.3,4.515z M11.008,4.924c0.11-0.178,0.285-0.308,0.482-0.389c0.198-0.082,0.415-0.122,0.634-0.136
	c0.335-0.021,0.674,0.015,1.009,0.08c-0.146,0.456-0.253,0.973-0.318,1.524c-0.428,0.354-0.83,0.738-1.178,1.174
	c-0.001,0.002-0.001,0.002-0.003,0.004c-0.031-0.038-0.064-0.08-0.094-0.119c0.116-0.084,0.197-0.217,0.197-0.373
	c0-0.262-0.212-0.473-0.474-0.473c-0.072,0-0.138,0.019-0.2,0.047c-0.013-0.028-0.027-0.054-0.039-0.083
	c-0.085-0.207-0.146-0.426-0.158-0.645C10.853,5.317,10.896,5.102,11.008,4.924z M23.244,10.133l-1.026-3.227
	c-0.002-0.021,0.004-0.037,0.019-0.053c0.014-0.015,0.033-0.022,0.054-0.021l3.039,0.84c0.017,0,0.03,0.007,0.041,0.019
	c0.007,0.006,0.012,0.014,0.016,0.024c0.009,0.024,0.003,0.05-0.016,0.07L24.2,8.201l1.602,1.602c0.026,0.026,0.026,0.069,0,0.093
	l-0.52,0.521c-0.026,0.027-0.067,0.027-0.094,0l-1.602-1.602l-0.228,1.358c-0.018,0.018-0.045,0.026-0.069,0.016
	C23.264,10.182,23.248,10.159,23.244,10.133z M29.963,14.667V6.65V0H11.717H2.822v6.786v7.881h17.142H29.963z M3.686,7.005V1.119
	h7.469H29.1v5.206h0.001v7.225h-8.574H3.687V7.005H3.686z M0,21.166h32.501l-0.235,0.789H0.298L0,21.166z M30.988,15.906H2.189
	l-2.187,4.852h32.622l0.078-0.266L30.988,15.906z M13.734,20.551l0.516-1.557h3.181l0.613,1.557H13.734z M2.175,18.74l1.072-2.271
	H29.46l0.922,2.271H2.175z"/>
</svg>
