<?xml version="1.0" encoding="utf-8"?>
<!-- Generator: Adobe Illustrator 17.0.0, SVG Export Plug-In . SVG Version: 6.00 Build 0)  -->
<!DOCTYPE svg PUBLIC "-//W3C//DTD SVG 1.1//EN" "http://www.w3.org/Graphics/SVG/1.1/DTD/svg11.dtd">
<svg version="1.1" id="Capa_1" xmlns="http://www.w3.org/2000/svg" xmlns:xlink="http://www.w3.org/1999/xlink" x="0px" y="0px"
	 width="31.761px" height="30.686px" viewBox="0 0 31.761 30.686" enable-background="new 0 0 31.761 30.686" xml:space="preserve">
<path fill="#1D1D1B" d="M28.238,10.135c0.003-0.028,0.012-0.056,0.014-0.083c0.072-0.46,0.124-0.91,0.155-1.351
	c0.254-3.384-0.631-6.102-2.715-7.416c-2.36-1.489-5.682-0.807-9.036,1.488C14.472,1.085,12.249,0,10.275,0
	C9.123,0,8.094,0.286,7.218,0.856C5.189,2.178,4.234,5.416,4.53,8.907c0,0.002,0,0.004,0,0.006c0.366-0.205,0.751-0.401,1.151-0.584
	C5.544,5.536,6.302,2.856,7.86,1.845C8.541,1.4,9.354,1.178,10.275,1.178c1.65,0,3.514,0.923,5.376,2.329
	c-1.29,1.006-2.57,2.243-3.793,3.683C9.546,7.513,7.445,8.106,5.682,8.918C5.281,9.1,4.896,9.296,4.53,9.502
	C1.715,11.08,0,13.264,0,15.711c0,2.571,1.896,4.849,4.971,6.445c-0.012,0.117-0.032,0.241-0.039,0.356
	c-0.244,3.367,0.641,6.071,2.717,7.382c2.306,1.455,5.529,0.84,8.805-1.331c1.739,0.988,3.466,1.54,5.031,1.54
	c1.154,0,2.182-0.288,3.06-0.859c1.886-1.229,2.828-3.616,2.717-6.754c-0.368,0.207-0.755,0.407-1.159,0.591
	c-0.019,2.436-0.779,4.253-2.2,5.176c-0.683,0.444-1.494,0.667-2.417,0.667c-1.235,0-2.593-0.392-3.977-1.108
	c1.186-0.902,2.365-2.003,3.501-3.278c0.165-0.189,0.331-0.383,0.497-0.577c1.693-0.348,3.243-0.843,4.596-1.466
	c0.404-0.188,0.791-0.385,1.159-0.592c2.795-1.577,4.5-3.754,4.5-6.191C31.761,13.574,30.445,11.645,28.238,10.135z M13.715,6.903
	c0.948-1.01,1.927-1.888,2.901-2.624c0.803,0.672,1.596,1.417,2.365,2.206c0.627,0.066,1.239,0.151,1.835,0.255
	c-1.017-1.155-2.092-2.234-3.189-3.177c2.815-1.838,5.525-2.397,7.396-1.22c1.604,1.012,2.318,3.13,2.209,5.816
	c-0.015,0.414-0.054,0.842-0.11,1.281c-1.738-0.958-3.889-1.688-6.305-2.111c-0.596-0.104-1.208-0.189-1.835-0.256
	c-1-0.105-2.037-0.162-3.101-0.162c-0.771,0-1.521,0.035-2.262,0.092C13.674,6.945,13.715,6.903,13.715,6.903z M1.177,15.711
	c0-1.881,1.324-3.605,3.512-4.936c0.349-0.211,0.72-0.414,1.11-0.605C7.216,9.477,8.9,8.935,10.756,8.574
	c-0.072,0.097-0.145,0.188-0.216,0.284c-0.472,0.638-0.928,1.305-1.368,2.002c-0.818,1.299-1.52,2.604-2.104,3.894
	c-0.5-1.313-0.846-2.619-1.03-3.995c-0.393,0.191-0.763,0.394-1.111,0.606c0.28,1.73,0.738,3.371,1.46,5.022
	c-0.598,1.563-1.018,3.083-1.255,4.514C2.68,19.541,1.177,17.716,1.177,15.711z M19.092,24.829
	c-0.896,0.898-1.811,1.675-2.724,2.331c-0.928-0.59-1.856-1.311-2.762-2.15c-0.641-0.047-1.265-0.117-1.875-0.203
	c1.151,1.199,2.367,2.23,3.59,3.057c-2.675,1.639-5.221,2.095-7.005,0.97c-1.581-0.996-2.298-3.073-2.214-5.712l0.034-0.42
	c1.634,0.693,3.524,1.216,5.595,1.515c0.61,0.089,1.234,0.158,1.875,0.206c0.74,0.056,1.5,0.089,2.274,0.089
	c1.3,0,2.556-0.091,3.757-0.247C19.457,24.455,19.274,24.646,19.092,24.829z M22.682,22.463c0.511-0.682,1.011-1.393,1.485-2.146
	c0.469-0.743,0.89-1.487,1.283-2.23c0.299,1.067,0.507,2.117,0.597,3.122C25.049,21.704,23.917,22.128,22.682,22.463z
	 M25.598,14.965c-0.624-1.487-1.402-2.978-2.343-4.422c-0.397-0.61-0.372-0.604-0.802-1.17c-0.579-0.138-1.173-0.258-1.789-0.356
	c0.721,0.852,0.965,1.188,1.605,2.171c1.122,1.726,2.016,3.516,2.662,5.279c-0.51,1.07-1.094,2.148-1.766,3.217
	c-0.725,1.15-1.501,2.213-2.305,3.189c-1.56,0.292-3.23,0.459-4.979,0.459c-1.242,0-2.448-0.08-3.598-0.232
	c-0.625-0.08-1.82-0.307-1.82-0.307c-1.55-0.317-2.961-0.774-4.199-1.33c0.16-1.129,0.445-2.324,0.854-3.563
	c0.399,0.739,0.858,1.482,1.389,2.246c0.796,1.142,0.903,1.301,1.591,2.126c0.589,0.122,1.196,0.227,1.821,0.307
	c-0.992-1.072-1.455-1.521-2.426-3.075c-0.699-1.121-1.286-2.183-1.776-3.219c0.64-1.579,1.453-3.194,2.461-4.79
	c0.703-1.118,1.456-2.16,2.24-3.118c0.019-0.021,0.042-0.049,0.06-0.073c1.097-0.133,2.229-0.213,3.404-0.213
	c1.509,0,2.966,0.117,4.339,0.338c0.612,0.099,1.21,0.218,1.787,0.355c1.886,0.452,3.558,1.103,4.911,1.899
	C26.65,12.042,26.2,13.488,25.598,14.965z M27.158,20.594c-0.159-1.3-0.486-2.657-0.952-4.031c0.817-1.771,1.415-3.512,1.785-5.159
	c1.631,1.224,2.593,2.708,2.593,4.308C30.584,17.567,29.294,19.271,27.158,20.594z M17.593,15.346c0,1.271-1.03,2.301-2.301,2.301
	s-2.301-1.03-2.301-2.301s1.03-2.301,2.301-2.301S17.593,14.075,17.593,15.346z"/>
</svg>
