<?xml version="1.0" encoding="utf-8"?>
<!-- Generator: Adobe Illustrator 17.0.0, SVG Export Plug-In . SVG Version: 6.00 Build 0)  -->
<!DOCTYPE svg PUBLIC "-//W3C//DTD SVG 1.1//EN" "http://www.w3.org/Graphics/SVG/1.1/DTD/svg11.dtd">
<svg version="1.1" id="Capa_1" xmlns="http://www.w3.org/2000/svg" xmlns:xlink="http://www.w3.org/1999/xlink" x="0px" y="0px"
	 width="25.638px" height="28.704px" viewBox="0 0 25.638 28.704" enable-background="new 0 0 25.638 28.704" xml:space="preserve">
<path fill="#1D1D1B" d="M19.638,17.525c0.208-0.175,0.402-0.367,0.605-0.547C19.474,17.733,19.066,18.053,19.638,17.525z
	 M25.628,19.768c0.047,0.734-0.102,1.527-0.499,2.16c-0.408,0.662-1.032,1.116-1.702,1.397c-0.672,0.282-1.383,0.408-2.087,0.455
	c-1.167,0.076-2.319-0.067-3.445-0.297c-1.219,3.187-3.06,5.221-5.119,5.221c-2.002,0-3.796-1.935-5.014-4.976
	c-1.029,0.232-2.082,0.38-3.151,0.348c-0.703-0.023-1.422-0.124-2.101-0.382c-0.679-0.257-1.319-0.689-1.751-1.336
	c-0.421-0.618-0.595-1.406-0.573-2.141c0.017-0.744,0.195-1.461,0.445-2.138c0.484-1.294,1.215-2.461,2.046-3.532
	c-0.109-0.126-0.222-0.25-0.328-0.379c-0.205,0.114-0.438,0.185-0.69,0.185c-0.79,0-1.431-0.641-1.431-1.431
	c0-0.456,0.218-0.858,0.55-1.12c-0.048-0.095-0.104-0.184-0.149-0.281C0.332,10.879,0.1,10.195,0.024,9.47
	C-0.054,8.752,0.05,7.975,0.427,7.312c0.37-0.667,0.989-1.169,1.659-1.483c0.671-0.319,1.393-0.482,2.11-0.564
	c1.145-0.125,2.287-0.056,3.406,0.12C8.82,2.107,10.685,0,12.776,0c2.046,0,3.878,2.013,5.096,5.168
	c1.055-0.192,2.134-0.281,3.221-0.203c0.72,0.058,1.446,0.194,2.13,0.49c0.681,0.293,1.311,0.764,1.714,1.43
	c0.391,0.637,0.527,1.419,0.474,2.138c-0.049,0.727-0.259,1.418-0.532,2.069c-0.484,1.137-1.178,2.15-1.941,3.097
	c0.867,1.043,1.637,2.182,2.168,3.459C25.379,18.315,25.585,19.026,25.628,19.768z M18.171,6.019
	c0.458,1.383,0.804,2.948,1.012,4.636c1.314,1.008,2.549,2.119,3.635,3.385c0.003,0.004,0.006,0.008,0.009,0.012
	c0.709-0.957,1.324-1.983,1.735-3.084c0.232-0.637,0.396-1.302,0.407-1.964c0.014-0.661-0.133-1.305-0.497-1.839
	c-0.346-0.512-0.892-0.893-1.492-1.115c-0.605-0.228-1.267-0.323-1.928-0.342C20.092,5.681,19.124,5.812,18.171,6.019z
	 M13.831,21.399c-0.28,0.148-0.56,0.296-0.845,0.434c1.367,0.577,2.777,1.047,4.228,1.351c0.077,0.016,0.155,0.026,0.232,0.041
	c0.743-2.001,1.238-4.485,1.383-7.211c-0.637-0.144-1.113-0.711-1.113-1.392c0-0.689,0.488-1.264,1.137-1.399
	c-0.019-0.539-0.049-1.072-0.095-1.592c-0.962-0.733-1.967-1.416-3.007-2.024c-0.988-0.586-2.011-1.11-3.053-1.585
	c-1.027,0.512-2.032,1.071-2.999,1.692c-1.011,0.642-1.985,1.356-2.915,2.117c-0.067,0.819-0.107,1.659-0.107,2.521
	c0,1.37,0.091,2.69,0.256,3.94c0.119,0.132,0.109,0.154,0.011,0.097c0.256,1.891,0.689,3.603,1.252,5.055
	c0.174-0.037,0.348-0.069,0.52-0.11c1.44-0.354,2.832-0.874,4.178-1.499c-1.153-0.512-2.278-1.089-3.361-1.731
	c1.097,0.641,2.237,1.212,3.407,1.709c0.294-0.137,0.583-0.287,0.873-0.435c-0.183-0.24-0.295-0.537-0.295-0.862
	c0-0.791,0.641-1.432,1.432-1.432c0.604,0,1.118,0.375,1.329,0.904c0.002-0.001,0.004-0.002,0.005-0.003
	c-0.002,0.001-0.004,0.002-0.005,0.003c0.065,0.164,0.103,0.341,0.103,0.528c0,0.791-0.641,1.432-1.432,1.432
	C14.494,21.948,14.093,21.731,13.831,21.399z M6.139,14.352c0-0.698,0.031-1.379,0.076-2.051c-0.967,0.828-1.89,1.712-2.71,2.68
	c-0.031,0.037-0.06,0.076-0.091,0.113c1.441,1.264,2.368,2.097,2.915,2.606C6.209,16.624,6.139,15.507,6.139,14.352z M9.123,8.805
	c0.748-0.474,1.524-0.907,2.313-1.318C10.397,7.073,9.34,6.709,8.257,6.441C8.11,6.406,7.962,6.379,7.815,6.347
	C7.432,7.56,7.132,8.913,6.938,10.373C7.646,9.823,8.371,9.293,9.123,8.805z M18.598,10.217c-0.206-1.486-0.526-2.855-0.927-4.078
	c-0.198,0.049-0.398,0.095-0.594,0.149c-1.072,0.306-2.115,0.707-3.139,1.156c0.802,0.382,1.592,0.788,2.356,1.234
	C17.086,9.153,17.85,9.674,18.598,10.217z M8.11,5.475c0.116,0.022,0.234,0.038,0.349,0.062c1.45,0.304,2.856,0.765,4.216,1.332
	c1.339-0.615,2.728-1.126,4.167-1.481c0.173-0.042,0.349-0.074,0.523-0.112c-1.119-2.897-2.759-4.738-4.589-4.738
	C10.905,0.538,9.229,2.461,8.11,5.475z M2.782,14.406c0.003-0.004,0.006-0.008,0.009-0.012c1.052-1.318,2.262-2.483,3.556-3.546
	c0.195-1.671,0.52-3.229,0.96-4.61c-1.01-0.192-2.032-0.301-3.044-0.236c-0.662,0.044-1.32,0.162-1.915,0.411
	C1.753,6.659,1.227,7.05,0.891,7.586C0.553,8.12,0.426,8.778,0.463,9.436c0.036,0.66,0.221,1.32,0.478,1.948
	c0.034,0.083,0.079,0.161,0.115,0.243c0.184-0.086,0.387-0.137,0.603-0.137c0.79,0,1.431,0.641,1.431,1.431
	c0,0.47-0.23,0.884-0.58,1.144C2.598,14.182,2.692,14.292,2.782,14.406z M7.688,23.551c-0.62-1.6-1.075-3.5-1.327-5.578
	c-0.088-0.067-0.177-0.136-0.267-0.208c-0.989-0.775-1.924-1.62-2.789-2.536c-0.791,0.962-1.508,1.992-1.989,3.121
	c-0.514,1.202-0.772,2.615-0.096,3.732c0.315,0.53,0.852,0.95,1.454,1.208c0.607,0.265,1.28,0.396,1.957,0.45
	C5.645,23.815,6.673,23.733,7.688,23.551z M17.387,23.374c-0.069-0.016-0.138-0.028-0.206-0.044c-1.458-0.36-2.87-0.868-4.24-1.473
	c-1.348,0.653-2.742,1.21-4.187,1.622c-0.163,0.045-0.33,0.083-0.495,0.124c1.117,2.794,2.725,4.563,4.516,4.563
	C14.617,28.166,16.267,26.303,17.387,23.374z M24.434,17.941c-0.521-1.112-1.273-2.116-2.099-3.049
	c-0.652,0.742-1.356,1.431-2.092,2.086c0.558-0.548,1.305-1.326,2.01-2.181c-0.043-0.048-0.083-0.098-0.127-0.146
	c-0.854-0.94-1.809-1.791-2.803-2.585c0.028,0.38,0.052,0.762,0.066,1.151c0.674,0.116,1.188,0.699,1.188,1.406
	c0,0.715-0.526,1.302-1.21,1.408c-0.148,2.737-0.653,5.238-1.412,7.284c1.115,0.181,2.247,0.253,3.358,0.131
	c0.675-0.078,1.342-0.232,1.938-0.519c0.594-0.279,1.116-0.718,1.414-1.26C25.299,20.527,24.989,19.125,24.434,17.941z"/>
</svg>
