<?xml version="1.0" encoding="utf-8"?>
<!-- Generator: Adobe Illustrator 17.0.0, SVG Export Plug-In . SVG Version: 6.00 Build 0)  -->
<!DOCTYPE svg PUBLIC "-//W3C//DTD SVG 1.1//EN" "http://www.w3.org/Graphics/SVG/1.1/DTD/svg11.dtd">
<svg version="1.1" id="Capa_1" xmlns="http://www.w3.org/2000/svg" xmlns:xlink="http://www.w3.org/1999/xlink" x="0px" y="0px"
	 width="37.509px" height="26.43px" viewBox="0 0 37.509 26.43" enable-background="new 0 0 37.509 26.43" xml:space="preserve">
<path fill="#2D2D2D" d="M28.464,3.009c0-0.155,0.125-0.28,0.276-0.28c0.154,0,0.279,0.124,0.279,0.28
	c0,0.153-0.124,0.275-0.279,0.275C28.589,3.284,28.464,3.162,28.464,3.009z M8.89,3.409c0.154,0,0.28-0.126,0.28-0.277
	c0-0.154-0.126-0.282-0.28-0.282c-0.153,0-0.278,0.127-0.278,0.282C8.612,3.283,8.738,3.409,8.89,3.409z M36.42,8.66
	c0,0.116-0.046,0.224-0.126,0.305l-1.724,1.723c-0.08,0.081-0.189,0.127-0.303,0.127c-0.025,0-0.048-0.004-0.073-0.007
	c0.1,0.14,0.114,0.324,0.02,0.476l-3.216,5.151c-0.191,0.354-0.559,1.016-0.736,1.193l-7.493,7.49
	c-0.344,0.346-0.792,0.543-1.23,0.543c-0.342,0-0.657-0.124-0.884-0.351l-0.109-0.11l-0.007,0.006
	c-0.44,0.443-1.187,0.518-1.781,0.197c-0.595,0.321-1.341,0.246-1.784-0.199l-0.004-0.004l-0.112,0.11
	c-0.226,0.227-0.541,0.351-0.883,0.351c-0.44,0-0.886-0.198-1.232-0.543l-7.49-7.492c-0.179-0.175-0.547-0.837-0.752-1.215
	l-3.199-5.126c-0.094-0.152-0.08-0.336,0.019-0.478c-0.026,0.005-0.055,0.008-0.081,0.008c-0.117,0-0.226-0.046-0.306-0.127
	L1.214,8.967c-0.169-0.168-0.169-0.442,0-0.61l7.462-7.463c0.169-0.169,0.443-0.169,0.611,0l1.724,1.72
	c0.081,0.082,0.127,0.192,0.127,0.305c0,0.116-0.046,0.226-0.127,0.305l-0.882,0.882c0.021-0.002,0.041-0.006,0.064-0.006
	c0.114,0,0.225,0.046,0.304,0.126l1.557,1.557c0.033,0.004,0.07,0.008,0.108,0.011c0.115,0.009,0.238,0.024,0.305,0.026
	c0.016-0.002,0.03-0.002,0.045-0.002l0.059-0.002c0.145,0,0.288,0.008,0.426,0.025l0.958,0.124c0.048,0.002,0.093,0.006,0.137,0.009
	c0.031,0.003,0.06,0.01,0.089,0.02l4.577,0.585l4.581-0.585c0.027-0.008,0.056-0.016,0.083-0.02
	c0.049-0.004,0.098-0.008,0.148-0.009l0.944-0.125c0.143-0.017,0.284-0.025,0.429-0.025l0.062,0.002c0.015,0,0.03,0,0.044,0.002
	c0.067-0.002,0.188-0.014,0.304-0.026c0.04-0.004,0.077-0.008,0.11-0.011l1.554-1.556c0.08-0.08,0.189-0.126,0.304-0.126
	c0.019,0,0.036,0.004,0.055,0.006l-0.88-0.882c-0.081-0.079-0.127-0.189-0.127-0.305c0-0.113,0.046-0.223,0.127-0.305l1.724-1.72
	c0.168-0.169,0.441-0.169,0.61,0l7.463,7.463C36.375,8.436,36.421,8.546,36.42,8.66z M28.128,3.009c0,0.334,0.273,0.608,0.611,0.608
	c0.333,0,0.604-0.273,0.604-0.608c0-0.334-0.27-0.606-0.604-0.606C28.4,2.404,28.128,2.675,28.128,3.009z M8.268,3.126
	c0,0.333,0.274,0.608,0.611,0.608c0.333,0,0.605-0.274,0.605-0.608c0-0.334-0.271-0.606-0.605-0.606
	C8.541,2.521,8.267,2.792,8.268,3.126z M21.726,24.338c-0.072-0.033-0.14-0.073-0.209-0.117c-0.004,0.006-0.007,0.009-0.01,0.014
	l0.113,0.114C21.622,24.349,21.669,24.358,21.726,24.338z M19.121,17.276c0.09-0.153,0.175-0.304,0.255-0.458
	c0.065-0.122,0.183-0.204,0.318-0.224c0.137-0.02,0.273,0.024,0.371,0.12l3.081,3.082c0.099,0.099,0.276,0.099,0.376,0l1.035-1.039
	c0.105-0.103,0.105-0.272,0.001-0.377l-6.367-6.363c-0.81,0.03-1.874,0.077-2.013,0.085c-0.892,0.099-1.697-0.597-1.821-1.541
	l-0.206-1.616c-0.073-0.563,0.113-1.097,0.457-1.467l-1.683-0.216c-0.148-0.009-0.337-0.025-0.53-0.044
	c-0.195-0.02-0.391-0.038-0.576-0.05l-0.188-0.011c-0.107-0.005-0.208-0.051-0.284-0.128l-1.158-1.18l-5.353,5.353
	c1.286,2.179,3.098,5.238,3.321,5.56l7.476,7.474c0.111,0.114,0.254,0.116,0.265,0.108l0.802-0.804
	c0.006-0.007,0.012-0.04-0.003-0.094l-1.825-1.824c-0.125-0.124-0.161-0.314-0.093-0.476c0.072-0.163,0.235-0.266,0.408-0.262
	l0.098,0.001c0.145,0,0.289-0.006,0.439-0.021c0.132-0.014,0.257,0.032,0.349,0.123l3.189,3.19c0.026,0.013,0.045,0.024,0.064,0.036
	c0.051,0.036,0.111,0.057,0.163,0.057c0.057,0,0.077-0.022,0.085-0.03l0.902-0.902c0.019-0.018,0.03-0.045,0.033-0.074l-2.609-2.61
	c-0.089-0.088-0.134-0.209-0.123-0.336c0.009-0.123,0.073-0.24,0.173-0.314c0.108-0.08,0.216-0.166,0.318-0.252
	c0.075-0.064,0.17-0.1,0.27-0.102c0.187,0.004,0.266,0.07,0.521,0.315c0.087,0.087,0.191,0.189,0.319,0.317
	c0.454,0.448,1.123,1.122,1.692,1.696l1.085,1.099c0.061,0.059,0.139,0.096,0.213,0.096c0.03,0,0.073-0.008,0.1-0.035l0.902-0.902
	c0.059-0.057,0.043-0.205-0.063-0.312l-4.119-4.12C19.045,17.662,19.02,17.445,19.121,17.276z M32.68,11.203L27.326,5.85
	l-1.158,1.18c-0.076,0.077-0.176,0.123-0.284,0.128l-0.189,0.011c-0.183,0.012-0.38,0.03-0.573,0.05
	c-0.194,0.019-0.384,0.036-0.561,0.046l-8.836,1.133c-0.073,0.009-0.122,0.055-0.152,0.092c-0.058,0.074-0.083,0.178-0.068,0.28
	l0.206,1.616c0.022,0.169,0.148,0.306,0.282,0.306c0.01-0.002,0.049-0.004,0.059-0.004l3.695-0.161
	c0.185-0.008,0.358,0.105,0.423,0.282c0.065,0.175,0.012,0.373-0.132,0.49c-0.018,0.014-0.043,0.037-0.068,0.058
	c-0.053,0.051-0.116,0.112-0.18,0.18l5.15,5.151c1.226,1.094,1.409,1.966,0.618,2.992c-0.013,0.016-0.023,0.028-0.038,0.041
	l-1.036,1.037c-0.056,0.056-0.106,0.109-0.152,0.155c-0.047,0.05-0.092,0.097-0.141,0.144l0.269,0.271
	c0.056,0.057,0.107,0.116,0.153,0.177l4.742-4.743C29.58,16.44,31.393,13.384,32.68,11.203z"/>
</svg>
