<?xml version="1.0" encoding="iso-8859-1"?>
<!-- Generator: Adobe Illustrator 16.0.0, SVG Export Plug-In . SVG Version: 6.00 Build 0)  -->
<!DOCTYPE svg PUBLIC "-//W3C//DTD SVG 1.1//EN" "http://www.w3.org/Graphics/SVG/1.1/DTD/svg11.dtd">
<svg version="1.1" id="Capa_1" xmlns="http://www.w3.org/2000/svg" xmlns:xlink="http://www.w3.org/1999/xlink" x="0px" y="0px"
	 width="23.55px" height="31.534px" viewBox="0 0 23.55 31.534" style="enable-background:new 0 0 23.55 31.534;"
	 xml:space="preserve">
<path style="fill:#2D2D2D;" d="M22.658,0H0.892C0.4,0,0,0.399,0,0.894v29.748c0,0.493,0.4,0.893,0.892,0.893h21.766
	c0.493,0,0.892-0.399,0.892-0.893V0.894C23.55,0.399,23.151,0,22.658,0z M16.177,19.339h-2.091v-4.407v-0.918h-2.143v5.325h-0.886
	v-5.325H8.916v5.325H7.938v-5.325H5.795v5.325H5.003v-5.325H2.861v5.325H1.783v-7.926h19.983v7.926h-4.027l0.661-0.313l-2.38-5.012
	l-1.934,0.918L16.177,19.339z M20.084,9.234l1.682-4.074v4.074H20.084z M21.766,1.785v2.896l-1.811-0.745l-2.117,5.128l0.419,0.171
	h-4.171V3.687h-2.143v5.548h-0.979V3.687H8.823v5.548H8.031V3.687H5.888v5.548H5.146V3.687H3.003v5.548h-1.22V1.785H21.766z
	 M1.783,21.518h19.983v3.524l-1.72-0.772l-2.272,5.062l0.935,0.418h-4.623v-5.285h-2.143v5.285h-0.886v-5.285H8.916v5.285H7.938
	v-5.285H5.795v5.285H5.003v-5.285H2.861v5.285H1.783V21.518z M19.934,29.749l1.832-4.083v4.083H19.934z"/>
<g>
</g>
<g>
</g>
<g>
</g>
<g>
</g>
<g>
</g>
<g>
</g>
<g>
</g>
<g>
</g>
<g>
</g>
<g>
</g>
<g>
</g>
<g>
</g>
<g>
</g>
<g>
</g>
<g>
</g>
</svg>
