<?xml version="1.0" encoding="iso-8859-1"?>
<!-- Generator: Adobe Illustrator 16.0.0, SVG Export Plug-In . SVG Version: 6.00 Build 0)  -->
<!DOCTYPE svg PUBLIC "-//W3C//DTD SVG 1.1//EN" "http://www.w3.org/Graphics/SVG/1.1/DTD/svg11.dtd">
<svg version="1.1" id="Capa_1" xmlns="http://www.w3.org/2000/svg" xmlns:xlink="http://www.w3.org/1999/xlink" x="0px" y="0px"
	 width="26.408px" height="23.388px" viewBox="0 0 26.408 23.388" style="enable-background:new 0 0 26.408 23.388;"
	 xml:space="preserve">
<g>
	<circle style="fill:#2D2D2D;" cx="9.866" cy="21.193" r="2.195"/>
	<circle style="fill:#2D2D2D;" cx="19.446" cy="21.193" r="2.195"/>
	<path style="fill:#2D2D2D;" d="M25.037,6.966c-2.804,0-13.548,0-13.548,0s-0.802,0.181-0.802,1.061
		c0,0.882,0.802,1.138,0.802,1.138h12.147l-0.683,2.309c-3.325,0-11.939,0-11.939,0s-0.747,0.169-0.747,0.988
		c0,0.822,0.747,1.061,0.747,1.061h11.309h0.025l-0.64,2.16H9.381L8.563,9.164L8.297,6.966c0,0-0.238-2.032-0.373-2.87
		C7.79,3.253,5.683,2.199,1.156,0.065c-1.065-0.447-1.956,1.501,0,2.521l3.57,1.668c0,0,0.83,0.482,0.902,1.129
		c0.071,0.65,1.52,11.39,1.52,11.39s0.058,1.495,1.416,1.495c1.358,0,12.488,0,13.625,0c1.14,0,1.362-1.191,1.362-1.191l2.7-8.019
		C26.251,9.058,27.052,6.966,25.037,6.966z"/>
</g>
<g>
</g>
<g>
</g>
<g>
</g>
<g>
</g>
<g>
</g>
<g>
</g>
<g>
</g>
<g>
</g>
<g>
</g>
<g>
</g>
<g>
</g>
<g>
</g>
<g>
</g>
<g>
</g>
<g>
</g>
</svg>
