<?xml version="1.0" encoding="utf-8"?>
<!-- Generator: Adobe Illustrator 16.0.4, SVG Export Plug-In . SVG Version: 6.00 Build 0)  -->
<!DOCTYPE svg PUBLIC "-//W3C//DTD SVG 1.1//EN" "http://www.w3.org/Graphics/SVG/1.1/DTD/svg11.dtd">
<svg version="1.1" id="Capa_1" xmlns="http://www.w3.org/2000/svg" xmlns:xlink="http://www.w3.org/1999/xlink" x="0px" y="0px"
	 width="25.207px" height="27.914px" viewBox="0 0 25.207 27.914" enable-background="new 0 0 25.207 27.914" xml:space="preserve">
<path fill="#2D2D2D" d="M12.413,24.542c0.078,0.076,0.163,0.107,0.253,0.107c0.225,0,0.473-0.193,0.665-0.35l0.881-0.694
	c0.124-0.03,0.233-0.069,0.33-0.116c0.042,0.027,0.087,0.055,0.134,0.086l0.246,0.164l0.366-0.549l-0.248-0.165
	c-0.008-0.006-0.017-0.011-0.022-0.017c0.104-0.266,0.062-0.574-0.115-0.875c-0.254-0.428-0.824-0.861-1.391-0.811
	c-0.433,0.036-0.619,0.25-0.7,0.424c-0.18,0.396,0.064,0.914,0.243,1.207c-0.014,0.017-0.024,0.03-0.035,0.047
	c-0.085-0.008-0.171-0.018-0.264-0.029c-0.986-0.124-1.176-0.336-1.212-0.398c-0.053-0.094,0.041-0.295,0.119-0.473
	c0.12-0.256,0.266-0.573,0.092-0.869c-0.178-0.303-0.579-0.372-0.91-0.396c-0.673-0.051-0.979,0.213-1.116,0.447
	c-0.509,0.869,0.592,2.602,0.816,2.942l0.549-0.366c-0.453-0.682-1.018-1.863-0.796-2.24c0.073-0.129,0.312-0.139,0.496-0.125
	c0.26,0.021,0.358,0.066,0.378,0.057c-0.007,0.06-0.067,0.187-0.105,0.273c-0.133,0.289-0.314,0.684-0.097,1.071
	c0.206,0.373,0.709,0.597,1.619,0.72C12.159,24.292,12.283,24.416,12.413,24.542z M13.412,22.02c0,0,0.033-0.028,0.154-0.039
	c0.012-0.002,0.021-0.002,0.029-0.002c0.239,0,0.576,0.224,0.739,0.494c0.022,0.041,0.063,0.118,0.076,0.196l-0.048-0.022
	l-0.438,0.345C13.9,22.996,13.872,23,13.848,23.003l0.021-0.027l-0.146-0.201C13.502,22.476,13.366,22.104,13.412,22.02z
	 M13.643,25.664l-0.539-0.379c0.043-0.06,1.051-1.447,2.771-1.295l-0.059,0.656C14.461,24.533,13.65,25.654,13.643,25.664z
	 M16.242,24.7l0.082-0.667l0.652,0.08l-0.082,0.668L16.242,24.7z M20.064,19.442l0.814-0.817v9.289H0V0h20.879v10.85l-1.316,1.318
	V1.317H1.317v25.279h18.246v-6.65l0.293-0.295l0.209-0.211V19.442z M14.836,3.296v1.319H6.045V3.296H14.836z M17.094,7.447H3.358
	V6.705h13.736V7.447z M17.094,9.671H3.358V8.926h13.736V9.671z M17.094,11.953H3.358V11.21h13.736V11.953z M17.094,14.272H3.358
	v-0.743h13.736V14.272z M25.205,12.465l-1.166,1.163l-2.487-2.494l1.167-1.163L25.205,12.465z M21.285,11.405l2.488,2.492
	l-5.661,5.656l-2.489-2.492L21.285,11.405z M17.41,20.257l-3.192,0.703l0.703-3.192l0.271-0.271l2.49,2.49L17.41,20.257z"/>
</svg>
