<?xml version="1.0" encoding="iso-8859-1"?>
<!-- Generator: Adobe Illustrator 16.0.0, SVG Export Plug-In . SVG Version: 6.00 Build 0)  -->
<!DOCTYPE svg PUBLIC "-//W3C//DTD SVG 1.1//EN" "http://www.w3.org/Graphics/SVG/1.1/DTD/svg11.dtd">
<svg version="1.1" id="Capa_1" xmlns="http://www.w3.org/2000/svg" xmlns:xlink="http://www.w3.org/1999/xlink" x="0px" y="0px"
	 width="23.646px" height="28.044px" viewBox="0 0 23.646 28.044" style="enable-background:new 0 0 23.646 28.044;"
	 xml:space="preserve">
<g>
	<path style="fill:#2D2D2D;" d="M10.852,13.624c0-0.853-0.283-1.089-0.896-1.089H4.468c-0.502,0-1.067-0.023-1.067,0.996v3.521
		c0,0.806,0.214,1.194,0.949,1.194h5.559c1.038,0,0.943-0.666,0.943-1.073V13.624z M9.373,15.961H7.862v1.545H6.549v-1.545H5.016
		v-1.313h1.533v-1.499h1.313v1.499h1.511V15.961z"/>
	<path style="fill:#2D2D2D;" d="M20.099,0H3.547C1.587,0,0,1.7,0,3.798v20.453c0,2.096,1.587,3.793,3.547,3.793h16.552
		c1.96,0,3.547-1.697,3.547-3.793V3.798C23.646,1.7,22.059,0,20.099,0z M22.224,24.579c0,1.085-0.823,1.966-1.834,1.966H3.256
		c-1.013,0-1.835-0.881-1.835-1.966V3.468c0-1.085,0.822-1.966,1.835-1.966H20.39c1.011,0,1.834,0.881,1.834,1.966V24.579z"/>
	<path style="fill:#2D2D2D;" d="M19.886,12.646h-5.49c-0.502,0-1.066,0.108-1.066,0.917v9.745c0,1.117,0.213,1.207,0.946,1.207
		h5.853c0.551,0,0.655,0.052,0.655-0.794v-9.773C20.783,12.872,20.5,12.646,19.886,12.646z M15.024,16.117h4.436V17.8h-4.436V16.117
		z M19.497,20.613h-4.434v-1.683h4.434V20.613z"/>
	<path style="fill:#2D2D2D;" d="M10.798,20.15c0-0.853-0.285-1.09-0.896-1.09H4.409c-0.5,0-1.064-0.022-1.064,0.995v3.524
		c0,0.805,0.216,1.194,0.947,1.194h5.562c1.039,0,0.944-0.668,0.944-1.074V20.15z M9.338,22.604H4.9V20.92h4.438V22.604z"/>
	<path style="fill:#2D2D2D;" d="M2.611,11.225h18.723v-8.32H2.611V11.225z M3.057,3.349h17.832v7.429H3.057V3.349z"/>
	<path style="fill:#2D2D2D;" d="M9.359,4.474H7.242c-0.301,0-0.503,0.202-0.503,0.502c0,0.299,0.202,0.501,0.503,0.501h1.926v0.83
		c0,0.257-0.075,0.257-0.114,0.257H7.845c-0.3,0-0.5,0.202-0.5,0.501c0,0.3,0.2,0.501,0.5,0.501h1.209c0.039,0,0.114,0,0.114,0.256
		v0.831H7.242c-0.301,0-0.503,0.201-0.503,0.501s0.202,0.501,0.503,0.501h2.117c0.462,0,0.811-0.348,0.811-0.809V7.663
		c0-0.195-0.024-0.399-0.173-0.599c0.148-0.198,0.173-0.402,0.173-0.597V5.283C10.17,4.823,9.821,4.474,9.359,4.474z"/>
	<path style="fill:#2D2D2D;" d="M11.553,8.496h-0.282c-0.094,0-0.211,0-0.301,0.124c-0.068,0.09-0.068,0.168-0.068,0.248v0.219
		c0,0.082,0,0.157,0.066,0.248C11.06,9.46,11.177,9.46,11.271,9.46h0.282c0.091,0,0.209,0,0.301-0.125
		c0.065-0.092,0.065-0.166,0.065-0.248V8.868c0-0.08,0-0.158-0.065-0.246C11.762,8.496,11.646,8.496,11.553,8.496z"/>
	<path style="fill:#2D2D2D;" d="M15.574,7.101c-0.31,0-0.501,0.19-0.501,0.5v1.052H14.86V4.474h-1.714
		c-0.301,0-0.501,0.202-0.501,0.502c0,0.299,0.2,0.501,0.501,0.501h0.713v3.176h-0.713c-0.301,0-0.501,0.201-0.501,0.501
		s0.2,0.501,0.501,0.501h2.428c0.3,0,0.501-0.201,0.501-0.501V7.601C16.075,7.291,15.882,7.101,15.574,7.101z"/>
	<path style="fill:#2D2D2D;" d="M16.49,4.976v0.308c0,0.241,0.191,0.5,0.501,0.5c0.226,0,0.39-0.138,0.46-0.307h1.467v0.701
		c0,0.059,0.001,0.124-0.006,0.139c-0.008,0.019-0.072,0.074-0.119,0.115l-0.852,0.735c-0.193,0.169-0.226,0.24-0.226,0.501v1.485
		c0,0.318,0.184,0.501,0.501,0.501s0.502-0.183,0.502-0.501V7.958c0-0.027,0-0.113,0.007-0.13c0.007-0.014,0.058-0.058,0.097-0.095
		l0.862-0.744c0.212-0.181,0.235-0.264,0.235-0.534V4.474h-2.929C16.682,4.474,16.49,4.734,16.49,4.976z"/>
</g>
<g>
</g>
<g>
</g>
<g>
</g>
<g>
</g>
<g>
</g>
<g>
</g>
<g>
</g>
<g>
</g>
<g>
</g>
<g>
</g>
<g>
</g>
<g>
</g>
<g>
</g>
<g>
</g>
<g>
</g>
</svg>
