<?xml version="1.0" encoding="iso-8859-1"?>
<!-- Generator: Adobe Illustrator 16.0.0, SVG Export Plug-In . SVG Version: 6.00 Build 0)  -->
<!DOCTYPE svg PUBLIC "-//W3C//DTD SVG 1.1//EN" "http://www.w3.org/Graphics/SVG/1.1/DTD/svg11.dtd">
<svg version="1.1" id="Capa_1" xmlns="http://www.w3.org/2000/svg" xmlns:xlink="http://www.w3.org/1999/xlink" x="0px" y="0px"
	 width="13.086px" height="27.32px" viewBox="0 0 13.086 27.32" style="enable-background:new 0 0 13.086 27.32;"
	 xml:space="preserve">
<g>
	<path style="fill:#2D2D2D;" d="M9.612,15l0.976-2.665V2.541V0H7.978H5.109H2.498v2.541v9.795L3.474,15
		C1.407,16.099,0,18.273,0,20.778c0,3.612,2.931,6.542,6.543,6.542c3.613,0,6.543-2.93,6.543-6.542
		C13.086,18.273,11.679,16.099,9.612,15z M5.109,2.541h2.869v9.795H5.109V2.541z M9.556,25.412l-3.013-1.583l-3.012,1.583
		l0.575-3.354l-2.438-2.377l3.368-0.49l1.506-3.051l1.506,3.051l3.368,0.49l-2.437,2.377L9.556,25.412z"/>
</g>
<g>
</g>
<g>
</g>
<g>
</g>
<g>
</g>
<g>
</g>
<g>
</g>
<g>
</g>
<g>
</g>
<g>
</g>
<g>
</g>
<g>
</g>
<g>
</g>
<g>
</g>
<g>
</g>
<g>
</g>
</svg>
