<?xml version="1.0" encoding="utf-8"?>
<!-- Generator: Adobe Illustrator 17.0.0, SVG Export Plug-In . SVG Version: 6.00 Build 0)  -->
<!DOCTYPE svg PUBLIC "-//W3C//DTD SVG 1.1//EN" "http://www.w3.org/Graphics/SVG/1.1/DTD/svg11.dtd">
<svg version="1.1" id="Capa_1" xmlns="http://www.w3.org/2000/svg" xmlns:xlink="http://www.w3.org/1999/xlink" x="0px" y="0px"
	 width="20.18px" height="25.562px" viewBox="0 0 20.18 25.562" enable-background="new 0 0 20.18 25.562" xml:space="preserve">
<path d="M10.821,22.273c-0.289-0.508-0.443-0.666-0.518-0.742c-0.042-0.042-0.097-0.099-0.143-0.177
	c-0.354-0.296-0.512-0.791-0.485-1.177c0.008-0.121,0.04-0.228,0.082-0.329H2.344V4.195h10.411V15.88
	c0.003,0.007,0.004,0.009,0.007,0.016c0.177,0.362,0.411,0.837,0.591,1.192c0.083-0.055,0.176-0.107,0.278-0.146
	c0.094-0.036,0.22-0.072,0.367-0.082V3.053c-0.002-0.914-0.743-1.658-1.66-1.658H2.759c-0.916,0-1.657,0.744-1.657,1.658v19.454
	c0,0.917,0.741,1.659,1.657,1.659h9.581c0.352,0,0.676-0.11,0.944-0.298c-0.403-0.161-0.854-0.39-1.312-0.726
	C11.079,22.731,10.882,22.431,10.821,22.273z M11.247,2.435c0.234,0,0.425,0.19,0.425,0.423c0,0.236-0.19,0.423-0.425,0.423
	c-0.234,0-0.424-0.187-0.424-0.423C10.823,2.625,11.013,2.435,11.247,2.435z M5.329,2.596h4.442V3.08H5.329V2.596z M9.572,22.399
	H5.526v-1.245h4.045V22.399z M3.892,6.011h2.882v3.137H3.892V6.011z M6.961,9.522c0.103,0,0.188-0.085,0.188-0.188V5.823
	c0-0.103-0.085-0.188-0.188-0.188H3.703c-0.103,0-0.188,0.085-0.188,0.188v3.512c0,0.103,0.085,0.188,0.188,0.188H6.961z
	 M3.703,5.823h3.258v3.512H3.703V5.823z M11.948,11.173c0,0.278-0.224,0.501-0.502,0.501H3.754c-0.277,0-0.502-0.223-0.502-0.501
	c0-0.277,0.224-0.502,0.502-0.502h7.693C11.724,10.671,11.948,10.896,11.948,11.173z M10.504,13.785H3.703
	c-0.277,0-0.502-0.224-0.502-0.502c0-0.276,0.224-0.501,0.502-0.501h7.693c0.277,0,0.502,0.224,0.502,0.501
	s-0.225,0.502-0.502,0.502h-0.111c-0.229-0.09-0.485-0.12-0.726-0.027C10.541,13.764,10.523,13.777,10.504,13.785z M9.065,14.937
	c0.018,0.118,0.046,0.25,0.088,0.394c0.078,0.216,0.151,0.412,0.225,0.608H3.703c-0.277,0-0.502-0.224-0.502-0.502
	c0-0.277,0.224-0.501,0.502-0.501H9.065z M15.655,24.098c0,0,0.148-0.373-0.527-0.534c0,0-1.231,0.03-2.557-0.767
	c0,0-0.912-0.307-1.006-0.542c-0.634-0.905-0.779-0.797-0.809-0.96c-0.62-0.273-0.784-1.682,0.416-1.038
	c0.016-0.007,0.812,0.623,0.816,0.607c0,0,0.642,0.539,0.983,0.559c0.447-0.249-0.856-2.195-0.869-2.365
	c0,0-0.712-1.196-1.882-3.612c-0.581-1.444,0.397-1.187,0.787-0.71c0.1-0.032,1.973,3.196,2.098,3.175c0,0,0.529-1.119,1.464-0.368
	c0,0,0.615-0.951,1.448-0.148c0,0,1.226-0.501,1.675,0.624c0,0,1.276,1.888,1.258,3.675l0.13,0.695L15.655,24.098z"/>
</svg>
