<?xml version="1.0" encoding="utf-8"?>
<!-- Generator: Adobe Illustrator 17.0.0, SVG Export Plug-In . SVG Version: 6.00 Build 0)  -->
<!DOCTYPE svg PUBLIC "-//W3C//DTD SVG 1.1//EN" "http://www.w3.org/Graphics/SVG/1.1/DTD/svg11.dtd">
<svg version="1.1" id="Capa_1" xmlns="http://www.w3.org/2000/svg" xmlns:xlink="http://www.w3.org/1999/xlink" x="0px" y="0px"
	 width="14.477px" height="25.562px" viewBox="0 0 14.477 25.562" enable-background="new 0 0 14.477 25.562" xml:space="preserve">
<path fill="#2D2D2D" d="M7.239,16.774c2.752,0,4.985-2.232,4.985-4.986c0-2.751-2.233-4.984-4.985-4.984
	c-2.754,0-4.985,2.233-4.985,4.984C2.254,14.542,4.485,16.774,7.239,16.774z M5.944,9.136c0-0.126,0.089-0.243,0.229-0.291
	c0.136-0.049,0.295-0.022,0.4,0.069l3.07,2.649c0.145,0.124,0.145,0.326,0,0.451l-3.07,2.649c-0.105,0.092-0.265,0.118-0.4,0.069
	c-0.138-0.049-0.227-0.165-0.229-0.292V9.136z M12.615,0H1.86C0.833,0,0,0.835,0,1.861v21.841c0,1.027,0.833,1.86,1.86,1.86h10.755
	c1.028,0,1.861-0.833,1.861-1.86V1.861C14.477,0.835,13.644,0,12.615,0z M11.389,1.167c0.264,0,0.478,0.213,0.478,0.475
	c0,0.264-0.214,0.477-0.478,0.477c-0.263,0-0.477-0.213-0.477-0.477C10.912,1.38,11.126,1.167,11.389,1.167z M4.745,1.348h4.987
	v0.545H4.745V1.348z M9.51,23.578H4.968V22.18H9.51V23.578z M13.083,20.712L13.083,20.712H1.395V3.144h11.688V20.712z"/>
</svg>
