<?xml version="1.0" encoding="iso-8859-1"?>
<!-- Generator: Adobe Illustrator 16.0.0, SVG Export Plug-In . SVG Version: 6.00 Build 0)  -->
<!DOCTYPE svg PUBLIC "-//W3C//DTD SVG 1.1//EN" "http://www.w3.org/Graphics/SVG/1.1/DTD/svg11.dtd">
<svg version="1.1" id="Capa_1" xmlns="http://www.w3.org/2000/svg" xmlns:xlink="http://www.w3.org/1999/xlink" x="0px" y="0px"
	 width="16.308px" height="33.175px" viewBox="0 0 16.308 33.175" style="enable-background:new 0 0 16.308 33.175;"
	 xml:space="preserve">
<path style="fill:#2D2D2D;" d="M15.311,17.53v-1.997h0.997V7.712H4.326v-3.63c0-0.013-0.027-0.995,0.947-1.936
	C6.046,1.402,7.236,1.046,8.809,1.08c0.125,0.192,0.338,0.316,0.585,0.316h0.724c0.386,0,0.698-0.311,0.698-0.697
	C10.815,0.313,10.503,0,10.117,0H9.394C9.143,0,8.925,0.132,8.801,0.33c-1.766-0.031-3.13,0.394-4.048,1.279
	c-1.21,1.167-1.177,2.432-1.176,2.484v3.618H0v7.821h0.998v1.997h1.78l0.827,9.6l-3.023,0.777v5.268h15.726v-5.272l-3.38-0.853
	l0.656-9.52H15.311z M13.535,14.429c-0.37,0.124-0.732,0.058-0.805-0.146c-0.073-0.205,0.167-0.471,0.539-0.596
	c0.369-0.124,1.176,0.019,1.176,0.019S13.903,14.304,13.535,14.429z M13.021,12.22c0.368-0.124,1.178,0.019,1.178,0.019
	s-0.542,0.596-0.913,0.72c-0.37,0.125-0.731,0.061-0.803-0.144C12.408,12.61,12.649,12.345,13.021,12.22z M11.7,12.449
	c0.348,0.182,0.544,0.48,0.438,0.672c-0.104,0.189-0.469,0.197-0.816,0.017c-0.345-0.182-0.788-0.854-0.788-0.854
	S11.355,12.269,11.7,12.449z M10.72,15.495c-0.282-0.27-0.519-1.039-0.519-1.039s0.792,0.214,1.073,0.483
	c0.284,0.27,0.389,0.612,0.234,0.767C11.356,15.858,11.004,15.764,10.72,15.495z M10.738,17.001
	c-0.163,0.145-0.51,0.029-0.775-0.257c-0.267-0.286-0.462-1.068-0.462-1.068s0.779,0.261,1.046,0.545S10.898,16.855,10.738,17.001z
	 M11.321,14.413c-0.335-0.202-0.735-0.898-0.735-0.898s0.818,0.033,1.153,0.233c0.334,0.199,0.514,0.513,0.397,0.695
	C12.023,14.629,11.656,14.615,11.321,14.413z M6.738,9.97c1.068-1.216,0.629-1.731,0.629-1.731s3.606,0.243,1.765,3.787H8.68
	c0,0,0.557-0.73,0-1.078c0,0-0.66-0.452-0.242-0.818c0,0-1.376,0.18-0.561,1.896H7.647C7.647,12.025,5.671,11.188,6.738,9.97z
	 M5.898,15.669c-0.252,0.299-0.593,0.431-0.761,0.294c-0.169-0.136-0.103-0.488,0.148-0.786c0.251-0.3,1.016-0.6,1.016-0.6
	S6.149,15.368,5.898,15.669z M7.127,15.716c0,0-0.104,0.799-0.338,1.112c-0.234,0.312-0.566,0.463-0.743,0.336
	c-0.176-0.124-0.13-0.479,0.104-0.795C6.384,16.059,7.127,15.716,7.127,15.716z M5.182,14.658c-0.31,0.238-0.673,0.29-0.807,0.121
	c-0.135-0.172,0.008-0.5,0.317-0.737c0.312-0.235,1.124-0.358,1.124-0.358S5.494,14.423,5.182,14.658z M5.041,13.391
	c-0.324,0.219-0.688,0.25-0.812,0.072c-0.126-0.179,0.035-0.499,0.361-0.716c0.324-0.219,1.14-0.291,1.14-0.291
	S5.365,13.173,5.041,13.391z M3.253,12.662c0.383,0.085,0.651,0.323,0.6,0.533c-0.05,0.212-0.4,0.315-0.782,0.232
	c-0.383-0.082-0.985-0.618-0.985-0.618S2.871,12.58,3.253,12.662z M3.169,14.149c0.382,0.083,0.649,0.32,0.598,0.533
	c-0.05,0.212-0.401,0.314-0.782,0.232c-0.382-0.083-0.986-0.618-0.986-0.618S2.787,14.066,3.169,14.149z M3.662,16.533
	c-0.383-0.082-0.985-0.615-0.985-0.615s0.786-0.23,1.168-0.148c0.381,0.084,0.651,0.323,0.599,0.534
	C4.395,16.513,4.043,16.616,3.662,16.533z M4.971,18.065c-0.383-0.083-0.987-0.616-0.987-0.616s0.788-0.231,1.169-0.147
	c0.383,0.081,0.651,0.321,0.6,0.532C5.703,18.045,5.352,18.148,4.971,18.065z M7.373,18.473c-0.623-0.343-1.189-0.742-1.72-1.202
	c-0.524-0.46-1.007-0.986-1.348-1.605c-0.342-0.61-0.51-1.346-0.364-2.035c0.083-0.431,0.269-0.822,0.507-1.177
	c-0.201-0.084-0.249-0.446-0.106-0.811c0.141-0.363,0.763-0.876,0.763-0.876s0.104,0.814-0.037,1.179
	c-0.135,0.34-0.386,0.559-0.583,0.516c-0.223,0.366-0.386,0.764-0.447,1.186c-0.107,0.673,0.086,1.353,0.439,1.922
	c0.351,0.572,0.836,1.058,1.361,1.478c0.531,0.419,1.11,0.786,1.709,1.078L7.373,18.473z M8.279,18.094H8.263
	c-0.142,0-0.269-0.092-0.31-0.228l-1.618-5.241c-0.029-0.099-0.117-0.42-0.014-0.42c0,0,1.734,1.042,3.901,0
	c0.21-0.104-0.016,0.42-0.016,0.42L8.59,17.866C8.549,18.002,8.423,18.094,8.279,18.094z M9.351,18.116
	c0.562-0.356,1.099-0.783,1.579-1.257c0.478-0.477,0.907-1.01,1.194-1.619c0.288-0.603,0.404-1.302,0.225-1.958
	c-0.106-0.412-0.312-0.791-0.574-1.131c-0.192,0.066-0.467-0.122-0.636-0.45c-0.181-0.345-0.165-1.164-0.165-1.164
	s0.675,0.44,0.854,0.787c0.182,0.347,0.174,0.711-0.019,0.816c0.277,0.328,0.503,0.697,0.633,1.114
	c0.221,0.67,0.134,1.419-0.14,2.063c-0.271,0.653-0.691,1.229-1.164,1.743c-0.476,0.517-0.996,0.974-1.577,1.386L9.351,18.116z
	 M11.905,17.777c-0.37,0.124-0.729,0.061-0.803-0.146c-0.075-0.203,0.166-0.472,0.537-0.596c0.371-0.123,1.179,0.02,1.179,0.02
	S12.276,17.652,11.905,17.777z M12.234,15.968c-0.074-0.206,0.168-0.472,0.538-0.598c0.371-0.124,1.178,0.02,1.178,0.02
	s-0.542,0.597-0.913,0.722C12.668,16.237,12.308,16.172,12.234,15.968z"/>
<g>
</g>
<g>
</g>
<g>
</g>
<g>
</g>
<g>
</g>
<g>
</g>
<g>
</g>
<g>
</g>
<g>
</g>
<g>
</g>
<g>
</g>
<g>
</g>
<g>
</g>
<g>
</g>
<g>
</g>
</svg>
