<?xml version="1.0" encoding="utf-8"?>
<!-- Generator: Adobe Illustrator 16.0.4, SVG Export Plug-In . SVG Version: 6.00 Build 0)  -->
<!DOCTYPE svg PUBLIC "-//W3C//DTD SVG 1.1//EN" "http://www.w3.org/Graphics/SVG/1.1/DTD/svg11.dtd">
<svg version="1.1" id="Capa_1" xmlns="http://www.w3.org/2000/svg" xmlns:xlink="http://www.w3.org/1999/xlink" x="0px" y="0px"
	 width="29.775px" height="44.136px" viewBox="0 0 29.775 44.136" enable-background="new 0 0 29.775 44.136" xml:space="preserve">
<path fill="#1D1D1B" d="M19.848,18.555c0.003-0.147,0.099-0.275,0.238-0.323l6.13-2.082c0.109-0.036,0.228-0.019,0.32,0.048
	c0.092,0.066,0.146,0.173,0.146,0.287v4.589c0,0.117-0.06,0.229-0.155,0.293c-0.06,0.04-0.127,0.061-0.195,0.061
	c-0.048,0-0.092-0.01-0.136-0.027l-6.13-2.508C19.93,18.835,19.842,18.702,19.848,18.555z M28.298,24.19v-8.122
	c0-0.042-0.005-0.081-0.016-0.121c0.235-0.143,0.396-0.4,0.396-0.698c0-0.45-0.368-0.817-0.818-0.817h-0.322
	c-0.454,0-0.817,0.367-0.816,0.817c0,0.35,0.219,0.646,0.525,0.764c-0.002,0.019-0.005,0.038-0.005,0.056v7.752
	c-0.142-0.021-0.282-0.043-0.43-0.043c-1.245,0-2.308,0.771-2.746,1.858h-6.393c-0.438-1.088-1.502-1.857-2.747-1.857
	c-1.242,0-2.305,0.771-2.743,1.857H5.704c-0.438-1.088-1.499-1.856-2.743-1.856C1.326,23.78,0,25.106,0,26.741
	c0,1.636,1.326,2.961,2.961,2.961c1.244,0,2.306-0.769,2.743-1.854h6.479c0.438,1.088,1.501,1.855,2.743,1.855
	c1.246,0,2.309-0.77,2.747-1.855h6.392c0.438,1.088,1.501,1.857,2.746,1.857c1.638,0,2.964-1.326,2.964-2.964
	C29.776,25.648,29.178,24.704,28.298,24.19z"/>
</svg>
