<?xml version="1.0" encoding="utf-8"?>
<!-- Generator: Adobe Illustrator 17.0.0, SVG Export Plug-In . SVG Version: 6.00 Build 0)  -->
<!DOCTYPE svg PUBLIC "-//W3C//DTD SVG 1.1//EN" "http://www.w3.org/Graphics/SVG/1.1/DTD/svg11.dtd">
<svg version="1.1" id="Capa_1" xmlns="http://www.w3.org/2000/svg" xmlns:xlink="http://www.w3.org/1999/xlink" x="0px" y="0px"
	 width="17.884px" height="27.378px" viewBox="0 0 17.884 27.378" enable-background="new 0 0 17.884 27.378" xml:space="preserve">
<path fill="#2D2D2D" d="M17.884,5.802c0-2.517-2.058-4.629-4.848-5.245V0.375C13.036,0.169,12.869,0,12.664,0
	c-0.209,0-0.377,0.169-0.377,0.375v0.868c0,0.206,0.168,0.374,0.377,0.374c0.186,0,0.333-0.141,0.36-0.317
	c2.314,0.592,3.998,2.38,3.998,4.501c0,2.603-2.534,7.3-5.66,7.3c-3.126,0-5.658-4.697-5.658-7.3c0-2.165,1.752-3.989,4.137-4.542
	l0.004-0.045v0.029c0,0.206,0.167,0.374,0.372,0.374c0.208,0,0.375-0.168,0.375-0.374V0.375C10.592,0.169,10.425,0,10.217,0
	c-0.205,0-0.372,0.169-0.372,0.375V0.52C6.976,1.091,4.84,3.236,4.84,5.802c0,2.776,2.503,7.274,5.732,7.93h-0.094v8.082
	c0,2.139-1.631,3.88-3.632,3.88c-2.005,0-3.634-1.741-3.634-3.88v-5.08c0.807-0.365,1.336-1.167,1.336-2.061
	c0-1.254-1.02-2.275-2.272-2.275C1.021,12.397,0,13.418,0,14.673c0,0.931,0.561,1.748,1.414,2.095v5.138
	c0,3.017,2.437,5.473,5.433,5.473c2.992,0,5.427-2.456,5.427-5.473l-0.003-8.174h-0.094v-0.003
	C15.396,13.057,17.884,8.571,17.884,5.802z M6.847,26.784c-2.668,0-4.837-2.188-4.837-4.878v-5.569l-0.213-0.063
	c-0.719-0.215-1.201-0.859-1.201-1.6c0-0.927,0.755-1.681,1.681-1.681c0.925,0,1.679,0.754,1.679,1.681
	c0,0.711-0.457,1.346-1.136,1.58l-0.202,0.069v5.492c0,2.467,1.898,4.474,4.229,4.474c2.33,0,4.226-2.007,4.226-4.474V13.74
	l0.605-0.003l0.004,8.17C11.682,24.596,9.512,26.784,6.847,26.784z M2.46,15.853H2.108c-0.588-0.086-1.045-0.59-1.045-1.203
	c0-0.674,0.547-1.22,1.221-1.22c0.673,0,1.222,0.546,1.222,1.22C3.506,15.263,3.05,15.767,2.46,15.853z"/>
</svg>
