<?xml version="1.0" encoding="iso-8859-1"?>
<!-- Generator: Adobe Illustrator 16.0.0, SVG Export Plug-In . SVG Version: 6.00 Build 0)  -->
<!DOCTYPE svg PUBLIC "-//W3C//DTD SVG 1.1//EN" "http://www.w3.org/Graphics/SVG/1.1/DTD/svg11.dtd">
<svg version="1.1" id="Capa_1" xmlns="http://www.w3.org/2000/svg" xmlns:xlink="http://www.w3.org/1999/xlink" x="0px" y="0px"
	 width="21.312px" height="27.902px" viewBox="0 0 21.312 27.902" style="enable-background:new 0 0 21.312 27.902;"
	 xml:space="preserve">
<g>
	<path style="fill:#2D2D2D;" d="M19.785,17.274c-0.472-1.048-2.929-1.979-3.776-2.273c-1.315-2.881-0.604-6.519-0.604-6.519
		c-0.233,1.034-0.529,1.431-0.529,1.431c-0.232,1.869-1.755,3.409-1.755,3.409c-0.028,0.503,0.036,0.929,0.157,1.293
		c-2.356,3.803-4.282,1.814-5.23,0.262c0.182-0.418,0.288-0.927,0.256-1.555c0,0-1.524-1.54-1.756-3.409
		c0,0-0.297-0.396-0.528-1.431c0,0,0.707,3.627-0.6,6.504c-1.014,0.433-2.033,0.744-2.033,0.744
		c-1.101,0.422-1.567,1.058-1.567,1.058C0.19,19.2,0,24.575,0,24.575c0.021,1.227,0.551,1.355,0.551,1.355
		c3.744,1.669,9.617,1.965,9.617,1.965c6.03,0.13,10.42-1.713,10.42-1.713c0.639-0.402,0.656-0.72,0.656-0.72
		C21.689,21.612,19.785,17.274,19.785,17.274z"/>
	<path style="fill:#2D2D2D;" d="M5.825,6.577C5.8,6.64,5.781,6.701,5.781,6.766c0,0.069,0.029,0.154,0.078,0.247
		c0.023,0.226,0.05,0.361,0.05,0.361C5.98,7.38,6.047,7.382,6.118,7.388c0.885,1.054,3.289,2.689,4.206,2.689
		c0.87,0,3.51-1.471,4.694-2.521c0.017,0.009,0.032,0.019,0.051,0.028c0,0,0.003-0.036,0.01-0.088
		c0.129-0.116,0.24-0.229,0.324-0.332c0.024,0.037,0.048,0.078,0.061,0.133c0,0,0.009-0.094,0.018-0.246
		c0.072-0.107,0.121-0.206,0.121-0.285c0-0.089-0.027-0.174-0.073-0.43l-0.042-0.237c-0.026-0.699-0.138-1.583-0.47-2.316
		l2.62-1.594L10.704,0L3.748,2.22l2.587,1.566C5.854,4.785,5.793,5.865,5.825,6.577z"/>
	<polygon style="fill:#2D2D2D;" points="4.181,7.195 3.795,2.59 3.38,7.195 3.795,8.575 	"/>
</g>
<g>
</g>
<g>
</g>
<g>
</g>
<g>
</g>
<g>
</g>
<g>
</g>
<g>
</g>
<g>
</g>
<g>
</g>
<g>
</g>
<g>
</g>
<g>
</g>
<g>
</g>
<g>
</g>
<g>
</g>
</svg>
