<?xml version="1.0" encoding="utf-8"?>
<!-- Generator: Adobe Illustrator 17.0.0, SVG Export Plug-In . SVG Version: 6.00 Build 0)  -->
<!DOCTYPE svg PUBLIC "-//W3C//DTD SVG 1.1//EN" "http://www.w3.org/Graphics/SVG/1.1/DTD/svg11.dtd">
<svg version="1.1" id="Capa_1" xmlns="http://www.w3.org/2000/svg" xmlns:xlink="http://www.w3.org/1999/xlink" x="0px" y="0px"
	 width="28.73px" height="23.893px" viewBox="0 0 28.73 23.893" enable-background="new 0 0 28.73 23.893" xml:space="preserve">
<path d="M5.076,4.298h3.089v3.363H5.076V4.298z M4.873,8.065c-0.11,0-0.201-0.091-0.201-0.202V4.098
	c0-0.112,0.092-0.202,0.201-0.202h3.492c0.111,0,0.202,0.091,0.202,0.202v3.765c0,0.112-0.091,0.202-0.202,0.202H4.873z
	 M4.873,7.862h3.493V4.098H4.873V7.862z M16.94,9.835H4.928c-0.298,0-0.538,0.24-0.538,0.537c0,0.297,0.24,0.538,0.538,0.538H16.94
	c0.297,0,0.538-0.242,0.538-0.538C17.477,10.075,17.236,9.835,16.94,9.835z M16.94,12.063H4.928c-0.298,0-0.538,0.241-0.538,0.538
	s0.24,0.538,0.538,0.538H16.94c0.297,0,0.538-0.242,0.538-0.538C17.477,12.303,17.236,12.063,16.94,12.063z M16.94,14.483H4.928
	c-0.298,0-0.538,0.241-0.538,0.538c0,0.298,0.24,0.538,0.538,0.538H16.94c0.297,0,0.538-0.24,0.538-0.538
	C17.477,14.723,17.236,14.483,16.94,14.483z M17.917,19.422c-0.016,0.075-0.026,0.155-0.029,0.234H2.421
	c-0.979,0-1.774-0.792-1.774-1.772V2.311c0-0.981,0.795-1.773,1.774-1.773h22.585c0.978,0,1.773,0.793,1.773,1.773v13.6
	c-0.347-0.286-0.784-0.443-1.284-0.443c-0.174,0-0.334,0.018-0.473,0.044c-0.348-0.216-0.668-0.27-0.9-0.27
	c-0.393,0-0.718,0.143-0.963,0.317c-0.025-0.008-0.052-0.01-0.076-0.017V2.332H2.78v15.529h16.766
	c0.173,0.314,0.299,0.537,0.361,0.645c0.027,0.068,0.063,0.143,0.113,0.236c-0.025-0.013-0.049-0.025-0.072-0.036
	C18.953,18.211,18.092,18.587,17.917,19.422z M24.008,10.096c0,0.583,0.472,1.054,1.054,1.054c0.581,0,1.053-0.473,1.053-1.054
	c0-0.581-0.473-1.054-1.053-1.054C24.479,9.042,24.007,9.516,24.008,10.096z M28.084,21.523l-0.139-0.745
	c0.02-1.915-1.348-3.94-1.348-3.94c-0.481-1.206-1.795-0.669-1.795-0.669c-0.893-0.859-1.552,0.159-1.552,0.159
	c-1.002-0.803-1.569,0.394-1.569,0.394c-0.133,0.025-2.142-3.439-2.249-3.402c-0.418-0.515-1.467-0.79-0.844,0.76
	c1.255,2.589,2.018,3.873,2.018,3.873c0.014,0.182,1.411,2.267,0.931,2.535c-0.365-0.021-1.054-0.602-1.054-0.602
	c-0.005,0.018-0.858-0.658-0.874-0.649c-1.286-0.69-1.111,0.82-0.446,1.113c0.031,0.177,0.187,0.059,0.867,1.031
	c0.099,0.252,1.077,0.581,1.077,0.581c1.422,0.855,2.742,0.82,2.742,0.82c0.725,0.174,0.565,0.573,0.565,0.573L28.084,21.523z"/>
</svg>
