<?xml version="1.0" encoding="iso-8859-1"?>
<!-- Generator: Adobe Illustrator 16.0.0, SVG Export Plug-In . SVG Version: 6.00 Build 0)  -->
<!DOCTYPE svg PUBLIC "-//W3C//DTD SVG 1.1//EN" "http://www.w3.org/Graphics/SVG/1.1/DTD/svg11.dtd">
<svg version="1.1" id="Capa_1" xmlns="http://www.w3.org/2000/svg" xmlns:xlink="http://www.w3.org/1999/xlink" x="0px" y="0px"
	 width="20.835px" height="26.168px" viewBox="0 0 20.835 26.168" style="enable-background:new 0 0 20.835 26.168;"
	 xml:space="preserve">
<path style="fill:#2D2D2D;" d="M20.567,4.086C20.53,4.048,20.478,4.03,20.432,4c-1.148-0.991-2.747-1.21-4.161-0.674L14.402,1.57
	c-0.597-0.558-1.44-0.681-2.148-0.387C10.873,0.29,9.487-0.1,8.109,0.021C4.527,0.343,2.425,4.009,2.338,4.167
	c-4.28,7.641-0.558,15.419,1.47,18.706c-1.191,0-2.236,0-2.618,0C0.1,22.873,0,26.168,0,26.168h2.575h7.332
	c0,0,0.198-3.296-1.188-3.296c0,0-1.702,0-3.504,0C3.491,20.292-0.921,12.418,3.373,4.75c0.019-0.033,1.892-3.284,4.85-3.544
	c1.009-0.085,2.038,0.178,3.084,0.787c-0.485,0.797-0.367,1.851,0.34,2.514l1.882,1.767C13.162,7.515,13.359,8.86,14.132,9.9
	c0.043,0.15,0.116,0.285,0.228,0.396c0.179,0.179,0.428,0.27,0.739,0.27c0.93,0,2.357-0.826,3.635-2.104
	c0.806-0.805,1.447-1.685,1.804-2.476C20.924,5.128,20.935,4.453,20.567,4.086z M20.131,5.801c-0.337,0.744-0.945,1.576-1.713,2.345
	c-1.181,1.18-2.515,1.973-3.319,1.973c-0.126,0-0.222-0.028-0.305-0.069l5.523-5.524C20.443,4.785,20.386,5.238,20.131,5.801z"/>
<g>
</g>
<g>
</g>
<g>
</g>
<g>
</g>
<g>
</g>
<g>
</g>
<g>
</g>
<g>
</g>
<g>
</g>
<g>
</g>
<g>
</g>
<g>
</g>
<g>
</g>
<g>
</g>
<g>
</g>
</svg>
