<?xml version="1.0" encoding="iso-8859-1"?>
<!-- Generator: Adobe Illustrator 16.0.0, SVG Export Plug-In . SVG Version: 6.00 Build 0)  -->
<!DOCTYPE svg PUBLIC "-//W3C//DTD SVG 1.1//EN" "http://www.w3.org/Graphics/SVG/1.1/DTD/svg11.dtd">
<svg version="1.1" id="Capa_1" xmlns="http://www.w3.org/2000/svg" xmlns:xlink="http://www.w3.org/1999/xlink" x="0px" y="0px"
	 width="23.983px" height="28.851px" viewBox="0 0 23.983 28.851" style="enable-background:new 0 0 23.983 28.851;"
	 xml:space="preserve">
<g>
	<rect x="3.133" y="11.064" style="fill-rule:evenodd;clip-rule:evenodd;fill:#2D2D2D;" width="10.082" height="0.565"/>
	<rect x="3.133" y="13.091" style="fill-rule:evenodd;clip-rule:evenodd;fill:#2D2D2D;" width="10.082" height="0.562"/>
	<rect x="3.133" y="14.948" style="fill-rule:evenodd;clip-rule:evenodd;fill:#2D2D2D;" width="10.082" height="0.564"/>
	<rect x="3.133" y="16.975" style="fill-rule:evenodd;clip-rule:evenodd;fill:#2D2D2D;" width="10.082" height="0.562"/>
	<path style="fill-rule:evenodd;clip-rule:evenodd;fill:#2D2D2D;" d="M15.458,25.551c-0.295-0.307-0.493-0.564-0.629-0.778H1.982
		V2.356h10.16v7.6l2.816-2.058l2.708,2.058v-7.6h1.462v12.901c0.093,0.11,0.173,0.228,0.234,0.345
		c0.203,0.296,0.256,0.944,0.386,2.493c0.028,0.358,0.066,0.805,0.101,1.19c0.473-0.021,0.917,0.149,1.26,0.481V1.958
		c0-1.08-0.877-1.958-1.958-1.958H1.959C0.874,0,0,0.878,0,1.958v24.938c0,1.079,0.874,1.955,1.959,1.955l14.361-0.124l1.232-1.077
		C17.062,27.336,16.179,26.671,15.458,25.551z M10.554,28.117c-0.643,0-1.162-0.52-1.162-1.162s0.52-1.163,1.162-1.163
		c0.644,0,1.164,0.521,1.164,1.163S11.197,28.117,10.554,28.117z"/>
	<path style="fill-rule:evenodd;clip-rule:evenodd;fill:#2D2D2D;" d="M23.934,23.147c0.127-1.354-1.353-1.48-1.353-1.48
		c-0.423-1.228-1.523-0.592-1.523-0.592c-0.55-1.229-1.651-0.383-1.651-0.383c-0.136-0.039-0.357-4.225-0.474-4.244
		c-0.094-0.438-1.006-1.287-1.15,0.307c-0.064,3.015,0.035,4.572,0.035,4.572c-0.075,0.179,0.233,2.788-0.34,2.809
		c-0.331-0.194-0.697-1.062-0.697-1.062c-0.014,0.013-0.486-1.021-0.505-1.021c-0.871-1.258-1.426,0.233-0.946,0.825
		c-0.055,0.178,0.146,0.145,0.315,1.374c-0.024,0.28,0.729,1.055,0.729,1.055c0.918,1.475,2.163,2.073,2.163,2.073
		c0.593,0.505,0.254,0.804,0.254,0.804l4.297,0.043l0.226-0.764C24.245,25.685,23.934,23.147,23.934,23.147z"/>
</g>
<g>
</g>
<g>
</g>
<g>
</g>
<g>
</g>
<g>
</g>
<g>
</g>
<g>
</g>
<g>
</g>
<g>
</g>
<g>
</g>
<g>
</g>
<g>
</g>
<g>
</g>
<g>
</g>
<g>
</g>
</svg>
