<?xml version="1.0" encoding="utf-8"?>
<!-- Generator: Adobe Illustrator 16.0.4, SVG Export Plug-In . SVG Version: 6.00 Build 0)  -->
<!DOCTYPE svg PUBLIC "-//W3C//DTD SVG 1.1//EN" "http://www.w3.org/Graphics/SVG/1.1/DTD/svg11.dtd">
<svg version="1.1" id="Capa_1" xmlns="http://www.w3.org/2000/svg" xmlns:xlink="http://www.w3.org/1999/xlink" x="0px" y="0px"
	 width="17.018px" height="28.004px" viewBox="0 0 17.018 28.004" enable-background="new 0 0 17.018 28.004" xml:space="preserve">
<path fill="#2D2D2D" d="M8.611,2.437C8.611,1.091,9.702,0,11.048,0c1.347,0,2.438,1.091,2.438,2.437s-1.091,2.437-2.438,2.437
	C9.702,4.874,8.611,3.783,8.611,2.437z M17.017,8.014v6.206h-0.002c0,0.016,0.002,0.035,0.002,0.047c0,0.59-0.478,1.068-1.066,1.068
	c-0.587,0-1.063-0.476-1.063-1.068c0-0.012,0-0.031,0.001-0.047h-0.001V8.479h-0.666l0.008,18.085c0,0.793-0.647,1.439-1.438,1.439
	c-0.795,0-1.439-0.646-1.439-1.439V14.893H10.71v11.683l-0.011,0.011c-0.01,0.782-0.646,1.415-1.432,1.415
	c-0.789,0-1.432-0.642-1.432-1.431L7.841,8.451H7.147v1.887c0,0.002,0,0.006,0,0.009c0,0.587-0.478,1.066-1.063,1.066
	c-0.174,0-0.329-0.05-0.476-0.125l-0.005,0.006L3.764,10.06l-0.97-0.648L2.102,8.948h0.001C2.102,8.942,2.1,8.942,2.098,8.94
	C1.671,8.513,1.661,7.824,2.083,7.405C2.185,7.303,2.302,7.23,2.428,7.18L0.001,0.809l0.423-0.161l2.464,6.468
	c0.265,0.012,0.529,0.1,0.73,0.303c0,0,0.006,0.006,0.008,0.006l0.139,0.096l1.254,0.857V8.015c0.232-2.769,3.442-2.727,3.442-2.727
	h1.388l1.169,1.921l1.174-1.921h1.333C17.146,5.355,17.017,8.014,17.017,8.014z M10.294,8.209l0.704,3.587l0.807-3.587l-0.807-0.9
	L10.294,8.209z M14.216,12.992H7.865v0.755h6.351V12.992z M11.665,13.168h-1.232v0.428h1.232V13.168z"/>
</svg>
