<?xml version="1.0" encoding="utf-8"?>
<!-- Generator: Adobe Illustrator 16.0.4, SVG Export Plug-In . SVG Version: 6.00 Build 0)  -->
<!DOCTYPE svg PUBLIC "-//W3C//DTD SVG 1.1//EN" "http://www.w3.org/Graphics/SVG/1.1/DTD/svg11.dtd">
<svg version="1.1" id="Capa_1" xmlns="http://www.w3.org/2000/svg" xmlns:xlink="http://www.w3.org/1999/xlink" x="0px" y="0px"
	 width="27.867px" height="28.055px" viewBox="0 0 27.867 28.055" enable-background="new 0 0 27.867 28.055" xml:space="preserve">
<path fill="#2D2D2D" d="M27.867,1.867v11.204c0,0.319-0.258,0.578-0.578,0.578H12.05c-0.319,0-0.578-0.259-0.578-0.578v-0.885
	l1.156-0.775v1.082H26.71V2.444H12.627v4.229c-0.051,0.039-0.106,0.073-0.154,0.117l-0.162,0.112
	c-0.195-0.51-0.492-0.912-0.839-1.242V1.867c0-0.319,0.26-0.578,0.578-0.578h15.239C27.609,1.289,27.867,1.547,27.867,1.867z
	 M14.222,9.461l0.692-0.464h-0.001c0.001-0.004,0.003-0.004,0.005-0.007c0.352-0.349,0.406-0.868,0.188-1.277l5.599-3.799
	l-0.254-0.375l-5.646,3.83c-0.177-0.128-0.375-0.209-0.583-0.216c-0.296-0.01-0.597,0.09-0.823,0.317c0,0-0.005,0.006-0.007,0.006
	l-0.138,0.096l-1.254,0.856V8.064c-0.233-2.769-3.442-2.728-3.442-2.728h-1.39L6,7.258L4.826,5.337H3.493
	C-0.128,5.405,0,8.064,0,8.064v6.206h0.002C0.003,14.286,0,14.305,0,14.318c0,0.591,0.477,1.066,1.066,1.066
	c0.587,0,1.064-0.477,1.064-1.066c0-0.013,0-0.032-0.002-0.048H2.13V8.53h0.666L2.788,26.613c0,0.795,0.646,1.441,1.438,1.441
	c0.795,0,1.439-0.646,1.439-1.441v-11.67h0.641v11.683l0.012,0.013c0.01,0.781,0.646,1.415,1.432,1.415
	c0.789,0,1.431-0.643,1.431-1.432L9.177,8.5H9.87v1.888c0,0.002,0,0.007,0,0.009c0,0.587,0.477,1.065,1.063,1.065
	c0.173,0,0.328-0.049,0.475-0.125l0.005,0.007l1.84-1.234L14.222,9.461z M5.979,4.874c1.346,0,2.437-1.091,2.437-2.437
	S7.325,0,5.979,0S3.542,1.092,3.542,2.437S4.633,4.874,5.979,4.874z"/>
</svg>
