<?xml version="1.0" encoding="iso-8859-1"?>
<!-- Generator: Adobe Illustrator 16.0.0, SVG Export Plug-In . SVG Version: 6.00 Build 0)  -->
<!DOCTYPE svg PUBLIC "-//W3C//DTD SVG 1.1//EN" "http://www.w3.org/Graphics/SVG/1.1/DTD/svg11.dtd">
<svg version="1.1" id="Capa_1" xmlns="http://www.w3.org/2000/svg" xmlns:xlink="http://www.w3.org/1999/xlink" x="0px" y="0px"
	 width="29.682px" height="28.896px" viewBox="0 0 29.682 28.896" style="enable-background:new 0 0 29.682 28.896;"
	 xml:space="preserve">
<g>
	<polygon style="fill:#2D2D2D;" points="26.514,0 22.714,1.306 22.994,2.118 11.575,6.044 12.055,7.442 1.915,10.927 2.434,12.437 
		0,13.273 0.611,15.049 3.044,14.212 3.563,15.722 13.704,12.233 14.184,13.631 25.603,9.706 25.881,10.518 29.682,9.212 	"/>
	<path style="fill:#2D2D2D;" d="M18.053,17.224V14.97h-1.795c-0.214-0.296-0.556-0.522-0.957-0.645v-0.034l-0.021,0.028
		c-0.196-0.06-0.401-0.101-0.623-0.101c-0.687,0-1.279,0.304-1.601,0.751h-1.795v2.254h1.805L4.175,28.896h1.821l8.017-10.527
		v10.493H15.3V18.369l8.017,10.527h2.278l-9.296-11.673H18.053z"/>
</g>
<g>
</g>
<g>
</g>
<g>
</g>
<g>
</g>
<g>
</g>
<g>
</g>
<g>
</g>
<g>
</g>
<g>
</g>
<g>
</g>
<g>
</g>
<g>
</g>
<g>
</g>
<g>
</g>
<g>
</g>
</svg>
