<?xml version="1.0" encoding="utf-8"?>
<!-- Generator: Adobe Illustrator 16.0.4, SVG Export Plug-In . SVG Version: 6.00 Build 0)  -->
<!DOCTYPE svg PUBLIC "-//W3C//DTD SVG 1.1//EN" "http://www.w3.org/Graphics/SVG/1.1/DTD/svg11.dtd">
<svg version="1.1" id="Capa_1" xmlns="http://www.w3.org/2000/svg" xmlns:xlink="http://www.w3.org/1999/xlink" x="0px" y="0px"
	 width="33.207px" height="39.342px" viewBox="0 0 33.207 39.342" enable-background="new 0 0 33.207 39.342" xml:space="preserve">
<path fill="#2D2D2D" d="M33.132,15.666c-0.495-1.851-3.286-2.911-7.655-2.911c-1.266,0-2.619,0.106-4.014,0.282
	c-1.209-0.761-2.634-1.208-4.167-1.208c-2.997,0-5.601,1.684-6.922,4.152c-4.012,1.674-7.042,3.741-8.319,5.676
	c-0.27-0.004-0.545,0.044-0.81,0.154c-1.031,0.427-1.519,1.608-1.09,2.644c0.4,0.958,1.451,1.438,2.425,1.156
	c1.276,0.922,3.516,1.438,6.534,1.438c1.474,0,3.056-0.123,4.699-0.36c1.051,0.521,2.231,0.823,3.483,0.823
	c2.738,0,5.146-1.407,6.547-3.536C29.874,21.534,33.807,18.188,33.132,15.666z M0.498,23.16c-0.02,0-0.036-0.019-0.036-0.039
	c0-0.02,0.017-0.038,0.036-0.038c0.021,0,0.039,0.02,0.039,0.038C0.537,23.142,0.52,23.16,0.498,23.16z M15.646,13.433
	c0.744-0.691,1.934-0.55,2.025-0.388c-0.213,0.351-0.543,0.231-0.577,0.586c-0.008,0.07-0.04,0.146-0.081,0.225
	c-0.419,0.099-0.834,0.185-1.255,0.297c-0.103,0.028-0.202,0.059-0.305,0.088c-0.205-0.171-0.344-0.312-0.324-0.505
	C15.138,13.666,15.638,13.558,15.646,13.433z M23.195,15.986c0.473,0.813,1.168,2.986,0.91,3.373
	c-0.151-0.065-0.28-0.125-0.28-0.125h-0.938l0.562,0.657c0,0,0.271,0.396,0.656,0.373c-0.166,1.916-1.266,3.38-2.01,4.169
	c-0.295,0.104-0.597,0.202-0.897,0.301c-0.052-0.203,0.016-0.35,0.016-0.35l0.104-0.564l0.062-0.947c0,0,0-0.979-0.938-0.515
	c-1.006,0.256-0.584,0.256-1.604,0.327c-1.02,0.072-0.85-2.075-0.85-2.075c0-3.213,2.462-0.788,2.462-0.788
	c1.405,0.938,1.592-0.773,1.592-0.773l1.031-0.372l0.093-0.469l-0.148-0.655l-1.496-0.618c0,0-0.144,0.484,0.238,1.086
	c0,0-0.125,0.678-0.441,0.501l-0.866-0.438c0,0-0.291-0.124-0.763,0.157c-0.467,0.278-1.26-0.014-1.26-0.014
	s0.063-0.473,0.557-0.715l0.4-0.27c0,0-0.104-0.479-0.012-0.854c0.094-0.375,0.257-0.047,0.632-0.329
	c0.373-0.278,0.632,0.55,1.193,0.457c0.56-0.094,0.278-0.188,0.655-0.375c0.375-0.188,0.654,0.375,0.654,0.375l0.75,0.093
	C23.262,16.612,23.143,15.768,23.195,15.986z M11.582,20.302c-0.175-0.178-0.21-0.636-0.21-0.636l-0.316-0.351
	c0,0-0.245-0.354-0.279-0.525c-0.036-0.175,0-0.28,0.034-0.458c0.035-0.176-0.07-0.489-0.07-0.666
	c0.354-0.865,0.772-1.55,1.194-2.092c0.381-0.141,0.767-0.277,1.163-0.411c-0.001,0.003-0.003,0.009-0.003,0.013
	c-0.037,0.139,0.067,0.348,0.067,0.348s0.492,0.037,0.492-0.104s-0.069-0.21-0.069-0.21l-0.052-0.188
	c0.171-0.055,0.339-0.113,0.512-0.167c0.167-0.013,0.363-0.021,0.628,0.003c0.845,0.07,0.529,0.665,0.88,0.81
	c0.353,0.141-0.281,0.628-0.422,0.912c-0.139,0.28-0.352-0.354-0.352-0.354s0.213-0.243-0.139-0.313
	c-0.353-0.068-0.586,0.63-0.406,0.599c0.174-0.034,0.37,0.188,0.336,0.361c-0.036,0.176-0.036,0.162-0.214,0.547
	c-0.174,0.388-0.556,0.675-0.556,0.675s-0.179-0.109-0.073,0.102s-0.038,0.701-0.038,0.843c0,0.141-0.419-0.245-0.488-0.598
	c-0.07-0.349-0.481-0.045-0.622-0.01c-0.14,0.037-0.396-0.062-0.467-0.235c-0.069-0.175-0.702,0.352-0.879,0.454
	c-0.175,0.104-0.104,0.389,0.177,0.247c0.281-0.144,0.525-0.033,0.456,0.247c-0.069,0.276-0.351,0.104-0.315,0.276
	c0.034,0.177,0.315,0.354,0.385,0.602c0.07,0.245,0.738,0.034,0.949-0.071c0.211-0.104,0.805-0.211,0.877,0.071
	c0.071,0.281,0.738,0.385,0.983,0.454c0.247,0.068,0.737,0.104,1.02,0.389c0.279,0.278-0.212,0.805-0.247,0.981
	c-0.035,0.175-0.246,0.598-0.387,0.879c-0.139,0.276-0.211,0.384-0.386,0.523c-0.175,0.143-0.281,0.388-0.281,0.388l-0.034,0.598
	c0,0,0.068,0.491,0.175,0.669c0.104,0.174-0.377,1.218-0.377,1.218c-0.305-0.061-0.474-0.413-0.58-0.689
	c-0.106-0.283-0.246-0.436-0.209-0.747c0.033-0.315-0.275-0.484-0.38-0.659c-0.104-0.177-0.242-0.422-0.242-0.598
	c0-0.177-0.387-0.425-0.387-0.425s-0.703-0.313-0.808-0.451c-0.106-0.146-0.212-0.741-0.247-0.986
	c-0.037-0.245,0.104-0.877,0.104-0.877S11.76,20.475,11.582,20.302z M20.709,15.409c0,0-0.538-0.011-0.467-0.468l0.561-0.377
	c0,0-0.236-0.604-0.195-0.898c0.138-0.063,0.688,0.225,1.154,0.716C21.449,15.55,20.709,15.409,20.709,15.409z M16.075,14.793
	c-0.153-0.163-0.3-0.288-0.438-0.4c0.058-0.018,0.114-0.034,0.172-0.049c0.353-0.096,0.7-0.165,1.05-0.25
	c-0.159,0.213-0.331,0.402-0.29,0.486C16.637,14.722,16.569,15.32,16.075,14.793z M14.251,13.7l0.177,0.735
	c0,0-0.387,0.105-0.597,0.036c-0.211-0.069-0.316-0.069-0.316-0.069l-0.28,0.386c0,0-0.027,0.064-0.059,0.146
	c-0.339,0.112-0.674,0.228-1.003,0.347C13.236,14.05,14.251,13.7,14.251,13.7z M1.949,22.531c0.099,0,0.184,0.06,0.232,0.138
	c-0.08-0.062-0.188-0.091-0.29-0.048c-0.137,0.061-0.201,0.21-0.157,0.352c0.049,0.064,0.127,0.11,0.217,0.11
	c0.153,0,0.275-0.124,0.275-0.274c0-0.048-0.017-0.089-0.038-0.129c0.03,0.026,0.059,0.059,0.074,0.099
	c0.062,0.145-0.008,0.311-0.154,0.37c-0.142,0.062-0.309-0.008-0.37-0.154c-0.004-0.007-0.004-0.015-0.005-0.022
	c-0.027-0.039-0.043-0.086-0.05-0.137c0.022-0.074,0.06-0.153,0.089-0.23C1.82,22.562,1.88,22.531,1.949,22.531z M2.546,24.429
	c0-0.028,0.022-0.053,0.053-0.053c0.028,0,0.051,0.022,0.051,0.053c-0.001,0.029-0.023,0.053-0.051,0.053
	C2.569,24.481,2.546,24.458,2.546,24.429z M2.3,25.12c-0.021-0.02-0.036-0.042-0.055-0.062c0.082-0.045,0.147-0.115,0.147-0.216
	c0-0.146-0.118-0.266-0.264-0.266c-0.089,0-0.156,0.051-0.203,0.118c-0.008-0.011-0.01-0.026-0.017-0.037
	c0.034-0.046,0.063-0.097,0.12-0.122c0.168-0.068,0.358,0.012,0.429,0.178C2.52,24.871,2.445,25.043,2.3,25.12z M1.401,23.682
	c-0.009,0.009-0.011,0.024-0.026,0.024c-0.027,0-0.049-0.021-0.049-0.05s0.021-0.051,0.049-0.051c0.011,0,0.011,0.014,0.019,0.019
	C1.394,23.644,1.4,23.661,1.401,23.682z M2.126,24.252c0-0.056,0.044-0.101,0.099-0.101c0.057,0,0.101,0.045,0.101,0.101
	c0,0.058-0.044,0.102-0.101,0.102C2.17,24.353,2.126,24.309,2.126,24.252z M2.326,23.678c-0.056,0-0.101-0.043-0.101-0.102
	c0-0.055,0.045-0.1,0.101-0.1c0.055,0,0.1,0.045,0.1,0.1C2.426,23.635,2.381,23.678,2.326,23.678z M1.434,22.244
	c0.031,0,0.058,0.024,0.058,0.06c0,0.029-0.026,0.056-0.058,0.056c-0.033-0.002-0.059-0.026-0.059-0.057
	C1.375,22.27,1.401,22.244,1.434,22.244z M1.354,22.808c0.043,0,0.08,0.035,0.08,0.078c0,0.045-0.038,0.082-0.08,0.082
	c-0.043,0-0.08-0.037-0.08-0.082C1.274,22.843,1.311,22.808,1.354,22.808z M0.874,22.408c0.011,0,0.019,0.009,0.019,0.021
	c0,0.014-0.008,0.021-0.019,0.021c-0.012,0-0.02-0.008-0.02-0.021C0.854,22.417,0.862,22.408,0.874,22.408z M0.943,24.579
	c-0.042,0-0.076-0.036-0.076-0.074c0-0.043,0.034-0.074,0.076-0.074c0.041,0,0.074,0.031,0.074,0.074
	C1.018,24.543,0.984,24.579,0.943,24.579z M1.046,23.681c-0.021,0-0.039-0.019-0.039-0.037c0-0.021,0.019-0.037,0.039-0.037
	c0.021,0,0.038,0.017,0.038,0.037C1.084,23.663,1.067,23.681,1.046,23.681z M1.06,23.433c-0.033-0.071,0.003-0.154,0.073-0.186
	c0.073-0.032,0.155,0.004,0.187,0.076c0.031,0.07-0.004,0.155-0.077,0.188C1.171,23.539,1.087,23.505,1.06,23.433z M1.229,25.075
	c-0.045,0-0.081-0.036-0.081-0.085c0-0.045,0.036-0.081,0.081-0.081c0.046,0,0.085,0.036,0.085,0.081
	C1.314,25.039,1.275,25.075,1.229,25.075z M1.351,24.579c-0.021,0-0.036-0.017-0.036-0.037c0-0.02,0.015-0.037,0.036-0.037
	c0.02,0,0.038,0.019,0.038,0.037C1.389,24.562,1.37,24.579,1.351,24.579z M1.484,24.849c-0.019,0-0.031-0.016-0.031-0.033
	s0.013-0.031,0.031-0.031s0.031,0.017,0.031,0.031C1.516,24.834,1.503,24.849,1.484,24.849z M1.603,24.647
	c-0.02,0-0.036-0.015-0.036-0.034c0-0.021,0.017-0.034,0.036-0.034c0.018,0,0.033,0.016,0.033,0.034
	C1.636,24.634,1.62,24.647,1.603,24.647z M1.851,24.967c-0.008-0.02,0.004-0.036,0-0.056c0.023,0.031,0.054,0.062,0.078,0.091
	c0.01,0.015,0.017,0.024,0.03,0.035c0.029,0.035,0.059,0.07,0.09,0.105C1.963,25.114,1.888,25.058,1.851,24.967z M9.115,26.854
	c-2.847,0-5.022-0.482-6.292-1.323c1.015-0.438,1.492-1.609,1.067-2.632c-0.293-0.7-0.935-1.142-1.639-1.222
	c1.246-1.845,4.152-3.817,8-5.439c-0.507,1.037-0.8,2.199-0.8,3.431c0,2.954,1.634,5.523,4.046,6.861
	C11.968,26.738,10.491,26.854,9.115,26.854z M3.034,23.812c0.158-0.066,0.344,0.011,0.409,0.17c0.016,0.038,0,0.075,0.001,0.113
	c-0.005-0.148-0.123-0.269-0.273-0.269c-0.152,0-0.276,0.124-0.276,0.276c0,0.15,0.124,0.274,0.276,0.274
	c0.149,0,0.268-0.118,0.273-0.268c-0.004,0.119-0.051,0.232-0.169,0.282c-0.159,0.063-0.345-0.012-0.408-0.17
	C2.799,24.062,2.874,23.877,3.034,23.812z M3.016,23.236c0-0.021,0.017-0.039,0.039-0.039c0.021,0,0.037,0.019,0.037,0.039
	c0,0.021-0.017,0.037-0.037,0.037C3.034,23.273,3.016,23.256,3.016,23.236z M3.016,24.848c0,0.033-0.028,0.062-0.062,0.062
	c-0.034,0-0.061-0.027-0.061-0.062c0-0.035,0.026-0.062,0.061-0.062C2.989,24.786,3.016,24.812,3.016,24.848z M3.447,23.409
	c0-0.04,0.032-0.07,0.07-0.07c0.036,0,0.069,0.03,0.069,0.07c0,0.037-0.033,0.068-0.069,0.068
	C3.479,23.478,3.447,23.446,3.447,23.409z M21.4,25.084c-0.061-0.06-0.086-0.113-0.119-0.172c0.167-0.055,0.338-0.106,0.503-0.165
	C21.553,24.968,21.4,25.084,21.4,25.084z M24.012,23.699c0.709-1.179,1.123-2.555,1.123-4.031c0-2.685-1.352-5.053-3.41-6.466
	c1.301-0.154,2.567-0.255,3.752-0.255c4.211,0,7.002,1.035,7.467,2.769C33.586,18.116,29.816,21.315,24.012,23.699z"/>
</svg>
