<?xml version="1.0" encoding="iso-8859-1"?>
<!-- Generator: Adobe Illustrator 16.0.0, SVG Export Plug-In . SVG Version: 6.00 Build 0)  -->
<!DOCTYPE svg PUBLIC "-//W3C//DTD SVG 1.1//EN" "http://www.w3.org/Graphics/SVG/1.1/DTD/svg11.dtd">
<svg version="1.1" id="Capa_1" xmlns="http://www.w3.org/2000/svg" xmlns:xlink="http://www.w3.org/1999/xlink" x="0px" y="0px"
	 width="23.388px" height="27.115px" viewBox="0 0 23.388 27.115" style="enable-background:new 0 0 23.388 27.115;"
	 xml:space="preserve">
<g>
	<path style="fill:#2D2D2D;" d="M10.909,7.67c-0.499,0-0.983,0.146-1.402,0.418C8.932,8.463,8.536,9.039,8.395,9.713
		c-0.143,0.676-0.015,1.363,0.359,1.938c0.562,0.861,2.94,2.322,4.317,3.084l0.079-0.052c-1.129-1.132-2.322-2.346-3.464-3.662
		C9.578,10.896,9.59,10.726,9.6,10.658c0.007-0.061,0.04-0.223,0.179-0.312c0.115-0.075,0.264-0.069,0.38,0.013l0.043,0.031
		c0.518,0.375,0.723,0.416,0.787,0.416c0,0.004,0.013-0.013,0.016-0.068c0.021-0.262-0.007-0.546-0.085-0.871
		c-0.068-0.282-0.128-0.494-0.193-0.69c-0.062-0.179,0.018-0.409,0.179-0.515c0.084-0.053,0.175-0.067,0.262-0.049
		c0.069,0.017,0.162,0.062,0.232,0.177l2.907,4.905c-0.158-1.079-0.618-3.908-1.235-4.854C12.595,8.108,11.785,7.67,10.909,7.67z"/>
	<path style="fill:#2D2D2D;" d="M11.248,11.55c0.76,0.825,1.528,1.608,2.262,2.348l-1.776-2.996
		C11.639,11.293,11.438,11.472,11.248,11.55z"/>
	<path style="fill:#2D2D2D;" d="M23.374,15.195l-0.164-0.55l-0.17-0.537l-0.204-0.497l-0.19-0.498l-0.195-0.486l-0.177-0.479
		l-0.15-0.498l-0.117-0.496l0.026-0.23l0.104-0.215l0.108-0.232l0.028-0.212l-0.094-0.44l-0.111-0.433L21.95,8.946l-0.136-0.428
		l-0.144-0.433l-0.152-0.425l-0.162-0.432l-0.171-0.422l-0.189-0.398L20.79,6.005l-0.194-0.401l0.615-0.381L20.996,4.85
		l-0.243-0.348L20.511,4.15l-0.246-0.336l-0.228-0.28l-0.242-0.27l-0.242-0.243l-0.25-0.243l-0.254-0.23l0.563-0.214L19.323,2.14
		l-0.281-0.206l-0.298-0.177L18.45,1.59l-0.306-0.169l-0.311-0.148l-0.321-0.146l-0.341-0.135L16.84,0.861l-0.335-0.126
		l-0.404-0.132L15.699,0.5l-0.408-0.111l-0.397-0.092l-0.419-0.085l-0.414-0.066l-0.418-0.053l-0.421-0.039L12.81,0.027l-0.42-0.014
		L11.977,0l-0.433,0.014l-0.419,0.014L10.71,0.054l-0.417,0.039L9.881,0.146L9.448,0.212L9.021,0.297l-0.433,0.08l-0.43,0.087
		L7.731,0.591L7.3,0.709L6.866,0.847L6.452,0.992L6.046,1.153L5.648,1.347L5.24,1.526L4.856,1.729L4.475,1.961L4.113,2.188
		L3.766,2.444L3.425,2.715l-0.306,0.27l-0.295,0.28L2.543,3.561L2.274,3.866L2.017,4.207L1.762,4.529l-0.23,0.348L1.317,5.235
		L1.104,5.604L0.916,5.977L0.755,6.357l-0.16,0.375l-0.137,0.39L0.339,7.511L0.242,7.917l-0.08,0.387L0.045,9.137L0,9.953l0.02,0.82
		l0.079,0.804l0.129,0.809l0.217,0.791l0.268,0.768l2.021,3.281c3.428,3.53,3.283,7.056,3.283,7.056l0.009,0.697l0.026,2.137h11.682
		l0.049-0.216v-0.685l0.028-0.686l0.051-1.532l0.08-0.78l0.037-0.183l0.073-0.149l0.078-0.134l0.104-0.111l0.139-0.077l0.158-0.055
		l0.175-0.057l0.19-0.027l0.244-0.025l0.228-0.014h0.057l0.229,0.025l0.215,0.014l0.229,0.027l0.21,0.019l0.241,0.026l0.231,0.025
		l-0.575,0.014l0.255,0.027l0.258,0.012l0.279,0.015l0.164-0.015l0.17-0.039l0.175-0.065l0.166-0.085l0.159-0.104l0.136-0.124
		l0.114-0.131l0.1-0.14l0.065-0.294l-0.036-0.322l-0.061-0.318v-0.309l0.048-0.138l0.064-0.117l0.064-0.126l0.08-0.105l0.083-0.111
		l0.066-0.119l0.053-0.122l0.014-0.132l-0.014-0.151l-0.026-0.132l-0.04-0.136l-0.066-0.13l-0.096-0.126l-0.105-0.117l-0.125-0.095
		l-0.143-0.095l0.156-0.08l0.15-0.092l0.153-0.111l0.102-0.104l0.093-0.125l0.057-0.131l0.03-0.124l-0.03-0.131l-0.149-0.472
		l-0.093-0.435l-0.057-0.397v-0.396l0.228-0.091l0.204-0.092l0.178-0.098l0.144-0.106l0.111-0.116l0.067-0.125l0.038-0.13
		L23.374,15.195z M11.678,3.46l0.939,0.687L11.204,6.09l-0.941-0.688L11.678,3.46z M4.101,10.149L3.836,9.015l2.673-0.622
		l0.263,1.137L4.101,10.149z M6.522,7.616L4.427,6.44l0.571-1.016l2.098,1.178L6.522,7.616z M8.307,3.103l0.951,2.205l-1.07,0.461
		l-0.95-2.206L8.307,3.103z M12.973,15.658c-0.164-0.088-4.042-2.162-4.938-3.538C7,10.533,7.452,8.4,9.037,7.367
		c0.56-0.363,1.206-0.556,1.87-0.556c1.17,0,2.248,0.584,2.885,1.561c0.873,1.341,1.391,5.343,1.446,5.793l0.019,0.169l-2.144,1.398
		L12.973,15.658z M16.125,17.893c-0.35,0.227-0.66,0.336-0.947,0.336c-0.084,0-0.167-0.01-0.244-0.028
		c-0.347-0.079-0.531-0.315-0.577-0.387c-0.029-0.032-0.08-0.089-0.124-0.157l-0.938-1.439l2.481-1.614l0.938,1.439
		c0.042,0.062,0.073,0.128,0.102,0.192c0.031,0.049,0.049,0.107,0.063,0.154C16.953,16.64,17.032,17.292,16.125,17.893z"/>
</g>
<g>
</g>
<g>
</g>
<g>
</g>
<g>
</g>
<g>
</g>
<g>
</g>
<g>
</g>
<g>
</g>
<g>
</g>
<g>
</g>
<g>
</g>
<g>
</g>
<g>
</g>
<g>
</g>
<g>
</g>
</svg>
