<?xml version="1.0" encoding="iso-8859-1"?>
<!-- Generator: Adobe Illustrator 16.0.0, SVG Export Plug-In . SVG Version: 6.00 Build 0)  -->
<!DOCTYPE svg PUBLIC "-//W3C//DTD SVG 1.1//EN" "http://www.w3.org/Graphics/SVG/1.1/DTD/svg11.dtd">
<svg version="1.1" id="Capa_1" xmlns="http://www.w3.org/2000/svg" xmlns:xlink="http://www.w3.org/1999/xlink" x="0px" y="0px"
	 width="17.609px" height="23.612px" viewBox="0 0 17.609 23.612" style="enable-background:new 0 0 17.609 23.612;"
	 xml:space="preserve">
<g>
	<g>
		<path style="fill:#2D2D2D;" d="M13.19,5.224V4.487H4.42v0.737c0,0,1.334,3.713,3.838,5.428v1.785c0,0-2.761,2.686-3.838,5.775
			v0.842h8.77v-0.842c-1.399-3.41-3.837-5.775-3.837-5.775v-1.785C12.757,7.726,13.19,5.224,13.19,5.224z"/>
	</g>
	<g>
		<path style="fill:#2D2D2D;" d="M16.351,3.856V2.529h1.258V0H0v2.529h1.259v1.327c0,2.025,3.634,7.555,3.804,7.955
			c-0.167,0.397-3.804,5.929-3.804,7.946v1.325H0v2.53h17.609v-2.53h-1.258v-1.325c0-2.025-3.635-7.521-3.829-7.951
			C12.716,11.376,16.351,5.88,16.351,3.856z M15.094,19.757v1.325H2.517v-1.325c0-1.455,3.854-7.222,3.854-7.951
			c0-0.729-3.854-6.495-3.854-7.95V2.529h12.578v1.327c0,1.455-3.886,7.221-3.886,7.95C11.208,12.535,15.094,18.302,15.094,19.757z"
			/>
	</g>
</g>
<g>
</g>
<g>
</g>
<g>
</g>
<g>
</g>
<g>
</g>
<g>
</g>
<g>
</g>
<g>
</g>
<g>
</g>
<g>
</g>
<g>
</g>
<g>
</g>
<g>
</g>
<g>
</g>
<g>
</g>
</svg>
