<?xml version="1.0" encoding="iso-8859-1"?>
<!-- Generator: Adobe Illustrator 16.0.0, SVG Export Plug-In . SVG Version: 6.00 Build 0)  -->
<!DOCTYPE svg PUBLIC "-//W3C//DTD SVG 1.1//EN" "http://www.w3.org/Graphics/SVG/1.1/DTD/svg11.dtd">
<svg version="1.1" id="Capa_1" xmlns="http://www.w3.org/2000/svg" xmlns:xlink="http://www.w3.org/1999/xlink" x="0px" y="0px"
	 width="23.882px" height="29.778px" viewBox="0 0 23.882 29.778" style="enable-background:new 0 0 23.882 29.778;"
	 xml:space="preserve">
<g>
	<path style="fill:#2D2D2D;" d="M23.882,20.696L18.326,9.149V9.141h-3.638c0.266,0.36-2.514,3.635-2.514,3.635
		S9.398,9.501,9.662,9.141H5.966v0.074L0,20.696l5.966,1.802v7.28h12.203v-7.483L23.882,20.696z"/>
	<path style="fill:#2D2D2D;" d="M11.938,8.525c0.959,0,4.467-2.114,4.467-2.8c0-0.074-0.025-0.147-0.064-0.364l-0.31-1.802
		l-3.819,2.277L8.467,3.56L8.155,5.503c0.001-0.002,0.003-0.006,0.007-0.01C8.117,5.569,8.094,5.646,8.094,5.726
		C8.094,6.411,10.976,8.525,11.938,8.525z"/>
	<polygon style="fill:#2D2D2D;" points="18.127,1.851 12.258,0 6.372,1.877 12.24,5.434 	"/>
	<polygon style="fill:#2D2D2D;" points="6.739,6.089 6.413,2.191 6.061,6.089 6.413,7.258 	"/>
</g>
<g>
</g>
<g>
</g>
<g>
</g>
<g>
</g>
<g>
</g>
<g>
</g>
<g>
</g>
<g>
</g>
<g>
</g>
<g>
</g>
<g>
</g>
<g>
</g>
<g>
</g>
<g>
</g>
<g>
</g>
</svg>
