<?xml version="1.0" encoding="utf-8"?>
<!-- Generator: Adobe Illustrator 17.0.0, SVG Export Plug-In . SVG Version: 6.00 Build 0)  -->
<!DOCTYPE svg PUBLIC "-//W3C//DTD SVG 1.1//EN" "http://www.w3.org/Graphics/SVG/1.1/DTD/svg11.dtd">
<svg version="1.1" id="Capa_1" xmlns="http://www.w3.org/2000/svg" xmlns:xlink="http://www.w3.org/1999/xlink" x="0px" y="0px"
	 width="27.529px" height="19.452px" viewBox="0 0 27.529 19.452" enable-background="new 0 0 27.529 19.452" xml:space="preserve">
<path d="M23.458,12.229l-0.712-4.11l-8.713,5.195L5.488,8.118l-0.71,4.436c0.003-0.006,0.01-0.012,0.017-0.019
	c-0.102,0.17-0.158,0.345-0.158,0.524c0,1.567,6.577,6.393,8.768,6.393c2.193,0,10.196-4.825,10.196-6.393
	C23.601,12.89,23.545,12.726,23.458,12.229z M14.101,12.396L0.711,4.282L14.138,0l13.391,4.221L14.101,12.396z M0.803,5L0,13.89
	l0.803,2.666l0.744-2.666L0.803,5z"/>
</svg>
