<?xml version="1.0" encoding="iso-8859-1"?>
<!-- Generator: Adobe Illustrator 16.0.0, SVG Export Plug-In . SVG Version: 6.00 Build 0)  -->
<!DOCTYPE svg PUBLIC "-//W3C//DTD SVG 1.1//EN" "http://www.w3.org/Graphics/SVG/1.1/DTD/svg11.dtd">
<svg version="1.1" id="Capa_1" xmlns="http://www.w3.org/2000/svg" xmlns:xlink="http://www.w3.org/1999/xlink" x="0px" y="0px"
	 width="31.632px" height="26.587px" viewBox="0 0 31.632 26.587" style="enable-background:new 0 0 31.632 26.587;"
	 xml:space="preserve">
<g>
	<path style="fill:#2D2D2D;" d="M9.129,8.956L3.497,9.881l1.341,2.186c-0.002-0.004-0.002-0.009-0.002-0.015
		c0.021,0.112,0.062,0.208,0.129,0.286c0.582,0.679,5.226,0.324,6.175-0.491c0.949-0.814,2.622-5.879,2.038-6.559
		c-0.061-0.074-0.146-0.125-0.369-0.308l-1.836-1.516L9.129,8.956z"/>
	<polygon style="fill:#2D2D2D;" points="11.595,0 4.227,3.149 0,9.996 8.817,8.532 	"/>
	<polygon style="fill:#2D2D2D;" points="3.937,13.847 0.308,10.273 3.265,14.422 4.603,15.278 	"/>
	<polygon style="fill:#2D2D2D;" points="28.606,19.123 6.964,19.123 6.964,13.297 5.214,13.059 5.214,20.671 30.354,20.671 
		30.354,5.318 13.802,5.318 13.612,6.867 28.606,6.867 	"/>
	<polygon style="fill:#2D2D2D;" points="3.351,26.587 31.251,26.587 31.457,25.9 3.093,25.9 	"/>
	<path style="fill:#2D2D2D;" d="M31.632,25.312l-1.495-4.002H5.002l-1.907,4.232h28.47L31.632,25.312z M15.079,25.362l0.449-1.359
		h2.776l0.535,1.359H15.079z M4.99,23.78l0.935-1.981h22.878l0.805,1.981H4.99z"/>
</g>
<g>
</g>
<g>
</g>
<g>
</g>
<g>
</g>
<g>
</g>
<g>
</g>
<g>
</g>
<g>
</g>
<g>
</g>
<g>
</g>
<g>
</g>
<g>
</g>
<g>
</g>
<g>
</g>
<g>
</g>
</svg>
