<?xml version="1.0" encoding="iso-8859-1"?>
<!-- Generator: Adobe Illustrator 16.0.0, SVG Export Plug-In . SVG Version: 6.00 Build 0)  -->
<!DOCTYPE svg PUBLIC "-//W3C//DTD SVG 1.1//EN" "http://www.w3.org/Graphics/SVG/1.1/DTD/svg11.dtd">
<svg version="1.1" id="Capa_1" xmlns="http://www.w3.org/2000/svg" xmlns:xlink="http://www.w3.org/1999/xlink" x="0px" y="0px"
	 width="27.342px" height="24.184px" viewBox="0 0 27.342 24.184" style="enable-background:new 0 0 27.342 24.184;"
	 xml:space="preserve">
<g>
	<g>
		<path style="fill:#2D2D2D;" d="M13.672,0C6.134,0,0,4.409,0,9.829c0,3.645,2.734,6.926,7.167,8.643
			c0.003,0.851-0.463,2.346-2.825,4.492c-0.24,0.218-0.299,0.572-0.143,0.857c0.125,0.229,0.363,0.364,0.615,0.364
			c0.062,0,0.123-0.008,0.185-0.024c0.254-0.069,6.166-1.7,9.819-4.547c7.041-0.421,12.523-4.688,12.523-9.784
			C27.342,4.409,21.21,0,13.672,0z M14.538,18.331c-0.151,0.007-0.296,0.062-0.414,0.157c-2.024,1.635-4.959,2.892-7.058,3.657
			c1.385-1.84,1.542-3.258,1.361-4.208c-0.048-0.249-0.223-0.454-0.461-0.539c-4.172-1.488-6.763-4.4-6.763-7.599
			c0-4.722,5.593-8.563,12.469-8.563c6.875,0,12.467,3.841,12.467,8.563C26.14,14.271,21.044,18.019,14.538,18.331z"/>
	</g>
	<g>
		<path style="fill:#2D2D2D;" d="M12.164,12.243l-0.017-0.436c-0.051-0.854,0.234-1.725,0.988-2.612
			c0.536-0.653,0.972-1.206,0.972-1.758c0-0.587-0.385-0.989-1.223-1.005c-0.553,0-1.224,0.201-1.657,0.502l-0.57-1.826
			c0.619-0.352,1.607-0.687,2.796-0.687c2.211,0,3.232,1.222,3.232,2.612c0,1.273-0.804,2.11-1.441,2.814
			c-0.602,0.687-0.87,1.34-0.854,2.093v0.302H12.164z M11.729,14.57c0-0.904,0.62-1.524,1.49-1.524c0.905,0,1.491,0.62,1.507,1.524
			c0,0.872-0.586,1.524-1.507,1.524C12.331,16.095,11.729,15.442,11.729,14.57z"/>
	</g>
</g>
<g>
</g>
<g>
</g>
<g>
</g>
<g>
</g>
<g>
</g>
<g>
</g>
<g>
</g>
<g>
</g>
<g>
</g>
<g>
</g>
<g>
</g>
<g>
</g>
<g>
</g>
<g>
</g>
<g>
</g>
</svg>
