<?xml version="1.0" encoding="iso-8859-1"?>
<!-- Generator: Adobe Illustrator 16.0.0, SVG Export Plug-In . SVG Version: 6.00 Build 0)  -->
<!DOCTYPE svg PUBLIC "-//W3C//DTD SVG 1.1//EN" "http://www.w3.org/Graphics/SVG/1.1/DTD/svg11.dtd">
<svg version="1.1" id="Capa_1" xmlns="http://www.w3.org/2000/svg" xmlns:xlink="http://www.w3.org/1999/xlink" x="0px" y="0px"
	 width="17.906px" height="29.295px" viewBox="0 0 17.906 29.295" style="enable-background:new 0 0 17.906 29.295;"
	 xml:space="preserve">
<g>
	<path style="fill:#2D2D2D;" d="M4.492,23.952c-1.526,0-2.613,1.085-2.613,2.672c0,1.526,1.057,2.671,2.613,2.671
		c1.614,0,2.642-1.145,2.642-2.671C7.105,25.038,6.078,23.952,4.492,23.952z"/>
	<path style="fill:#2D2D2D;" d="M6.126,12.312C5.388,12.014,4.163,10.39,3.369,8.94C1.971,9.138,0.807,9.578,0,10.036l0.999,3.201
		c0.763-0.528,1.937-0.881,2.906-0.881c1.468,0.028,2.144,0.733,2.144,1.761c0,0.969-0.764,1.938-1.703,3.083
		c-1.322,1.556-1.82,3.083-1.733,4.579l0.03,0.764h3.904v-0.528c-0.029-1.321,0.441-2.466,1.498-3.669
		c1.116-1.234,2.525-2.701,2.525-4.933c0-0.442-0.061-0.872-0.179-1.283C8.697,12.445,6.788,12.579,6.126,12.312z"/>
	<path style="fill:#2D2D2D;" d="M4.571,3.257L3.158,5.599c0.003-0.002,0.008-0.004,0.014-0.006c-0.097,0.073-0.168,0.16-0.209,0.26
		C2.82,6.21,3.162,7.111,3.699,8.091c0.793,1.45,2.018,3.073,2.757,3.371c0.662,0.268,2.571,0.133,4.263-0.183
		c1.476-0.275,2.786-0.689,2.952-1.102c0.039-0.095,0.046-0.201,0.109-0.501l0.537-2.484L8.211,8.139L4.571,3.257z"/>
	<polygon style="fill:#2D2D2D;" points="17.906,6.083 11.308,0.646 2.748,0 8.458,7.636 	"/>
	<polygon style="fill:#2D2D2D;" points="2.636,0.427 0.155,5.264 0,6.952 1.03,5.617 	"/>
</g>
<g>
</g>
<g>
</g>
<g>
</g>
<g>
</g>
<g>
</g>
<g>
</g>
<g>
</g>
<g>
</g>
<g>
</g>
<g>
</g>
<g>
</g>
<g>
</g>
<g>
</g>
<g>
</g>
<g>
</g>
</svg>
