<?xml version="1.0" encoding="utf-8"?>
<!-- Generator: Adobe Illustrator 16.0.4, SVG Export Plug-In . SVG Version: 6.00 Build 0)  -->
<!DOCTYPE svg PUBLIC "-//W3C//DTD SVG 1.1//EN" "http://www.w3.org/Graphics/SVG/1.1/DTD/svg11.dtd">
<svg version="1.1" id="Capa_1" xmlns="http://www.w3.org/2000/svg" xmlns:xlink="http://www.w3.org/1999/xlink" x="0px" y="0px"
	 width="41.898px" height="43.809px" viewBox="0 0 41.898 43.809" enable-background="new 0 0 41.898 43.809" xml:space="preserve">
<path d="M1.393,23.792h39.215v3.353h-2.805c0-1.826-1.483-3.31-3.312-3.31s-3.31,1.48-3.31,3.31H10.905
	c0-1.826-1.481-3.31-3.312-3.31c-1.824,0-3.31,1.48-3.31,3.31h-2.85C1.434,27.144,1.14,25.371,1.393,23.792z M40.608,19.053v4.114
	H4.017v-0.92H2.49v0.92H1.53c0.185-0.658,0.493-1.229,1.009-1.541c1.838-1.104,4.651-1.574,4.651-1.574s2.304-2.969,4.58-4.84
	h-0.471c-0.409,0-0.744-0.335-0.744-0.748s0.335-0.747,0.744-0.747h3.374h0.193c3.2,0,22.091,0,23.533,0
	C39.873,13.718,40.608,19.053,40.608,19.053z M18.215,15.212c0,0-1.941,0-3.348,0h-0.515c-1.379,0-4.275,3.677-4.275,3.677h8.139
	L18.215,15.212L18.215,15.212z M26.262,15.212h-6.394v3.677h6.394V15.212z M33.296,15.168h-6.245v3.681h6.245V15.168z
	 M38.768,18.889l-0.828-3.677h-3.861v3.677H38.768z M10.461,27.144c0,1.631-1.316,2.948-2.945,2.948s-2.948-1.319-2.948-2.948
	c0-1.627,1.32-2.947,2.948-2.947S10.461,25.517,10.461,27.144z M8.808,27.144c0-0.711-0.58-1.291-1.292-1.291
	c-0.713,0-1.293,0.58-1.293,1.291c0,0.713,0.58,1.293,1.293,1.293S8.808,27.857,8.808,27.144z M37.345,27.144
	c0,1.631-1.319,2.948-2.948,2.948c-1.628,0-2.946-1.319-2.946-2.948c0-1.627,1.318-2.947,2.946-2.947
	C36.025,24.198,37.345,25.517,37.345,27.144z M35.688,27.144c0-0.711-0.578-1.291-1.291-1.291c-0.711,0-1.291,0.58-1.291,1.291
	c0,0.713,0.58,1.293,1.291,1.293C35.11,28.437,35.689,27.857,35.688,27.144z M11.113,28.383h20.25v-0.965h-20.25V28.383z
	 M2.49,23.212h1.524v-0.045H2.49V23.212z"/>
</svg>
