<?xml version="1.0" encoding="iso-8859-1"?>
<!-- Generator: Adobe Illustrator 16.0.0, SVG Export Plug-In . SVG Version: 6.00 Build 0)  -->
<!DOCTYPE svg PUBLIC "-//W3C//DTD SVG 1.1//EN" "http://www.w3.org/Graphics/SVG/1.1/DTD/svg11.dtd">
<svg version="1.1" id="Capa_1" xmlns="http://www.w3.org/2000/svg" xmlns:xlink="http://www.w3.org/1999/xlink" x="0px" y="0px"
	 width="32.956px" height="27.219px" viewBox="0 0 32.956 27.219" style="enable-background:new 0 0 32.956 27.219;"
	 xml:space="preserve">
<g>
	<path style="fill:#2D2D2D;" d="M4.953,10.61l0.057,0.024c0.059,0.028,0.11,0.049,0.184,0.068c0.079,0.015,0.233,0.015,0.316,0.006
		c0.011,0,0.021-0.002,0.029-0.004c0.025,0.013,0.063,0.028,0.117,0.033c0.063,0,0.109-0.024,0.168-0.043
		c0.038-0.004,0.216,0.14,0.267,0.117c0.015-0.008,0.03-0.013,0.042-0.023c0.024,0.014,0.054,0.027,0.093,0.032
		c0.047,0.01,0.09,0.01,0.129,0.012c0.017,0,0.044,0,0.036-0.008c0.002,0.002,0.004,0.004,0.006,0.004
		c-0.006,0.014-0.009,0.024-0.011,0.037c-0.002,0.038,0.004,0.064,0.007,0.062c-0.049,0.131,0.013,0.207,0.055,0.243l0.017,0.013
		c0.002,0.029,0.007,0.056,0.011,0.074l0.002,0.013c-0.029,0.024-0.064,0.066-0.071,0.13c-0.009,0.082,0.025,0.14,0.062,0.184
		c-0.001,0.006-0.003,0.01-0.005,0.014c-0.021,0.05-0.059,0.097-0.105,0.15c-0.015,0.021-0.034,0.035-0.052,0.054
		c-0.039,0.04-0.086,0.085-0.118,0.142c-0.018,0.034-0.139,0.034-0.163,0.085c-0.02,0.021-0.051,0.052-0.072,0.099l-0.016,0.05
		c-0.011,0.068-0.006,0.127-0.002,0.206c0.002,0.021,0.002,0.041,0.002,0.062c-0.002,0.042,0,0.082,0.003,0.123
		C5.944,12.61,5.96,12.69,5.995,12.75c0.046,0.076,0.116,0.096,0.154,0.089C6.15,12.85,6.15,12.864,6.15,12.876
		c0,0.022,0,0.043,0.006,0.096c0.005,0.047,0.008,0.096,0.022,0.144c0.008,0.021,0.019,0.039,0.029,0.056
		c-0.011,0.025-0.02,0.057-0.02,0.092c0.002,0.105,0.072,0.163,0.134,0.199c-0.001,0.02,0,0.042,0.006,0.066
		c0.021,0.083,0.09,0.128,0.127,0.154c0.021,0.027,0.079,0.102,0.185,0.102l0.105-0.019l0.036-0.048
		c0.011,0.013,0.018,0.024,0.018,0.026c-0.015,0.026-0.041,0.075-0.037,0.142c0.004,0.102,0.191,0.205,0.255,0.249l0.029,0.022
		c0.025,0.021,0.053,0.041,0.087,0.057c0.029,0.017,0.057,0.022,0.092,0.033c0.019,0.015,0.044,0.038,0.078,0.056
		c0.031,0.017,0.064,0.027,0.104,0.041c0.021,0.007,0.043,0.015,0.068,0.026c0.086,0.042,0.159,0.071,0.232,0.071
		c0.05,0,0.09-0.017,0.131-0.035c0.011,0.011,0.02,0.022,0.028,0.032c0.037,0.041,0.081,0.092,0.144,0.124
		c0.039,0.021,0.075,0.024,0.133,0.037l0.032,0.012c0.032,0.011,0.064,0.015,0.113,0.017c0.009,0.01,0.02,0.025,0.028,0.04
		c0.013,0.015,0.023,0.032,0.035,0.047c0.002,0.026,0.006,0.056,0.02,0.089l0.019,0.031c0.049,0.065,0.111,0.084,0.143,0.095
		c0.021,0.03,0.055,0.081,0.122,0.111c0.031,0.012,0.061,0.017,0.088,0.022c0.027,0.026,0.083,0.077,0.17,0.077l0.062-0.008
		c0.013-0.004,0.024-0.009,0.039-0.015c0,0.032,0,0.072-0.002,0.096c-0.021,0.018-0.052,0.042-0.08,0.08
		c-0.019,0.026-0.03,0.053-0.025,0.055c-0.021,0.011-0.058,0.033-0.086,0.077c-0.015,0.024-0.024,0.049-0.032,0.067l0.147,0.083l0,0
		l-0.167-0.044c-0.028,0.056-0.075,0.145-0.034,0.269c0.002,0.004,0.003,0.008,0.004,0.013c-0.021,0.024-0.041,0.061-0.047,0.106
		c-0.01,0.062,0.012,0.116,0.038,0.191c0.021,0.087,0.091,0.13,0.122,0.144c0.016,0.017,0.026,0.039,0.04,0.061l0.031,0.049
		c0.025,0.039,0.047,0.085,0.069,0.128c0.028,0.052,0.056,0.104,0.087,0.15c0.014,0.019,0.028,0.04,0.043,0.06
		c0.012,0.013,0.027,0.033,0.029,0.044c0.004,0.018,0.007,0.044,0.021,0.071c0.04,0.095,0.143,0.176,0.325,0.269
		c0.022,0.012,0.046,0.019,0.095,0.036c0.032,0.017,0.091,0.063,0.1,0.069C9.698,17.21,9.71,17.272,9.72,17.33
		c0.007,0.031,0.005,0.06,0.001,0.099c-0.001,0.032-0.001,0.066,0,0.105c0.002,0.026,0.006,0.057,0.013,0.085
		c0.003,0.015,0.004,0.032,0.007,0.021l-0.009,0.062c-0.002,0.034,0.002,0.069,0.005,0.105c0.001,0.019,0.004,0.042,0,0.081
		c-0.003,0.022-0.009,0.053-0.005,0.087c0.003,0.033,0.009,0.06,0.016,0.088c-0.003,0.021-0.007,0.046-0.003,0.076
		c0.007,0.06,0.031,0.107,0.059,0.167c0.007,0.024,0.014,0.093,0.006,0.123c-0.007,0.017-0.015,0.044-0.021,0.075
		c-0.001,0.022-0.001,0.045,0,0.065c-0.009,0.024-0.024,0.064-0.022,0.119c0.005,0.077,0.043,0.134,0.081,0.169l-0.006,0.044
		l0.002,0.017c0.003,0.045,0.015,0.086,0.024,0.111l0.008,0.043c0.003,0.04,0.01,0.113,0.058,0.175
		c-0.003,0.027,0.002,0.062,0.016,0.099c-0.01,0.03-0.016,0.07-0.001,0.117c0.01,0.046,0.033,0.077,0.061,0.098
		c0,0.008,0,0.014,0,0.02c0,0.077,0.046,0.152,0.118,0.248c0.02,0.026,0.039,0.043,0.053,0.057c0.009,0.021,0.024,0.053,0.055,0.087
		c0.033,0.032,0.245,0.192,0.275,0.206c0.009,0.006,0.018,0.017,0.027,0.027c0.029,0.032,0.064,0.068,0.111,0.095l0.095,0.039
		c0.024,0.014,0.05,0.026,0.074,0.036l0.083,0.027c0.037,0.013,0.077,0.023,0.109,0.039l0.207,0.015l0.051-0.007
		c0.045-0.014,0.163-0.049,0.193-0.18l0.013-0.055l-0.021-0.051c-0.052-0.115-0.161-0.143-0.22-0.158
		c-0.013-0.003-0.032-0.008-0.037-0.012c-0.012-0.006-0.038-0.037-0.065-0.069c-0.009-0.007-0.014-0.015-0.021-0.022
		c0.002-0.01,0.006-0.02,0.008-0.031c0.005-0.015,0.005-0.027,0.005-0.041c0.03-0.027,0.069-0.082,0.065-0.167
		c-0.003-0.087-0.044-0.142-0.098-0.176c0.008-0.015,0.013-0.028,0.016-0.045c0.006-0.024,0.006-0.047,0.004-0.066
		c0.021-0.024,0.044-0.06,0.054-0.108l0.012-0.058c0.006-0.007,0.01-0.017,0.017-0.026c0.013-0.027,0.021-0.054,0.022-0.081
		c0.082-0.013,0.143-0.03,0.188-0.058c0.079-0.051-0.023-0.305-0.029-0.422c0.119-0.039,0.2-0.189,0.224-0.232
		c0.014-0.027,0.018-0.051,0.01-0.046l0.032-0.043l0.009-0.029c0.004-0.016,0.008-0.026,0.009-0.038
		c0.015-0.013,0.034-0.032,0.055-0.055c0.017-0.021,0.03-0.045,0.059-0.091c0.021-0.032,0.043-0.06,0.059-0.088l0.02-0.056
		c0.014-0.07-0.001-0.132-0.022-0.18c0.017-0.021,0.087-0.053,0.125-0.07c0.016-0.01,0.034-0.02,0.062-0.036
		c0.009-0.002,0.029-0.004,0.044-0.004c0.036-0.003,0.081-0.005,0.128-0.024c0.129-0.045,0.173-0.159,0.202-0.224
		c0.007-0.018,0.014-0.032,0.035-0.073c0.023-0.038,0.046-0.078,0.054-0.128v-0.066c0.009-0.019,0.02-0.042,0.026-0.07
		c0.02-0.065,0.021-0.147,0.021-0.181c0-0.039-0.011-0.074-0.021-0.105l-0.166,0.007l0.18-0.041c0.015-0.015,0.03-0.033,0.045-0.056
		c0.019-0.027,0.031-0.056,0.044-0.091c0.018-0.024,0.04-0.046,0.058-0.064c0.067-0.069,0.17-0.175,0.159-0.359
		c0-0.002-0.019-0.268-0.175-0.338c-0.043-0.015-0.079-0.017-0.116-0.015c-0.016-0.006-0.044-0.035-0.067-0.056
		c-0.058-0.052-0.138-0.126-0.275-0.136c-0.026,0-0.05,0.006-0.057,0.01c-0.015-0.002-0.029-0.006-0.044-0.012
		c-0.032-0.009-0.064-0.019-0.116-0.023c-0.013-0.018-0.032-0.036-0.055-0.053c-0.034-0.023-0.069-0.033-0.096-0.04l-0.041-0.014
		c-0.039-0.015-0.089-0.037-0.17-0.041c-0.002,0-0.004,0-0.006,0c-0.008-0.007-0.017-0.013-0.025-0.021
		c-0.014-0.081-0.06-0.132-0.083-0.154c-0.002-0.02-0.003-0.05-0.015-0.079c-0.027-0.078-0.083-0.119-0.142-0.162
		c-0.069-0.054-0.156-0.119-0.291-0.136l-0.037-0.004c-0.022,0-0.049,0.004-0.093,0.014c-0.01-0.004-0.034-0.021-0.051-0.041
		c-0.01-0.013-0.018-0.023-0.026-0.035c-0.023-0.029-0.052-0.07-0.099-0.098c-0.015-0.01-0.028-0.018-0.043-0.022l0.043-0.085
		l-0.148-0.075c-0.029-0.015-0.059-0.022-0.09-0.022l-0.024,0.006c-0.051-0.029-0.104-0.052-0.212-0.031
		c-0.03,0.007-0.056,0.018-0.077,0.031c-0.021-0.01-0.045-0.018-0.074-0.021l-0.04-0.003c-0.012,0-0.023,0-0.033,0.003
		c-0.012-0.012-0.024-0.023-0.041-0.032c-0.105-0.069-0.157-0.073-0.185-0.073c-0.007,0-0.015,0.002-0.023,0.002L9.74,14.38H9.671
		c-0.079,0-0.13,0.049-0.152,0.071c-0.012,0.007-0.027,0.019-0.032,0.021c-0.013,0.004-0.019,0.006-0.039,0.008
		c-0.031,0.004-0.076,0.009-0.127,0.035c-0.067,0.035-0.1,0.085-0.123,0.137c-0.005-0.002-0.008-0.004-0.012-0.006
		c-0.111-0.05-0.231-0.021-0.278,0.03c-0.017-0.008-0.041-0.038-0.047-0.028c0.002-0.016,0.007-0.034,0.012-0.055
		c0.007-0.036,0.017-0.076,0.022-0.108c0.013-0.026,0.033-0.067,0.035-0.128c0-0.152-0.147-0.251-0.246-0.27
		c-0.022-0.004-0.042-0.002-0.073-0.006c0.01-0.021,0.017-0.048,0.028-0.09c0.011-0.021,0.033-0.057,0.038-0.105
		c0.011-0.087-0.025-0.176-0.09-0.229l-0.051-0.043L8.47,13.618c-0.073,0.002-0.151,0.006-0.226,0.04
		c-0.097,0.045-0.14,0.124-0.175,0.202c-0.007,0-0.015,0-0.021,0c-0.019,0.002-0.039,0.007-0.057,0.009
		c-0.017,0.004-0.034,0.008-0.052,0.022c-0.008-0.002-0.024-0.01-0.02-0.002c-0.011-0.021-0.04-0.081-0.045-0.095
		c-0.019-0.064-0.005-0.134,0.045-0.226c0.012-0.016,0.026-0.038,0.04-0.072c0.017-0.041,0.019-0.082,0.006-0.104
		c0.013-0.011,0.052-0.029,0.083-0.047c0.026-0.014,0.05-0.028,0.073-0.043c0.02-0.014,0.05-0.032,0.059-0.034
		c0.017,0,0.052,0.008,0.093,0.021c0.022,0.01,0.058,0.026,0.127,0.03c0.096,0,0.158-0.045,0.212-0.093
		c0.021,0,0.041-0.002,0.062-0.006c0.013,0,0.023-0.002,0.027-0.002c0.021,0.016,0.056,0.041,0.114,0.052
		c-0.002,0.021,0,0.045,0.007,0.071l0.011,0.042l0.032,0.033C8.926,13.477,9,13.5,9.055,13.517c0.017,0.006,0.032,0.01,0.046,0.015
		l0.092,0.038l0.076-0.064c0.112-0.09,0.078-0.224,0.062-0.289l0.002-0.041L9.33,13.162c-0.002-0.024-0.009-0.047-0.016-0.072
		c0-0.024,0.021-0.043,0.103-0.093c0.029-0.017,0.054-0.037,0.09-0.07c0.015-0.008,0.028-0.012,0.04-0.018
		c0.029-0.009,0.056-0.019,0.103-0.045c0.068-0.04,0.128-0.073,0.183-0.116l0.032-0.029l0.016-0.037
		c0.019-0.04,0.023-0.079,0.025-0.115c0.045-0.028,0.071-0.069,0.088-0.103c0.015-0.007,0.03-0.017,0.048-0.029
		c0.027-0.021,0.047-0.043,0.063-0.065c0.009-0.002,0.02-0.004,0.029-0.008c0.032-0.008,0.06-0.024,0.085-0.04
		c0.01-0.006,0.024-0.016,0.052-0.019c0.048-0.008,0.103-0.016,0.15-0.062c0.042-0.046,0.051-0.097,0.051-0.136
		c0.025-0.012,0.06-0.021,0.083-0.028c0.01-0.003,0.02-0.007,0.028-0.009c0.037,0.038,0.087,0.062,0.145,0.062
		c0.078,0,0.144-0.045,0.187-0.08c0.021-0.01,0.052-0.015,0.082-0.022c0.044-0.009,0.089-0.021,0.14-0.039
		c0.071-0.027,0.193-0.07,0.225-0.19c0.002,0,0.002-0.002,0.002-0.002c0.021,0.002,0.039,0.002,0.051,0.002h0.05l0.014-0.095
		c0.005-0.008,0.012-0.016,0.02-0.022l0.03,0.13c0.013,0.002,0.028,0.004,0.046,0.006c0.026,0.023,0.074,0.055,0.144,0.055
		c0.087,0,0.164-0.045,0.197-0.12c0.023-0.054,0.027-0.111,0.009-0.168c0.01-0.04,0.015-0.095-0.016-0.155
		c-0.016-0.03-0.035-0.054-0.058-0.069c0.025-0.033,0.064-0.098,0.058-0.188c-0.011-0.094-0.065-0.14-0.081-0.136
		c-0.008-0.024-0.024-0.062-0.063-0.099c-0.025-0.021-0.054-0.033-0.083-0.047c0.001-0.024,0.001-0.05-0.002-0.08
		c-0.005-0.05-0.021-0.137-0.062-0.208l0.03-0.023c0.03-0.02,0.092-0.058,0.118-0.133c0.038-0.009,0.082-0.026,0.133-0.051
		c0.116-0.057,0.176-0.127,0.184-0.205c0.015-0.165-0.169-0.247-0.205-0.262c-0.001,0-0.003,0-0.003,0
		c0.003-0.027,0-0.052-0.008-0.076c-0.021-0.067-0.07-0.117-0.16-0.143c-0.02-0.016-0.051-0.038-0.094-0.048
		c-0.018-0.006-0.033-0.008-0.049-0.008c-0.015-0.031-0.043-0.076-0.1-0.108l-0.048-0.029l-0.057,0.007l-0.004,0.166l0,0
		l-0.034-0.169c-0.041-0.006-0.08-0.008-0.116-0.002c-0.046-0.009-0.1-0.004-0.155,0.005c-0.019,0.002-0.033,0.006-0.049,0.006
		c-0.018-0.006-0.044-0.017-0.075-0.02h-0.038c-0.048,0-0.102,0.007-0.153,0.021c-0.021-0.015-0.048-0.027-0.081-0.033
		c-0.024-0.017-0.064-0.035-0.119-0.037c-0.058,0-0.104,0.024-0.158,0.052c-0.007,0.004-0.014,0.006-0.021,0.008
		c-0.045-0.024-0.088-0.029-0.168-0.019c-0.067,0.006-0.147,0.019-0.215,0.062c-0.009-0.002-0.016,0-0.024,0
		C9.873,9.494,9.723,9.521,9.716,9.54L9.691,9.538L9.633,9.542C9.604,9.55,9.58,9.559,9.561,9.57
		c-0.009-0.002-0.02-0.006-0.028-0.008L9.461,9.552L9.427,9.576v-0.01C9.409,9.562,9.389,9.561,9.389,9.562
		C9.364,9.544,9.328,9.51,9.271,9.492C9.24,9.483,9.209,9.483,9.163,9.481l-0.02,0.167l0,0L9.129,9.481
		c-0.021-0.002-0.041-0.006-0.061-0.01C9.021,9.463,8.977,9.457,8.937,9.457L8.879,9.461c-0.08,0.011-0.14,0.047-0.183,0.075
		C8.684,9.544,8.672,9.554,8.639,9.564C8.56,9.597,8.424,9.646,8.41,9.783C8.408,9.787,8.408,9.789,8.408,9.791
		C8.396,9.789,8.385,9.787,8.373,9.787C8.342,9.76,8.301,9.741,8.241,9.733c-0.04,0-0.075,0.016-0.101,0.026L8.113,9.757
		L8.096,9.758C8.049,9.76,8.008,9.771,7.971,9.781L7.928,9.793C7.906,9.797,7.89,9.797,7.864,9.797
		c-0.022-0.002-0.051,0-0.076,0.002c-0.04,0.003-0.081,0.013-0.122,0.022C7.64,9.828,7.61,9.836,7.61,9.834
		C7.589,9.821,7.557,9.802,7.513,9.793c-0.026-0.004-0.049-0.006-0.099-0.01c-0.02-0.007-0.04-0.014-0.062-0.018
		C7.316,9.758,7.278,9.757,7.237,9.757H7.175c-0.016,0-0.031,0-0.046-0.004C7.11,9.745,7.08,9.732,7.048,9.729
		c-0.018,0-0.031-0.002-0.046-0.002L6.956,9.73L6.893,9.708C6.865,9.702,6.844,9.7,6.804,9.702c-0.021-0.01-0.057-0.026-0.117-0.03
		c-0.052,0-0.096,0.016-0.147,0.032C6.521,9.708,6.506,9.708,6.486,9.708s-0.039,0-0.061,0.002C6.39,9.713,6.351,9.723,6.312,9.732
		C6.29,9.735,6.269,9.741,6.246,9.747C6.167,9.755,6.098,9.776,6.031,9.804c-0.045,0.018-0.08,0.024-0.154,0.034
		C5.817,9.844,5.58,9.708,5.504,9.81L5.461,9.868C5.418,9.873,5.37,9.885,5.307,9.897C5.243,9.911,5.05,9.953,5.049,10.13
		c-0.007,0.004-0.013,0.005-0.019,0.007c-0.012,0.008-0.026,0.014-0.042,0.018c-0.094,0.028-0.233,0.069-0.248,0.205
		C4.726,10.516,4.881,10.58,4.953,10.61z M10.427,10.554L10.427,10.554L10.427,10.554L10.427,10.554z M10.384,10.571v0.033
		c-0.013,0-0.029-0.013-0.045-0.022C10.354,10.58,10.369,10.575,10.384,10.571z M10.205,10.569c0.035,0.056,0.087,0.099,0.159,0.099
		c0.007,0,0.012-0.003,0.018-0.003c-0.009,0.049,0,0.088,0.005,0.111c0.004,0.047-0.011,0.068-0.022,0.081
		c-0.028,0.031-0.092,0.049-0.177,0.049c0,0,0,0-0.001,0l-0.068-0.002l-0.003,0.004c-0.034-0.034-0.087-0.055-0.157-0.055
		l-0.063,0.002c-0.01-0.002-0.044-0.013-0.083-0.034c-0.01-0.005-0.021-0.015-0.03-0.021c-0.028-0.023-0.069-0.056-0.125-0.074
		c0.021-0.012,0.049-0.026,0.075-0.042c0.046-0.026,0.101-0.053,0.146-0.067c0.019-0.002,0.047-0.004,0.079-0.016
		c0.041-0.017,0.073-0.035,0.1-0.052c0.013-0.011,0.029-0.018,0.053-0.023c0.008,0,0.018,0,0.027-0.002
		C10.157,10.545,10.18,10.56,10.205,10.569z M9.471,9.577L9.437,9.741l0,0l-0.01-0.158C9.439,9.579,9.456,9.577,9.471,9.577z"/>
	<path style="fill:#2D2D2D;" d="M26.968,19.109l-0.033,0.018c-0.056,0.026-0.104,0.049-0.138,0.075
		c-0.096,0.072-0.108,0.167-0.085,0.233c0.043,0.132,0.195,0.166,0.28,0.166h0.023c0.094-0.008,0.181-0.059,0.265-0.11
		c0.027-0.02,0.055-0.041,0.081-0.064c0.021-0.018,0.041-0.036,0.071-0.043c0.022-0.004,0.053-0.009,0.083-0.021
		c0.055-0.021,0.086-0.055,0.102-0.075c0.015-0.008,0.032-0.019,0.049-0.026c0.038-0.022,0.085-0.05,0.125-0.083h0.036l0,0
		c0.077,0,0.137-0.041,0.167-0.062l-0.033-0.057c0.005-0.004,0.012-0.009,0.018-0.015l0.048,0.051
		c0.031-0.021,0.064-0.04,0.091-0.062c0.019-0.013,0.033-0.027,0.055-0.055l0.062-0.017c0.073-0.034,0.134-0.101,0.17-0.181
		l0.044-0.105l-0.155-0.136h-0.041c0.005-0.045,0.003-0.108-0.046-0.166c-0.037-0.042-0.092-0.066-0.171-0.066
		c-0.002,0-0.004,0-0.004,0l-0.095,0.017l-0.045,0.056c-0.062,0.073-0.05,0.163-0.041,0.233c-0.002,0.012-0.011,0.022-0.058,0.055
		c-0.021,0.015-0.042,0.029-0.061,0.047l-0.055,0.049l-0.001,0.024c-0.014-0.001-0.025-0.007-0.038-0.007l-0.064,0.004l-0.042,0.027
		c-0.038,0.022-0.077,0.056-0.117,0.086l-0.059,0.045c-0.047,0.031-0.127,0.064-0.205,0.092
		C27.086,19.059,27.021,19.083,26.968,19.109z M26.99,19.274v0.011c-0.005,0.002-0.008,0.004-0.012,0.006l-0.003-0.026
		C26.98,19.267,26.985,19.271,26.99,19.274z M26.992,19.434L26.992,19.434L26.992,19.434L26.992,19.434z"/>
	<path style="fill:#2D2D2D;" d="M26.646,15.844c-0.075-0.089-0.188-0.124-0.288-0.154c-0.024-0.008-0.05-0.017-0.099-0.036
		c-0.025-0.014-0.054-0.024-0.078-0.032c-0.021-0.006-0.04-0.009-0.06-0.013c-0.013-0.004-0.025-0.006-0.055-0.021
		c-0.028-0.016-0.071-0.043-0.155-0.05c-0.065,0-0.129,0.025-0.167,0.046c-0.058-0.095-0.188-0.162-0.286-0.162l-0.033,0.004
		c-0.076,0.011-0.139,0.058-0.175,0.132c-0.039,0.08-0.036,0.181,0.011,0.26c0.011,0.019,0.025,0.034,0.038,0.045l0.018,0.041
		c0.057,0.127,0.185,0.152,0.269,0.167c0.028,0.006,0.062,0.013,0.077,0.024c0.013,0.009,0.027,0.024,0.051,0.039
		c-0.032,0.05-0.041,0.104-0.027,0.162c0.03,0.127,0.163,0.18,0.296,0.139c0.012,0.009,0.03,0.019,0.044,0.025
		c-0.026,0.051-0.042,0.105-0.054,0.147c-0.009,0.017-0.021,0.043-0.028,0.075c-0.005,0.024-0.008,0.051-0.012,0.075
		c-0.002,0.022-0.006,0.045-0.009,0.064c-0.014-0.007-0.021-0.009-0.024-0.009c-0.011-0.011-0.023-0.022-0.036-0.033
		c0.006-0.019,0.01-0.037,0.01-0.055c0.021-0.029,0.048-0.081,0.037-0.148c-0.013-0.105-0.097-0.178-0.202-0.178
		c-0.035,0-0.065,0.008-0.086,0.015c-0.013-0.001-0.047-0.017-0.067-0.027c-0.045-0.022-0.091-0.043-0.146-0.047l-0.065-0.004
		l-0.028,0.022c-0.015-0.004-0.027-0.015-0.045-0.015c-0.109,0-0.2,0.083-0.203,0.186l-0.002,0.026l0.002,0.008
		c-0.007,0.008-0.017,0.018-0.022,0.028c-0.029-0.017-0.067-0.03-0.115-0.034c-0.051,0-0.107,0.018-0.141,0.034
		c-0.048,0.022-0.103,0.062-0.137,0.091c-0.045,0.036-0.068,0.081-0.083,0.104l-0.053,0.005l-0.031,0.012
		c-0.105,0.044-0.129,0.139-0.144,0.194c-0.007,0.014-0.041,0.049-0.08,0.059c-0.022,0.003-0.047,0.005-0.071,0.011
		c-0.04,0.01-0.078,0.025-0.113,0.04c-0.01,0.006-0.02,0.01-0.01,0.012l-0.026-0.002l-0.042,0.002
		c-0.081,0.015-0.141,0.056-0.188,0.089c-0.015,0.013-0.031,0.026-0.06,0.037c-0.042,0.019-0.104,0.043-0.14,0.105
		c-0.023,0.036-0.03,0.073-0.041,0.117c-0.017,0.026-0.048,0.075-0.046,0.145c0,0.018,0.001,0.032,0.005,0.047
		c-0.015,0.019-0.028,0.044-0.033,0.076c-0.013,0.051,0.003,0.092,0.01,0.117v0.043l0.002,0.017
		c0.005,0.037,0.017,0.066,0.026,0.095c-0.005,0.019-0.014,0.045-0.016,0.078c-0.003,0.048,0.009,0.087,0.02,0.095
		c-0.002,0.011-0.014,0.038-0.016,0.038c-0.032,0.026-0.103,0.084-0.102,0.187c0,0.124,0.1,0.182,0.137,0.205l0.037,0.032
		l0.049,0.008c0.158,0.022,0.25-0.03,0.314-0.066c0.02-0.012,0.038-0.021,0.052-0.024c0.026-0.008,0.072-0.006,0.113-0.004
		c0.048,0.004,0.092,0.006,0.139,0.002l0.051-0.006l0.04-0.033c0.06-0.052,0.127-0.091,0.175-0.097h0.063
		c0.062-0.006,0.115-0.022,0.161-0.039c0.042-0.016,0.068-0.029,0.127-0.024c0.015,0.004,0.053,0.017,0.077,0.026
		c0.003,0.007,0.008,0.015,0.012,0.022c-0.013,0.148,0.105,0.199,0.155,0.215l0.037,0.002c0.015,0,0.029,0,0.044-0.004
		c-0.004,0.022-0.006,0.049-0.003,0.077c0.019,0.145,0.126,0.19,0.195,0.209c-0.003,0.006-0.007,0.008-0.01,0.013
		c0,0.002-0.068,0.16-0.05,0.253c0.02,0.105,0.107,0.177,0.219,0.177c0.089,0,0.183-0.045,0.222-0.074
		c0.09-0.062,0.156-0.157,0.181-0.255l0.025-0.105l-0.019-0.015c0.011-0.004,0.019-0.01,0.025-0.014
		c0.005-0.002,0.023-0.002,0.037-0.004l0.053-0.004c0.134-0.016,0.198-0.118,0.231-0.174c0.009-0.011,0.014-0.022,0.021-0.029
		c0.012-0.014,0.026-0.024,0.042-0.038c0.023-0.021,0.051-0.044,0.074-0.069l0.038-0.042c0.021-0.021,0.04-0.045,0.087-0.079
		c0.021-0.012,0.045-0.026,0.062-0.041c0.058-0.045,0.113-0.113,0.165-0.202c0.017-0.024,0.03-0.045,0.045-0.063
		c0.028-0.042,0.061-0.086,0.08-0.136c0.021-0.054,0.022-0.105,0.026-0.172c0.016-0.032,0.048-0.096,0.03-0.183
		c-0.012-0.053-0.04-0.093-0.082-0.147c-0.012-0.017-0.024-0.033-0.042-0.054l-0.013-0.057l-0.016-0.026
		c-0.015-0.028-0.035-0.05-0.056-0.063l-0.001-0.005c-0.005-0.017-0.011-0.03-0.016-0.03l0,0v-0.058l-0.032-0.046
		c-0.047-0.061-0.104-0.089-0.131-0.095c0.002-0.03,0.002-0.062-0.004-0.094c-0.007-0.037-0.02-0.07-0.034-0.073
		c0.007-0.021,0.014-0.057,0.008-0.101c-0.012-0.086-0.063-0.138-0.107-0.162c-0.005-0.058-0.025-0.122-0.058-0.184
		c0.014-0.014,0.032-0.022,0.042-0.035c0.018,0.037,0.044,0.083,0.091,0.123c0.066,0.051,0.133,0.053,0.201,0.059
		c0.022,0.013,0.063,0.034,0.116,0.034c0.051,0,0.1-0.023,0.136-0.059l0.076-0.098l-0.023-0.093
		c-0.012-0.049-0.042-0.091-0.079-0.128c0.104-0.03,0.177-0.117,0.188-0.238l0.011-0.143l-0.098-0.022l-0.022-0.024h-0.073
		l-0.086,0.017c-0.007,0-0.015,0-0.023,0c-0.052,0.002-0.114,0.015-0.173,0.049c-0.002,0-0.003-0.002-0.005-0.004L26.646,15.844z
		 M26.859,15.94v-0.008c0.002,0,0.004,0.002,0.008,0.006c0,0,0.004,0,0.007,0l-0.002,0.006c0.013,0.009,0.028,0.029,0.036,0.056
		l-0.036-0.004v0.017c-0.001,0-0.005,0-0.007,0l-0.001-0.017l-0.051-0.004C26.817,15.972,26.839,15.949,26.859,15.94z"/>
	<path style="fill:#2D2D2D;" d="M13.138,14.457c-0.007,0.022-0.011,0.058-0.002,0.096c0.018,0.093,0.091,0.154,0.15,0.203
		c0.01,0.01,0.021,0.019,0.03,0.027c0.018,0.019,0.041,0.037,0.062,0.054c0.015,0.014,0.038,0.032,0.046,0.06
		c0.012,0.047,0.028,0.112,0.085,0.169c0.029,0.028,0.062,0.047,0.089,0.062c0.008,0.006,0.021,0.012,0.027,0.019
		c0.017,0.013,0.036,0.025,0.055,0.039l0.069,0.053c0.064,0.055,0.16,0.133,0.312,0.133h0.002c0.054-0.003,0.097-0.021,0.131-0.037
		c0.01-0.004,0.02-0.01,0.029-0.013c0.028-0.004,0.063-0.008,0.099-0.008l0.049,0.008c0.029,0.009,0.083,0.009,0.13,0.021
		c0.068-0.002,0.125-0.032,0.172-0.058l0.034-0.015c0.044-0.019,0.131-0.057,0.234-0.06c0.002,0.002,0.002,0.003,0.002,0.005
		c0.02,0.04,0.052,0.099,0.118,0.142l0.034,0.021l0.076,0.006c0.04,0,0.076-0.008,0.112-0.014l0,0l-0.01,0.037
		c-0.009,0.031-0.012,0.069-0.017,0.101c-0.001,0.016-0.001,0.026-0.001,0.026h0.001c-0.014,0.021-0.036,0.064-0.036,0.129
		c0.001,0.098,0.087,0.209,0.087,0.209c0.027,0.033,0.056,0.059,0.082,0.081c0.013,0.012,0.025,0.021,0.036,0.034
		c0.033,0.037,0.056,0.089,0.081,0.152l0.044,0.1c0.009,0.018,0.02,0.03,0.022,0.024c-0.007,0.022-0.017,0.058-0.014,0.103
		c0.007,0.066,0.032,0.111,0.051,0.141c-0.002,0.008-0.016,0.024-0.024,0.036c-0.033,0.04-0.076,0.094-0.092,0.174
		c-0.009,0.031-0.009,0.06-0.011,0.075c-0.011,0.02-0.027,0.055-0.034,0.098c-0.007,0.039-0.015,0.113-0.011,0.168
		c0.01,0.079,0.058,0.138,0.105,0.201c0.009,0.018,0.016,0.04,0.026,0.062c0.016,0.038,0.031,0.077,0.05,0.111
		c0.012,0.021,0.026,0.042,0.038,0.064c-0.002,0.027-0.002,0.054,0.001,0.08c0.005,0.04,0.017,0.072,0.028,0.099l0.008,0.048
		c0.009,0.074,0.021,0.157,0.07,0.242c0.021,0.036,0.048,0.061,0.067,0.079c0.009,0.009,0.018,0.017,0.022,0.024
		c0.004,0.008,0.01,0.026,0.017,0.042c0.009,0.03,0.023,0.063,0.037,0.092c0.009,0.018,0.019,0.032,0.03,0.052
		c-0.005,0.021-0.01,0.043-0.009,0.066c0.004,0.157,0.146,0.303,0.302,0.303l0,0c0.05,0,0.092-0.018,0.118-0.027l0.037-0.002
		c0.039-0.006,0.069-0.021,0.083-0.027c0.013,0,0.028,0.001,0.043,0.005c0.024,0,0.048,0.004,0.101,0.002
		c0.133-0.007,0.269-0.069,0.347-0.124c0.083-0.061,0.159-0.127,0.215-0.187c0.033-0.035,0.056-0.073,0.074-0.102
		c0.006-0.016,0.016-0.032,0.037-0.049c0.028-0.021,0.072-0.054,0.103-0.109c0.014-0.026,0.061-0.136,0.063-0.196
		c0-0.002,0-0.004,0.002-0.006c0.062-0.021,0.152-0.059,0.192-0.156c0.037-0.091,0.037-0.206,0.003-0.34l-0.003-0.007
		c0.002-0.002,0.002-0.002,0.003-0.004l0.048-0.038c0.02-0.017,0.04-0.037,0.08-0.081c0.005-0.006,0.026-0.011,0.039-0.017
		c0.031-0.01,0.07-0.022,0.106-0.045c0.042-0.028,0.088-0.08,0.13-0.13c-0.002,0.009-0.011,0.022-0.011,0.033
		c-0.007,0.059,0.006,0.107,0.013,0.147c0.004,0.011,0.007,0.021-0.004,0.036c-0.033,0.041-0.08,0.103-0.09,0.195
		c-0.007,0.062,0.01,0.111,0.023,0.158c-0.002,0.021-0.004,0.056,0.007,0.097c0.038,0.12,0.151,0.207,0.276,0.207h0.004
		c0.046,0,0.155-0.025,0.204-0.051c0.101-0.057,0.133-0.168,0.156-0.249c0.008-0.022,0.013-0.043,0.018-0.053
		c0.01-0.015,0.025-0.035,0.039-0.068c0.012-0.031,0.023-0.065,0.034-0.101s0.021-0.068,0.041-0.111
		c0.029-0.068,0.062-0.147,0.077-0.239c0.024-0.024,0.054-0.063,0.063-0.119l-0.002-0.075l-0.011-0.036
		c-0.012-0.087-0.039-0.316-0.238-0.316l-0.051,0.006l-0.071,0.037c-0.032,0.024-0.051,0.053-0.062,0.079l-0.046,0.04
		c-0.026,0.034-0.039,0.065-0.045,0.085c-0.004,0.006-0.023,0.021-0.073,0.039c-0.032,0.01-0.088,0.021-0.141,0.061
		c-0.021,0.015-0.031,0.04-0.049,0.061c0.011-0.055,0.006-0.105-0.003-0.152c-0.002-0.035,0-0.07,0-0.107
		c0.002-0.046,0.003-0.095,0.002-0.142l-0.004-0.068l-0.053-0.047c-0.006-0.011-0.02-0.042-0.027-0.064
		c0.006-0.043,0.011-0.102-0.009-0.167c-0.005-0.018-0.012-0.03-0.016-0.044c0.014-0.021,0.025-0.042,0.039-0.063
		c0.009-0.022,0.018-0.043,0.026-0.062c0.003-0.011,0.008-0.023,0.02-0.03c0.021-0.016,0.052-0.036,0.078-0.065
		c0.024-0.026,0.04-0.058,0.062-0.095c0.042-0.055,0.103-0.119,0.16-0.16c0.013-0.007,0.021-0.013,0.034-0.019
		c0.027-0.018,0.054-0.033,0.078-0.054c0.038-0.029,0.066-0.062,0.101-0.095l-0.125-0.115l0.152,0.084
		c0.055-0.06,0.124-0.136,0.166-0.224c0.015-0.032,0.019-0.061,0.02-0.079c0.007-0.016,0.021-0.037,0.036-0.061
		c0.028-0.042,0.065-0.096,0.086-0.164c0.004-0.016,0.008-0.032,0.016-0.071c0.017-0.052,0.06-0.182-0.042-0.295l-0.02-0.021
		c0.013-0.006,0.025-0.013,0.039-0.022c0.056-0.035,0.08-0.083,0.099-0.118c-0.001,0.005-0.004,0.015-0.001,0.021
		c0.027-0.002,0.066-0.008,0.105-0.022c0.055-0.021,0.09-0.055,0.109-0.078l-0.096-0.139l0,0l0.128,0.114
		c0.022-0.017,0.046-0.035,0.084-0.067c0.031-0.022,0.069-0.051,0.093-0.1l0.009-0.046c0.01-0.01,0.021-0.021,0.031-0.032
		c0.037-0.047,0.122-0.163,0.112-0.258c-0.001-0.019-0.006-0.039-0.015-0.058c0.033-0.002,0.066-0.006,0.099-0.008l0.054-0.004
		l0.092,0.002l0.039-0.002c0,0,0.001,0,0.003,0c0.018,0.022,0.036,0.041,0.053,0.058c0.035,0.03,0.074,0.054,0.112,0.076l0,0
		c0.007,0.026,0.017,0.051,0.031,0.075c0.057,0.093,0.176,0.164,0.271,0.168c0.007,0.024,0.015,0.058,0.027,0.099l0.015,0.049
		c0.011,0.035,0.021,0.07,0.032,0.1c0.021,0.051,0.049,0.092,0.071,0.132l0.026,0.041c0.008,0.015,0.017,0.04,0.024,0.063
		c0.01,0.035,0.047,0.418,0.059,0.443c0.021,0.047,0.05,0.081,0.087,0.125c0.008,0.015,0.015,0.037,0.022,0.058
		c0.033,0.099,0.097,0.278,0.307,0.278c0.002,0,0.002,0,0.003,0c0.004-0.002,0.004-0.002,0.007-0.002
		c0.006,0.024,0.014,0.05,0.026,0.074c0.037,0.062,0.093,0.099,0.161,0.109l0.038,0.004c0.102,0,0.202-0.064,0.239-0.15
		c0.023-0.05,0.036-0.132-0.011-0.243c-0.026-0.056-0.083-0.146-0.15-0.198c-0.001-0.01-0.001-0.019-0.003-0.024
		c0.011-0.022,0.024-0.054,0.029-0.097c0.007-0.06-0.031-0.465-0.04-0.504c0.026-0.014,0.057-0.031,0.089-0.061
		c0.028-0.028,0.044-0.059,0.053-0.072c0.018-0.011,0.043-0.028,0.063-0.051c0.025-0.023,0.047-0.05,0.068-0.077
		c0.011-0.015,0.025-0.032,0.035-0.038c0.033-0.015,0.11-0.043,0.147-0.131c0.005,0,0.011,0,0.013,0
		c0.026-0.002,0.079-0.01,0.123-0.02c0.02,0.03,0.047,0.057,0.065,0.075c0.021,0.021,0.043,0.034,0.067,0.052l0.026,0.045
		c0.008,0.013,0.019,0.025,0.035,0.042c-0.007,0.026-0.009,0.062-0.003,0.101c0.022,0.117,0.139,0.189,0.243,0.189
		c0.028-0.002,0.053-0.008,0.076-0.016c0.011,0.026,0.021,0.051,0.03,0.073l0.029,0.066c0,0.024,0,0.051,0.004,0.076
		c0.003,0.024,0.011,0.048,0.011,0.029c0.002,0.026-0.002,0.051-0.006,0.077c-0.007,0.038-0.014,0.083-0.012,0.13
		c0.003,0.032,0.014,0.059,0.024,0.081c-0.016-0.004-0.035-0.007-0.058-0.007l-0.095,0.007l-0.095,0.109l0.005,0.069
		c0.009,0.142,0.106,0.218,0.166,0.262c0.017,0.015,0.036,0.027,0.041,0.035c0.009,0.017,0.022,0.041,0.046,0.063
		c0.016,0.017,0.032,0.03,0.05,0.047c0.007,0.023,0.018,0.055,0.038,0.089c0.024,0.04,0.056,0.068,0.093,0.104
		c0.004,0.006,0.011,0.022,0.016,0.038c0.01,0.025,0.021,0.055,0.035,0.081c0.023,0.039,0.052,0.07,0.094,0.113
		c0.074,0.078,0.148,0.156,0.242,0.225l0.04,0.019c0.078,0.136,0.307,0.179,0.308,0.179c0.018,0.003,0.034,0.003,0.05,0.003
		l0.063-0.001c0.011,0,0.03,0.007,0.05,0.015c0.035,0.013,0.079,0.029,0.129,0.034c0.031,0.002,0.058,0.004,0.085,0.004
		c0.019,0,0.038,0,0.077,0.01c0.024,0.006,0.057,0.013,0.097,0.013c0.023,0,0.041-0.007,0.061-0.013
		c0.059,0.033,0.131,0.039,0.162,0.041l0.002-0.055l0,0l-0.002,0.055h0.038c0.047,0.056,0.11,0.079,0.141,0.087l0.023-0.061
		c-0.042,0.006-0.069-0.018-0.09-0.047c0.022-0.002,0.046-0.008,0.064-0.015c0.03,0.013,0.061,0.021,0.09,0.024
		c-0.019,0.017-0.036,0.033-0.062,0.037l-0.018,0.064l0.079,0.026l0.069-0.052l0.025-0.026l0.02,0.012l0.035,0.066l0.112-0.01
		c0.089-0.009,0.144-0.055,0.185-0.085l0.036-0.021c0.047-0.015,0.146-0.049,0.185-0.162l0.06-0.158l-0.161-0.055
		c-0.077-0.028-0.156-0.014-0.217,0.009c0.048-0.06,0.048-0.137,0.046-0.184l0.005-0.064l-0.042-0.049
		c-0.004-0.008-0.011-0.021-0.018-0.039c0.026-0.025,0.046-0.066,0.055-0.117c0.065-0.039,0.101-0.099,0.104-0.167l0.005-0.103
		l-0.088-0.052c-0.038-0.022-0.082-0.033-0.133-0.033c-0.018,0-0.037,0.002-0.089,0.005c-0.007,0-0.023-0.003-0.036-0.005
		c-0.025-0.006-0.056-0.01-0.112-0.012c-0.026,0.004-0.051,0.014-0.074,0.022c-0.005-0.009-0.01-0.019-0.008-0.019l0,0
		c0.02-0.022,0.215,0.107,0.235,0.047l0.024-0.074l-0.039-0.065c-0.028-0.045-0.067-0.072-0.087-0.079
		c-0.039-0.081-0.118-0.162-0.224-0.162l-0.102,0.012l-0.049,0.059c-0.036,0.041-0.055,0.08-0.076,0.132
		c-0.016,0.006-0.044,0.017-0.073,0.035c-0.049,0.028-0.073,0.069-0.098,0.119c-0.027,0.002-0.072,0.008-0.118,0.035
		c-0.021,0.016-0.038,0.033-0.051,0.05c-0.002,0-0.003,0-0.003,0l-0.039,0.004c-0.07,0.012-0.29-0.115-0.325-0.052
		c-0.032,0.066-0.032,0.14-0.022,0.21c-0.028-0.019-0.062-0.032-0.096-0.038c-0.002,0-0.004,0-0.004,0l-0.002-0.002
		c0.047-0.081,0.045-0.172-0.024-0.288c0-0.036,0.002-0.092-0.021-0.152c-0.014-0.028-0.035-0.059-0.06-0.087l0.03-0.004
		c0.125-0.012,0.352,0.072,0.384,0.022c0.013-0.008,0.027-0.014,0.04-0.021c0.061-0.026,0.152-0.067,0.2-0.174l0.014-0.054
		c0.016-0.198-0.196-0.494-0.266-0.583c0.093-0.049,0.156-0.16,0.147-0.27c0.003-0.002,0.005-0.002,0.008-0.004
		c0.039-0.011,0.065-0.031,0.068-0.043l0.063-0.02c0.092-0.025,0.197-0.056,0.29-0.13c0.123-0.097,0.172-0.229,0.201-0.36
		c0.064-0.07,0.06-0.167,0.058-0.208c0-0.014-0.002-0.028,0-0.043l0.003-0.038l-0.012-0.036c-0.013-0.037-0.035-0.064-0.057-0.083
		l-0.01-0.061l-0.02-0.019c-0.009-0.019-0.019-0.048-0.04-0.077l-0.073-0.062c-0.017-0.019-0.03-0.037-0.045-0.056
		c-0.013-0.017-0.027-0.035-0.043-0.053c0.016-0.015,0.032-0.031,0.045-0.05c0.015,0.005,0.03,0.009,0.045,0.013v0.002
		c0.015,0.03,0.035,0.053,0.037,0.055c0.012,0.141,0.092,0.194,0.158,0.215l0.069,0.012c0.032,0,0.07-0.01,0.111-0.023
		c0.017,0.062,0.053,0.107,0.079,0.131l0.022,0.025c0.025,0.04,0.084,0.133,0.203,0.133l0.034-0.002
		c0.041-0.008,0.111,0.154,0.141,0.029c0.023-0.011,0.041-0.022,0.058-0.039c0.013,0.004,0.03,0.006,0.047,0.006l0.052-0.006
		c0.063-0.017,0.101-0.061,0.124-0.097c0.008,0,0.016-0.002,0.022-0.002c0.061-0.007,0.163-0.022,0.233-0.111l0.055-0.065
		l-0.034-0.124c-0.012-0.042-0.021-0.083-0.036-0.124l-0.015-0.031c0.005-0.024,0.011-0.06,0.005-0.1
		c-0.01-0.053-0.038-0.098-0.07-0.139c0.03-0.016,0.068-0.044,0.093-0.097l0.017-0.038l-0.003-0.041
		c-0.005-0.084-0.032-0.387-0.24-0.413c-0.023-0.004-0.057-0.021-0.086-0.037c-0.011-0.006-0.022-0.011-0.034-0.016
		c0-0.004,0.004-0.008,0.004-0.012c-0.004-0.075-0.047-0.125-0.095-0.163l0.004-0.008l-0.009-0.067
		c-0.01-0.083-0.072-0.136-0.14-0.192c-0.024-0.022-0.053-0.041-0.103-0.078c-0.022-0.019-0.038-0.037-0.053-0.056
		c-0.044-0.053-0.102-0.119-0.198-0.149l-0.051-0.013l-0.05,0.015c-0.009,0.004-0.02,0.008-0.028,0.012l-0.018-0.008
		c-0.031-0.021-0.086-0.052-0.173-0.052l0,0c-0.028,0.002-0.053,0.011-0.074,0.019c-0.002,0-0.004-0.002-0.008-0.002
		c0.012-0.02,0.026-0.042,0.034-0.07c0.002-0.002,0.002-0.006,0.004-0.008c0.018,0.002,0.037,0.004,0.059,0.006
		c0.075,0.008,0.149,0.015,0.217,0.004c0.034-0.008,0.062-0.021,0.062-0.021c0.033,0.017,0.083,0.043,0.176,0.048
		c0.219,0,0.285-0.084,0.299-0.161c0.006,0.002,0.009,0.004,0.014,0.004c-0.015,0.027-0.024,0.062-0.024,0.107
		c0.021,0.206,0.184,0.321,0.288,0.401l0.035,0.025c0.035,0.027,0.067,0.054,0.1,0.08c0.056,0.049,0.271,0.169,0.326,0.208
		l0.082,0.05l0.084-0.041c0.074-0.038,0.122-0.105,0.133-0.182c0.004-0.045-0.007-0.082-0.016-0.1l0.009-0.03l-0.004-0.037
		c0-0.004,0-0.006,0-0.008c0.019-0.038,0.021-0.073,0.019-0.098c-0.002-0.057-0.029-0.097-0.056-0.125c0-0.004,0-0.007-0.002-0.011
		l-0.02-0.068c-0.009-0.014-0.017-0.024-0.026-0.036l0.028-0.003c0.09-0.018,0.138-0.093,0.168-0.149
		c0.009-0.005,0.026-0.017,0.039-0.022l0.042,0.004c0.05,0,0.096-0.015,0.137-0.046l0.084-0.063l-0.009-0.045
		c0.049,0.008,0.102,0.006,0.15-0.004l0.118-0.027l0.013-0.122c0.01-0.08-0.02-0.162-0.074-0.224
		c-0.079-0.087-0.219-0.141-0.375-0.141c-0.031,0-0.059,0.005-0.052,0.009c-0.014-0.002-0.027-0.009-0.04-0.015
		c-0.024-0.011-0.048-0.02-0.072-0.027c-0.054-0.017-0.113-0.028-0.171-0.039c-0.041-0.008-0.08-0.016-0.096-0.02l-0.065-0.027
		c-0.03-0.009-0.057-0.011-0.052-0.006c-0.016-0.008-0.205-0.098-0.241-0.104l-0.041-0.002c-0.031,0-0.062,0.004-0.12,0.015
		c-0.042,0.004-0.088,0.002-0.119-0.006c-0.008-0.001-0.025-0.011-0.039-0.019c-0.034-0.017-0.08-0.042-0.158-0.049h-0.133
		c-0.062,0-0.104,0.024-0.117,0.034c-0.028-0.01-0.06-0.02-0.099-0.02l0,0c-0.039,0-0.07,0.012-0.095,0.021l-0.022-0.002
		c-0.046-0.006-0.103-0.002-0.159,0l-0.084,0.002c-0.018,0-0.032,0-0.043-0.008c-0.021-0.016-0.052-0.038-0.095-0.055
		c-0.107-0.043,0.093-0.108-0.047-0.097l-0.05,0.006c-0.015,0.004-0.029,0.006-0.042,0.006c-0.016-0.008-0.042-0.02-0.077-0.026
		c-0.027-0.004-0.059-0.008-0.112-0.017c-0.03-0.021-0.073-0.053-0.136-0.064l-0.056-0.004c-0.02,0-0.043,0-0.064,0.004
		l-0.032,0.004l-0.113-0.008c-0.097-0.003-0.195-0.007-0.295-0.003l-0.049,0.003l-0.039,0.028c-0.018,0.012-0.031,0.024-0.041,0.038
		c-0.019-0.002-0.039-0.002-0.06-0.004c-0.075-0.008-0.115-0.021-0.233,0.013c-0.007,0.002-0.013,0.006-0.018,0.008
		c-0.012-0.014-0.026-0.028-0.044-0.043c-0.035-0.024-0.117-0.083-0.19-0.101c-0.029-0.008-0.064-0.013-0.106-0.013l-0.062,0.004
		l-0.082-0.002c-0.017-0.002-0.042-0.008-0.07-0.008l-0.034,0.002c-0.048,0.008-0.084,0.03-0.094,0.045
		c-0.019-0.004-0.041-0.008-0.062-0.011l-0.037,0.003c-0.019-0.007-0.046-0.022-0.087-0.028c-0.051-0.007-0.129-0.011-0.188-0.011
		c-0.024,0-0.048,0.004-0.083-0.002c-0.007-0.004-0.011-0.007-0.018-0.011c-0.047-0.089-0.131-0.113-0.176-0.125l-0.075-0.035
		c-0.056-0.016-0.126-0.016-0.198-0.014l-0.059,0.004c-0.005,0-0.012,0-0.018-0.002c-0.021-0.016-0.424,0.02-0.475,0.012
		L20.601,9.28c-0.036,0-0.068,0.006-0.093,0.012c-0.012,0.003-0.017,0.003-0.067,0.005c-0.018-0.002-0.037-0.002-0.055-0.002
		l-0.071,0.008c-0.049,0.011-0.1-0.144-0.134-0.132c-0.029-0.01-0.067-0.031-0.145-0.021c-0.049,0.005-0.092,0.023-0.124,0.038
		c-0.015,0.006-0.036,0.017-0.042,0.017l-0.061,0.01c-0.086,0.011-0.174,0.024-0.249,0.076l-0.038,0.039
		c-0.061,0.002-0.129,0.009-0.188,0.052l-0.031,0.022c-0.026,0.009-0.05,0.02-0.07,0.031c-0.021-0.008-0.047-0.017-0.075-0.013
		c-0.021,0.001-0.037,0.003-0.054,0.011c-0.05-0.036-0.116-0.055-0.189-0.055c-0.051,0-0.144,0.009-0.21,0.071
		c-0.011,0.012-0.07,0.085-0.099,0.154c-0.034-0.001-0.068-0.003-0.104-0.005l-0.16-0.008l-0.055,0.067
		c0,0.002-0.002,0.002-0.002,0.004c-0.021,0.005-0.042,0.012-0.062,0.02h-0.059c-0.011,0.002-0.021,0.004-0.028,0.004
		c-0.055-0.029-0.173-0.019-0.213,0.002l-0.012,0.001c-0.078-0.081-0.229-0.085-0.301,0.006c-0.097-0.019-0.196,0.019-0.23,0.071
		c-0.051-0.028-0.108-0.045-0.155-0.058l-0.051-0.021c-0.052-0.019-0.094,0.137-0.158,0.13H16.95c-0.01,0-0.026-0.008-0.044-0.014
		c-0.027-0.009-0.06-0.022-0.126-0.027c-0.017-0.019-0.038-0.037-0.072-0.048c-0.059-0.028-0.131-0.032-0.206-0.022
		C16.485,9.708,16.471,9.71,16.45,9.71c-0.012-0.002-0.025-0.002-0.036-0.004C16.39,9.702,16.368,9.7,16.314,9.7l-0.117,0.012
		c-0.049,0.007-0.085,0.027-0.113,0.048c-0.007,0.002-0.026,0.002-0.042,0.004c-0.028,0.002-0.057,0.006-0.087,0.013
		c-0.057,0.013-0.101,0.043-0.119,0.067L15.789,9.84c-0.083,0-0.154,0.043-0.197,0.141c-0.003,0.014-0.005,0.028-0.005,0.042
		c-0.028,0.018-0.061,0.042-0.09,0.075c-0.015,0.019-0.024,0.036-0.029,0.055c-0.019,0.013-0.04,0.032-0.057,0.061
		c0,0.002-0.002,0.004-0.002,0.004c-0.026,0.002-0.058,0.005-0.091,0.017c-0.042,0.017-0.069,0.039-0.081,0.053
		c-0.012,0.008-0.022,0.012-0.036,0.016c-0.059,0.022-0.146,0.056-0.2,0.148l-0.02,0.053c-0.013,0.074,0.004,0.132,0.015,0.179
		c0,0.021-0.002,0.061,0.014,0.104c0.026,0.076,0.092,0.14,0.169,0.172c0,0.012,0,0.022,0.004,0.034
		c-0.014,0-0.025,0.002-0.035,0.002c-0.074,0.015-0.118,0.062-0.155,0.111c-0.019-0.016-0.039-0.03-0.052-0.036
		c-0.007-0.011-0.014-0.024-0.021-0.038c-0.023-0.031-0.05-0.056-0.078-0.08c-0.004-0.006-0.01-0.013-0.015-0.02
		c0.004-0.014,0.009-0.028,0.011-0.045l0.004-0.03l-0.004-0.028c-0.007-0.027-0.021-0.068-0.056-0.1v-0.068l-0.073-0.049
		l-0.086-0.032l-0.121,0.008l-0.014,0.019c-0.015,0.002-0.034,0.006-0.052,0.012c-0.068,0.022-0.17,0.107-0.199,0.177
		c-0.012,0.028-0.016,0.057-0.018,0.083c-0.023,0.008-0.05,0.008-0.072,0.019c-0.026,0.017-0.048,0.036-0.062,0.054
		c-0.121,0.027-0.148,0.122-0.155,0.162c0,0.02,0,0.041,0,0.058c-0.014,0.024-0.028,0.054-0.035,0.089l-0.009,0.062l0.033,0.053
		c0.045,0.07,0.12,0.115,0.205,0.115l0,0c0.053,0,0.103-0.018,0.157-0.039c0.002,0.002,0.002,0.011,0.003,0.013l0.008,0.021
		c-0.012,0.021-0.022,0.041-0.027,0.065l-0.015,0.059l0.026,0.051c0.053,0.104,0.148,0.126,0.184,0.128
		c0.006,0.004,0.013,0.014,0.02,0.021c-0.006,0-0.011,0-0.016,0l-0.052,0.006c-0.028-0.002-0.057-0.006-0.083-0.01
		c-0.048-0.005-0.092-0.011-0.133-0.011c-0.156,0-0.238,0.075-0.277,0.138l-0.031,0.048l0.006,0.052
		c0.001,0.026,0.003,0.05,0.007,0.072c0.006,0.039,0.006,0.056-0.011,0.09c-0.02,0.036-0.049,0.091-0.046,0.163
		c0.002,0.039,0.018,0.07,0.028,0.095c-0.002,0.029,0.002,0.066,0.021,0.107c0.023,0.042,0.058,0.076,0.1,0.095
		c-0.007,0.002-0.014,0.006-0.02,0.01c-0.08,0.045-0.118,0.111-0.154,0.177c-0.027,0.048-0.063,0.104-0.063,0.192
		c-0.019,0.021-0.045,0.039-0.093,0.06c-0.024,0.008-0.063,0.02-0.098,0.044c-0.037,0.03-0.058,0.064-0.073,0.086l-0.029,0.035
		c-0.021,0.017-0.053,0.041-0.078,0.08c-0.019,0.033-0.026,0.062-0.043,0.103c-0.018,0.017-0.046,0.041-0.071,0.079
		c-0.017,0.026-0.025,0.053-0.035,0.084c-0.007,0.013-0.015,0.02-0.021,0.029c-0.032,0.041-0.084,0.108-0.071,0.207
		c0.005,0.046,0.023,0.081,0.041,0.107l0.002,0.026c0.001,0.053,0.021,0.093,0.022,0.107c-0.01,0.021-0.018,0.041-0.024,0.064
		c-0.009,0.028-0.009,0.047-0.005,0.045c-0.023,0.028-0.067,0.081-0.069,0.16C13.108,14.394,13.124,14.431,13.138,14.457z
		 M24.664,16.204c-0.002-0.004-0.004-0.008-0.007-0.012c0.005,0,0.007,0.004,0.011,0.004l0.014-0.002
		C24.677,16.196,24.67,16.2,24.664,16.204z M24.016,16.07l-0.002-0.002l0.019,0.002c0.046,0,0.085-0.015,0.083-0.023l0.068,0.002
		l0.047-0.039c0.001,0.033,0.007,0.062,0.018,0.087c-0.023,0-0.043,0-0.069,0.006l-0.045-0.004c-0.017,0-0.027,0.007-0.04,0.009
		C24.068,16.093,24.042,16.077,24.016,16.07z M24.553,16.249c-0.023-0.021-0.053-0.037-0.082-0.049c0-0.002-0.002-0.004-0.002-0.006
		c0.023-0.002,0.045-0.011,0.064-0.025c0.022,0.015,0.042,0.037,0.052,0.072L24.553,16.249z M24.711,12.397
		c-0.04-0.049-0.096-0.101-0.141-0.136c0.005-0.008,0.007-0.018,0.008-0.026c0.004-0.012,0.007-0.023,0.007-0.033
		c0.007,0,0.009,0.004,0.02,0c0.115-0.006,0.223-0.101,0.262-0.191c0.012-0.028,0.018-0.056,0.022-0.078l0.016-0.048
		c0.003-0.012,0.006-0.028,0.011-0.042c0.007,0.006,0.016,0.01,0.02,0.014l0.021,0.053c0.005,0.011,0.01,0.021,0.017,0.033
		c-0.017,0.027-0.048,0.254-0.046,0.299c0.001,0.082,0.051,0.146,0.11,0.188c0.008,0.037,0.021,0.078,0.053,0.121
		c-0.015,0.005-0.031,0.013-0.047,0.023c-0.036,0.027-0.056,0.062-0.068,0.091l-0.007-0.021c-0.021,0-0.033-0.19-0.071-0.182
		c-0.037,0.008-0.074,0.031-0.116,0.065C24.757,12.472,24.729,12.421,24.711,12.397z M25.018,12.646v0.16c0,0-0.002,0-0.002,0.002
		l-0.039-0.134C24.986,12.664,25,12.655,25.018,12.646z"/>
	<path style="fill:#2D2D2D;" d="M25.663,6.502c0.005-0.083-0.03-0.168-0.104-0.221l-8.928-6.236c-0.089-0.06-0.207-0.06-0.294,0
		L7.396,6.293c-0.071,0.051-0.104,0.13-0.104,0.209H0v20.717h32.956V6.502H25.663z M16.478,0.782c0.157,0,0.286,0.128,0.286,0.284
		c0,0.158-0.129,0.285-0.286,0.285c-0.158,0-0.286-0.127-0.286-0.285C16.191,0.91,16.319,0.782,16.478,0.782z M15.684,1.129
		c0.034,0.411,0.374,0.737,0.794,0.737c0.423,0,0.766-0.332,0.794-0.746l7.705,5.382H7.992L15.684,1.129z M32.639,26.885H0.316
		V6.837h32.322V26.885z"/>
	<path style="fill:#2D2D2D;" d="M28.215,22.251h-0.871l-0.865,2.699l-0.156-2.699h-0.919l-0.412,1.196
		c-0.039,0.121-0.076,0.24-0.111,0.354c-0.03-0.118-0.063-0.235-0.101-0.351l-0.39-1.2h-0.927l-0.203,3.035h0.799l0.07-1.244
		c0-0.02,0-0.038,0-0.057l0.398,1.268h0.618l0.434-1.281c0.013-0.032,0.021-0.063,0.034-0.096c0.001,0.035,0.003,0.069,0.005,0.104
		l0.063,1.307h0.688h0.126h0.736l0.231-0.766h0.606l0.246,0.766h0.865h0.02h0.802v-1.003c0.026,0,0.051,0,0.075,0
		c0.407,0,0.742-0.117,0.97-0.34c0.183-0.177,0.28-0.43,0.28-0.729c0-0.289-0.119-0.555-0.325-0.726
		c-0.209-0.174-0.504-0.259-0.901-0.259c-0.299,0-0.562,0.021-0.781,0.059l-0.139,0.024v2.913L28.215,22.251z M27.765,23.438
		l0.118,0.375h-0.236L27.765,23.438z M30.003,23.564v-0.616c0.033-0.002,0.072-0.002,0.12-0.002c0.38,0,0.38,0.217,0.38,0.289
		C30.503,23.544,30.192,23.57,30.003,23.564z"/>
	<rect x="1.306" y="21.163" style="fill:#2D2D2D;" width="4.927" height="0.334"/>
	<rect x="1.306" y="22.834" style="fill:#2D2D2D;" width="0.168" height="0.333"/>
	<rect x="2.533" y="22.834" style="fill:#2D2D2D;" width="0.352" height="0.333"/>
	<rect x="3.24" y="22.834" style="fill:#2D2D2D;" width="0.353" height="0.333"/>
	<rect x="1.826" y="22.834" style="fill:#2D2D2D;" width="0.354" height="0.333"/>
	<rect x="3.946" y="22.834" style="fill:#2D2D2D;" width="0.354" height="0.333"/>
	<rect x="5.36" y="22.834" style="fill:#2D2D2D;" width="0.353" height="0.333"/>
	<rect x="4.652" y="22.834" style="fill:#2D2D2D;" width="0.355" height="0.333"/>
	<rect x="6.066" y="22.834" style="fill:#2D2D2D;" width="0.166" height="0.333"/>
	<rect x="1.265" y="24.565" style="fill:#2D2D2D;" width="2.004" height="0.334"/>
	<rect x="4.188" y="24.565" style="fill:#2D2D2D;" width="2.003" height="0.334"/>
</g>
<g>
</g>
<g>
</g>
<g>
</g>
<g>
</g>
<g>
</g>
<g>
</g>
<g>
</g>
<g>
</g>
<g>
</g>
<g>
</g>
<g>
</g>
<g>
</g>
<g>
</g>
<g>
</g>
<g>
</g>
</svg>
