<?xml version="1.0" encoding="utf-8"?>
<!-- Generator: Adobe Illustrator 16.0.4, SVG Export Plug-In . SVG Version: 6.00 Build 0)  -->
<!DOCTYPE svg PUBLIC "-//W3C//DTD SVG 1.1//EN" "http://www.w3.org/Graphics/SVG/1.1/DTD/svg11.dtd">
<svg version="1.1" id="Capa_1" xmlns="http://www.w3.org/2000/svg" xmlns:xlink="http://www.w3.org/1999/xlink" x="0px" y="0px"
	 width="29.109px" height="40.898px" viewBox="0 0 29.109 40.898" enable-background="new 0 0 29.109 40.898" xml:space="preserve">
<path fill="#1D1D1B" d="M28.198,24.627c0,1.775-1.446,3.221-3.22,3.221H3.223C1.446,27.847,0,26.402,0,24.627
	c0-1.779,1.446-3.225,3.225-3.225h21.755C26.752,21.402,28.197,22.847,28.198,24.627z M29.075,16.48
	c-0.062-0.139-0.201-0.227-0.354-0.227h-1.787v-2.815c0-0.215-0.175-0.388-0.391-0.388h-1.444c-0.218,0-0.39,0.173-0.39,0.388v2.815
	h-1.789c-0.002,0-0.002,0-0.002,0c-0.215,0-0.39,0.174-0.39,0.388c0,0.112,0.049,0.214,0.124,0.284l2.876,3.324
	c0.073,0.085,0.181,0.134,0.292,0.134c0.113,0,0.221-0.048,0.295-0.134l2.898-3.354C29.114,16.781,29.136,16.618,29.075,16.48z"/>
</svg>
