<?xml version="1.0" encoding="utf-8"?>
<!-- Generator: Adobe Illustrator 16.0.4, SVG Export Plug-In . SVG Version: 6.00 Build 0)  -->
<!DOCTYPE svg PUBLIC "-//W3C//DTD SVG 1.1//EN" "http://www.w3.org/Graphics/SVG/1.1/DTD/svg11.dtd">
<svg version="1.1" id="Capa_1" xmlns="http://www.w3.org/2000/svg" xmlns:xlink="http://www.w3.org/1999/xlink" x="0px" y="0px"
	 width="28.199px" height="38.898px" viewBox="0 0 28.199 38.898" enable-background="new 0 0 28.199 38.898" xml:space="preserve">
<path fill="#1D1D1B" d="M24.975,20.404H3.222C1.445,20.404,0,21.847,0,23.627c0,1.775,1.445,3.221,3.222,3.221h21.752
	c1.776,0,3.225-1.443,3.225-3.221C28.199,21.847,26.751,20.404,24.975,20.404z M24.975,26.244h-9
	c0.975-0.475,1.647-1.463,1.647-2.617c0-1.156-0.677-2.145-1.647-2.619h9c1.444,0,2.618,1.174,2.618,2.619
	C27.593,25.07,26.419,26.244,24.975,26.244z M12.986,15.927c-0.076-0.071-0.124-0.172-0.124-0.285c0-0.214,0.173-0.388,0.387-0.388
	c0.002,0,0.004,0,0.004,0h1.79v-2.815c-0.001-0.216,0.171-0.389,0.385-0.389h1.45c0.213,0,0.388,0.173,0.386,0.389v2.814h1.788
	c0.152,0,0.289,0.088,0.353,0.227c0.062,0.139,0.039,0.301-0.057,0.416l-2.902,3.354c-0.072,0.085-0.182,0.134-0.293,0.134
	s-0.221-0.049-0.293-0.134L12.986,15.927z"/>
</svg>
