<?xml version="1.0" encoding="utf-8"?>
<!-- Generator: Adobe Illustrator 16.0.4, SVG Export Plug-In . SVG Version: 6.00 Build 0)  -->
<!DOCTYPE svg PUBLIC "-//W3C//DTD SVG 1.1//EN" "http://www.w3.org/Graphics/SVG/1.1/DTD/svg11.dtd">
<svg version="1.1" id="Capa_1" xmlns="http://www.w3.org/2000/svg" xmlns:xlink="http://www.w3.org/1999/xlink" x="0px" y="0px"
	 width="29.109px" height="42.898px" viewBox="0 0 29.109 42.898" enable-background="new 0 0 29.109 42.898" xml:space="preserve">
<path fill="#1D1D1B" d="M29.109,25.627c0,1.775-1.447,3.221-3.224,3.221H4.131c-1.776,0-3.222-1.443-3.222-3.221
	c0-1.779,1.444-3.223,3.222-3.223h21.756C27.663,22.404,29.109,23.849,29.109,25.627z M3.287,21.384
	c0.111,0,0.219-0.049,0.292-0.134l2.872-3.324c0.078-0.071,0.124-0.172,0.124-0.285c0-0.214-0.172-0.387-0.386-0.387
	c-0.001,0-0.003,0-0.005,0H4.397v-2.815c0-0.216-0.174-0.389-0.389-0.389H2.561c-0.213,0-0.388,0.173-0.388,0.389v2.815H0.387
	c-0.153,0-0.291,0.087-0.354,0.227c-0.061,0.138-0.039,0.3,0.062,0.415l2.896,3.354C3.066,21.335,3.174,21.384,3.287,21.384z"/>
</svg>
