<?xml version="1.0" encoding="iso-8859-1"?>
<!-- Generator: Adobe Illustrator 16.0.0, SVG Export Plug-In . SVG Version: 6.00 Build 0)  -->
<!DOCTYPE svg PUBLIC "-//W3C//DTD SVG 1.1//EN" "http://www.w3.org/Graphics/SVG/1.1/DTD/svg11.dtd">
<svg version="1.1" id="Capa_1" xmlns="http://www.w3.org/2000/svg" xmlns:xlink="http://www.w3.org/1999/xlink" x="0px" y="0px"
	 width="24.67px" height="25.874px" viewBox="0 0 24.67 25.874" style="enable-background:new 0 0 24.67 25.874;"
	 xml:space="preserve">
<g>
	<g>
		<path style="fill:#2D2D2D;" d="M0.693,23.146h12.363c-0.116-0.447-0.185-0.909-0.204-1.386H1.387V4.18h17.58v10.634
			c0.189-0.017,0.38-0.029,0.572-0.029c0.276,0,0.545,0.021,0.812,0.054V3.488c0-0.382-0.31-0.693-0.692-0.693H0.693
			C0.311,2.794,0,3.105,0,3.488v18.965C0,22.836,0.311,23.146,0.693,23.146z"/>
		<path style="fill:#2D2D2D;" d="M13.834,21.76h-0.981c0.02,0.477,0.088,0.939,0.204,1.386h1.011
			C13.933,22.705,13.856,22.24,13.834,21.76z"/>
	</g>
	<g>
		<path style="fill:#2D2D2D;" d="M18.974,14.48c-3.141,0-5.695,2.556-5.695,5.696c0,3.141,2.555,5.697,5.695,5.697
			c3.143,0,5.696-2.556,5.696-5.697C24.67,17.036,22.116,14.48,18.974,14.48z M18.974,25.04c-2.682,0-4.863-2.182-4.863-4.863
			c0-2.681,2.182-4.862,4.863-4.862c2.681,0,4.863,2.182,4.863,4.862C23.837,22.858,21.654,25.04,18.974,25.04z"/>
		<path style="fill:#2D2D2D;" d="M17.77,17.021c-0.104-0.07-0.238-0.078-0.347-0.02c-0.111,0.058-0.182,0.172-0.182,0.297v5.756
			c0,0.125,0.07,0.24,0.182,0.297c0.05,0.026,0.103,0.04,0.157,0.04c0.065,0,0.133-0.021,0.189-0.059l4.195-2.878
			c0.092-0.063,0.148-0.167,0.148-0.278c0-0.11-0.057-0.214-0.148-0.277L17.77,17.021z"/>
	</g>
	<g>
		<g>
			<path style="fill:#2D2D2D;" d="M9.125,9.119c-2.108,0-3.817,1.709-3.817,3.817s1.709,3.817,3.817,3.817s3.816-1.709,3.816-3.817
				H9.125V9.119z"/>
		</g>
		<g>
			<path style="fill:#2D2D2D;" d="M10.25,7.994v3.817h3.817C14.067,9.703,12.358,7.994,10.25,7.994z"/>
		</g>
	</g>
	<path style="fill:#2D2D2D;" d="M22.762,0H3.794c-0.382,0-0.69,0.31-0.69,0.692v2.425h1.384V1.385h17.58v14.378l1.385,1.246V0.692
		C23.452,0.31,23.142,0,22.762,0z"/>
</g>
<g>
</g>
<g>
</g>
<g>
</g>
<g>
</g>
<g>
</g>
<g>
</g>
<g>
</g>
<g>
</g>
<g>
</g>
<g>
</g>
<g>
</g>
<g>
</g>
<g>
</g>
<g>
</g>
<g>
</g>
</svg>
