<?xml version="1.0" encoding="iso-8859-1"?>
<!-- Generator: Adobe Illustrator 16.0.0, SVG Export Plug-In . SVG Version: 6.00 Build 0)  -->
<!DOCTYPE svg PUBLIC "-//W3C//DTD SVG 1.1//EN" "http://www.w3.org/Graphics/SVG/1.1/DTD/svg11.dtd">
<svg version="1.1" id="Capa_1" xmlns="http://www.w3.org/2000/svg" xmlns:xlink="http://www.w3.org/1999/xlink" x="0px" y="0px"
	 width="25.074px" height="28.459px" viewBox="0 0 25.074 28.459" style="enable-background:new 0 0 25.074 28.459;"
	 xml:space="preserve">
<g>
	<path style="fill:#2D2D2D;" d="M8.695,2.408c0,1.327-1.077,2.409-2.408,2.409S3.879,3.735,3.879,2.408C3.879,1.08,4.957,0,6.287,0
		S8.695,1.08,8.695,2.408z"/>
	<g>
		<path style="fill:#2D2D2D;" d="M15.743,13.576H9.391v-2.295h15.471v2.295h-6.387v14.883h-2.732V13.576z"/>
	</g>
	<path style="fill:#2D2D2D;" d="M12.715,10.639L12.715,10.639c0.003,0,0.007,0,0.012,0c0.834,0,1.511-0.677,1.511-1.512
		c0-0.831-0.677-1.508-1.509-1.508c-0.006,0-0.01,0-0.014,0H7.136l0.3-2.052c0-0.194-0.156-0.349-0.345-0.349H4.459
		c-0.191,0-0.345,0.154-0.345,0.349L0,18.005c0,0.191,0.155,0.346,0.344,0.346h9.221l-0.006,8.461c0,0.912,0.749,1.647,1.669,1.647
		c0.923,0,1.668-0.735,1.668-1.647l-0.009-11.437c0-0.189-0.157-0.348-0.348-0.348H6.063l0.638-4.389H12.715z"/>
	<g>
		<path style="fill:#2D2D2D;" d="M4.122,20.416H0.78V19.21h8.139v1.206h-3.36v7.832H4.122V20.416z"/>
	</g>
	<polygon style="fill:#2D2D2D;" points="25.074,4.968 24.054,4.392 21.026,9.745 14.896,9.745 14.896,10.918 21.734,10.918 
		21.734,10.877 	"/>
</g>
<g>
</g>
<g>
</g>
<g>
</g>
<g>
</g>
<g>
</g>
<g>
</g>
<g>
</g>
<g>
</g>
<g>
</g>
<g>
</g>
<g>
</g>
<g>
</g>
<g>
</g>
<g>
</g>
<g>
</g>
</svg>
